G04*
G04 #@! TF.GenerationSoftware,Altium Limited,Altium Designer,24.9.1 (31)*
G04*
G04 Layer_Physical_Order=1*
G04 Layer_Color=255*
%FSLAX44Y44*%
%MOMM*%
G71*
G04*
G04 #@! TF.SameCoordinates,5A5FE6A1-42EB-4B62-8C37-2C097A76047A*
G04*
G04*
G04 #@! TF.FilePolarity,Positive*
G04*
G01*
G75*
%ADD12C,0.1500*%
G04:AMPARAMS|DCode=14|XSize=0.65mm|YSize=0.6mm|CornerRadius=0.15mm|HoleSize=0mm|Usage=FLASHONLY|Rotation=0.000|XOffset=0mm|YOffset=0mm|HoleType=Round|Shape=RoundedRectangle|*
%AMROUNDEDRECTD14*
21,1,0.6500,0.3000,0,0,0.0*
21,1,0.3500,0.6000,0,0,0.0*
1,1,0.3000,0.1750,-0.1500*
1,1,0.3000,-0.1750,-0.1500*
1,1,0.3000,-0.1750,0.1500*
1,1,0.3000,0.1750,0.1500*
%
%ADD14ROUNDEDRECTD14*%
G04:AMPARAMS|DCode=15|XSize=0.65mm|YSize=0.6mm|CornerRadius=0.15mm|HoleSize=0mm|Usage=FLASHONLY|Rotation=270.000|XOffset=0mm|YOffset=0mm|HoleType=Round|Shape=RoundedRectangle|*
%AMROUNDEDRECTD15*
21,1,0.6500,0.3000,0,0,270.0*
21,1,0.3500,0.6000,0,0,270.0*
1,1,0.3000,-0.1500,-0.1750*
1,1,0.3000,-0.1500,0.1750*
1,1,0.3000,0.1500,0.1750*
1,1,0.3000,0.1500,-0.1750*
%
%ADD15ROUNDEDRECTD15*%
%ADD16R,0.2000X0.7000*%
%ADD17R,0.7000X0.2000*%
%ADD18R,1.6000X0.8000*%
%ADD19R,3.0000X2.1000*%
%ADD28C,0.2200*%
G04:AMPARAMS|DCode=29|XSize=0.8mm|YSize=0.6mm|CornerRadius=0.15mm|HoleSize=0mm|Usage=FLASHONLY|Rotation=0.000|XOffset=0mm|YOffset=0mm|HoleType=Round|Shape=RoundedRectangle|*
%AMROUNDEDRECTD29*
21,1,0.8000,0.3000,0,0,0.0*
21,1,0.5000,0.6000,0,0,0.0*
1,1,0.3000,0.2500,-0.1500*
1,1,0.3000,-0.2500,-0.1500*
1,1,0.3000,-0.2500,0.1500*
1,1,0.3000,0.2500,0.1500*
%
%ADD29ROUNDEDRECTD29*%
G04:AMPARAMS|DCode=30|XSize=0.8mm|YSize=0.6mm|CornerRadius=0.15mm|HoleSize=0mm|Usage=FLASHONLY|Rotation=90.000|XOffset=0mm|YOffset=0mm|HoleType=Round|Shape=RoundedRectangle|*
%AMROUNDEDRECTD30*
21,1,0.8000,0.3000,0,0,90.0*
21,1,0.5000,0.6000,0,0,90.0*
1,1,0.3000,0.1500,0.2500*
1,1,0.3000,0.1500,-0.2500*
1,1,0.3000,-0.1500,-0.2500*
1,1,0.3000,-0.1500,0.2500*
%
%ADD30ROUNDEDRECTD30*%
%ADD31C,0.4000*%
%ADD32C,0.5000*%
%ADD33C,1.2000*%
%ADD34C,4.0000*%
%ADD35C,0.4000*%
G36*
X69241Y462500D02*
X68986Y462449D01*
X68126Y461875D01*
X68125Y461874D01*
X53751Y447500D01*
X53304D01*
X51855Y448524D01*
X51826Y448671D01*
X51163Y449663D01*
X50170Y450326D01*
X49000Y450559D01*
X45500D01*
X44330Y450326D01*
X43505Y449775D01*
X43318Y449666D01*
X41723Y449948D01*
X41413Y450413D01*
X40076Y451306D01*
X38500Y451619D01*
X38020D01*
Y446000D01*
X36750D01*
Y444730D01*
X30881D01*
Y444500D01*
X31194Y442924D01*
X32087Y441587D01*
X32141Y441551D01*
X32592Y440976D01*
X31811Y439651D01*
X27000D01*
X25986Y439449D01*
X25126Y438875D01*
X25126Y438874D01*
X21126Y434874D01*
X20551Y434015D01*
X20349Y433000D01*
X20349Y433000D01*
Y407000D01*
X20349Y407000D01*
X20551Y405985D01*
X21126Y405126D01*
X27125Y399126D01*
X27125Y399126D01*
X27985Y398551D01*
X29000Y398349D01*
X29000Y398349D01*
X39561D01*
X40563Y396849D01*
X40500Y396696D01*
Y395304D01*
X41033Y394017D01*
X42017Y393033D01*
X43304Y392500D01*
X44696D01*
X44707Y392504D01*
X45487Y392349D01*
X45487Y392349D01*
X48347D01*
X49246Y391175D01*
X48993Y389683D01*
X48587Y389413D01*
X47694Y388076D01*
X47381Y386500D01*
Y386270D01*
X54000D01*
X60619D01*
Y386500D01*
X60306Y388076D01*
X59413Y389413D01*
X58948Y389723D01*
X58666Y391318D01*
X58775Y391505D01*
X59326Y392329D01*
X59559Y393500D01*
Y396500D01*
X59326Y397671D01*
X58663Y398663D01*
X57670Y399326D01*
X56500Y399559D01*
X51500D01*
X50329Y399326D01*
X49337Y398663D01*
X48674Y397671D01*
X48670Y397651D01*
X47105D01*
X46967Y397983D01*
X46853Y398096D01*
X46002Y398992D01*
X46829Y400080D01*
X49124Y402375D01*
X49699Y403236D01*
X49901Y404250D01*
X50008Y405642D01*
X50170Y405674D01*
X51163Y406337D01*
X51826Y407329D01*
X51830Y407349D01*
X57000D01*
X57000Y407349D01*
X58014Y407551D01*
X58875Y408125D01*
X63849Y413100D01*
X64296D01*
X64302Y413102D01*
X65549Y412269D01*
Y383242D01*
X65349Y382236D01*
X65349Y382236D01*
Y370439D01*
X63849Y369437D01*
X63696Y369500D01*
X62304D01*
X61017Y368967D01*
X59675Y369326D01*
X59413Y370587D01*
X60306Y371924D01*
X60619Y373500D01*
Y373980D01*
X55000D01*
X49381D01*
Y373500D01*
X49694Y371924D01*
X50587Y370587D01*
X51052Y370277D01*
X51334Y368682D01*
X51225Y368495D01*
X50674Y367671D01*
X50441Y366500D01*
Y363000D01*
X50674Y361829D01*
X51337Y360837D01*
X50641Y359949D01*
X50587Y359913D01*
X49694Y358576D01*
X49381Y357000D01*
Y356520D01*
X55000D01*
Y353980D01*
X49381D01*
Y353500D01*
X49694Y351924D01*
X50587Y350587D01*
X51052Y350277D01*
X51334Y348682D01*
X51225Y348495D01*
X50674Y347671D01*
X50441Y346500D01*
Y343000D01*
X50674Y341829D01*
X51337Y340837D01*
X51334Y340221D01*
X51114Y339182D01*
X50505Y338775D01*
X50318Y338666D01*
X48723Y338948D01*
X48413Y339413D01*
X47076Y340306D01*
X45500Y340619D01*
X45020D01*
Y335000D01*
X43750D01*
Y333730D01*
X37881D01*
Y333500D01*
X38194Y331924D01*
X39087Y330587D01*
X39741Y330151D01*
X39285Y328651D01*
X39000D01*
X39000Y328651D01*
X37985Y328449D01*
X37125Y327874D01*
X32125Y322874D01*
X31551Y322015D01*
X31349Y321000D01*
X31349Y321000D01*
Y284000D01*
X31349Y284000D01*
X31551Y282985D01*
X32125Y282125D01*
X33131Y281120D01*
X34125Y280126D01*
X34125Y280126D01*
X34986Y279551D01*
X36000Y279349D01*
X36000Y279349D01*
X37439D01*
X37839Y278395D01*
X37899Y277849D01*
X37033Y276983D01*
X36500Y275696D01*
Y274304D01*
X37033Y273017D01*
X38017Y272033D01*
X39304Y271500D01*
X40696D01*
X41983Y272033D01*
X42967Y273017D01*
X43500Y274304D01*
Y275696D01*
X42967Y276983D01*
X42101Y277849D01*
X42161Y278395D01*
X42561Y279349D01*
X50000D01*
X50000Y279349D01*
X51014Y279551D01*
X51874Y280126D01*
X54221Y282472D01*
X54796Y283333D01*
X54998Y284347D01*
X55933Y285441D01*
X56000D01*
X57171Y285674D01*
X58163Y286337D01*
X58826Y287330D01*
X59059Y288500D01*
Y291500D01*
X58826Y292670D01*
X58163Y293663D01*
Y295337D01*
X58826Y296329D01*
X59059Y297500D01*
Y300500D01*
X58826Y301670D01*
X58163Y302663D01*
X58153Y302905D01*
X59366Y304293D01*
X60957D01*
X61617Y303633D01*
X62904Y303100D01*
X64296D01*
X64849Y303329D01*
X66349Y302439D01*
Y271000D01*
X66349Y271000D01*
X66551Y269986D01*
X67126Y269125D01*
X69438Y266814D01*
X68966Y265680D01*
X68729Y265401D01*
X60380D01*
X60326Y265671D01*
X59775Y266495D01*
X59666Y266682D01*
X59948Y268277D01*
X60413Y268587D01*
X61306Y269924D01*
X61619Y271500D01*
Y271980D01*
X56000D01*
X50381D01*
Y271500D01*
X50694Y269924D01*
X51587Y268587D01*
X52052Y268277D01*
X52334Y266682D01*
X52225Y266495D01*
X51674Y265671D01*
X51441Y264500D01*
Y263630D01*
X49983Y262967D01*
X48696Y263500D01*
X47304D01*
X46017Y262967D01*
X45033Y261983D01*
X44500Y260696D01*
Y259304D01*
X44577Y259119D01*
X44566Y258918D01*
X43645Y257449D01*
X42924Y257306D01*
X41587Y256413D01*
X40694Y255076D01*
X40381Y253500D01*
Y252270D01*
X46000D01*
Y249730D01*
X40381D01*
Y248500D01*
X40694Y246924D01*
X41142Y246253D01*
X41087Y244413D01*
X40194Y243076D01*
X39881Y241500D01*
Y241270D01*
X45750D01*
Y238730D01*
X39881D01*
Y238500D01*
X40194Y236924D01*
X41087Y235587D01*
Y235413D01*
X40194Y234076D01*
X39881Y232500D01*
Y232270D01*
X45750D01*
Y229730D01*
X39881D01*
Y229500D01*
X40194Y227924D01*
X41087Y226587D01*
Y226413D01*
X40194Y225076D01*
X39881Y223500D01*
Y223270D01*
X45750D01*
Y220730D01*
X39881D01*
Y220500D01*
X40194Y218924D01*
X40335Y218714D01*
X40792Y217922D01*
X40166Y216422D01*
X39298Y216089D01*
X38669Y216097D01*
X37696Y216500D01*
X36304D01*
X35017Y215967D01*
X34033Y214983D01*
X33500Y213696D01*
Y212304D01*
X34033Y211017D01*
X34349Y210701D01*
Y189000D01*
X34349Y189000D01*
X34551Y187986D01*
X35126Y187125D01*
X38126Y184126D01*
X38126Y184125D01*
X38247Y184044D01*
X37792Y182544D01*
X9250D01*
X8372Y182369D01*
X7628Y181872D01*
X1500Y175744D01*
X0Y176366D01*
Y464000D01*
X69093D01*
X69241Y462500D01*
D02*
G37*
G36*
X157521Y441028D02*
X156924Y439505D01*
X155924Y439306D01*
X154587Y438413D01*
X154277Y437948D01*
X152682Y437666D01*
X152495Y437775D01*
X151671Y438326D01*
X150500Y438559D01*
X147000D01*
X146158Y438391D01*
X145583Y438967D01*
X144296Y439500D01*
X142904D01*
X141617Y438967D01*
X140633Y437983D01*
X140100Y436696D01*
Y435304D01*
X140633Y434017D01*
X141617Y433033D01*
X142904Y432500D01*
X143941D01*
X144174Y431329D01*
X144837Y430337D01*
Y428663D01*
X144174Y427671D01*
X143941Y426500D01*
Y423974D01*
X142070Y422102D01*
X141495Y421242D01*
X141293Y420228D01*
X141293Y420228D01*
Y419243D01*
X140633Y418583D01*
X140100Y417296D01*
Y415904D01*
X140633Y414617D01*
X141617Y413633D01*
X142059Y413450D01*
X142694Y411738D01*
X142687Y411690D01*
X142674Y411670D01*
X142441Y410500D01*
Y405500D01*
X142674Y404329D01*
X143186Y403563D01*
X143327Y403292D01*
X142990Y401765D01*
X142837Y401663D01*
X142174Y400671D01*
X141941Y399500D01*
Y397407D01*
X140202Y395667D01*
X138282D01*
X137983Y395967D01*
X136696Y396500D01*
X135304D01*
X134017Y395967D01*
X133033Y394983D01*
X132500Y393696D01*
Y392304D01*
X133033Y391017D01*
X134017Y390033D01*
X135304Y389500D01*
X136696D01*
X137983Y390033D01*
X138315Y390366D01*
X140881D01*
Y390270D01*
X146750D01*
Y387730D01*
X140881D01*
Y387500D01*
X141194Y385924D01*
X141927Y384827D01*
X141249Y383481D01*
X140091Y383330D01*
X139750Y383408D01*
X139413Y383913D01*
X138076Y384806D01*
X136500Y385119D01*
X136270D01*
Y379250D01*
X133730D01*
Y385119D01*
X133500D01*
X131924Y384806D01*
X131044Y384218D01*
X129616Y384816D01*
X129544Y384882D01*
Y398300D01*
X135622Y404378D01*
X135622Y404378D01*
X136119Y405122D01*
X136294Y406000D01*
Y432344D01*
X136967Y433017D01*
X137500Y434304D01*
Y435696D01*
X136967Y436983D01*
X135983Y437967D01*
X134696Y438500D01*
X133304D01*
X132017Y437967D01*
X131033Y436983D01*
X130500Y435696D01*
Y434304D01*
X131033Y433017D01*
X131706Y432344D01*
Y406950D01*
X125628Y400872D01*
X125131Y400128D01*
X124956Y399250D01*
Y378200D01*
X116523Y369768D01*
X115917Y369851D01*
X115023Y370295D01*
Y406274D01*
X118874Y410125D01*
X118875Y410126D01*
X119449Y410985D01*
X119651Y412000D01*
Y421902D01*
X120874Y423125D01*
X120875Y423125D01*
X121449Y423985D01*
X121651Y425000D01*
Y430000D01*
X121651Y430000D01*
X121449Y431015D01*
X120875Y431875D01*
X120874Y431875D01*
X116500Y436249D01*
Y436696D01*
X115967Y437983D01*
X114983Y438967D01*
X113696Y439500D01*
X112304D01*
X111017Y438967D01*
X110033Y437983D01*
X109500Y436696D01*
Y435304D01*
X110033Y434017D01*
X111017Y433033D01*
X112304Y432500D01*
X112751D01*
X114432Y430819D01*
X113800Y429686D01*
X113630Y429500D01*
X112304D01*
X111017Y428967D01*
X110033Y427983D01*
X109500Y426696D01*
Y425304D01*
X110033Y424017D01*
X110349Y423701D01*
Y414331D01*
X107043Y411024D01*
X106087Y411245D01*
X105543Y411601D01*
Y419624D01*
X105543Y419624D01*
X105341Y420639D01*
X104766Y421499D01*
X104766Y421499D01*
X104469Y421796D01*
X104821Y423566D01*
X104983Y423633D01*
X105967Y424617D01*
X106500Y425904D01*
Y427296D01*
X105967Y428583D01*
X104983Y429567D01*
X103696Y430100D01*
X102304D01*
X101017Y429567D01*
X100033Y428583D01*
X99500Y427296D01*
Y426549D01*
X98645Y425694D01*
X98070Y424834D01*
X97868Y423819D01*
X97868Y423819D01*
Y421997D01*
X97868Y421997D01*
X98070Y420982D01*
X98114Y420917D01*
X98091Y420759D01*
X97282Y419462D01*
X95688D01*
X95583Y419567D01*
X94296Y420100D01*
X92950D01*
X92424Y420601D01*
X92033Y421363D01*
X92449Y421986D01*
X92651Y423000D01*
Y429600D01*
X92651Y429600D01*
X92449Y430614D01*
X91875Y431474D01*
X87100Y436249D01*
Y436696D01*
X86567Y437983D01*
X85583Y438967D01*
X84296Y439500D01*
X82904D01*
X81617Y438967D01*
X80633Y437983D01*
X80100Y436696D01*
Y435304D01*
X80633Y434017D01*
X81617Y433033D01*
X82904Y432500D01*
X83351D01*
X85032Y430819D01*
X84400Y429686D01*
X84230Y429500D01*
X82904D01*
X81617Y428967D01*
X80633Y427983D01*
X80100Y426696D01*
Y425304D01*
X80633Y424017D01*
X81617Y423033D01*
X81849Y422937D01*
Y379860D01*
X80463Y379286D01*
X76651Y383098D01*
Y419095D01*
X76449Y420109D01*
X75875Y420969D01*
X75874Y420969D01*
X75284Y421559D01*
X75577Y423031D01*
X75583Y423033D01*
X76567Y424017D01*
X77100Y425304D01*
Y426696D01*
X76567Y427983D01*
X75583Y428967D01*
X74296Y429500D01*
X72904D01*
X71737Y430297D01*
Y431695D01*
X72917Y432500D01*
X74296D01*
X75583Y433033D01*
X76567Y434017D01*
X77100Y435304D01*
Y436696D01*
X76615Y437866D01*
X82098Y443349D01*
X155200D01*
X157521Y441028D01*
D02*
G37*
G36*
X173349Y425200D02*
Y401722D01*
X172515Y401261D01*
X171849Y401022D01*
X170696Y401500D01*
X169304D01*
X168017Y400967D01*
X167701Y400651D01*
X162111D01*
X161267Y401918D01*
X161742Y403080D01*
X162306Y403924D01*
X162619Y405500D01*
Y406730D01*
X157000D01*
Y409270D01*
X162619D01*
Y410500D01*
X162306Y412076D01*
X161413Y413413D01*
X160076Y414306D01*
X158500Y414619D01*
X157426D01*
X156424Y416119D01*
X156500Y416304D01*
Y417696D01*
X156340Y418082D01*
X157419Y419397D01*
X157500Y419381D01*
X157980D01*
Y425000D01*
X159250D01*
Y426270D01*
X165119D01*
Y426500D01*
X164806Y428076D01*
X163913Y429413D01*
Y429587D01*
X164806Y430924D01*
X164921Y431507D01*
X166549Y432000D01*
X173349Y425200D01*
D02*
G37*
G36*
X240000Y443000D02*
X274000D01*
Y346137D01*
X272540Y346040D01*
Y346040D01*
X256270D01*
Y333000D01*
Y319960D01*
X272540D01*
Y319960D01*
X274000Y319863D01*
Y120136D01*
X272540Y120040D01*
Y120040D01*
X256270D01*
Y107000D01*
X255000D01*
Y105730D01*
X237460D01*
Y93960D01*
X239000D01*
Y0D01*
X114487D01*
X114032Y1500D01*
X114163Y1587D01*
X115056Y2924D01*
X115369Y4500D01*
Y4730D01*
X109500D01*
Y6000D01*
X108230D01*
Y11619D01*
X107750D01*
X106174Y11306D01*
X104837Y10413D01*
X104527Y9948D01*
X102932Y9666D01*
X102745Y9775D01*
X101921Y10326D01*
X101651Y11200D01*
X101479Y12067D01*
X101847Y12578D01*
X102569Y13239D01*
X102904Y13100D01*
X104296D01*
X105583Y13633D01*
X106567Y14617D01*
X107100Y15904D01*
Y17296D01*
X106567Y18583D01*
X105583Y19567D01*
X104296Y20100D01*
X103344D01*
X101306Y22138D01*
X102156Y23410D01*
X102904Y23100D01*
X104296D01*
X105583Y23633D01*
X106567Y24617D01*
X107100Y25904D01*
Y27296D01*
X106567Y28583D01*
X105894Y29256D01*
Y51779D01*
X105719Y52657D01*
X105222Y53402D01*
X91752Y66872D01*
X91007Y67369D01*
X90129Y67544D01*
X78699D01*
X78699Y67544D01*
X77821Y67369D01*
X77794Y67351D01*
X76294Y68153D01*
Y79544D01*
X79449Y82699D01*
X80921Y82182D01*
X80949Y82159D01*
Y80400D01*
X80949Y80400D01*
X81151Y79386D01*
X81726Y78526D01*
X90525Y69726D01*
X90526Y69725D01*
X91385Y69151D01*
X92400Y68949D01*
X176833D01*
X176833Y68949D01*
X177847Y69151D01*
X178707Y69725D01*
X212202Y103220D01*
X212202Y103221D01*
X212777Y104080D01*
X212978Y105095D01*
X212978Y105095D01*
Y143997D01*
X215000Y146018D01*
X216500Y145397D01*
X216500Y140109D01*
X215460Y139040D01*
X215460Y138431D01*
Y133770D01*
X226000D01*
X236540D01*
Y138431D01*
X236540Y139040D01*
X235500Y140109D01*
X235500Y140540D01*
Y150500D01*
X222830D01*
X222405Y151250D01*
X222830Y152000D01*
X235500D01*
Y163000D01*
X216500D01*
Y155751D01*
X213100D01*
X213100Y155751D01*
X212085Y155549D01*
X211225Y154974D01*
X211225Y154974D01*
X204753Y148502D01*
X204178Y147642D01*
X203212Y147362D01*
X202580Y147294D01*
X200620Y148798D01*
X198212Y149795D01*
X195627Y150135D01*
Y150101D01*
X193600D01*
Y150105D01*
X192932Y150382D01*
X192655Y151050D01*
X192651D01*
Y155652D01*
X208748Y171749D01*
X216500D01*
Y164500D01*
X235500D01*
Y175500D01*
X222830D01*
X222405Y176250D01*
X222830Y177000D01*
X235500D01*
Y188000D01*
X216500D01*
Y180751D01*
X206118D01*
X206117Y180751D01*
X205103Y180549D01*
X204243Y179974D01*
X204243Y179974D01*
X195469Y171201D01*
X194198Y172050D01*
X194656Y173158D01*
X194997Y175743D01*
X194656Y178327D01*
X193979Y179963D01*
X194655Y180660D01*
X195189Y180962D01*
X196304Y180500D01*
X197696D01*
X198983Y181033D01*
X199967Y182017D01*
X200500Y183304D01*
Y184696D01*
X199967Y185983D01*
X198983Y186967D01*
X197696Y187500D01*
X196304D01*
X195017Y186967D01*
X194033Y185983D01*
X193500Y184696D01*
Y183406D01*
X193397Y183316D01*
X192072Y182803D01*
X190004Y184390D01*
X187596Y185388D01*
X187517Y185398D01*
X187219Y185844D01*
X186852Y187689D01*
X187204Y189455D01*
X190917Y193168D01*
X190917Y193168D01*
X194498Y196749D01*
X216500D01*
Y189500D01*
X235500D01*
Y200500D01*
X222830D01*
X222405Y201250D01*
X222830Y202000D01*
X235500D01*
Y213000D01*
X216500D01*
Y205751D01*
X191868D01*
X191867Y205751D01*
X190853Y205549D01*
X189993Y204974D01*
X189993Y204974D01*
X183000Y197981D01*
X181500Y198603D01*
Y198696D01*
X180967Y199983D01*
X179983Y200967D01*
X178696Y201500D01*
X177304D01*
X176017Y200967D01*
X175033Y199983D01*
X174500Y198696D01*
Y197304D01*
X175033Y196017D01*
X176017Y195033D01*
X177304Y194500D01*
X177983D01*
X179016Y193181D01*
X179032Y193114D01*
X178272Y191279D01*
X177799Y187689D01*
X178272Y184098D01*
X179658Y180752D01*
X181757Y178017D01*
X181757Y178017D01*
X181803Y177984D01*
X183275Y177001D01*
X184092Y176838D01*
X184734Y175428D01*
X184308Y174793D01*
X181300D01*
Y174828D01*
X178716Y174488D01*
X176307Y173490D01*
X174239Y171903D01*
X172652Y169835D01*
X171655Y167427D01*
X171315Y164843D01*
X171315D01*
X171111Y163676D01*
X169692Y163258D01*
X168983Y163967D01*
X167696Y164500D01*
X166304D01*
X165017Y163967D01*
X164033Y162983D01*
X163895Y162651D01*
X162051D01*
X161392Y163970D01*
X162043Y164840D01*
X162413Y165087D01*
X163306Y166424D01*
X163619Y168000D01*
Y168480D01*
X158000D01*
Y171020D01*
X163619D01*
Y171500D01*
X163306Y173076D01*
X162413Y174413D01*
X161948Y174723D01*
X161666Y176318D01*
X161775Y176505D01*
X162326Y177330D01*
X162559Y178500D01*
Y182000D01*
X162439Y182600D01*
X163208Y183945D01*
X163463Y184169D01*
X164583Y184633D01*
X165567Y185617D01*
X166100Y186904D01*
Y188296D01*
X165567Y189583D01*
X165251Y189899D01*
Y192502D01*
X174874Y202125D01*
X174874Y202125D01*
X175449Y202985D01*
X175651Y204000D01*
Y219347D01*
X176825Y220246D01*
X178317Y219993D01*
X178587Y219587D01*
X179924Y218694D01*
X181500Y218381D01*
X181730D01*
Y225000D01*
Y231619D01*
X181500D01*
X179924Y231306D01*
X178587Y230413D01*
X178277Y229948D01*
X176682Y229666D01*
X176495Y229775D01*
X175671Y230326D01*
X174500Y230559D01*
X171500D01*
X170329Y230326D01*
X169337Y229663D01*
X168674Y228671D01*
X168441Y227500D01*
Y222500D01*
X168674Y221329D01*
X169337Y220337D01*
X170329Y219674D01*
X170349Y219670D01*
Y205098D01*
X160725Y195474D01*
X160151Y194615D01*
X159949Y193600D01*
X159949Y193600D01*
Y189899D01*
X159633Y189583D01*
X159100Y188296D01*
Y186904D01*
X159243Y186559D01*
X158241Y185059D01*
X156500D01*
X155330Y184826D01*
X154337Y184163D01*
X152663D01*
X151671Y184826D01*
X150500Y185059D01*
X149991D01*
X149726Y186419D01*
X149651Y186798D01*
Y192713D01*
X149651Y192713D01*
X149449Y193727D01*
X148875Y194587D01*
X148874Y194587D01*
X147100Y196362D01*
Y197296D01*
X146567Y198583D01*
X145583Y199567D01*
X144296Y200100D01*
X142904D01*
X141617Y199567D01*
X140633Y198583D01*
X140100Y197296D01*
Y195904D01*
X140633Y194617D01*
X141617Y193633D01*
X142836Y193128D01*
X144349Y191615D01*
Y186495D01*
X144349Y186495D01*
X144424Y186116D01*
Y184641D01*
X144424Y184641D01*
X144626Y183627D01*
X144696Y183522D01*
Y183203D01*
X144674Y183171D01*
X144441Y182000D01*
Y178500D01*
X144463Y178392D01*
X143148Y177313D01*
X142696Y177500D01*
X141889D01*
X140870Y178266D01*
X140559Y178815D01*
Y182000D01*
X140326Y183171D01*
X139663Y184163D01*
X139651Y184171D01*
Y192713D01*
X139651Y192713D01*
X139449Y193727D01*
X138875Y194587D01*
X138874Y194587D01*
X137100Y196362D01*
Y197296D01*
X136567Y198583D01*
X135583Y199567D01*
X134416Y200050D01*
X134132Y200644D01*
X133844Y201600D01*
X135622Y203378D01*
X136119Y204122D01*
X136294Y205000D01*
Y212344D01*
X136967Y213017D01*
X137500Y214304D01*
Y215256D01*
X149472Y227228D01*
X149969Y227972D01*
X150144Y228850D01*
X150144Y228850D01*
Y245140D01*
X149969Y246017D01*
X149472Y246762D01*
X141044Y255190D01*
Y258250D01*
X140869Y259128D01*
X140372Y259872D01*
X136622Y263622D01*
X135878Y264119D01*
X135000Y264294D01*
X131950D01*
X130044Y266200D01*
Y285800D01*
X130782Y286538D01*
X130782Y286538D01*
X131280Y287282D01*
X131454Y288160D01*
X131454Y288160D01*
Y302077D01*
X132904Y303100D01*
X134296D01*
X135583Y303633D01*
X136567Y304617D01*
X137100Y305904D01*
Y307296D01*
X136567Y308583D01*
X136251Y308899D01*
Y314902D01*
X141441Y320092D01*
X142941Y319471D01*
Y318500D01*
X143174Y317330D01*
X143837Y316337D01*
Y314663D01*
X143174Y313671D01*
X142941Y312500D01*
Y310100D01*
X142904D01*
X141617Y309567D01*
X140633Y308583D01*
X140100Y307296D01*
Y305904D01*
X140633Y304617D01*
X141617Y303633D01*
X142904Y303100D01*
X144296D01*
X145583Y303633D01*
X146567Y304617D01*
X147100Y305904D01*
Y306441D01*
X149500D01*
X149794Y306273D01*
X150800Y305170D01*
Y304304D01*
X151333Y303017D01*
X152317Y302033D01*
X153349Y301605D01*
Y299529D01*
X152330Y299326D01*
X151337Y298663D01*
X150674Y297670D01*
X150441Y296500D01*
Y295146D01*
X148941Y294524D01*
X146098Y297367D01*
X146049Y297614D01*
X145475Y298475D01*
X144614Y299049D01*
X143600Y299251D01*
X142585Y299049D01*
X141726Y298475D01*
X141151Y297614D01*
X140949Y296600D01*
Y296117D01*
X140949Y296117D01*
X141151Y295102D01*
X141726Y294242D01*
X146866Y289101D01*
X145983Y287967D01*
X144696Y288500D01*
X143304D01*
X142017Y287967D01*
X141033Y286983D01*
X140500Y285696D01*
Y284304D01*
X141033Y283017D01*
X142017Y282033D01*
X143304Y281500D01*
X143751D01*
X148349Y276902D01*
Y265000D01*
X148349Y265000D01*
X148551Y263986D01*
X149125Y263125D01*
X155126Y257125D01*
X155985Y256551D01*
X157000Y256349D01*
X157000Y256349D01*
X165500D01*
X165500Y256349D01*
X166514Y256551D01*
X167374Y257125D01*
X170690Y260441D01*
X173500D01*
X174671Y260674D01*
X175663Y261337D01*
X176186Y262120D01*
X177000Y262235D01*
X177814Y262120D01*
X178337Y261337D01*
X179329Y260674D01*
X180500Y260441D01*
X184000D01*
X185170Y260674D01*
X186163Y261337D01*
X186826Y262330D01*
X186830Y262349D01*
X189000D01*
X189000Y262349D01*
X190014Y262551D01*
X190875Y263125D01*
X193874Y266126D01*
X193874Y266126D01*
X194449Y266985D01*
X194651Y268000D01*
X194651Y268000D01*
Y274426D01*
X194801Y274711D01*
X194849Y274740D01*
X196349Y273891D01*
Y255289D01*
X196349Y255289D01*
X196551Y254274D01*
X197125Y253414D01*
X204514Y246026D01*
X204514Y246026D01*
X205374Y245451D01*
X206389Y245249D01*
X206389Y245249D01*
X216500D01*
Y239500D01*
X235500D01*
Y250500D01*
X224863D01*
X224747Y250629D01*
X225355Y252000D01*
X235500D01*
Y263000D01*
X216500D01*
Y260151D01*
X213598D01*
X206651Y267098D01*
Y272211D01*
X208151Y272833D01*
X212858Y268125D01*
X213718Y267551D01*
X214733Y267349D01*
X216500D01*
Y264500D01*
X235500D01*
Y275500D01*
X216500D01*
Y274103D01*
X215000Y273482D01*
X211651Y276831D01*
Y283479D01*
X213151Y284100D01*
X214242Y283009D01*
X214242Y283009D01*
X215102Y282434D01*
X216117Y282232D01*
X216500Y280822D01*
Y277000D01*
X235500D01*
Y288000D01*
X236540Y288460D01*
Y293730D01*
X226000D01*
Y296270D01*
X236540D01*
Y301540D01*
X237901Y301876D01*
X266000D01*
X267148Y302352D01*
X267624Y303500D01*
Y314000D01*
X267148Y315148D01*
X266000Y315624D01*
X218000D01*
X216751Y316730D01*
Y325002D01*
X236074Y344325D01*
X237460Y343751D01*
Y334270D01*
X253730D01*
Y346040D01*
X239749D01*
X239175Y347426D01*
X243991Y352242D01*
X245376Y351668D01*
Y351000D01*
X245852Y349852D01*
X247000Y349376D01*
X266000D01*
X267148Y349852D01*
X267624Y351000D01*
Y368000D01*
X267148Y369148D01*
X266000Y369624D01*
X247000D01*
X246943Y369600D01*
X246671D01*
X245967Y371017D01*
X246500Y372304D01*
Y373696D01*
X245967Y374983D01*
X245651Y375299D01*
Y378000D01*
X245651Y378000D01*
X245449Y379015D01*
X244874Y379874D01*
X244874Y379875D01*
X244734Y380015D01*
X244724Y380378D01*
X245173Y381697D01*
X245983Y382033D01*
X246967Y383017D01*
X247500Y384304D01*
Y385696D01*
X246967Y386983D01*
X246651Y387299D01*
Y389360D01*
X246730D01*
Y395400D01*
Y401440D01*
X244460D01*
Y400400D01*
X237310D01*
X236333Y401900D01*
X236500Y402304D01*
Y403696D01*
X235967Y404983D01*
X234983Y405967D01*
X233696Y406500D01*
X232304D01*
X232151Y406437D01*
X231765Y406694D01*
X230967Y408017D01*
X231500Y409304D01*
Y410696D01*
X230967Y411983D01*
X229983Y412967D01*
X228696Y413500D01*
X227304D01*
X226017Y412967D01*
X225033Y411983D01*
X224500Y410696D01*
Y409304D01*
X225033Y408017D01*
X225349Y407701D01*
Y400400D01*
X222651D01*
Y404513D01*
X222651Y404513D01*
X222496Y405293D01*
X222500Y405304D01*
Y406696D01*
X221967Y407983D01*
X220983Y408967D01*
X219696Y409500D01*
X218304D01*
X217017Y408967D01*
X216033Y407983D01*
X215500Y406696D01*
Y405304D01*
X216033Y404017D01*
X217017Y403033D01*
X217349Y402896D01*
Y401440D01*
X217270D01*
Y395400D01*
Y389360D01*
X219540D01*
X220500Y388304D01*
X221033Y387017D01*
X222017Y386033D01*
X223304Y385500D01*
X224696D01*
X225983Y386033D01*
X226967Y387017D01*
X227500Y388304D01*
Y389696D01*
X227970Y390400D01*
X230787D01*
X231093Y390113D01*
X231804Y388900D01*
X231693Y388344D01*
X231693Y388344D01*
Y387643D01*
X231033Y386983D01*
X230500Y385696D01*
Y384304D01*
X231033Y383017D01*
X232017Y382033D01*
X233304Y381500D01*
X234696D01*
X236151Y381385D01*
X236726Y380526D01*
X240349Y376902D01*
Y375299D01*
X240033Y374983D01*
X239500Y373696D01*
Y372304D01*
X240033Y371017D01*
X239329Y369600D01*
X231540D01*
Y370640D01*
X229270D01*
Y364600D01*
X226730D01*
Y370640D01*
X226651D01*
Y374711D01*
X226449Y375726D01*
X225875Y376586D01*
X225874Y376586D01*
X224586Y377874D01*
X223726Y378449D01*
X222711Y378651D01*
X222711Y378651D01*
X205000D01*
X203986Y378449D01*
X203125Y377874D01*
X203125Y377874D01*
X197819Y372568D01*
X196686Y373200D01*
X196500Y373370D01*
Y374696D01*
X195967Y375983D01*
X195651Y376299D01*
Y384349D01*
X210711D01*
X210711Y384349D01*
X211726Y384551D01*
X212586Y385126D01*
X213874Y386414D01*
X213874Y386414D01*
X214449Y387274D01*
X214651Y388289D01*
Y389360D01*
X214730D01*
Y395400D01*
Y401440D01*
X212460D01*
Y400400D01*
X210651D01*
Y412701D01*
X210967Y413017D01*
X211500Y414304D01*
Y415696D01*
X211252Y416295D01*
X212292Y417617D01*
X212882Y417500D01*
X217118D01*
X221271Y418326D01*
X225184Y419947D01*
X228705Y422300D01*
X231700Y425295D01*
X234053Y428816D01*
X235674Y432729D01*
X236500Y436882D01*
Y441118D01*
X235674Y445271D01*
X234053Y449184D01*
X231700Y452705D01*
X228705Y455700D01*
X225184Y458053D01*
X221271Y459674D01*
X217118Y460500D01*
X212882D01*
X208729Y459674D01*
X204816Y458053D01*
X201295Y455700D01*
X198300Y452705D01*
X195947Y449184D01*
X194326Y445271D01*
X193500Y441118D01*
Y439142D01*
X192000Y438687D01*
X191875Y438875D01*
X168874Y461875D01*
X168015Y462449D01*
X167759Y462500D01*
X167906Y464000D01*
X240000D01*
Y443000D01*
D02*
G37*
G36*
X96381Y412714D02*
X96541Y412530D01*
Y369530D01*
X95041Y368909D01*
X94983Y368967D01*
X93696Y369500D01*
X92304D01*
X90851Y370522D01*
Y412439D01*
X92351Y413329D01*
X92904Y413100D01*
X94296D01*
X95041Y413409D01*
X96381Y412714D01*
D02*
G37*
G36*
X32592Y433024D02*
X32141Y432449D01*
X32087Y432413D01*
X31194Y431076D01*
X30881Y429500D01*
Y429270D01*
X36750D01*
Y426730D01*
X30881D01*
Y426500D01*
X31194Y424924D01*
X32087Y423587D01*
Y423413D01*
X31194Y422076D01*
X30881Y420500D01*
Y420270D01*
X36750D01*
Y417730D01*
X30881D01*
Y417500D01*
X31194Y415924D01*
X32087Y414587D01*
Y414413D01*
X31194Y413076D01*
X30881Y411500D01*
Y411270D01*
X36750D01*
Y408730D01*
X30881D01*
Y408500D01*
X31194Y406924D01*
X32087Y405587D01*
X32740Y405151D01*
X32285Y403651D01*
X30098D01*
X25651Y408098D01*
Y431902D01*
X28098Y434349D01*
X31811D01*
X32592Y433024D01*
D02*
G37*
G36*
X181623Y399418D02*
Y372274D01*
X181623Y372274D01*
X181824Y371259D01*
X182399Y370399D01*
X185273Y367525D01*
X185502Y367372D01*
X185823Y365715D01*
X185775Y365524D01*
X182751Y362500D01*
X182304D01*
X181017Y361967D01*
X180033Y360983D01*
X179500Y359696D01*
Y358304D01*
X180033Y357017D01*
X181017Y356033D01*
X182304Y355500D01*
X183696D01*
X184500Y354304D01*
X185033Y353017D01*
X186017Y352033D01*
X187304Y351500D01*
X188696D01*
X189983Y352033D01*
X190967Y353017D01*
X191500Y354304D01*
Y354751D01*
X192598Y355849D01*
X199140D01*
X199714Y354463D01*
X197751Y352500D01*
X197304D01*
X196017Y351967D01*
X195033Y350983D01*
X194500Y349696D01*
Y348304D01*
X195033Y347017D01*
X196017Y346033D01*
X197304Y345500D01*
X198696D01*
X199983Y346033D01*
X200967Y347017D01*
X201500Y348304D01*
Y348751D01*
X203181Y350432D01*
X204314Y349800D01*
X204500Y349630D01*
Y348304D01*
X205033Y347017D01*
X206017Y346033D01*
X207304Y345500D01*
X208696D01*
X209983Y346033D01*
X210299Y346349D01*
X212217D01*
X212791Y344963D01*
X197125Y329298D01*
X196551Y328438D01*
X196349Y327423D01*
X196349Y327423D01*
Y301510D01*
X194849Y300851D01*
X193500Y301119D01*
X193270D01*
Y295250D01*
X190730D01*
Y301119D01*
X190500D01*
X188924Y300806D01*
X187587Y299913D01*
X187058Y299120D01*
X185901Y298484D01*
X185129Y298395D01*
X184000Y298619D01*
X183520D01*
Y293000D01*
X180980D01*
Y298619D01*
X180500D01*
X178924Y298306D01*
X177587Y297413D01*
X177277Y296948D01*
X175682Y296666D01*
X175495Y296775D01*
X174671Y297326D01*
X173500Y297559D01*
X170000D01*
X168829Y297326D01*
X167837Y296663D01*
X167174Y295671D01*
X166941Y294500D01*
Y291500D01*
X167174Y290329D01*
X167837Y289337D01*
Y287663D01*
X167174Y286670D01*
X166941Y285500D01*
Y283690D01*
X163548Y280297D01*
X163253Y280208D01*
X163002Y280266D01*
X162306Y281924D01*
X162619Y283500D01*
Y283730D01*
X157270D01*
Y279381D01*
X158500D01*
X159511Y279582D01*
X160250Y278200D01*
X160033Y277983D01*
X159500Y276696D01*
Y275304D01*
X160033Y274017D01*
X161017Y273033D01*
X162304Y272500D01*
X163696D01*
X164067Y272654D01*
X164916Y271382D01*
X163034Y269500D01*
X162304D01*
X161017Y268967D01*
X160033Y267983D01*
X159500Y266696D01*
Y265304D01*
X160033Y264017D01*
X160899Y263151D01*
X160839Y262605D01*
X160439Y261651D01*
X158098D01*
X153651Y266098D01*
Y278000D01*
X154730Y279221D01*
Y285000D01*
X156000D01*
Y286270D01*
X162619D01*
Y286500D01*
X162306Y288076D01*
X161413Y289413D01*
X160948Y289723D01*
X160666Y291318D01*
X160775Y291505D01*
X161326Y292330D01*
X161559Y293500D01*
Y296500D01*
X161326Y297670D01*
X160663Y298663D01*
X159670Y299326D01*
X158651Y299529D01*
Y302813D01*
X158449Y303827D01*
X158413Y303881D01*
X159215Y305381D01*
X160000D01*
X161576Y305694D01*
X162913Y306587D01*
X163806Y307924D01*
X164119Y309500D01*
Y309730D01*
X158250D01*
Y312270D01*
X164119D01*
Y312500D01*
X163806Y314076D01*
X163665Y314286D01*
X162963Y315500D01*
X163665Y316714D01*
X163806Y316924D01*
X164119Y318500D01*
Y318730D01*
X158250D01*
Y321270D01*
X164119D01*
Y321500D01*
X163806Y323076D01*
X162913Y324413D01*
Y324587D01*
X163806Y325924D01*
X164119Y327500D01*
Y327730D01*
X158250D01*
Y330270D01*
X164119D01*
Y330500D01*
X163806Y332076D01*
X162913Y333413D01*
X161576Y334306D01*
X161137Y334393D01*
X160968Y335956D01*
X161913Y336587D01*
X162806Y337924D01*
X163119Y339500D01*
Y339730D01*
X157250D01*
Y342270D01*
X163119D01*
Y342500D01*
X162806Y344076D01*
X161913Y345413D01*
Y345587D01*
X162806Y346924D01*
X163119Y348500D01*
Y348730D01*
X157250D01*
Y351270D01*
X163119D01*
Y351500D01*
X163099Y351600D01*
X163696Y353100D01*
X164174Y353298D01*
X164983Y353633D01*
X165967Y354617D01*
X166500Y355904D01*
Y357296D01*
X165967Y358583D01*
X164983Y359567D01*
X163696Y360100D01*
X162762D01*
X162640Y360221D01*
X162416Y360372D01*
X162245Y361986D01*
X163206Y363100D01*
X163696D01*
X164983Y363633D01*
X165967Y364617D01*
X166500Y365904D01*
Y367296D01*
X165967Y368583D01*
X164983Y369567D01*
X163696Y370100D01*
X162304D01*
X162059Y370264D01*
Y371500D01*
X161826Y372671D01*
X161163Y373663D01*
X160380Y374186D01*
X160265Y375000D01*
X160380Y375814D01*
X161163Y376337D01*
X161826Y377329D01*
X162059Y378500D01*
Y381114D01*
X162137Y381559D01*
X163389Y382500D01*
X163696D01*
X164983Y383033D01*
X165967Y384017D01*
X166500Y385304D01*
Y386696D01*
X165967Y387983D01*
X164983Y388967D01*
X163696Y389500D01*
X162624D01*
X162181Y389796D01*
X162059Y389820D01*
Y390500D01*
X161826Y391670D01*
X161163Y392663D01*
Y394125D01*
X162244Y395349D01*
X167701D01*
X168017Y395033D01*
X169304Y394500D01*
X170696D01*
X171849Y394977D01*
X172515Y394739D01*
X173349Y394278D01*
Y387299D01*
X173033Y386983D01*
X172500Y385696D01*
Y384304D01*
X173033Y383017D01*
X174017Y382033D01*
X175304Y381500D01*
X176696D01*
X177983Y382033D01*
X178967Y383017D01*
X179500Y384304D01*
Y385696D01*
X178967Y386983D01*
X178651Y387299D01*
Y400430D01*
X180037Y401004D01*
X181623Y399418D01*
D02*
G37*
G36*
X141194Y366924D02*
X142087Y365587D01*
Y364413D01*
X141194Y363076D01*
X140881Y361500D01*
Y361270D01*
X146750D01*
Y358730D01*
X140881D01*
Y358500D01*
X141194Y356924D01*
X142087Y355587D01*
X142552Y355277D01*
X142834Y353682D01*
X142725Y353495D01*
X142174Y352671D01*
X141941Y351500D01*
Y349950D01*
X141017Y349567D01*
X140033Y348583D01*
X139500Y347296D01*
Y345904D01*
X140033Y344617D01*
X140797Y343854D01*
X140895Y343358D01*
X141470Y342498D01*
X141941Y342026D01*
Y339500D01*
X142174Y338330D01*
X142837Y337337D01*
X143829Y336674D01*
X145000Y336441D01*
X148500D01*
X149670Y336674D01*
X150495Y337225D01*
X150682Y337334D01*
X152277Y337052D01*
X152587Y336587D01*
X153924Y335694D01*
X154363Y335607D01*
X154532Y334044D01*
X153587Y333413D01*
X153277Y332948D01*
X151682Y332666D01*
X151495Y332775D01*
X150670Y333326D01*
X149500Y333559D01*
X146000D01*
X144830Y333326D01*
X143837Y332663D01*
X143174Y331670D01*
X142941Y330500D01*
Y329500D01*
X142904D01*
X141617Y328967D01*
X140633Y327983D01*
X140100Y326696D01*
Y326249D01*
X139000Y325149D01*
X137500Y325696D01*
X136967Y326983D01*
X135983Y327967D01*
X134696Y328500D01*
X133744D01*
X120294Y341950D01*
Y362235D01*
X121004Y362663D01*
X121794Y362960D01*
X122904Y362500D01*
X124296D01*
X125583Y363033D01*
X126567Y364017D01*
X127072Y365236D01*
X127935Y366099D01*
X130620D01*
X130674Y365829D01*
X131337Y364837D01*
X132330Y364174D01*
X133500Y363941D01*
X136500D01*
X137670Y364174D01*
X138663Y364837D01*
X139326Y365829D01*
X139559Y367000D01*
Y367458D01*
X141059Y367606D01*
X141194Y366924D01*
D02*
G37*
G36*
X266000Y351000D02*
X247000D01*
Y368000D01*
X266000D01*
Y351000D01*
D02*
G37*
G36*
X96541Y334470D02*
Y330488D01*
X92070Y326017D01*
X91495Y325157D01*
X91293Y324142D01*
X91293Y324142D01*
Y324015D01*
X89908Y323441D01*
X87100Y326249D01*
Y326696D01*
X86567Y327983D01*
X85583Y328967D01*
X85577Y328969D01*
X85284Y330441D01*
X89386Y334543D01*
X91017Y335033D01*
X92304Y334500D01*
X93696D01*
X94983Y335033D01*
X95041Y335091D01*
X96541Y334470D01*
D02*
G37*
G36*
X266000Y303500D02*
X218000D01*
Y314000D01*
X266000D01*
Y303500D01*
D02*
G37*
G36*
X109500Y315751D02*
Y315304D01*
X110033Y314017D01*
X111017Y313033D01*
X112304Y312500D01*
X112349D01*
Y306331D01*
X107043Y301024D01*
X106087Y301245D01*
X105543Y301601D01*
Y314193D01*
X105967Y314617D01*
X106500Y315904D01*
Y316630D01*
X108000Y317251D01*
X109500Y315751D01*
D02*
G37*
G36*
X74665Y322859D02*
X74915Y322531D01*
X74966Y322402D01*
X75151Y321473D01*
X75725Y320612D01*
X80100Y316238D01*
Y315304D01*
X80633Y314017D01*
X81617Y313033D01*
X81849Y312937D01*
Y263719D01*
X80349Y263264D01*
X80075Y263675D01*
X80074Y263675D01*
X71651Y272098D01*
Y323064D01*
X72304Y323500D01*
X73696D01*
X73702Y323502D01*
X74665Y322859D01*
D02*
G37*
G36*
X92904Y303100D02*
X93351D01*
X96541Y299910D01*
Y259530D01*
X95041Y258909D01*
X94983Y258967D01*
X93696Y259500D01*
X92304D01*
X90851Y260522D01*
Y302439D01*
X92351Y303329D01*
X92904Y303100D01*
D02*
G37*
G36*
X81849Y253281D02*
Y228731D01*
X77126Y224007D01*
X76551Y223147D01*
X76349Y222133D01*
X76349Y222132D01*
Y214095D01*
X76349Y214095D01*
X76551Y213080D01*
X77126Y212220D01*
X77249Y212097D01*
Y209067D01*
X77249Y209067D01*
X77451Y208053D01*
X78025Y207193D01*
X80193Y205026D01*
X80193Y205026D01*
X80224Y205005D01*
X80633Y204017D01*
X81617Y203033D01*
X82070Y202845D01*
X82285Y202529D01*
X82616Y201114D01*
X82355Y200723D01*
X82153Y199709D01*
X82153Y199709D01*
Y161240D01*
X81826Y160912D01*
X81251Y160052D01*
X81049Y159038D01*
X81049Y159038D01*
Y157022D01*
X79549Y156401D01*
X79483Y156467D01*
X78196Y157000D01*
X76804D01*
X75517Y156467D01*
X74533Y155483D01*
X74000Y154196D01*
Y152804D01*
X74533Y151517D01*
X74849Y151201D01*
Y149661D01*
X73349Y148829D01*
X72696Y149100D01*
X71304D01*
X70017Y148567D01*
X68559Y149230D01*
Y153500D01*
X68326Y154670D01*
X67663Y155663D01*
X66670Y156326D01*
X65500Y156559D01*
X62500D01*
X61329Y156326D01*
X60505Y155775D01*
X60318Y155666D01*
X58723Y155948D01*
X58413Y156413D01*
X57076Y157306D01*
X55624Y157595D01*
Y169000D01*
X55148Y170148D01*
X54148Y171148D01*
X53000Y171624D01*
X46000D01*
X44852Y171148D01*
X43852Y170148D01*
X42205Y170091D01*
X41148Y171148D01*
X40000Y171624D01*
X30123D01*
X29502Y173124D01*
X31084Y174706D01*
X65000D01*
X65878Y174881D01*
X66622Y175378D01*
X74322Y183078D01*
X74322Y183078D01*
X74819Y183822D01*
X74994Y184700D01*
Y188739D01*
X79472Y193217D01*
X79970Y193962D01*
X80144Y194840D01*
Y198360D01*
X79970Y199238D01*
X79472Y199982D01*
X74994Y204461D01*
Y212133D01*
X74819Y213011D01*
X74322Y213755D01*
X71427Y216650D01*
Y218477D01*
X71967Y219017D01*
X72500Y220304D01*
Y221696D01*
X71967Y222983D01*
X70983Y223967D01*
X69696Y224500D01*
X68304D01*
X67017Y223967D01*
X66033Y222983D01*
X65500Y221696D01*
Y220625D01*
X64491Y219630D01*
X64296Y219500D01*
X62904D01*
X62343Y219268D01*
X61026Y220336D01*
X61059Y220500D01*
Y223500D01*
X60826Y224671D01*
X60163Y225663D01*
Y227125D01*
X61244Y228349D01*
X68000D01*
X68000Y228349D01*
X69015Y228551D01*
X69875Y229125D01*
X73849Y233100D01*
X74296D01*
X75583Y233633D01*
X76567Y234617D01*
X77100Y235904D01*
Y237296D01*
X76567Y238583D01*
X75583Y239567D01*
X74296Y240100D01*
X72904D01*
X71617Y239567D01*
X70633Y238583D01*
X70100Y237296D01*
Y236849D01*
X66902Y233651D01*
X60830D01*
X60826Y233671D01*
X60163Y234663D01*
Y236337D01*
X60826Y237330D01*
X61059Y238500D01*
Y240860D01*
X63299Y243100D01*
X63696D01*
X64915Y243605D01*
X66605D01*
X66686Y243551D01*
X67700Y243349D01*
X70701D01*
X71017Y243033D01*
X72304Y242500D01*
X73696D01*
X74983Y243033D01*
X75967Y244017D01*
X76500Y245304D01*
Y246696D01*
X75967Y247983D01*
X75943Y248007D01*
X75967Y248528D01*
X76318Y249753D01*
X76874Y250126D01*
X80074Y253326D01*
X80075Y253326D01*
X80349Y253736D01*
X81849Y253281D01*
D02*
G37*
G36*
X96541Y232631D02*
Y227290D01*
X95126Y225875D01*
X94551Y225014D01*
X94349Y224000D01*
X94349Y224000D01*
Y208255D01*
X93497Y207817D01*
X92849Y207722D01*
X86595Y213976D01*
Y214085D01*
X87100Y215304D01*
Y216696D01*
X86567Y217983D01*
X86251Y218299D01*
Y220402D01*
X90075Y224226D01*
X90649Y225086D01*
X90851Y226100D01*
X90851Y226100D01*
Y232439D01*
X92351Y233329D01*
X92904Y233100D01*
X94296D01*
X95041Y233409D01*
X96541Y232631D01*
D02*
G37*
G36*
X130500Y325256D02*
Y324744D01*
X127538Y321782D01*
X127041Y321038D01*
X126866Y320160D01*
Y289111D01*
X126128Y288372D01*
X125631Y287628D01*
X125456Y286750D01*
Y265250D01*
X125631Y264372D01*
X126128Y263628D01*
X128372Y261383D01*
X127941Y259774D01*
X127896Y259739D01*
X126616Y258884D01*
X126616Y258884D01*
X123791Y256059D01*
X123500D01*
X122330Y255826D01*
X121337Y255163D01*
X120674Y254170D01*
X120441Y253000D01*
Y249500D01*
X120674Y248329D01*
X121225Y247505D01*
X121334Y247318D01*
X121052Y245723D01*
X120587Y245413D01*
X119694Y244076D01*
X119381Y242500D01*
Y242020D01*
X125000D01*
Y239480D01*
X119381D01*
Y239000D01*
X119694Y237424D01*
X120587Y236087D01*
X120641Y236051D01*
X121337Y235163D01*
X120674Y234171D01*
X120441Y233000D01*
Y229500D01*
X120674Y228330D01*
X121225Y227505D01*
X121334Y227318D01*
X121052Y225723D01*
X120587Y225413D01*
X119694Y224076D01*
X119381Y222500D01*
Y222020D01*
X125000D01*
X130619D01*
Y222500D01*
X130306Y224076D01*
X129413Y225413D01*
X128948Y225723D01*
X128666Y227318D01*
X128775Y227505D01*
X129326Y228330D01*
X129559Y229500D01*
Y229816D01*
X130459Y229995D01*
X131319Y230570D01*
X132634Y231885D01*
X132634Y231886D01*
X133849Y233100D01*
X134296D01*
X135583Y233633D01*
X135899Y233949D01*
X141301D01*
X141617Y233633D01*
X142904Y233100D01*
X144296D01*
X144309Y233105D01*
X145556Y232272D01*
Y229800D01*
X134256Y218500D01*
X133304D01*
X132017Y217967D01*
X131925Y217874D01*
X130542Y218613D01*
X130619Y219000D01*
Y219480D01*
X126270D01*
Y214881D01*
X126500D01*
X128076Y215194D01*
X129066Y215856D01*
X130327Y215297D01*
X130500Y215147D01*
Y214304D01*
X131033Y213017D01*
X131706Y212344D01*
Y205950D01*
X127378Y201622D01*
X126881Y200878D01*
X126706Y200000D01*
Y192450D01*
X123037Y188781D01*
X121651Y189355D01*
Y210000D01*
X121651Y210000D01*
X121449Y211014D01*
X120875Y211875D01*
X120874Y211875D01*
X116500Y216249D01*
Y216696D01*
X115967Y217983D01*
X115023Y218926D01*
Y296274D01*
X120574Y301826D01*
X120575Y301826D01*
X121149Y302686D01*
X121351Y303700D01*
X121351Y303700D01*
Y316805D01*
X121149Y317820D01*
X120575Y318680D01*
X120574Y318680D01*
X115868Y323387D01*
Y323918D01*
X115967Y324017D01*
X116500Y325304D01*
Y326696D01*
X115967Y327983D01*
X115023Y328926D01*
Y338705D01*
X115917Y339149D01*
X116523Y339232D01*
X130500Y325256D01*
D02*
G37*
G36*
X108832Y206906D02*
X109500Y206238D01*
Y205304D01*
X110033Y204017D01*
X111017Y203033D01*
X112304Y202500D01*
X112649D01*
Y188868D01*
X109737Y185956D01*
X108351Y186530D01*
Y188460D01*
X108149Y189474D01*
X107575Y190334D01*
X107574Y190334D01*
X106010Y191899D01*
Y196049D01*
X106875Y196914D01*
X107449Y197774D01*
X107651Y198789D01*
X107651Y198789D01*
Y204411D01*
X107651Y204411D01*
X107449Y205426D01*
X107001Y206097D01*
X107096Y206521D01*
X108015Y206931D01*
X108832Y206906D01*
D02*
G37*
G36*
X43000Y167000D02*
Y157000D01*
X28000D01*
X27000Y158000D01*
Y168000D01*
X29000Y170000D01*
X40000D01*
X43000Y167000D01*
D02*
G37*
G36*
X13000Y158000D02*
X12000Y157000D01*
X4044D01*
Y170044D01*
X5000Y171000D01*
X13000D01*
Y158000D01*
D02*
G37*
G36*
X138520Y154381D02*
X139000D01*
X140576Y154694D01*
X140786Y154835D01*
X142000Y155537D01*
X142389Y155312D01*
X143194Y154076D01*
X142881Y152500D01*
Y152270D01*
X148750D01*
Y149730D01*
X142881D01*
Y149500D01*
X143194Y147924D01*
X143476Y147502D01*
X143141Y146395D01*
X141915Y146079D01*
X141576Y146306D01*
X140000Y146619D01*
X139520D01*
Y141000D01*
X136980D01*
Y146619D01*
X136500D01*
X134924Y146306D01*
X133587Y145413D01*
X133277Y144948D01*
X131682Y144666D01*
X131495Y144775D01*
X130670Y145326D01*
X129500Y145559D01*
X127100D01*
Y146696D01*
X126567Y147983D01*
X125583Y148967D01*
X124296Y149500D01*
X122904D01*
X121794Y149040D01*
X121004Y149337D01*
X120294Y149765D01*
Y149990D01*
X120119Y150868D01*
X119622Y151612D01*
X119044Y152190D01*
Y153810D01*
X119622Y154388D01*
X120119Y155133D01*
X120294Y156010D01*
Y158852D01*
X121794Y159654D01*
X121941Y159556D01*
Y158500D01*
X122174Y157330D01*
X122837Y156337D01*
X123829Y155674D01*
X125000Y155441D01*
X128500D01*
X129670Y155674D01*
X130495Y156225D01*
X130682Y156334D01*
X132277Y156052D01*
X132587Y155587D01*
X133924Y154694D01*
X135500Y154381D01*
X135980D01*
Y160000D01*
X138520D01*
Y154381D01*
D02*
G37*
G36*
X54000Y169000D02*
Y156559D01*
X52500D01*
X51329Y156326D01*
X50337Y155663D01*
X49674Y154670D01*
X49441Y153500D01*
Y149000D01*
X36000D01*
Y155000D01*
X45000D01*
Y169000D01*
X46000Y170000D01*
X53000D01*
X54000Y169000D01*
D02*
G37*
G36*
X22000Y177000D02*
Y159000D01*
X12000Y149000D01*
X4000D01*
Y155000D01*
X13000D01*
X15000Y157000D01*
Y177000D01*
X16000Y178000D01*
X21000D01*
X22000Y177000D01*
D02*
G37*
G36*
X92904Y193100D02*
X93897D01*
X94581Y192643D01*
X95595Y192441D01*
X97008D01*
Y189268D01*
X97008Y189268D01*
X97210Y188254D01*
X97784Y187394D01*
X99349Y185829D01*
Y117631D01*
X95126Y113407D01*
X94551Y112547D01*
X94349Y111533D01*
X94349Y111532D01*
Y98098D01*
X92870Y96619D01*
X91370Y97241D01*
Y100393D01*
X91370Y100393D01*
X91169Y101408D01*
X90594Y102268D01*
X87100Y105762D01*
Y106696D01*
X86567Y107983D01*
X86251Y108299D01*
Y112046D01*
X89274Y115069D01*
X89275Y115069D01*
X89849Y115929D01*
X90051Y116944D01*
Y132039D01*
X91551Y132812D01*
X92304Y132500D01*
X93696D01*
X94983Y133033D01*
X95967Y134017D01*
X96500Y135304D01*
Y136696D01*
X95967Y137983D01*
X94983Y138967D01*
X93696Y139500D01*
X92304D01*
X91551Y139188D01*
X90051Y139961D01*
Y141878D01*
X91551Y142499D01*
X92017Y142033D01*
X93304Y141500D01*
X94696D01*
X95983Y142033D01*
X96967Y143017D01*
X97500Y144304D01*
Y145696D01*
X96967Y146983D01*
X95983Y147967D01*
X94696Y148500D01*
X93304D01*
X92017Y147967D01*
X91551Y147501D01*
X90051Y148122D01*
Y156407D01*
X90379Y156735D01*
X90379Y156735D01*
X90954Y157595D01*
X91155Y158610D01*
X91155Y158610D01*
Y192201D01*
X92655Y193203D01*
X92904Y193100D01*
D02*
G37*
G36*
X170395Y138839D02*
X171349Y138440D01*
Y111331D01*
X156369Y96351D01*
X136631D01*
X132867Y100114D01*
X133037Y100652D01*
X133603Y101500D01*
X134696D01*
X135983Y102033D01*
X136967Y103017D01*
X137500Y104304D01*
Y105696D01*
X138657Y106566D01*
X139826Y105874D01*
X140100Y105574D01*
Y105304D01*
X140633Y104017D01*
X141617Y103033D01*
X142904Y102500D01*
X144296D01*
X145583Y103033D01*
X146567Y104017D01*
X147100Y105304D01*
Y106696D01*
X148382Y107517D01*
X148464Y107534D01*
X149171Y107674D01*
X150163Y108337D01*
X150826Y109330D01*
X151059Y110500D01*
Y113500D01*
X150826Y114670D01*
X150163Y115663D01*
Y117337D01*
X150826Y118329D01*
X151059Y119500D01*
Y121494D01*
X151962Y122206D01*
X153381Y121578D01*
Y120500D01*
X153694Y118924D01*
X154587Y117587D01*
X155052Y117277D01*
X155334Y115682D01*
X155225Y115495D01*
X154674Y114670D01*
X154441Y113500D01*
Y110000D01*
X154674Y108829D01*
X155337Y107837D01*
X155510Y107721D01*
X155500Y107696D01*
Y106304D01*
X156033Y105017D01*
X157017Y104033D01*
X158304Y103500D01*
X159696D01*
X160983Y104033D01*
X161967Y105017D01*
X162500Y106304D01*
Y107696D01*
X162490Y107721D01*
X162663Y107837D01*
X163326Y108829D01*
X163559Y110000D01*
Y113500D01*
X163326Y114670D01*
X162775Y115495D01*
X162666Y115682D01*
X162948Y117277D01*
X163413Y117587D01*
X164306Y118924D01*
X164619Y120500D01*
Y120980D01*
X159000D01*
Y122250D01*
X157730D01*
Y128119D01*
X157500D01*
X156261Y127873D01*
X155967Y128583D01*
X154983Y129567D01*
X153696Y130100D01*
X152762D01*
X152640Y130221D01*
X151781Y130796D01*
X151059Y130940D01*
Y131500D01*
X150826Y132670D01*
X150163Y133663D01*
X149837Y133881D01*
X150292Y135381D01*
X150500D01*
X152076Y135694D01*
X153413Y136587D01*
X153723Y137052D01*
X155318Y137334D01*
X155505Y137225D01*
X156329Y136674D01*
X157500Y136441D01*
X161000D01*
X162171Y136674D01*
X163163Y137337D01*
X163445Y137760D01*
X164950Y138021D01*
X165234Y137943D01*
X166304Y137500D01*
X167696D01*
X168983Y138033D01*
X169849Y138899D01*
X170395Y138839D01*
D02*
G37*
G36*
X81049Y140432D02*
Y119574D01*
X77126Y115651D01*
X76551Y114791D01*
X76349Y113776D01*
X76349Y113776D01*
Y105913D01*
X74849Y105055D01*
X74576Y105215D01*
X74544Y105275D01*
Y105553D01*
X74369Y106431D01*
X73872Y107176D01*
X72500Y108548D01*
Y109696D01*
X71967Y110983D01*
X70983Y111967D01*
X69696Y112500D01*
X69059D01*
Y113500D01*
X68826Y114670D01*
X68163Y115663D01*
Y117337D01*
X68826Y118329D01*
X69059Y119500D01*
Y121810D01*
X70204Y122955D01*
X71304Y122500D01*
X72696D01*
X73983Y123033D01*
X74967Y124017D01*
X75500Y125304D01*
Y126696D01*
X74967Y127983D01*
X73983Y128967D01*
X72696Y129500D01*
X71304D01*
X71150Y129436D01*
X69661Y130253D01*
X69501Y131252D01*
X71204Y132955D01*
X72304Y132500D01*
X73696D01*
X74983Y133033D01*
X75967Y134017D01*
X76500Y135304D01*
Y136696D01*
X76415Y136902D01*
X77014Y138551D01*
X77874Y139125D01*
X79374Y140625D01*
X79549Y140887D01*
X81049Y140432D01*
D02*
G37*
G36*
X46937Y145876D02*
X46551Y145298D01*
X46349Y144284D01*
X46349Y144283D01*
Y143717D01*
X46349Y143716D01*
X46551Y142702D01*
X47126Y141842D01*
X47978Y140989D01*
X47881Y140500D01*
Y140270D01*
X53750D01*
Y137730D01*
X47881D01*
Y137500D01*
X48194Y135924D01*
X49087Y134587D01*
Y134413D01*
X48194Y133076D01*
X48039Y132293D01*
X47106Y131862D01*
X46421Y131734D01*
X45844Y132119D01*
X44967Y132294D01*
X44400D01*
Y135500D01*
Y147376D01*
X46455D01*
X46937Y145876D01*
D02*
G37*
G36*
X125956Y125800D02*
Y110750D01*
X126131Y109872D01*
X126628Y109128D01*
X129866Y105890D01*
X129816Y105287D01*
X128264Y104717D01*
X128257Y104725D01*
X127397Y105299D01*
X126383Y105501D01*
X126382Y105501D01*
X116761D01*
X116500Y105762D01*
Y106696D01*
X115967Y107983D01*
X115248Y108702D01*
X115083Y109524D01*
X115254Y110478D01*
X115549Y110920D01*
X115751Y111935D01*
X115751Y111935D01*
Y133883D01*
X117251Y134505D01*
X125956Y125800D01*
D02*
G37*
G36*
X104467Y79451D02*
X104464Y79342D01*
X103999Y77951D01*
X95031D01*
X91343Y81638D01*
X91253Y81978D01*
X91297Y82142D01*
X92904Y83100D01*
X94296D01*
X95583Y83633D01*
X95899Y83949D01*
X99969D01*
X104467Y79451D01*
D02*
G37*
G36*
X77395Y48151D02*
X78409Y47949D01*
X78410Y47949D01*
X84302D01*
X86349Y45902D01*
Y40160D01*
X84849Y39271D01*
X84296Y39500D01*
X82904D01*
X81617Y38967D01*
X80633Y37983D01*
X80100Y36696D01*
Y35304D01*
X80633Y34017D01*
X81617Y33033D01*
X82904Y32500D01*
X84296D01*
X85666Y31586D01*
X85773Y30522D01*
X83751Y28500D01*
X83304D01*
X82017Y27967D01*
X81033Y26983D01*
X80500Y25696D01*
Y24304D01*
X81033Y23017D01*
X82017Y22033D01*
X83304Y21500D01*
X83062Y20100D01*
X82304D01*
X81017Y19567D01*
X80033Y18583D01*
X79500Y17296D01*
Y16849D01*
X76876Y14224D01*
X76751Y14038D01*
X75251Y14493D01*
Y25301D01*
X75567Y25617D01*
X76100Y26904D01*
Y28296D01*
X75567Y29583D01*
X74900Y30250D01*
X74831Y30675D01*
X74908Y31552D01*
X75055Y31995D01*
X75984Y32616D01*
X76484Y33116D01*
X77368Y34439D01*
X77678Y36000D01*
X77368Y37561D01*
X76484Y38884D01*
X75161Y39768D01*
X73600Y40078D01*
X72766Y39912D01*
X71864Y41262D01*
X72306Y41924D01*
X72619Y43500D01*
Y43980D01*
X67000D01*
Y46520D01*
X72619D01*
Y47000D01*
X72561Y47290D01*
X73513Y48449D01*
X76949D01*
X77395Y48151D01*
D02*
G37*
G36*
X2560Y120619D02*
Y119270D01*
X8600D01*
Y116730D01*
X2560D01*
Y114460D01*
X8457D01*
X8551Y113986D01*
X9125Y113125D01*
X9985Y112551D01*
X11000Y112349D01*
X12014Y112551D01*
X12874Y113125D01*
X13161Y113555D01*
X14775Y113549D01*
X15466Y112800D01*
Y104240D01*
X15641Y103362D01*
X16138Y102618D01*
X20378Y98378D01*
X20378Y98378D01*
X21122Y97881D01*
X21628Y97780D01*
Y96250D01*
X18729Y95674D01*
X14816Y94053D01*
X11295Y91700D01*
X8300Y88705D01*
X5947Y85184D01*
X4326Y81271D01*
X3500Y77118D01*
Y72882D01*
X4326Y68729D01*
X5947Y64816D01*
X8300Y61295D01*
X11295Y58300D01*
X14816Y55947D01*
X18729Y54326D01*
X22882Y53500D01*
X27118D01*
X31271Y54326D01*
X35184Y55947D01*
X38705Y58300D01*
X41700Y61295D01*
X43456Y63922D01*
X44956Y63467D01*
Y60750D01*
X45131Y59872D01*
X45628Y59128D01*
X49619Y55137D01*
X49045Y53751D01*
X47677D01*
X46663Y53549D01*
X45803Y52975D01*
X44414Y51586D01*
X43840Y50726D01*
X43638Y49711D01*
X43638Y49711D01*
Y42000D01*
X43840Y40985D01*
X44414Y40125D01*
X45051Y39700D01*
X49441Y35310D01*
Y33500D01*
X49674Y32329D01*
X50337Y31337D01*
X51329Y30674D01*
X52500Y30441D01*
X57500D01*
X58671Y30674D01*
X59663Y31337D01*
X60326Y32329D01*
X60559Y33500D01*
Y36500D01*
X60326Y37671D01*
X59775Y38495D01*
X59666Y38682D01*
X59948Y40277D01*
X60413Y40587D01*
X60598Y40865D01*
X62402D01*
X62587Y40587D01*
X63052Y40277D01*
X63334Y38682D01*
X63225Y38495D01*
X62674Y37671D01*
X62441Y36500D01*
Y33000D01*
X62674Y31830D01*
X63337Y30837D01*
X64330Y30174D01*
X65500Y29941D01*
X68158D01*
X68874Y29206D01*
X69206Y28552D01*
X69100Y28296D01*
Y27077D01*
X68531Y26473D01*
X67864Y25967D01*
X67243Y26181D01*
X66912Y26983D01*
X65927Y27967D01*
X64641Y28500D01*
X63248D01*
X61962Y27967D01*
X60977Y26983D01*
X60444Y25696D01*
Y24304D01*
X60977Y23017D01*
X61962Y22033D01*
X62144Y21957D01*
X62414Y21553D01*
X62441Y21526D01*
Y18500D01*
X62674Y17329D01*
X63225Y16505D01*
X63334Y16318D01*
X63052Y14723D01*
X62587Y14413D01*
X61694Y13076D01*
X61381Y11500D01*
Y11020D01*
X67000D01*
Y8480D01*
X61381D01*
Y8000D01*
X61438Y7710D01*
X60487Y6551D01*
X57073D01*
X48750Y14875D01*
X47890Y15449D01*
X46875Y15651D01*
X46875Y15651D01*
X37054D01*
X36989Y15895D01*
X36002Y17605D01*
X34605Y19001D01*
X32895Y19989D01*
X30987Y20500D01*
X29013D01*
X27105Y19989D01*
X25395Y19001D01*
X23998Y17605D01*
X23011Y15895D01*
X22500Y13987D01*
Y12013D01*
X23011Y10105D01*
X23998Y8395D01*
X25395Y6999D01*
X27105Y6011D01*
X29013Y5500D01*
X30987D01*
X32895Y6011D01*
X34605Y6999D01*
X36002Y8395D01*
X36989Y10105D01*
X37054Y10349D01*
X45777D01*
X54101Y2026D01*
X54101Y2025D01*
X54887Y1500D01*
X54907Y1389D01*
X54332Y0D01*
X0D01*
Y121057D01*
X1500Y121679D01*
X2560Y120619D01*
D02*
G37*
G36*
X101306Y50829D02*
Y29256D01*
X100633Y28583D01*
X100100Y27296D01*
Y25904D01*
X100410Y25156D01*
X99138Y24306D01*
X96294Y27150D01*
Y47300D01*
X96294Y47300D01*
X96119Y48178D01*
X95622Y48922D01*
X88972Y55572D01*
X88228Y56069D01*
X87350Y56244D01*
X80747D01*
X80369Y56622D01*
X79625Y57119D01*
X78747Y57294D01*
X76108D01*
X75487Y58794D01*
X79649Y62956D01*
X89179D01*
X101306Y50829D01*
D02*
G37*
%LPC*%
G36*
X35480Y451619D02*
X35000D01*
X33424Y451306D01*
X32087Y450413D01*
X31194Y449076D01*
X30881Y447500D01*
Y447270D01*
X35480D01*
Y451619D01*
D02*
G37*
G36*
X60619Y383730D02*
X54000D01*
X47381D01*
Y383500D01*
X47694Y381924D01*
X48587Y380587D01*
X49924Y379694D01*
X49697Y378580D01*
X49694Y378576D01*
X49381Y377000D01*
Y376520D01*
X55000D01*
X60619D01*
Y377000D01*
X60306Y378576D01*
X59934Y379132D01*
X59534Y380250D01*
X59934Y381368D01*
X60306Y381924D01*
X60619Y383500D01*
Y383730D01*
D02*
G37*
G36*
X27118Y385500D02*
X22882D01*
X18729Y384674D01*
X14816Y383053D01*
X11295Y380700D01*
X8300Y377705D01*
X5947Y374184D01*
X4326Y370271D01*
X3500Y366118D01*
Y361882D01*
X4326Y357729D01*
X5947Y353816D01*
X8300Y350295D01*
X11295Y347300D01*
X14816Y344947D01*
X18729Y343326D01*
X22882Y342500D01*
X27118D01*
X31271Y343326D01*
X35184Y344947D01*
X38705Y347300D01*
X41700Y350295D01*
X44053Y353816D01*
X45674Y357729D01*
X46500Y361882D01*
Y366118D01*
X45674Y370271D01*
X44053Y374184D01*
X41700Y377705D01*
X38705Y380700D01*
X35184Y383053D01*
X31271Y384674D01*
X27118Y385500D01*
D02*
G37*
G36*
X42480Y340619D02*
X42000D01*
X40424Y340306D01*
X39087Y339413D01*
X38194Y338076D01*
X37881Y336500D01*
Y336270D01*
X42480D01*
Y340619D01*
D02*
G37*
G36*
X30696Y340500D02*
X29304D01*
X28017Y339967D01*
X27033Y338983D01*
X26500Y337696D01*
Y336304D01*
X27033Y335017D01*
X28017Y334033D01*
X29304Y333500D01*
X30696D01*
X31983Y334033D01*
X32967Y335017D01*
X33500Y336304D01*
Y337696D01*
X32967Y338983D01*
X31983Y339967D01*
X30696Y340500D01*
D02*
G37*
G36*
X57500Y279119D02*
X57270D01*
Y274520D01*
X61619D01*
Y275000D01*
X61306Y276576D01*
X60413Y277913D01*
X59076Y278806D01*
X57500Y279119D01*
D02*
G37*
G36*
X54730D02*
X54500D01*
X52924Y278806D01*
X51587Y277913D01*
X50694Y276576D01*
X50381Y275000D01*
Y274520D01*
X54730D01*
Y279119D01*
D02*
G37*
G36*
X165119Y423730D02*
X160520D01*
Y419381D01*
X161000D01*
X162576Y419694D01*
X163913Y420587D01*
X164806Y421924D01*
X165119Y423500D01*
Y423730D01*
D02*
G37*
G36*
X255540Y401440D02*
X253270D01*
Y396670D01*
X255540D01*
Y401440D01*
D02*
G37*
G36*
Y394130D02*
X253270D01*
Y389360D01*
X255540D01*
Y394130D01*
D02*
G37*
G36*
X250730Y401440D02*
X249270D01*
Y395400D01*
Y389360D01*
X250730D01*
Y395400D01*
Y401440D01*
D02*
G37*
G36*
X253730Y331730D02*
X237460D01*
Y319960D01*
X253730D01*
Y331730D01*
D02*
G37*
G36*
X235500Y238000D02*
X216500D01*
Y227000D01*
X235500D01*
Y238000D01*
D02*
G37*
G36*
X184500Y231619D02*
X184270D01*
Y226270D01*
X188619D01*
Y227500D01*
X188306Y229076D01*
X187413Y230413D01*
X186076Y231306D01*
X184500Y231619D01*
D02*
G37*
G36*
X188619Y223730D02*
X184270D01*
Y218381D01*
X184500D01*
X186076Y218694D01*
X187413Y219587D01*
X188306Y220924D01*
X188619Y222500D01*
Y223730D01*
D02*
G37*
G36*
X235500Y225500D02*
X216500D01*
Y214500D01*
X235500D01*
Y225500D01*
D02*
G37*
G36*
X236540Y131230D02*
X227270D01*
Y125960D01*
X236540D01*
Y131230D01*
D02*
G37*
G36*
X224730D02*
X215460D01*
Y125960D01*
X224730D01*
Y131230D01*
D02*
G37*
G36*
X253730Y120040D02*
X237460D01*
Y108270D01*
X253730D01*
Y120040D01*
D02*
G37*
G36*
X177696Y66500D02*
X176304D01*
X175017Y65967D01*
X174033Y64983D01*
X173756Y64315D01*
X172198Y63860D01*
X172074Y63875D01*
X171983Y63967D01*
X170696Y64500D01*
X169304D01*
X168017Y63967D01*
X167033Y62983D01*
X166500Y61696D01*
Y60304D01*
X167033Y59017D01*
X166337Y57663D01*
X165814Y56880D01*
X165000Y56765D01*
X164186Y56880D01*
X163663Y57663D01*
X162670Y58326D01*
X161500Y58559D01*
X158000D01*
X156830Y58326D01*
X155837Y57663D01*
X155174Y56670D01*
X155170Y56651D01*
X150098D01*
X145500Y61249D01*
Y61696D01*
X144967Y62983D01*
X143983Y63967D01*
X142696Y64500D01*
X141304D01*
X140017Y63967D01*
X139033Y62983D01*
X138500Y61696D01*
Y60304D01*
X139033Y59017D01*
X140017Y58033D01*
X141304Y57500D01*
X141751D01*
X147126Y52126D01*
X147126Y52126D01*
X147986Y51551D01*
X149000Y51349D01*
X149000Y51349D01*
X152000D01*
X152298Y49849D01*
X151617Y49567D01*
X150633Y48583D01*
X150100Y47296D01*
Y45904D01*
X150633Y44617D01*
X151617Y43633D01*
X152904Y43100D01*
X154296D01*
X155107Y42667D01*
X155174Y42330D01*
X155837Y41337D01*
Y41085D01*
X154337Y40083D01*
X154296Y40100D01*
X152904D01*
X151617Y39567D01*
X150633Y38583D01*
X150100Y37296D01*
Y35904D01*
X150633Y34617D01*
X151617Y33633D01*
X152904Y33100D01*
X154296D01*
X154727Y33278D01*
X155620Y32451D01*
X155620Y30852D01*
X154650Y29953D01*
X154296Y30100D01*
X152904D01*
X151617Y29567D01*
X150633Y28583D01*
X150100Y27296D01*
Y25904D01*
X150633Y24617D01*
X151617Y23633D01*
X152904Y23100D01*
X154296D01*
X155583Y23633D01*
X155644Y23627D01*
X155837Y23337D01*
X156830Y22674D01*
X158000Y22441D01*
X161500D01*
X162670Y22674D01*
X163495Y23225D01*
X163682Y23334D01*
X165277Y23052D01*
X165587Y22587D01*
X166924Y21694D01*
X168500Y21381D01*
X168980D01*
Y27000D01*
X170250D01*
Y28270D01*
X176119D01*
Y28500D01*
X175806Y30076D01*
X174913Y31413D01*
Y31587D01*
X175806Y32924D01*
X176119Y34500D01*
Y34730D01*
X170250D01*
Y37270D01*
X176351D01*
X177022Y37773D01*
X177562Y37936D01*
X177924Y37694D01*
X179500Y37381D01*
X180730D01*
Y43000D01*
X182000D01*
Y44270D01*
X188619D01*
Y44500D01*
X188306Y46076D01*
X187413Y47413D01*
X186948Y47723D01*
X186666Y49318D01*
X186775Y49505D01*
X187326Y50329D01*
X187559Y51500D01*
Y54500D01*
X187326Y55670D01*
X186663Y56663D01*
X185671Y57326D01*
X185398Y57380D01*
X184153Y58011D01*
X183951Y59026D01*
X183376Y59886D01*
X180500Y62762D01*
Y63696D01*
X179967Y64983D01*
X178983Y65967D01*
X177696Y66500D01*
D02*
G37*
G36*
X138980Y45619D02*
X138500D01*
X136924Y45306D01*
X135587Y44413D01*
X135277Y43948D01*
X133682Y43666D01*
X133495Y43775D01*
X132670Y44326D01*
X131500Y44559D01*
X128000D01*
X126830Y44326D01*
X125837Y43663D01*
X125555Y43240D01*
X124050Y42979D01*
X123766Y43057D01*
X122696Y43500D01*
X121304D01*
X120017Y42967D01*
X119033Y41983D01*
X118500Y40696D01*
Y39304D01*
X119033Y38017D01*
X120017Y37033D01*
X121304Y36500D01*
X122696D01*
X123766Y36943D01*
X124050Y37021D01*
X125555Y36760D01*
X125837Y36337D01*
Y34663D01*
X125174Y33670D01*
X124941Y32500D01*
Y31456D01*
X124296Y30100D01*
X122904D01*
X121617Y29567D01*
X120633Y28583D01*
X120100Y27296D01*
Y25904D01*
X120633Y24617D01*
X121617Y23633D01*
X122904Y23100D01*
X123389D01*
X123881Y22500D01*
Y22270D01*
X129750D01*
Y21000D01*
X131020D01*
Y15381D01*
X131500D01*
X133076Y15694D01*
X134413Y16587D01*
X134723Y17052D01*
X136318Y17334D01*
X136505Y17225D01*
X137330Y16674D01*
X138500Y16441D01*
X139500D01*
Y15904D01*
X140033Y14617D01*
X141017Y13633D01*
X142304Y13100D01*
X143696D01*
X144983Y13633D01*
X145967Y14617D01*
X146500Y15904D01*
Y17296D01*
X145967Y18583D01*
X145057Y19492D01*
X145059Y19500D01*
Y22500D01*
X144826Y23670D01*
X144275Y24495D01*
X144166Y24682D01*
X144448Y26277D01*
X144913Y26587D01*
X145806Y27924D01*
X146119Y29500D01*
Y29730D01*
X140250D01*
Y32270D01*
X146119D01*
Y32500D01*
X145806Y34076D01*
X144913Y35413D01*
Y35587D01*
X145806Y36924D01*
X146119Y38500D01*
Y38730D01*
X140250D01*
Y40000D01*
X138980D01*
Y45619D01*
D02*
G37*
G36*
X142000D02*
X141520D01*
Y41270D01*
X146119D01*
Y41500D01*
X145806Y43076D01*
X144913Y44413D01*
X143576Y45306D01*
X142000Y45619D01*
D02*
G37*
G36*
X188619Y41730D02*
X183270D01*
Y37381D01*
X184500D01*
X186076Y37694D01*
X187413Y38587D01*
X188306Y39924D01*
X188619Y41500D01*
Y41730D01*
D02*
G37*
G36*
X217118Y71500D02*
X212882D01*
X208729Y70674D01*
X204816Y69053D01*
X201295Y66700D01*
X198300Y63705D01*
X195947Y60184D01*
X194326Y56271D01*
X193500Y52118D01*
Y47882D01*
X194326Y43729D01*
X195947Y39816D01*
X198300Y36295D01*
X201295Y33300D01*
X204816Y30947D01*
X208729Y29326D01*
X212882Y28500D01*
X217118D01*
X221271Y29326D01*
X225184Y30947D01*
X228705Y33300D01*
X231700Y36295D01*
X234053Y39816D01*
X235674Y43729D01*
X236500Y47882D01*
Y52118D01*
X235674Y56271D01*
X234053Y60184D01*
X231700Y63705D01*
X228705Y66700D01*
X225184Y69053D01*
X221271Y70674D01*
X217118Y71500D01*
D02*
G37*
G36*
X176119Y25730D02*
X171520D01*
Y21381D01*
X172000D01*
X173576Y21694D01*
X174913Y22587D01*
X175806Y23924D01*
X176119Y25500D01*
Y25730D01*
D02*
G37*
G36*
X128480Y19730D02*
X123881D01*
Y19500D01*
X124194Y17924D01*
X125087Y16587D01*
X126424Y15694D01*
X128000Y15381D01*
X128480D01*
Y19730D01*
D02*
G37*
G36*
X111250Y11619D02*
X110770D01*
Y7270D01*
X115369D01*
Y7500D01*
X115056Y9076D01*
X114163Y10413D01*
X112826Y11306D01*
X111250Y11619D01*
D02*
G37*
G36*
X214987Y19500D02*
X213013D01*
X211105Y18989D01*
X209395Y18002D01*
X207999Y16605D01*
X207011Y14895D01*
X206500Y12987D01*
Y11013D01*
X207011Y9105D01*
X207999Y7395D01*
X209395Y5998D01*
X211105Y5011D01*
X213013Y4500D01*
X214987D01*
X216895Y5011D01*
X218605Y5998D01*
X220002Y7395D01*
X220989Y9105D01*
X221500Y11013D01*
Y12987D01*
X220989Y14895D01*
X220002Y16605D01*
X218605Y18002D01*
X216895Y18989D01*
X214987Y19500D01*
D02*
G37*
G36*
X123730Y219480D02*
X119381D01*
Y219000D01*
X119694Y217424D01*
X120587Y216087D01*
X121924Y215194D01*
X123500Y214881D01*
X123730D01*
Y219480D01*
D02*
G37*
G36*
X160500Y128119D02*
X160270D01*
Y123520D01*
X164619D01*
Y124000D01*
X164306Y125576D01*
X163413Y126913D01*
X162076Y127806D01*
X160500Y128119D01*
D02*
G37*
%LPD*%
D12*
X47250Y60750D02*
Y84216D01*
Y60750D02*
X53000Y55000D01*
X17760Y104240D02*
Y113250D01*
X22000Y100000D02*
X31466D01*
X17760Y104240D02*
X22000Y100000D01*
X24990Y103000D02*
X32709D01*
X50250Y85459D01*
X31466Y100000D02*
X47250Y84216D01*
X53000Y55000D02*
X78747D01*
X50250Y65879D02*
X57083Y59046D01*
X50250Y65879D02*
Y85459D01*
X21750Y106240D02*
X24990Y103000D01*
X25250Y121007D02*
Y129260D01*
X23250Y119007D02*
X25250Y121007D01*
X26250Y117765D02*
X34235Y125750D01*
X23250Y114497D02*
Y119007D01*
X21750Y106240D02*
Y112997D01*
X20000Y119510D02*
X20250Y119260D01*
X26000Y108000D02*
Y113004D01*
X26250Y113254D02*
Y117765D01*
X20250Y115740D02*
Y119260D01*
X34235Y125750D02*
X39150D01*
X21750Y112997D02*
X23250Y114497D01*
X26000Y113004D02*
X26250Y113254D01*
X17760Y113250D02*
X20250Y115740D01*
X72250Y103255D02*
Y105553D01*
X69000Y108803D02*
X72250Y105553D01*
Y103255D02*
X78200Y97305D01*
X69000Y108803D02*
Y109000D01*
X68656Y109344D02*
X69000Y109000D01*
X58879Y62046D02*
X70101D01*
X58000Y62925D02*
Y71750D01*
Y62925D02*
X58879Y62046D01*
X57083Y59046D02*
X72495D01*
X74000Y65945D02*
Y80495D01*
X70101Y62046D02*
X74000Y65945D01*
X72495Y59046D02*
X78699Y65250D01*
X20000Y119510D02*
Y120990D01*
X72700Y184700D02*
Y189690D01*
X30134Y177000D02*
X65000D01*
X72700Y184700D01*
Y203510D02*
Y212133D01*
Y203510D02*
X77850Y198360D01*
Y194840D02*
Y198360D01*
X72700Y189690D02*
X77850Y194840D01*
X69133Y215700D02*
X72700Y212133D01*
X69133Y215700D02*
Y220867D01*
X63600Y216000D02*
X67000Y212600D01*
Y194590D02*
X67850Y195440D01*
Y207760D01*
X62250Y180250D02*
X67000Y185000D01*
Y208610D02*
Y212600D01*
Y185000D02*
Y194590D01*
Y208610D02*
X67850Y207760D01*
X118000Y341000D02*
X134000Y325000D01*
X118000Y368000D02*
X127250Y377250D01*
X118000Y341000D02*
Y368000D01*
X127250Y377250D02*
Y399250D01*
X134000Y406000D01*
X127750Y286750D02*
X129160Y288160D01*
Y320160D01*
X134000Y325000D01*
X127750Y265250D02*
Y286750D01*
X147850Y228850D02*
Y245140D01*
X138750Y254240D02*
X147850Y245140D01*
X129000Y191500D02*
Y200000D01*
X134000Y205000D01*
X118000Y180500D02*
X129000Y191500D01*
X118000Y156010D02*
Y180500D01*
X116750Y151240D02*
Y154760D01*
X118000Y156010D01*
Y137000D02*
X128250Y126750D01*
X116750Y151240D02*
X118000Y149990D01*
Y137000D02*
Y149990D01*
X128250Y110750D02*
Y126750D01*
Y110750D02*
X134000Y105000D01*
Y205000D02*
Y215000D01*
X147850Y228850D01*
X135000Y262000D02*
X138750Y258250D01*
Y254240D02*
Y258250D01*
X127750Y265250D02*
X131000Y262000D01*
X135000D01*
X134000Y406000D02*
Y435000D01*
X94000Y26200D02*
Y47300D01*
X87350Y53950D02*
X94000Y47300D01*
X90129Y65250D02*
X103600Y51779D01*
X78699Y65250D02*
X90129D01*
X79797Y53950D02*
X87350D01*
X78747Y55000D02*
X79797Y53950D01*
X74000Y80495D02*
X78200Y84695D01*
Y97305D01*
X56000Y180250D02*
X62250D01*
X9250D02*
X56000D01*
X56250Y180500D02*
Y186000D01*
X56000Y180250D02*
X56250Y180500D01*
X62923Y216000D02*
X63600D01*
X61711Y214787D02*
X62923Y216000D01*
X56250Y213000D02*
X58037Y214787D01*
X61711D01*
X1750Y172750D02*
X9250Y180250D01*
X20000Y120990D02*
X22250Y123240D01*
Y130503D01*
X1750Y124673D02*
Y172750D01*
Y124673D02*
X4323Y122100D01*
X25250Y129260D02*
X32740Y136750D01*
X103600Y26600D02*
Y51779D01*
X46716Y120283D02*
Y128250D01*
Y120283D02*
X47000Y120000D01*
X44967Y130000D02*
X46716Y128250D01*
X32740Y136750D02*
X33003D01*
X22250Y130503D02*
X31497Y139750D01*
X33003Y136750D02*
X34253Y138000D01*
X39400D01*
X31760Y139750D02*
X34010Y142000D01*
X31497Y139750D02*
X31760D01*
X24600Y157915D02*
Y171466D01*
X8850Y146250D02*
X12935D01*
X24600Y157915D01*
X8600Y146000D02*
X8850Y146250D01*
X24600Y171466D02*
X30134Y177000D01*
X15997Y142250D02*
X19118Y145371D01*
X25760Y151250D02*
X26532Y150478D01*
X19240Y141250D02*
X23121D01*
X22240Y151250D02*
X25760D01*
X19118Y148129D02*
X22240Y151250D01*
X26532Y150478D02*
X29522D01*
X16240Y138250D02*
X19240Y141250D01*
X19118Y145371D02*
Y148129D01*
X8850Y142250D02*
X15997D01*
X8850Y138250D02*
X16240D01*
X8600Y134000D02*
X18000D01*
X21000Y137000D02*
X21000D01*
X18000Y134000D02*
X21000Y137000D01*
X24000Y142129D02*
Y147000D01*
X23121Y141250D02*
X24000Y142129D01*
X8500Y122100D02*
X8600Y122000D01*
X4323Y122100D02*
X8500D01*
X30000Y128282D02*
X35468Y133750D01*
X30000Y128000D02*
Y128282D01*
X39150Y125750D02*
X39400Y126000D01*
X39150Y133750D02*
X39400Y134000D01*
X35468Y133750D02*
X39150D01*
X39400Y130000D02*
X44967D01*
X34010Y142000D02*
X39400D01*
X30000Y144000D02*
X30677D01*
X32676Y146000D01*
X39400D01*
X29522Y150478D02*
X30000Y150000D01*
X8600Y142000D02*
X8850Y142250D01*
X8600Y138000D02*
X8850Y138250D01*
X12777Y126000D02*
X15777Y123000D01*
X8600Y126000D02*
X12777D01*
X8600Y130000D02*
X16513D01*
X17513Y129000D02*
X18000D01*
X16513Y130000D02*
X17513Y129000D01*
X15777Y123000D02*
X16000D01*
X64717Y112000D02*
X67372Y109344D01*
X68656D01*
X64250Y112000D02*
X64717D01*
X94000Y26200D02*
X103600Y16600D01*
X69000Y221000D02*
X69133Y220867D01*
D14*
X54250Y290000D02*
D03*
X43750D02*
D03*
Y299000D02*
D03*
X54250D02*
D03*
X45750Y213000D02*
D03*
X56250D02*
D03*
Y186000D02*
D03*
X45750D02*
D03*
X146750Y398000D02*
D03*
X157250D02*
D03*
X36750Y446000D02*
D03*
X47250D02*
D03*
Y437000D02*
D03*
X36750D02*
D03*
Y419000D02*
D03*
X47250D02*
D03*
X53750Y112000D02*
D03*
X64250D02*
D03*
X170250Y54000D02*
D03*
X159750D02*
D03*
X182250Y265000D02*
D03*
X171750D02*
D03*
X135750Y112000D02*
D03*
X146250D02*
D03*
X159750Y45000D02*
D03*
X170250D02*
D03*
X140250Y40000D02*
D03*
X129750D02*
D03*
X53750Y130000D02*
D03*
X64250D02*
D03*
X56250Y195000D02*
D03*
X45750D02*
D03*
X146750Y160000D02*
D03*
X157250D02*
D03*
X126750D02*
D03*
X137250D02*
D03*
X45750Y240000D02*
D03*
X56250D02*
D03*
X54250Y317000D02*
D03*
X43750D02*
D03*
X158250Y320000D02*
D03*
X147750D02*
D03*
X171750Y284000D02*
D03*
X182250D02*
D03*
Y293000D02*
D03*
X171750D02*
D03*
X147750Y329000D02*
D03*
X158250D02*
D03*
X36750Y428000D02*
D03*
X47250D02*
D03*
X157250Y389000D02*
D03*
X146750D02*
D03*
Y380000D02*
D03*
X157250D02*
D03*
X148750Y434000D02*
D03*
X159250D02*
D03*
X135750Y121000D02*
D03*
X146250D02*
D03*
Y130000D02*
D03*
X135750D02*
D03*
X53750Y121000D02*
D03*
X64250D02*
D03*
X171750Y274000D02*
D03*
X182250D02*
D03*
X56250Y231000D02*
D03*
X45750D02*
D03*
Y222000D02*
D03*
X56250D02*
D03*
X54250Y335000D02*
D03*
X43750D02*
D03*
X146750Y370000D02*
D03*
X157250D02*
D03*
X146750Y350000D02*
D03*
X157250D02*
D03*
Y341000D02*
D03*
X146750D02*
D03*
X159250Y151000D02*
D03*
X148750D02*
D03*
X129750Y31000D02*
D03*
X140250D02*
D03*
X170250Y27000D02*
D03*
X159750D02*
D03*
X56250Y204000D02*
D03*
X45750D02*
D03*
X148750Y141000D02*
D03*
X159250D02*
D03*
X127750D02*
D03*
X138250D02*
D03*
X53750Y139000D02*
D03*
X64250D02*
D03*
X43750Y308000D02*
D03*
X54250D02*
D03*
X147750Y311000D02*
D03*
X158250D02*
D03*
X47250Y410000D02*
D03*
X36750D02*
D03*
X146750Y360000D02*
D03*
X157250D02*
D03*
X148750Y425000D02*
D03*
X159250D02*
D03*
X89250Y6000D02*
D03*
X78750D02*
D03*
X99000D02*
D03*
X109500D02*
D03*
X129750Y21000D02*
D03*
X140250D02*
D03*
X159750Y36000D02*
D03*
X170250D02*
D03*
D15*
X58000Y71750D02*
D03*
Y82250D02*
D03*
X55000Y344750D02*
D03*
Y355250D02*
D03*
X158000Y169750D02*
D03*
Y180250D02*
D03*
X149000Y169750D02*
D03*
Y180250D02*
D03*
X58000Y102250D02*
D03*
Y91750D02*
D03*
X67000Y20250D02*
D03*
Y9750D02*
D03*
Y82250D02*
D03*
Y71750D02*
D03*
X136000Y180250D02*
D03*
Y169750D02*
D03*
X127000D02*
D03*
Y180250D02*
D03*
X125000Y220750D02*
D03*
Y231250D02*
D03*
X159000Y122250D02*
D03*
Y111750D02*
D03*
X67000Y91750D02*
D03*
Y102250D02*
D03*
Y45250D02*
D03*
Y34750D02*
D03*
X125000Y251250D02*
D03*
Y240750D02*
D03*
X192000Y295250D02*
D03*
Y284750D02*
D03*
X56000Y273250D02*
D03*
Y262750D02*
D03*
X55000Y375250D02*
D03*
Y364750D02*
D03*
X135000Y368750D02*
D03*
Y379250D02*
D03*
D16*
X252000Y364600D02*
D03*
Y395400D02*
D03*
X248000Y364600D02*
D03*
Y395400D02*
D03*
X244000Y364600D02*
D03*
Y395400D02*
D03*
X240000Y364600D02*
D03*
Y395400D02*
D03*
X236000Y364600D02*
D03*
Y395400D02*
D03*
X232000Y364600D02*
D03*
Y395400D02*
D03*
X228000Y364600D02*
D03*
Y395400D02*
D03*
X224000Y364600D02*
D03*
Y395400D02*
D03*
X220000Y364600D02*
D03*
Y395400D02*
D03*
X216000Y364600D02*
D03*
Y395400D02*
D03*
X212000Y364600D02*
D03*
Y395400D02*
D03*
X208000Y364600D02*
D03*
Y395400D02*
D03*
D17*
X8600Y118000D02*
D03*
X39400D02*
D03*
X8600Y122000D02*
D03*
X39400D02*
D03*
X8600Y126000D02*
D03*
X39400D02*
D03*
X8600Y130000D02*
D03*
X39400D02*
D03*
X8600Y134000D02*
D03*
X39400D02*
D03*
X8600Y138000D02*
D03*
X39400D02*
D03*
X8600Y142000D02*
D03*
X39400D02*
D03*
X8600Y146000D02*
D03*
X39400D02*
D03*
X8600Y150000D02*
D03*
X39400D02*
D03*
X8600Y154000D02*
D03*
X39400D02*
D03*
X8600Y158000D02*
D03*
X39400D02*
D03*
X8600Y162000D02*
D03*
X39400D02*
D03*
D18*
X226000Y132500D02*
D03*
Y145000D02*
D03*
Y157500D02*
D03*
Y170000D02*
D03*
Y182500D02*
D03*
Y195000D02*
D03*
Y207500D02*
D03*
Y220000D02*
D03*
Y232500D02*
D03*
Y245000D02*
D03*
Y257500D02*
D03*
Y270000D02*
D03*
Y282500D02*
D03*
Y295000D02*
D03*
Y307500D02*
D03*
D19*
X255000Y333000D02*
D03*
Y107000D02*
D03*
D28*
X181300Y172143D02*
G03*
X174000Y164843I0J-7300D01*
G01*
X185011Y172143D02*
G03*
X185011Y179343I0J3600D01*
G01*
X183687Y179900D02*
G03*
X185011Y179343I1324J1292D01*
G01*
X181849Y192972D02*
G03*
X183687Y179900I9823J-5283D01*
G01*
X182163Y193395D02*
G03*
X181849Y192972I1313J-1303D01*
G01*
X181300Y168443D02*
G03*
X177700Y164843I0J-3600D01*
G01*
X185011Y168443D02*
G03*
X185885Y182990I0J7300D01*
G01*
X184988Y190988D02*
G03*
X185885Y182990I6684J-3299D01*
G01*
X193600Y136550D02*
G03*
X186300Y129250I0J-7300D01*
G01*
X195627Y136550D02*
G03*
X199228Y140150I0J3600D01*
G01*
Y140150D02*
G03*
X195627Y143750I-3600J0D01*
G01*
X186300Y151050D02*
G03*
X193600Y143750I7300J0D01*
G01*
Y132850D02*
G03*
X190000Y129250I0J-3600D01*
G01*
X195627Y132850D02*
G03*
X202927Y140150I0J7300D01*
G01*
Y140150D02*
G03*
X195627Y147450I-7300J0D01*
G01*
X190000Y151050D02*
G03*
X193600Y147450I3600J0D01*
G01*
X159000Y107000D02*
Y111750D01*
X123600Y26600D02*
X123944Y26944D01*
X125228D01*
X72656Y95656D02*
X73000Y96000D01*
X70872Y95656D02*
X72656D01*
X159000Y111750D02*
Y112000D01*
X62513Y366000D02*
X63000D01*
X61263Y364750D02*
X62513Y366000D01*
X55000Y364750D02*
X56250Y366000D01*
X33000Y107000D02*
X42000D01*
X30600Y117377D02*
X35223Y122000D01*
X30600Y109400D02*
Y117377D01*
X35223Y122000D02*
X39400D01*
X30600Y109400D02*
X33000Y107000D01*
X42000D02*
X44400Y109400D01*
X107899Y85000D02*
X166000D01*
X106367Y81300D02*
X167533D01*
X93933Y75300D02*
X175300D01*
X92400Y71600D02*
X176833D01*
X124850Y99150D02*
X134000Y90000D01*
X159000D02*
X177700Y108700D01*
X157467Y93700D02*
X174000Y110233D01*
X135533Y93700D02*
X157467D01*
X134000Y90000D02*
X159000D01*
X126383Y102850D02*
X135533Y93700D01*
X174000Y149758D02*
X174000D01*
X174000D02*
Y153474D01*
X174000Y153474D01*
Y164843D01*
X181300Y172143D02*
X185011D01*
X185011Y179343D02*
X185011D01*
X182163Y193395D02*
X183810Y195043D01*
Y195043D01*
X177700Y149758D02*
Y153474D01*
X177700Y153474D02*
X177700Y153474D01*
X177700Y153474D02*
Y164843D01*
X181300Y168443D02*
X185011D01*
X184988Y190988D02*
X189043Y195043D01*
X189043Y195043D01*
X174000Y110233D02*
Y149758D01*
X177700Y108700D02*
Y149758D01*
X183810Y195043D02*
X191867Y203100D01*
X189043Y195043D02*
X193400Y199400D01*
X186300Y112974D02*
X186300D01*
X186300D02*
Y129250D01*
X193600Y136550D02*
X195627D01*
X199228Y140150D02*
Y140150D01*
X193600Y143750D02*
X195627D01*
X186300Y151050D02*
Y154000D01*
X186300D01*
X190000Y112974D02*
Y129250D01*
X193600Y132850D02*
X195627D01*
X202927Y140150D02*
Y140150D01*
X193600Y147450D02*
X195627D01*
X190000Y151050D02*
Y154000D01*
X186300Y105300D02*
Y112974D01*
X190000Y103767D02*
Y112974D01*
X98370Y195092D02*
X99659Y193803D01*
X94087Y196600D02*
X95595Y195092D01*
X99659Y189268D02*
X102000Y186927D01*
X93600Y196600D02*
X94087D01*
X99659Y189268D02*
Y193803D01*
X103359Y190801D02*
Y197148D01*
X100700Y110000D02*
X105700Y115000D01*
X103359Y197148D02*
X105000Y198789D01*
X119000Y186238D02*
Y210000D01*
X103359Y190801D02*
X105700Y188460D01*
X111176Y110011D02*
X113100Y111935D01*
Y180338D01*
X119000Y186238D01*
X105700Y115000D02*
Y188460D01*
X109400Y113468D02*
Y181870D01*
X97000Y111533D02*
X102000Y116533D01*
Y186927D01*
X107476Y111544D02*
X109400Y113468D01*
X95595Y195092D02*
X98370D01*
X105000Y198789D02*
Y204411D01*
X109400Y181870D02*
X115300Y187770D01*
X103000Y206411D02*
Y206600D01*
X111176Y108189D02*
X113000Y106365D01*
X103000Y206411D02*
X105000Y204411D01*
X107476Y102011D02*
X113000Y96487D01*
Y105513D02*
Y106365D01*
X107476Y102011D02*
Y111544D01*
X115300Y187770D02*
Y203811D01*
X111176Y108189D02*
Y110011D01*
X88504Y198176D02*
X91131Y200803D01*
X84804Y160142D02*
Y199709D01*
X91131Y200803D02*
Y205691D01*
X83944Y212878D02*
X91131Y205691D01*
X87431Y202336D02*
Y204158D01*
X84804Y199709D02*
X87431Y202336D01*
X85934Y205656D02*
X87431Y204158D01*
X83944Y205656D02*
X85934D01*
X83944Y212878D02*
Y216143D01*
X83600Y206000D02*
X83944Y205656D01*
X88504Y158610D02*
Y198176D01*
X79000Y104095D02*
X83256Y99839D01*
Y96344D02*
Y99839D01*
X79000Y113776D02*
X83700Y118476D01*
X79000Y104095D02*
Y113776D01*
X83600Y106165D02*
Y113144D01*
X87400Y116944D01*
X83700Y118476D02*
Y159038D01*
X87400Y116944D02*
Y157505D01*
X83256Y96344D02*
X83600Y96000D01*
Y80400D02*
Y96000D01*
Y105513D02*
Y105961D01*
Y105513D02*
X88719Y100393D01*
X97903Y416811D02*
X99192Y415522D01*
X93600Y416811D02*
X97903D01*
X99192Y329390D02*
Y415522D01*
X100519Y421997D02*
X102892Y419624D01*
X100519Y421997D02*
Y423819D01*
X98448Y323413D02*
X102892Y327857D01*
X93944Y324142D02*
X99192Y329390D01*
X93944Y306944D02*
Y324142D01*
X98448Y317889D02*
X99737Y316600D01*
X103000D01*
X98448Y317889D02*
Y323413D01*
X36750Y419000D02*
Y428000D01*
Y410000D02*
Y419000D01*
X47500D02*
X53256Y424756D01*
Y425656D01*
X47250Y419000D02*
X47500D01*
X53256Y425656D02*
X53600Y426000D01*
X67000Y71283D02*
Y71750D01*
X63380Y66809D02*
Y67663D01*
X67000Y71283D01*
X63035Y66465D02*
X63380Y66809D01*
X66875Y45125D02*
X67000Y45250D01*
X55000Y45000D02*
X55125Y45125D01*
X66875D01*
X43750Y317000D02*
X43875Y317125D01*
Y320875D01*
X44000Y321000D01*
X43750Y308000D02*
Y317000D01*
Y299000D02*
Y308000D01*
X143600Y296117D02*
X154717Y285000D01*
X156000D01*
X143600Y296117D02*
Y296600D01*
X144000Y285000D02*
X151000Y278000D01*
X49000Y144000D02*
Y144284D01*
X54000Y149284D02*
Y151000D01*
X49000Y144284D02*
X54000Y149284D01*
X133323Y135790D02*
Y136277D01*
X133847Y131869D02*
Y135266D01*
X133323Y135790D02*
X133847Y135266D01*
X135716Y130000D02*
X135750D01*
X133847Y131869D02*
X135716Y130000D01*
X170250Y45000D02*
X170716D01*
X172717Y43000D02*
X182000D01*
X170716Y45000D02*
X172717Y43000D01*
X170250Y36000D02*
Y45000D01*
Y27000D02*
Y36000D01*
X53783Y112000D02*
X58000Y107783D01*
Y102250D02*
Y107783D01*
X53750Y112000D02*
X53783D01*
X53750D02*
Y121000D01*
X45750Y213000D02*
Y222000D01*
Y204000D02*
Y213000D01*
X189000Y265000D02*
X192000Y268000D01*
Y278000D01*
X182250Y265000D02*
X189000D01*
X64344Y254656D02*
X69232D01*
X64000Y255000D02*
X64344Y254656D01*
X69232D02*
X71887Y252000D01*
X75000D01*
X78200Y255200D01*
Y261800D01*
X63344Y246256D02*
X67444D01*
X63000Y246600D02*
X63344Y246256D01*
X67444D02*
X67700Y246000D01*
X73000D01*
X69000Y271000D02*
X78200Y261800D01*
X69000Y271000D02*
Y324000D01*
X65300Y338205D02*
Y349817D01*
X68400Y324600D02*
X69000Y324000D01*
X68400Y324600D02*
Y331662D01*
X69300Y332562D02*
Y339438D01*
X68400Y331662D02*
X69300Y332562D01*
X69000Y339738D02*
X69300Y339438D01*
X69000Y339738D02*
Y345000D01*
X65600Y334095D02*
Y337905D01*
X65300Y338205D02*
X65600Y337905D01*
X73000Y327000D02*
Y341000D01*
X80000Y348000D01*
X65300Y421405D02*
Y449300D01*
X72600Y348600D02*
Y357600D01*
X68200Y382436D02*
Y418505D01*
X65300Y421405D02*
X68200Y418505D01*
X68000Y382236D02*
X68200Y382436D01*
X65300Y449300D02*
X72000Y456000D01*
X65300Y349817D02*
X68000Y352518D01*
Y382236D01*
X69000Y345000D02*
X72600Y348600D01*
X55000Y344750D02*
Y344784D01*
X57116Y346900D01*
X57150D02*
X63000Y352750D01*
Y356600D01*
X57116Y346900D02*
X57150D01*
X63600Y332095D02*
X65600Y334095D01*
X63600Y326000D02*
Y332095D01*
X60656Y335656D02*
X61000Y336000D01*
X54906Y335656D02*
X60656D01*
X54250Y335000D02*
X54906Y335656D01*
X80000Y348000D02*
Y376000D01*
X121400Y174400D02*
X127000Y180000D01*
X126500Y160000D02*
X126750D01*
X121400Y165100D02*
X126500Y160000D01*
X121400Y165100D02*
Y174400D01*
X127000Y180000D02*
Y180250D01*
X108673Y298905D02*
X115000Y305233D01*
X112373Y297372D02*
X118700Y303700D01*
X115000Y305233D02*
Y313811D01*
X113217Y322289D02*
X118700Y316805D01*
Y303700D02*
Y316805D01*
X113217Y322289D02*
Y325783D01*
X113000Y315811D02*
Y316000D01*
Y315811D02*
X115000Y313811D01*
X77600Y331738D02*
X84500Y338638D01*
X93708Y306708D02*
X93944Y306944D01*
X81300Y330205D02*
X88200Y337105D01*
X102892Y327857D02*
Y419624D01*
X77600Y322487D02*
X83600Y316487D01*
X81300Y328189D02*
Y330205D01*
Y328189D02*
X83489Y326000D01*
X84500Y338638D02*
Y424613D01*
X77600Y322487D02*
Y331738D01*
X83489Y326000D02*
X83600D01*
Y316000D02*
Y316487D01*
X88200Y337105D02*
Y421200D01*
X103000Y426300D02*
Y426600D01*
X100519Y423819D02*
X103000Y426300D01*
X37000Y189000D02*
X40000Y186000D01*
X37000Y189000D02*
Y213000D01*
X40000Y186000D02*
X45750D01*
X170125Y54125D02*
Y60875D01*
X170000Y61000D02*
X170125Y60875D01*
Y54125D02*
X170250Y54000D01*
X48000Y260000D02*
X48284D01*
X56000Y251000D02*
Y252283D01*
X48284Y260000D02*
X56000Y252283D01*
X36000Y282000D02*
X50000D01*
X35005Y282995D02*
X36000Y282000D01*
X34000Y284000D02*
Y321000D01*
Y284000D02*
X35005Y282995D01*
X52347Y288130D02*
X54216Y290000D01*
X52347Y284347D02*
Y288130D01*
X54216Y290000D02*
X54250D01*
X50000Y282000D02*
X52347Y284347D01*
X34000Y321000D02*
X39000Y326000D01*
X63600D01*
X157250Y398000D02*
X170000D01*
X27000Y437000D02*
X36750D01*
X23000Y407000D02*
Y433000D01*
X27000Y437000D01*
X23000Y407000D02*
X29000Y401000D01*
X44000D01*
X47250Y404250D01*
Y410000D01*
X44487Y396000D02*
X45487Y395000D01*
X44000Y396000D02*
X44487D01*
X45487Y395000D02*
X54000D01*
X83600Y425513D02*
X84500Y424613D01*
X83600Y425513D02*
Y426000D01*
Y436000D02*
X90000Y429600D01*
Y423000D02*
Y429600D01*
X88200Y421200D02*
X90000Y423000D01*
X177000Y62513D02*
X181502Y58011D01*
Y53498D02*
X182000Y53000D01*
X181502Y53498D02*
Y58011D01*
X177000Y62513D02*
Y63000D01*
X175300Y75300D02*
X206628Y106628D01*
X176833Y71600D02*
X210327Y105095D01*
X142000Y61000D02*
X149000Y54000D01*
X159750D01*
X58000Y82250D02*
Y82500D01*
X67000Y91500D01*
Y91750D01*
X84000Y25000D02*
X89000Y30000D01*
Y47000D01*
X85400Y50600D02*
X89000Y47000D01*
X47677Y51100D02*
X77909D01*
X78409Y50600D02*
X85400D01*
X46289Y49711D02*
X47677Y51100D01*
X46289Y42000D02*
Y49711D01*
X77909Y51100D02*
X78409Y50600D01*
X46289Y42000D02*
X46500D01*
X53500Y35000D01*
X55000D01*
X72600Y6302D02*
Y27600D01*
X70198Y3900D02*
X72600Y6302D01*
X55975Y3900D02*
X70198D01*
X46875Y13000D02*
X55975Y3900D01*
X30000Y13000D02*
X46875D01*
X64289Y23428D02*
X67000Y20717D01*
X63944Y25000D02*
X64289Y24656D01*
Y23428D02*
Y24656D01*
X64250Y121000D02*
X64500D01*
X69251Y125751D02*
X71751D01*
X64500Y121000D02*
X69251Y125751D01*
X71751D02*
X72000Y126000D01*
X70156Y135656D02*
X72656D01*
X64500Y130000D02*
X70156Y135656D01*
X72656D02*
X73000Y136000D01*
X83700Y159038D02*
X84804Y160142D01*
X87400Y157505D02*
X88504Y158610D01*
X142344Y173656D02*
X145128D01*
X142000Y174000D02*
X142344Y173656D01*
X149000Y169750D02*
Y169783D01*
X145128Y173656D02*
X149000Y169783D01*
Y180250D02*
X158000D01*
X147075Y184641D02*
X147347Y184370D01*
Y181903D02*
Y184370D01*
Y181903D02*
X149000Y180250D01*
X143600Y196113D02*
Y196600D01*
Y196113D02*
X147000Y192713D01*
Y186495D02*
Y192713D01*
Y186495D02*
X147075Y186419D01*
Y184641D02*
Y186419D01*
X127000Y180250D02*
X136000D01*
X137000Y181250D02*
Y192713D01*
X136000Y180250D02*
X137000Y181250D01*
X133600Y196113D02*
Y196600D01*
Y196113D02*
X137000Y192713D01*
X162600Y193600D02*
X173000Y204000D01*
Y225000D01*
X162600Y187600D02*
Y193600D01*
X154300Y304513D02*
Y305000D01*
X156000Y295000D02*
Y302813D01*
X154300Y304513D02*
X156000Y302813D01*
X151000Y265000D02*
Y278000D01*
Y265000D02*
X157000Y259000D01*
X165500D01*
X171500Y265000D02*
X171750D01*
X165500Y259000D02*
X171500Y265000D01*
X54250Y290000D02*
Y299000D01*
X136000Y393000D02*
X136017Y393017D01*
X141300D01*
X146284Y398000D01*
X146750D01*
X152656Y415156D02*
Y416656D01*
X147000Y408000D02*
Y409500D01*
X152656Y415156D01*
Y416656D02*
X153000Y417000D01*
X48903Y444347D02*
X53166D01*
X53513Y444000D01*
X47250Y446000D02*
X48903Y444347D01*
X53513Y444000D02*
X54000D01*
X47250Y437000D02*
Y446000D01*
X159250Y425000D02*
Y434000D01*
X143600Y436000D02*
X144087D01*
X144434Y435653D01*
X147097D01*
X148750Y434000D01*
X143600Y416600D02*
X143944Y416944D01*
Y420228D01*
X148716Y425000D01*
X148750D01*
X81000Y446000D02*
X156298D01*
X176000Y385000D02*
Y426298D01*
X156298Y446000D02*
X176000Y426298D01*
X71495Y141000D02*
X76000D01*
X77500Y142500D01*
X69939Y139444D02*
X71495Y141000D01*
X77500Y142500D02*
Y153500D01*
X64694Y139444D02*
X69939D01*
X64250Y139000D02*
X64694Y139444D01*
X115663Y102850D02*
X126383D01*
X115663Y99150D02*
X124850D01*
X56130Y89847D02*
X58000Y91716D01*
X55334Y89847D02*
X56130D01*
X54487Y89000D02*
X55334Y89847D01*
X54000Y89000D02*
X54487D01*
X101067Y86600D02*
X106367Y81300D01*
X167533D02*
X190000Y103767D01*
X83600Y80400D02*
X92400Y71600D01*
X113000Y105513D02*
X115663Y102850D01*
X113000Y96487D02*
X115663Y99150D01*
X79000Y214095D02*
Y222133D01*
X79900Y209067D02*
X82067Y206900D01*
X79900Y209067D02*
Y213195D01*
X82067Y206900D02*
X82213D01*
X79000Y214095D02*
X79900Y213195D01*
X83113Y206000D02*
X83600D01*
X82213Y206900D02*
X83113Y206000D01*
X79000Y222133D02*
X84500Y227633D01*
X83600Y221500D02*
X88200Y226100D01*
X83600Y216487D02*
Y221500D01*
Y216487D02*
X83944Y216143D01*
X100700Y99089D02*
Y110000D01*
X97000Y97000D02*
Y111533D01*
X113000Y216000D02*
X119000Y210000D01*
X219100Y197900D02*
X222000Y195000D01*
X217811Y199400D02*
X219100Y198111D01*
X191867Y203100D02*
X217811D01*
X219100Y204389D01*
Y204600D01*
Y197900D02*
Y198111D01*
X193400Y199400D02*
X217811D01*
X219100Y204600D02*
X222000Y207500D01*
X186300Y158283D02*
X206117Y178100D01*
X217811D01*
X207650Y174400D02*
X217811D01*
X190000Y154000D02*
Y156750D01*
X186300Y154000D02*
Y158283D01*
X190000Y156750D02*
X207650Y174400D01*
X166000Y85000D02*
X186300Y105300D01*
X103000Y89899D02*
X107899Y85000D01*
X112513Y316487D02*
X113000D01*
X210327Y145095D02*
X214633Y149400D01*
X210327Y105095D02*
Y145095D01*
X206628Y146628D02*
X213100Y153100D01*
X214633Y149400D02*
X217811D01*
X213100Y153100D02*
X217811D01*
X206628Y106628D02*
Y146628D01*
X8600Y118000D02*
X10900D01*
X11000Y117900D01*
Y115000D02*
Y117900D01*
X44400Y109905D02*
X45700Y111205D01*
X44400Y109400D02*
Y109905D01*
X45700Y111205D02*
Y113700D01*
X46000Y114000D01*
X113111Y206000D02*
X115300Y203811D01*
X113000Y206000D02*
X113111D01*
X107000Y322000D02*
X112513Y316487D01*
X112656Y326344D02*
X113217Y325783D01*
X107000Y322000D02*
Y331000D01*
X117000Y412000D02*
Y423000D01*
X112373Y407373D02*
X117000Y412000D01*
X119000Y425000D02*
Y430000D01*
X117000Y423000D02*
X119000Y425000D01*
X222000Y207500D02*
X226000D01*
X89125Y6125D02*
X89250Y6000D01*
X89125Y6125D02*
Y10875D01*
X89000Y11000D02*
X89125Y10875D01*
X159250Y151000D02*
X165513D01*
X146375Y379625D02*
X146750Y380000D01*
X135000Y379250D02*
X135375Y379625D01*
X146375D01*
X135750Y121000D02*
Y130000D01*
Y112000D02*
Y121000D01*
X45750Y195000D02*
Y204000D01*
Y231000D02*
Y240000D01*
Y222000D02*
Y231000D01*
X146750Y380000D02*
Y389000D01*
Y370000D02*
Y380000D01*
Y360000D02*
Y370000D01*
X157250Y341000D02*
Y350000D01*
X157750Y329500D02*
Y340500D01*
X157250Y341000D02*
X157750Y340500D01*
Y329500D02*
X158250Y329000D01*
Y320000D02*
Y329000D01*
Y311000D02*
Y320000D01*
X53717Y139000D02*
X53750Y138967D01*
X83600Y326000D02*
Y326000D01*
X58000Y102250D02*
X67000D01*
X57094Y101344D02*
X58000Y102250D01*
X51344Y101344D02*
X57094D01*
X51000Y101000D02*
X51344Y101344D01*
X40000Y113000D02*
Y113487D01*
X39400Y114087D02*
Y118000D01*
Y114087D02*
X40000Y113487D01*
X53750Y130000D02*
Y138967D01*
Y121000D02*
Y130000D01*
X49000Y143716D02*
Y144000D01*
X53717Y139000D02*
X53750D01*
X49000Y143716D02*
X53717Y139000D01*
X83600Y315513D02*
X84500Y314613D01*
X88200Y311200D02*
X90000Y313000D01*
X88200Y226100D02*
Y311200D01*
X83600Y326000D02*
X90000Y319600D01*
X83600Y315513D02*
Y316000D01*
X84500Y227633D02*
Y314613D01*
X90000Y313000D02*
Y319600D01*
X58000Y91716D02*
Y91750D01*
X192000Y278000D02*
Y284750D01*
X130760Y233760D02*
X130760D01*
X129444Y232444D02*
X130760Y233760D01*
X126194Y232444D02*
X129444D01*
X130760Y233760D02*
X133600Y236600D01*
X125000Y231250D02*
X126194Y232444D01*
X133600Y236600D02*
X143600D01*
X68000Y231000D02*
X73600Y236600D01*
X56250Y231000D02*
X68000D01*
X56250Y222000D02*
Y231000D01*
X133600Y316000D02*
X143600Y326000D01*
X133600Y306600D02*
Y316000D01*
X147717Y320000D02*
X147750D01*
X143944Y323772D02*
X147717Y320000D01*
X143944Y323772D02*
Y325656D01*
X143600Y326000D02*
X143944Y325656D01*
X144628Y326344D02*
X147283Y329000D01*
X143944Y326344D02*
X144628D01*
X147283Y329000D02*
X147750D01*
X143600Y326000D02*
X143944Y326344D01*
X147750Y320000D02*
Y329000D01*
X147717Y311000D02*
X147750D01*
X143600Y306884D02*
X147717Y311000D01*
X143600Y306600D02*
Y306884D01*
X63000Y246550D02*
Y246600D01*
X56250Y240000D02*
X56450D01*
X63000Y246550D01*
X68850Y262750D02*
X73600Y258000D01*
X56000Y262750D02*
X68850D01*
X57505Y196256D02*
X62656D01*
X63000Y196600D01*
X56250Y195000D02*
X57505Y196256D01*
X57903Y205653D02*
X62766D01*
X63113Y206000D02*
X63600D01*
X56250Y204000D02*
X57903Y205653D01*
X62766D02*
X63113Y206000D01*
X67000Y91784D02*
X70872Y95656D01*
X67000Y91750D02*
Y91784D01*
X64250Y130000D02*
X64500D01*
X144347Y110131D02*
X146216Y112000D01*
X146250D01*
X144347Y107234D02*
Y110131D01*
X143600Y106487D02*
X144347Y107234D01*
X143600Y106000D02*
Y106487D01*
X67000Y82283D02*
X70972Y86256D01*
X73256D01*
X73600Y86600D01*
X67000Y82250D02*
Y82283D01*
Y20250D02*
Y20717D01*
X122000Y40000D02*
X129750D01*
X129284Y31000D02*
X129750D01*
X125228Y26944D02*
X129284Y31000D01*
X153944Y46256D02*
X158494D01*
X159750Y45000D01*
X153600Y46600D02*
X153944Y46256D01*
X153900Y36300D02*
X159450D01*
X153600Y36600D02*
X153900Y36300D01*
X159450D02*
X159750Y36000D01*
X159550Y26800D02*
X159750Y27000D01*
X153800Y26800D02*
X159550D01*
X153600Y26600D02*
X153800Y26800D01*
X159250Y141000D02*
X167000D01*
X123944Y144772D02*
X127717Y141000D01*
X123944Y144772D02*
Y145656D01*
X127717Y141000D02*
X127750D01*
X123600Y146000D02*
X123944Y145656D01*
X165513Y160000D02*
X166513Y161000D01*
X167000D01*
X157250Y160000D02*
X165513D01*
X47250Y428000D02*
X48531Y426720D01*
X52393D02*
X53113Y426000D01*
X48531Y426720D02*
X52393D01*
X53113Y426000D02*
X53600D01*
X171750Y284000D02*
Y293000D01*
X169384Y282100D02*
X171283Y284000D01*
X171750D01*
X163000Y276000D02*
X169100Y282100D01*
X169384D01*
X147903Y128347D02*
X150766D01*
X152513Y126600D02*
X153000D01*
X146250Y130000D02*
X147903Y128347D01*
X150766D02*
X152513Y126600D01*
X146500Y121000D02*
X151756Y126256D01*
X146250Y121000D02*
X146500D01*
X93600Y16600D02*
X93600Y16600D01*
X83000Y16600D02*
X93600D01*
X99000Y6000D02*
Y11200D01*
X93600Y16600D02*
X99000Y11200D01*
X78750Y6000D02*
Y12350D01*
X83000Y16600D01*
X69000Y442000D02*
X77700Y450700D01*
X69000Y424095D02*
Y442000D01*
Y424095D02*
X74000Y419095D01*
X70000Y460000D02*
X167000D01*
X54000Y444000D02*
X70000Y460000D01*
X72000Y456000D02*
X163000D01*
X77700Y450700D02*
X158300D01*
X73848Y436248D02*
Y438848D01*
X81000Y446000D01*
X73600Y436000D02*
X73848Y436248D01*
X190000Y404000D02*
Y437000D01*
X167000Y460000D02*
X190000Y437000D01*
X180000Y404790D02*
Y429000D01*
X158300Y450700D02*
X180000Y429000D01*
X163000Y456000D02*
X185650Y433350D01*
Y415650D02*
Y433350D01*
X224000Y364600D02*
Y374711D01*
X222711Y376000D02*
X224000Y374711D01*
X198400Y369400D02*
X205000Y376000D01*
X222711D01*
X243000Y373000D02*
Y378000D01*
X238600Y382400D02*
Y386105D01*
Y382400D02*
X243000Y378000D01*
X238600Y386105D02*
X240000Y387505D01*
X234344Y385344D02*
Y388344D01*
X236000Y390000D02*
Y395400D01*
X234344Y388344D02*
X236000Y390000D01*
X234000Y385000D02*
X234344Y385344D01*
X187147Y369400D02*
X198400D01*
X212000Y388289D02*
Y395400D01*
X194289Y387000D02*
X210711D01*
X212000Y388289D01*
X193000Y385711D02*
X194289Y387000D01*
X193000Y374000D02*
Y385711D01*
X184274Y372274D02*
Y400517D01*
Y372274D02*
X187147Y369400D01*
X180000Y404790D02*
X184274Y400517D01*
X240000Y387505D02*
Y395400D01*
X183000Y359000D02*
X188600Y364600D01*
X208000D01*
X212000Y360289D02*
Y364600D01*
X210211Y358500D02*
X212000Y360289D01*
X191500Y358500D02*
X210211D01*
X188000Y355000D02*
X191500Y358500D01*
X212000Y354000D02*
X216000Y358000D01*
X198000Y349000D02*
X203000Y354000D01*
X212000D01*
X224000Y389000D02*
Y395400D01*
X244000Y385000D02*
Y395400D01*
X219000Y405513D02*
Y406000D01*
X220000Y395400D02*
Y404513D01*
X219000Y405513D02*
X220000Y404513D01*
X185325Y415325D02*
X185650Y415650D01*
X208000Y395400D02*
Y415000D01*
X232000Y395400D02*
Y401513D01*
X233000Y402513D01*
Y403000D01*
X228000Y395400D02*
Y410000D01*
X214233Y349000D02*
X220000Y354767D01*
X208000Y349000D02*
X214233D01*
X216000Y358000D02*
Y364600D01*
X220000Y354767D02*
Y364600D01*
X157250Y370000D02*
X157717D01*
X160772Y366944D01*
X157250Y360000D02*
X158903Y358347D01*
X160766D02*
X162513Y356600D01*
X158903Y358347D02*
X160766D01*
X162513Y356600D02*
X163000D01*
X163000Y266000D02*
X163284D01*
X171283Y274000D02*
X171750D01*
X163284Y266000D02*
X171283Y274000D01*
X146716Y341000D02*
X146750D01*
X143344Y344372D02*
X146716Y341000D01*
X157250Y380000D02*
Y389000D01*
X161166Y387347D02*
X162513Y386000D01*
X157250Y389000D02*
X158903Y387347D01*
X161166D01*
X162513Y386000D02*
X163000D01*
X124087Y366000D02*
X126837Y368750D01*
X135000D01*
X123600Y366000D02*
X124087D01*
X236000Y359190D02*
Y364600D01*
X204000Y327191D02*
X236000Y359190D01*
X240000Y357958D02*
Y364600D01*
X209000Y326958D02*
X240000Y357958D01*
X199000Y327423D02*
X232000Y360423D01*
X199000Y255289D02*
Y327423D01*
X214100Y326100D02*
X244000Y356000D01*
Y364600D01*
X232000Y360423D02*
Y364600D01*
X214100Y286900D02*
Y326100D01*
Y286900D02*
X216117Y284883D01*
X223617D01*
X226000Y282500D01*
X199000Y255289D02*
X206389Y247900D01*
X223100D01*
X226000Y245000D01*
X209000Y275733D02*
Y326958D01*
Y275733D02*
X214733Y270000D01*
X226000D01*
X204000Y266000D02*
Y327191D01*
Y266000D02*
X212500Y257500D01*
X226000D01*
X74000Y382000D02*
X80000Y376000D01*
X74000Y382000D02*
Y419095D01*
X55000Y364750D02*
X61263D01*
X57000Y410000D02*
X63600Y416600D01*
X47250Y410000D02*
X57000D01*
X54250Y308000D02*
X55306Y306944D01*
X63256D01*
X63600Y306600D01*
X54250Y317000D02*
X54906Y316344D01*
X62656D01*
X63000Y316000D01*
X97000Y224000D02*
X99192Y226192D01*
X100700Y222467D02*
X102892Y224659D01*
X97000Y200000D02*
Y224000D01*
X99192Y226192D02*
Y301008D01*
X102892Y224659D02*
Y316492D01*
X100700Y209089D02*
Y222467D01*
X93708Y196708D02*
X97000Y200000D01*
X93748Y306452D02*
X99192Y301008D01*
X93708Y93708D02*
X97000Y97000D01*
X93708Y86708D02*
Y93708D01*
X87700Y90725D02*
X88719Y91745D01*
X87700Y81533D02*
Y90725D01*
X88719Y91745D02*
Y100393D01*
X112373Y327900D02*
Y407373D01*
X112656Y326344D02*
Y327617D01*
X112373Y327900D02*
X112656Y327617D01*
X108673Y332673D02*
Y408905D01*
X107000Y331000D02*
X108673Y332673D01*
Y408905D02*
X113000Y413233D01*
Y426000D01*
Y436000D02*
X119000Y430000D01*
X112656Y216344D02*
X113000Y216000D01*
X112373Y217900D02*
Y297372D01*
X112656Y216344D02*
Y217617D01*
X112373Y217900D02*
X112656Y217617D01*
X108673Y222673D02*
Y298905D01*
X107000Y221000D02*
X108673Y222673D01*
X107000Y212487D02*
X113000Y206487D01*
X107000Y212487D02*
Y221000D01*
X100700Y209089D02*
X103000Y206789D01*
X93600Y86600D02*
X93708Y86708D01*
X100700Y99089D02*
X103000Y96789D01*
X93600Y86600D02*
X101067D01*
X103000Y89899D02*
Y96113D01*
Y96600D02*
Y96789D01*
X113000Y96000D02*
Y96487D01*
X87700Y81533D02*
X93933Y75300D01*
X219100Y147900D02*
Y148111D01*
X217811Y153100D02*
X219100Y154389D01*
X222000Y145000D02*
X226000D01*
X219100Y154600D02*
X222000Y157500D01*
X219100Y154389D02*
Y154600D01*
Y147900D02*
X222000Y145000D01*
X217811Y149400D02*
X219100Y148111D01*
X222000Y157500D02*
X226000D01*
X219100Y172900D02*
X222000Y170000D01*
X226000D01*
X217811Y174400D02*
X219100Y173111D01*
Y172900D02*
Y173111D01*
X217811Y178100D02*
X219100Y179389D01*
Y179600D01*
X222000Y182500D01*
X226000D01*
X222000Y195000D02*
X226000D01*
D29*
X55000Y45000D02*
D03*
Y35000D02*
D03*
X54000Y395000D02*
D03*
Y385000D02*
D03*
X182000Y43000D02*
D03*
Y53000D02*
D03*
X156000Y285000D02*
D03*
Y295000D02*
D03*
D30*
X64000Y151000D02*
D03*
X54000D02*
D03*
X46000Y251000D02*
D03*
X56000D02*
D03*
X173000Y225000D02*
D03*
X183000D02*
D03*
X147000Y408000D02*
D03*
X157000D02*
D03*
D31*
X140250Y31000D02*
Y40000D01*
X127000Y169750D02*
X136000D01*
X136625Y169125D01*
Y161000D02*
Y169125D01*
Y161000D02*
X137250Y160375D01*
Y160000D02*
Y160375D01*
X147750Y161000D02*
X148000D01*
X146750Y160000D02*
X147750Y161000D01*
X183250Y294000D02*
X191000D01*
X192000Y295000D02*
Y295250D01*
X191000Y294000D02*
X192000Y295000D01*
X182250Y293000D02*
X183250Y294000D01*
X182250Y284000D02*
Y293000D01*
Y274000D02*
Y284000D01*
X147750Y152000D02*
Y159000D01*
X146750Y160000D02*
X147750Y159000D01*
Y152000D02*
X148750Y151000D01*
X137250Y160000D02*
X146750D01*
X148750Y141000D02*
Y151000D01*
X138250Y141000D02*
X148750D01*
D32*
X67000Y35000D02*
X67500Y35500D01*
X67000Y34750D02*
Y35000D01*
X67500Y35500D02*
X73100D01*
X73600Y36000D01*
X125000Y251500D02*
X129500Y256000D01*
X133000D01*
X125000Y251250D02*
Y251500D01*
D33*
X30000Y13000D02*
D03*
X214000Y12000D02*
D03*
D34*
X215000Y439000D02*
D03*
X25000Y75000D02*
D03*
X215000Y50000D02*
D03*
X25000Y364000D02*
D03*
D35*
X34000Y161000D02*
D03*
X36000Y165000D02*
D03*
X32000D02*
D03*
X75000Y366000D02*
D03*
X93000D02*
D03*
X30000Y161000D02*
D03*
X64000Y237000D02*
D03*
X169000Y415000D02*
D03*
X28000Y413000D02*
D03*
Y423000D02*
D03*
X63035Y66465D02*
D03*
X260000Y432000D02*
D03*
Y417000D02*
D03*
Y402000D02*
D03*
Y387000D02*
D03*
Y372000D02*
D03*
Y297000D02*
D03*
Y282000D02*
D03*
Y267000D02*
D03*
Y252000D02*
D03*
Y237000D02*
D03*
Y222000D02*
D03*
Y207000D02*
D03*
Y192000D02*
D03*
Y177000D02*
D03*
Y162000D02*
D03*
Y147000D02*
D03*
Y132000D02*
D03*
X245000Y432000D02*
D03*
Y417000D02*
D03*
Y297000D02*
D03*
Y282000D02*
D03*
Y267000D02*
D03*
Y252000D02*
D03*
Y237000D02*
D03*
Y222000D02*
D03*
Y207000D02*
D03*
Y192000D02*
D03*
Y177000D02*
D03*
Y162000D02*
D03*
Y147000D02*
D03*
Y132000D02*
D03*
X230000Y417000D02*
D03*
Y327000D02*
D03*
Y117000D02*
D03*
Y102000D02*
D03*
Y87000D02*
D03*
Y72000D02*
D03*
Y27000D02*
D03*
Y12000D02*
D03*
X215000Y117000D02*
D03*
Y102000D02*
D03*
Y87000D02*
D03*
X200000Y222000D02*
D03*
Y192000D02*
D03*
Y87000D02*
D03*
Y72000D02*
D03*
Y27000D02*
D03*
X185000Y252000D02*
D03*
Y72000D02*
D03*
Y12000D02*
D03*
X170000Y177000D02*
D03*
Y12000D02*
D03*
X125000Y327000D02*
D03*
X35000Y387000D02*
D03*
Y42000D02*
D03*
X20000Y447000D02*
D03*
Y402000D02*
D03*
Y387000D02*
D03*
Y192000D02*
D03*
Y27000D02*
D03*
Y12000D02*
D03*
X5000Y447000D02*
D03*
Y432000D02*
D03*
Y417000D02*
D03*
Y402000D02*
D03*
Y387000D02*
D03*
Y342000D02*
D03*
Y327000D02*
D03*
Y312000D02*
D03*
Y297000D02*
D03*
Y282000D02*
D03*
Y267000D02*
D03*
Y252000D02*
D03*
Y237000D02*
D03*
Y222000D02*
D03*
Y207000D02*
D03*
Y42000D02*
D03*
Y27000D02*
D03*
Y12000D02*
D03*
X44000Y321000D02*
D03*
X133323Y136277D02*
D03*
X134000Y105000D02*
D03*
X16000Y117500D02*
D03*
X63000Y356600D02*
D03*
X61000Y336000D02*
D03*
X93000Y338000D02*
D03*
X37000Y213000D02*
D03*
X170000Y61000D02*
D03*
X48000Y260000D02*
D03*
X39000Y290000D02*
D03*
X170000Y398000D02*
D03*
X44000Y396000D02*
D03*
X177000Y63000D02*
D03*
X142000Y61000D02*
D03*
X84000Y25000D02*
D03*
X63944D02*
D03*
X64000Y147000D02*
D03*
X73000Y136000D02*
D03*
X72000Y126000D02*
D03*
X93000Y136000D02*
D03*
X94000Y145000D02*
D03*
X142000Y174000D02*
D03*
X143600Y196600D02*
D03*
X154300Y305000D02*
D03*
X153000Y417000D02*
D03*
X136000Y393000D02*
D03*
X144000Y285000D02*
D03*
X162600Y187600D02*
D03*
X72000Y145600D02*
D03*
X77500Y153500D02*
D03*
X72600Y27600D02*
D03*
X64000Y255000D02*
D03*
X72600Y357600D02*
D03*
X134000Y435000D02*
D03*
Y325000D02*
D03*
Y215000D02*
D03*
X153000Y187000D02*
D03*
X54000Y89000D02*
D03*
X93900Y116681D02*
D03*
X98319Y81948D02*
D03*
X75756Y117037D02*
D03*
X90682Y108584D02*
D03*
X119274Y109617D02*
D03*
X107959Y194814D02*
D03*
X91226Y218861D02*
D03*
X137688Y272618D02*
D03*
X137213Y283461D02*
D03*
X76965Y280886D02*
D03*
X77304Y271195D02*
D03*
X124910Y304561D02*
D03*
X107651Y304711D02*
D03*
X123604Y316459D02*
D03*
X119831Y330041D02*
D03*
X91285Y327989D02*
D03*
X136000Y399000D02*
D03*
X79097Y386208D02*
D03*
X79741Y412329D02*
D03*
X107709Y415206D02*
D03*
X123257Y436730D02*
D03*
X123876Y426489D02*
D03*
X123543Y413390D02*
D03*
X98107Y440969D02*
D03*
X103375Y436792D02*
D03*
X93167Y436865D02*
D03*
X16000Y175000D02*
D03*
X21000D02*
D03*
X83600Y206000D02*
D03*
X11000Y115000D02*
D03*
X264000Y306000D02*
D03*
X258000D02*
D03*
X251000D02*
D03*
X264000Y311000D02*
D03*
X258000D02*
D03*
X251000D02*
D03*
X263000Y364000D02*
D03*
X257000D02*
D03*
X263000Y357000D02*
D03*
X257000D02*
D03*
X251000D02*
D03*
X197000Y184000D02*
D03*
X199000Y125000D02*
D03*
X89000Y11000D02*
D03*
X165000Y131000D02*
D03*
X79000Y171000D02*
D03*
X80204Y181204D02*
D03*
X40000Y113000D02*
D03*
X26000Y108000D02*
D03*
X49000Y144000D02*
D03*
X83000Y46000D02*
D03*
X80000Y71000D02*
D03*
X124000Y47000D02*
D03*
Y119000D02*
D03*
X93000Y156600D02*
D03*
X121000Y153000D02*
D03*
X163000Y206000D02*
D03*
X153600Y246000D02*
D03*
X143000Y256000D02*
D03*
X143600Y276000D02*
D03*
Y296600D02*
D03*
X133600Y356600D02*
D03*
X133000Y346600D02*
D03*
X123000D02*
D03*
Y356600D02*
D03*
X93000Y406000D02*
D03*
Y386600D02*
D03*
Y376600D02*
D03*
X123000Y386000D02*
D03*
X132000Y387600D02*
D03*
X132135Y267600D02*
D03*
X132000Y277600D02*
D03*
X122000Y267600D02*
D03*
Y277600D02*
D03*
X124000Y297000D02*
D03*
X93000Y296135D02*
D03*
X93735Y266000D02*
D03*
X93000Y276465D02*
D03*
X83000Y61000D02*
D03*
X134000D02*
D03*
X59000Y17000D02*
D03*
X122000Y405000D02*
D03*
X30000Y337000D02*
D03*
X178000Y198000D02*
D03*
X40000Y275000D02*
D03*
X192000Y278000D02*
D03*
X122000Y40000D02*
D03*
X159000Y107000D02*
D03*
X93256Y246256D02*
D03*
X73000Y246000D02*
D03*
X47000Y120000D02*
D03*
X46000Y114000D02*
D03*
X17026Y165889D02*
D03*
X16893Y170314D02*
D03*
X11000Y164000D02*
D03*
Y168000D02*
D03*
X51000Y165000D02*
D03*
X47000D02*
D03*
X51000Y161000D02*
D03*
X47000D02*
D03*
X40000Y165000D02*
D03*
X21000Y137000D02*
D03*
X30000Y128000D02*
D03*
Y144000D02*
D03*
X24000Y147000D02*
D03*
X30000Y150000D02*
D03*
X18000Y129000D02*
D03*
X16000Y123000D02*
D03*
X234000Y385000D02*
D03*
X243000Y373000D02*
D03*
X193000Y374000D02*
D03*
X183000Y359000D02*
D03*
X224000Y389000D02*
D03*
X244000Y385000D02*
D03*
X176000D02*
D03*
X219000Y406000D02*
D03*
X190000Y404000D02*
D03*
X185325Y415325D02*
D03*
X208000Y415000D02*
D03*
X233000Y403000D02*
D03*
X228000Y410000D02*
D03*
X208000Y349000D02*
D03*
X198000D02*
D03*
X163000Y366600D02*
D03*
X188000Y355000D02*
D03*
X69000Y109000D02*
D03*
X63000Y366000D02*
D03*
X54000Y444000D02*
D03*
X73000Y327000D02*
D03*
X93600Y236600D02*
D03*
X73600D02*
D03*
X69000Y221000D02*
D03*
X63600Y216000D02*
D03*
Y206000D02*
D03*
X73600Y196600D02*
D03*
X63000Y196600D02*
D03*
Y246600D02*
D03*
X93000Y256000D02*
D03*
X73600Y258000D02*
D03*
X63000Y316000D02*
D03*
X63600Y306600D02*
D03*
X63600Y326000D02*
D03*
X93600Y356600D02*
D03*
X73600Y436000D02*
D03*
Y426000D02*
D03*
X63600Y416600D02*
D03*
X53600Y426000D02*
D03*
X143600Y436000D02*
D03*
X143600Y416600D02*
D03*
X123600Y366000D02*
D03*
X163000Y386000D02*
D03*
X163000Y356600D02*
D03*
X143000Y346600D02*
D03*
X143600Y326000D02*
D03*
X133600Y306600D02*
D03*
X143600D02*
D03*
X163000Y276000D02*
D03*
Y266000D02*
D03*
X133000Y256000D02*
D03*
X143600Y236600D02*
D03*
X133600D02*
D03*
Y196600D02*
D03*
X123600Y146000D02*
D03*
X167000Y161000D02*
D03*
Y152000D02*
D03*
Y141000D02*
D03*
X153000Y126600D02*
D03*
X143600Y106000D02*
D03*
X51000Y101000D02*
D03*
X73000Y96000D02*
D03*
X73600Y86600D02*
D03*
X83600Y36000D02*
D03*
X73600D02*
D03*
X153600Y46600D02*
D03*
Y36600D02*
D03*
Y26600D02*
D03*
X143000Y16600D02*
D03*
X123600Y26600D02*
D03*
X113600D02*
D03*
X123000Y16600D02*
D03*
X103600Y26600D02*
D03*
Y16600D02*
D03*
X93600D02*
D03*
X83000Y16600D02*
D03*
X83600Y426000D02*
D03*
Y436000D02*
D03*
X93600Y416600D02*
D03*
X103000Y426600D02*
D03*
X113000Y436000D02*
D03*
Y426000D02*
D03*
X83600Y316000D02*
D03*
Y326000D02*
D03*
X93600Y306600D02*
D03*
X103000Y316600D02*
D03*
X113000Y326000D02*
D03*
Y316000D02*
D03*
X83600Y216000D02*
D03*
X93600Y196600D02*
D03*
X103000Y206600D02*
D03*
X113000Y216000D02*
D03*
Y206000D02*
D03*
Y96000D02*
D03*
Y106000D02*
D03*
X103000Y96600D02*
D03*
X93600Y86600D02*
D03*
X83600Y106000D02*
D03*
Y96000D02*
D03*
M02*
