G04*
G04 #@! TF.GenerationSoftware,Altium Limited,Altium Designer,24.9.1 (31)*
G04*
G04 Layer_Physical_Order=3*
G04 Layer_Color=3707366*
%FSLAX44Y44*%
%MOMM*%
G71*
G04*
G04 #@! TF.SameCoordinates,5A5FE6A1-42EB-4B62-8C37-2C097A76047A*
G04*
G04*
G04 #@! TF.FilePolarity,Positive*
G04*
G01*
G75*
%ADD12C,0.1500*%
%ADD28C,0.2200*%
%ADD31C,0.4000*%
%ADD32C,0.5000*%
%ADD33C,1.2000*%
%ADD34C,4.0000*%
%ADD35C,0.4000*%
G36*
X170922Y437311D02*
Y404689D01*
X168578Y402346D01*
X167078Y402967D01*
Y416600D01*
X167078Y416600D01*
X166768Y418161D01*
X165884Y419484D01*
X146484Y438884D01*
X145161Y439768D01*
X143600Y440078D01*
X142039Y439768D01*
X140716Y438884D01*
X140716Y438884D01*
X138656Y436824D01*
X136967Y436983D01*
X135983Y437967D01*
X134696Y438500D01*
X133304D01*
X132017Y437967D01*
X131033Y436983D01*
X130500Y435696D01*
Y434304D01*
X131033Y433017D01*
X131881Y432170D01*
X132031Y431882D01*
X132176Y430344D01*
X130116Y428284D01*
X129232Y426961D01*
X128922Y425400D01*
X128922Y425400D01*
Y407689D01*
X118311Y397078D01*
X86689D01*
X77678Y406089D01*
Y426000D01*
X77368Y427561D01*
X76484Y428884D01*
X75161Y429768D01*
X73600Y430078D01*
X53600D01*
X52039Y429768D01*
X50716Y428884D01*
X49832Y427561D01*
X49522Y426000D01*
X49832Y424439D01*
X50716Y423116D01*
X52039Y422232D01*
X52309Y422178D01*
X52162Y420678D01*
X49839D01*
X35078Y435439D01*
Y440311D01*
X43689Y448922D01*
X52144D01*
X53243Y447954D01*
Y447954D01*
D01*
X53304Y447500D01*
X52017Y446967D01*
X51033Y445983D01*
X50500Y444696D01*
Y443304D01*
X51033Y442017D01*
X52017Y441033D01*
X53304Y440500D01*
X54696D01*
X55983Y441033D01*
X56967Y442017D01*
X57500Y443304D01*
Y444696D01*
X56967Y445983D01*
X55983Y446967D01*
X54696Y447500D01*
X54757Y447954D01*
X55856Y448922D01*
X159311D01*
X170922Y437311D01*
D02*
G37*
G36*
X151946Y421886D02*
X151531Y420180D01*
X151017Y419967D01*
X150033Y418983D01*
X149500Y417696D01*
Y416742D01*
X148000Y416594D01*
X147768Y417761D01*
X146884Y419084D01*
X146884Y419084D01*
X146484Y419484D01*
X145161Y420368D01*
X143600Y420678D01*
X142039Y420368D01*
X140716Y419484D01*
X139832Y418161D01*
X139522Y416600D01*
X139832Y415039D01*
X139922Y414905D01*
Y396149D01*
X138422Y395528D01*
X137983Y395967D01*
X136696Y396500D01*
X135304D01*
X134017Y395967D01*
X133033Y394983D01*
X132500Y393696D01*
Y392304D01*
X133033Y391017D01*
X134017Y390033D01*
X135304Y389500D01*
X136696D01*
X137983Y390033D01*
X138422Y390472D01*
X138566Y390412D01*
X139832Y389675D01*
X139522Y388115D01*
X139522Y388115D01*
Y381278D01*
X134800D01*
X134800Y381278D01*
X133239Y380968D01*
X131916Y380084D01*
X131916Y380084D01*
X120716Y368884D01*
X119832Y367561D01*
X119522Y366000D01*
X119832Y364439D01*
X120716Y363116D01*
X122039Y362232D01*
X123600Y361922D01*
X125161Y362232D01*
X126484Y363116D01*
X136489Y373122D01*
X139522D01*
Y364400D01*
X139522Y364400D01*
X139832Y362839D01*
X140716Y361516D01*
X148516Y353716D01*
X148516Y353716D01*
X149839Y352832D01*
X151400Y352522D01*
X163000D01*
X164561Y352832D01*
X164949Y353092D01*
X166393Y352426D01*
X166449Y351955D01*
X165283Y350678D01*
X143000D01*
X141439Y350368D01*
X140116Y349484D01*
X140116Y349484D01*
X131711Y341078D01*
X94714D01*
X93696Y341500D01*
X92304D01*
X91017Y340967D01*
X90129Y340078D01*
X61000D01*
X59439Y339768D01*
X58116Y338884D01*
X57232Y337561D01*
X56922Y336000D01*
X57232Y334439D01*
X58116Y333116D01*
X59439Y332232D01*
X61000Y331922D01*
X71144D01*
X72243Y330954D01*
Y330954D01*
X72243D01*
X72304Y330500D01*
X71017Y329967D01*
X70033Y328983D01*
X69500Y327696D01*
Y326304D01*
X70033Y325017D01*
X71017Y324033D01*
X72304Y323500D01*
X73696D01*
X74983Y324033D01*
X75967Y325017D01*
X76500Y326304D01*
Y327696D01*
X75967Y328983D01*
X74983Y329967D01*
X73696Y330500D01*
X73757Y330954D01*
X73757D01*
X73757Y330954D01*
X74856Y331922D01*
X92000D01*
X92000Y331922D01*
X93561Y332232D01*
X94593Y332922D01*
X133400D01*
X133400Y332922D01*
X134961Y333232D01*
X136284Y334116D01*
X144689Y342522D01*
X165911D01*
X204451Y303982D01*
Y298239D01*
X202951Y297784D01*
X202884Y297884D01*
X171884Y328884D01*
X170561Y329768D01*
X169000Y330078D01*
X169000Y330078D01*
X143600D01*
X143600Y330078D01*
X142039Y329768D01*
X140716Y328884D01*
X138656Y326824D01*
X136967Y326983D01*
X135983Y327967D01*
X134696Y328500D01*
X133304D01*
X132017Y327967D01*
X131033Y326983D01*
X130500Y325696D01*
Y324304D01*
X131033Y323017D01*
X132017Y322033D01*
X132176Y320344D01*
X130716Y318884D01*
X129832Y317561D01*
X129522Y316000D01*
X129522Y316000D01*
Y306600D01*
Y298289D01*
X125311Y294078D01*
X84689D01*
X82649Y296118D01*
Y305429D01*
X82649Y305429D01*
X82339Y306990D01*
X81455Y308313D01*
X81455Y308313D01*
X70884Y318884D01*
X69561Y319768D01*
X68000Y320078D01*
X68000Y320078D01*
X63000D01*
X61439Y319768D01*
X60116Y318884D01*
X59232Y317561D01*
X58922Y316000D01*
X59232Y314439D01*
X60116Y313116D01*
X61439Y312232D01*
X61710Y312178D01*
X61562Y310678D01*
X55089D01*
X47884Y317884D01*
X46561Y318768D01*
X45000Y319078D01*
X45000Y319078D01*
X43204D01*
X40149Y322133D01*
Y326382D01*
X54884Y341116D01*
X54884Y341116D01*
X55768Y342439D01*
X56078Y344000D01*
Y353311D01*
X57817Y355050D01*
X59511Y354622D01*
X60116Y353716D01*
X65416Y348416D01*
X65416Y348416D01*
X66739Y347532D01*
X68300Y347222D01*
X88300D01*
X88300Y347222D01*
X89861Y347532D01*
X91184Y348416D01*
X95289Y352522D01*
X103600D01*
X103600Y352522D01*
X105161Y352832D01*
X106484Y353716D01*
X110884Y358116D01*
X110884Y358116D01*
X111768Y359439D01*
X112078Y361000D01*
Y388922D01*
X120000D01*
X120000Y388922D01*
X121561Y389232D01*
X122884Y390116D01*
X135884Y403116D01*
X135884Y403116D01*
X136768Y404439D01*
X137078Y406000D01*
X137078Y406000D01*
Y423711D01*
X143600Y430232D01*
X151946Y421886D01*
D02*
G37*
G36*
X240000Y443000D02*
X274000D01*
Y95000D01*
X239000D01*
Y0D01*
X0D01*
Y110098D01*
X1500Y110553D01*
X2116Y109631D01*
X5631Y106116D01*
X5631Y106116D01*
X6954Y105232D01*
X8515Y104922D01*
X8515Y104922D01*
X16757D01*
X16757Y104922D01*
X18318Y105232D01*
X19641Y106116D01*
X21000Y107475D01*
X21563Y107411D01*
X22632Y106986D01*
X23033Y106017D01*
X24017Y105033D01*
X25304Y104500D01*
X26696D01*
X27983Y105033D01*
X28967Y106017D01*
X29500Y107304D01*
Y108589D01*
X29576Y108791D01*
X30569Y110035D01*
X31561Y110232D01*
X32884Y111116D01*
X42000Y120232D01*
X43500Y119611D01*
Y119304D01*
X43828Y118512D01*
X44017Y116967D01*
X43033Y115983D01*
X42500Y114696D01*
Y113304D01*
X43033Y112017D01*
X44017Y111033D01*
X44326Y110905D01*
X45024Y109869D01*
X45065Y109155D01*
X45056Y109103D01*
X42977Y107023D01*
X42203Y105866D01*
X41931Y104500D01*
Y90596D01*
X40431Y89974D01*
X38705Y91700D01*
X35184Y94053D01*
X31271Y95674D01*
X27118Y96500D01*
X22882D01*
X18729Y95674D01*
X14816Y94053D01*
X11295Y91700D01*
X8300Y88705D01*
X5947Y85184D01*
X4326Y81271D01*
X3500Y77118D01*
Y72882D01*
X4326Y68729D01*
X5947Y64816D01*
X8300Y61295D01*
X11295Y58300D01*
X14816Y55947D01*
X18729Y54326D01*
X22882Y53500D01*
X27118D01*
X31271Y54326D01*
X35184Y55947D01*
X38705Y58300D01*
X41700Y61295D01*
X44053Y64816D01*
X45674Y68729D01*
X46500Y72882D01*
Y77118D01*
X45822Y80524D01*
X47205Y81263D01*
X48431Y80037D01*
Y9343D01*
X48703Y7977D01*
X49477Y6820D01*
X51820Y4477D01*
X52977Y3703D01*
X54343Y3431D01*
X73657D01*
X75023Y3703D01*
X76180Y4477D01*
X78523Y6820D01*
X79297Y7977D01*
X79569Y9343D01*
Y12960D01*
X81018Y13633D01*
X82304Y13100D01*
X83696D01*
X84983Y13633D01*
X85967Y14617D01*
X86500Y15904D01*
Y17296D01*
X85967Y18583D01*
X84983Y19567D01*
X83696Y20100D01*
X83938Y21500D01*
X84696D01*
X85983Y22033D01*
X86967Y23017D01*
X87500Y24304D01*
Y25696D01*
X86967Y26983D01*
X85983Y27967D01*
X84696Y28500D01*
X83304D01*
X82095Y29330D01*
X81858Y30733D01*
X82790Y31922D01*
X112311D01*
X120516Y23716D01*
X120516Y23716D01*
X121839Y22832D01*
X123400Y22522D01*
X123400Y22522D01*
X153600D01*
X155161Y22832D01*
X156484Y23716D01*
X157368Y25039D01*
X157678Y26600D01*
X157368Y28161D01*
X156484Y29484D01*
X155161Y30368D01*
X153600Y30678D01*
X125089D01*
X121220Y34547D01*
X121959Y35930D01*
X122000Y35922D01*
X131000D01*
X131000Y35922D01*
X132561Y36232D01*
X133884Y37116D01*
X139689Y42922D01*
X151905D01*
X152039Y42832D01*
X153600Y42522D01*
X155161Y42832D01*
X156484Y43716D01*
X157368Y45039D01*
X157678Y46600D01*
Y75322D01*
X164400D01*
X164400Y75322D01*
X165961Y75632D01*
X167284Y76516D01*
X197884Y107116D01*
X197884Y107116D01*
X197884Y107116D01*
X201884Y111116D01*
X201884Y111116D01*
X202768Y112439D01*
X202951Y113357D01*
X204451Y113210D01*
Y109704D01*
X161116Y66369D01*
X160232Y65046D01*
X159922Y63485D01*
X159922Y63485D01*
Y52682D01*
X159922Y52682D01*
X160232Y51122D01*
X161116Y49799D01*
X165201Y45714D01*
Y40678D01*
X153600D01*
X152039Y40368D01*
X150716Y39484D01*
X149832Y38161D01*
X149522Y36600D01*
X149832Y35039D01*
X150716Y33716D01*
X152039Y32832D01*
X153600Y32522D01*
X165201D01*
Y27969D01*
X157911Y20678D01*
X143000D01*
X141439Y20368D01*
X140116Y19484D01*
X140116Y19484D01*
X130711Y10078D01*
X99689D01*
X99078Y10689D01*
Y14451D01*
X100578Y14749D01*
X100633Y14617D01*
X101617Y13633D01*
X102904Y13100D01*
X104296D01*
X105583Y13633D01*
X106567Y14617D01*
X107100Y15904D01*
Y17296D01*
X106567Y18583D01*
X105583Y19567D01*
X104296Y20100D01*
X102904D01*
X101617Y19567D01*
X100633Y18583D01*
X100100Y17296D01*
Y17262D01*
X99754Y17131D01*
X98600Y17012D01*
X97884Y18084D01*
X97884Y18084D01*
X96084Y19884D01*
X94761Y20768D01*
X93200Y21078D01*
X91639Y20768D01*
X90316Y19884D01*
X89432Y18561D01*
X89122Y17000D01*
X89432Y15439D01*
X90316Y14116D01*
X90922Y13511D01*
Y9000D01*
X90922Y9000D01*
X91232Y7439D01*
X92116Y6116D01*
X95116Y3116D01*
X95116Y3116D01*
X96439Y2232D01*
X98000Y1922D01*
X132400D01*
X132400Y1922D01*
X133961Y2232D01*
X135284Y3116D01*
X144689Y12522D01*
X159600D01*
X159600Y12522D01*
X161161Y12832D01*
X162484Y13716D01*
X172163Y23396D01*
X173048Y24719D01*
X173358Y26280D01*
X173358Y26280D01*
Y36600D01*
Y47403D01*
X173358Y47403D01*
X173048Y48963D01*
X172163Y50287D01*
X172163Y50287D01*
X168078Y54372D01*
Y56681D01*
X169304Y57500D01*
X170696D01*
X171983Y58033D01*
X172967Y59017D01*
X173244Y59685D01*
X174802Y60140D01*
X174926Y60125D01*
X175017Y60033D01*
X176304Y59500D01*
X177696D01*
X178983Y60033D01*
X179967Y61017D01*
X180500Y62304D01*
Y63696D01*
X179967Y64983D01*
X178983Y65967D01*
X177696Y66500D01*
X176304D01*
X175017Y65967D01*
X174033Y64983D01*
X172889Y64906D01*
X172703Y66421D01*
X211413Y105130D01*
X211413Y105130D01*
X212297Y106454D01*
X212607Y108014D01*
X212607Y108014D01*
Y152131D01*
Y236600D01*
Y305671D01*
X212607Y305671D01*
X212297Y307232D01*
X211413Y308555D01*
X174249Y345719D01*
X173813Y347045D01*
X174697Y348368D01*
X175007Y349929D01*
Y363671D01*
X174697Y365232D01*
X173813Y366555D01*
X173813Y366555D01*
X170884Y369484D01*
X169561Y370368D01*
X168000Y370678D01*
X168000Y370678D01*
X163000D01*
X161439Y370368D01*
X160116Y369484D01*
X159232Y368161D01*
X158922Y366600D01*
X159232Y365039D01*
X160116Y363716D01*
X161439Y362832D01*
X163000Y362522D01*
X166311D01*
X166851Y361982D01*
Y360531D01*
X165351Y359840D01*
X164561Y360368D01*
X163000Y360678D01*
X153089D01*
X147678Y366089D01*
Y373122D01*
X167071D01*
X167071Y373122D01*
X168632Y373432D01*
X169955Y374316D01*
X172884Y377245D01*
X172884Y377245D01*
X173768Y378568D01*
X174078Y380129D01*
Y380681D01*
X175304Y381500D01*
X176696D01*
X177983Y382033D01*
X178967Y383017D01*
X179500Y384304D01*
Y385696D01*
X178967Y386983D01*
X177983Y387967D01*
X176696Y388500D01*
X175304D01*
X174078Y389319D01*
Y396311D01*
X177884Y400116D01*
X177884Y400116D01*
X178768Y401439D01*
X179078Y403000D01*
Y439000D01*
X179078Y439000D01*
X178768Y440561D01*
X177884Y441884D01*
X163884Y455884D01*
X162561Y456768D01*
X161000Y457078D01*
X161000Y457078D01*
X42000D01*
X42000Y457078D01*
X40439Y456768D01*
X39116Y455884D01*
X28116Y444884D01*
X27232Y443561D01*
X26922Y442000D01*
X26922Y442000D01*
Y433750D01*
X26922Y433750D01*
X27232Y432189D01*
X28116Y430866D01*
X45266Y413716D01*
X45266Y413716D01*
X46589Y412832D01*
X48150Y412522D01*
X48150Y412522D01*
X59522D01*
Y368289D01*
X49116Y357884D01*
X48232Y356561D01*
X47922Y355000D01*
X47922Y355000D01*
Y345689D01*
X33187Y330955D01*
X32303Y329632D01*
X31993Y328071D01*
X31993Y328071D01*
Y320444D01*
X31993Y320444D01*
X32303Y318883D01*
X33187Y317560D01*
X38631Y312116D01*
X38631Y312116D01*
X39954Y311232D01*
X41515Y310922D01*
X43311D01*
X50516Y303716D01*
X50516Y303716D01*
X51839Y302832D01*
X53400Y302522D01*
X53400Y302522D01*
X59522D01*
Y279078D01*
X41651D01*
Y287701D01*
X41967Y288017D01*
X42500Y289304D01*
Y290696D01*
X41967Y291983D01*
X40983Y292967D01*
X39696Y293500D01*
X38304D01*
X37017Y292967D01*
X36033Y291983D01*
X35500Y290696D01*
Y289304D01*
X36033Y288017D01*
X36349Y287701D01*
Y276736D01*
X36232Y276561D01*
X35922Y275000D01*
X36232Y273439D01*
X37116Y272116D01*
X38439Y271232D01*
X40000Y270922D01*
X59522D01*
Y266000D01*
X59522Y266000D01*
X59832Y264439D01*
X60716Y263116D01*
X63832Y260000D01*
X63304Y258500D01*
X62017Y257967D01*
X61033Y256983D01*
X60500Y255696D01*
Y254304D01*
X61033Y253017D01*
X61872Y252178D01*
X61779Y251499D01*
X61412Y250678D01*
X41089D01*
X26078Y265689D01*
Y327311D01*
X32884Y334116D01*
X33768Y335439D01*
X34078Y337000D01*
X33768Y338561D01*
X32884Y339884D01*
X31561Y340768D01*
X30000Y341078D01*
X28439Y340768D01*
X27116Y339884D01*
X19116Y331884D01*
X18232Y330561D01*
X17922Y329000D01*
X17922Y329000D01*
Y264000D01*
X17922Y264000D01*
X18232Y262439D01*
X19116Y261116D01*
X36516Y243716D01*
X37839Y242832D01*
X39400Y242522D01*
X39400Y242522D01*
X47993D01*
Y229929D01*
X47993Y229929D01*
X48303Y228368D01*
X49187Y227045D01*
X52116Y224116D01*
X52116Y224116D01*
X53439Y223232D01*
X55000Y222922D01*
X64681D01*
X65500Y221696D01*
Y220625D01*
X64491Y219630D01*
X64296Y219500D01*
X62904D01*
X61617Y218967D01*
X60633Y217983D01*
X60100Y216696D01*
Y215304D01*
X60633Y214017D01*
X61617Y213033D01*
X62904Y212500D01*
X64296D01*
X65583Y213033D01*
X66567Y214017D01*
X67100Y215304D01*
Y216375D01*
X68109Y217370D01*
X68304Y217500D01*
X69696D01*
X70983Y218033D01*
X71967Y219017D01*
X72500Y220304D01*
Y221696D01*
X73319Y222922D01*
X176311D01*
X182922Y216311D01*
Y200534D01*
X181422Y200079D01*
X180884Y200884D01*
X179561Y201768D01*
X178000Y202078D01*
X176439Y201768D01*
X175116Y200884D01*
X174911Y200678D01*
X145289D01*
X139984Y205984D01*
X138661Y206868D01*
X137100Y207178D01*
X137100Y207178D01*
X125100D01*
X125100Y207178D01*
X123539Y206868D01*
X122216Y205984D01*
X122216Y205984D01*
X119116Y202884D01*
X118232Y201561D01*
X117922Y200000D01*
X117922Y200000D01*
Y182618D01*
X117382Y182078D01*
X93583D01*
X88078Y187583D01*
Y197000D01*
X87768Y198561D01*
X86884Y199884D01*
X86884Y199884D01*
X85424Y201344D01*
X85583Y203033D01*
X86567Y204017D01*
X87100Y205304D01*
Y206696D01*
X86567Y207983D01*
X85583Y208967D01*
X84296Y209500D01*
X82904D01*
X81617Y208967D01*
X80770Y208119D01*
X80482Y207968D01*
X78944Y207824D01*
X77884Y208884D01*
X76561Y209768D01*
X75000Y210078D01*
X75000Y210078D01*
X45689D01*
X39884Y215884D01*
X38561Y216768D01*
X37000Y217078D01*
X35439Y216768D01*
X34116Y215884D01*
X29116Y210884D01*
X28232Y209561D01*
X27922Y208000D01*
X27922Y208000D01*
Y166689D01*
X27116Y165884D01*
X26232Y164561D01*
X25922Y163000D01*
X25922Y163000D01*
Y161000D01*
X26232Y159439D01*
X27116Y158116D01*
X28439Y157232D01*
X30000Y156922D01*
X34000D01*
X34000Y156922D01*
X36118D01*
X41424Y151616D01*
X42747Y150732D01*
X44308Y150422D01*
X44308Y150422D01*
X55046D01*
X55667Y148922D01*
X54626Y147880D01*
X54051Y147020D01*
X53849Y146005D01*
X53849Y146005D01*
Y142051D01*
X34331D01*
X33498Y143298D01*
X33500Y143304D01*
Y144696D01*
X32967Y145983D01*
X32930Y146020D01*
X32013Y147000D01*
X32930Y147980D01*
X32967Y148017D01*
X33500Y149304D01*
Y150696D01*
X32967Y151983D01*
X31983Y152967D01*
X30696Y153500D01*
X29304D01*
X28017Y152967D01*
X27033Y151983D01*
X26697Y151171D01*
X26403Y150675D01*
X25000Y150374D01*
X24696Y150500D01*
X23304D01*
X22017Y149967D01*
X21033Y148983D01*
X20500Y147696D01*
Y146304D01*
X21033Y145017D01*
X22017Y144033D01*
X23304Y143500D01*
X24696D01*
X25000Y143626D01*
X26403Y143325D01*
X26697Y142829D01*
X27033Y142017D01*
X27590Y141460D01*
X27852Y139601D01*
X25984Y137733D01*
X25622Y137724D01*
X24302Y138173D01*
X23967Y138983D01*
X22983Y139967D01*
X21696Y140500D01*
X20304D01*
X19017Y139967D01*
X18033Y138983D01*
X17500Y137696D01*
Y136304D01*
X18033Y135017D01*
X19017Y134033D01*
X20304Y133500D01*
X20619D01*
X21776Y132355D01*
X21761Y132310D01*
X20054Y131895D01*
X19983Y131967D01*
X18696Y132500D01*
X17304D01*
X16017Y131967D01*
X15033Y130983D01*
X14500Y129696D01*
Y128304D01*
X15033Y127017D01*
X14017Y125967D01*
X13033Y124983D01*
X12500Y123696D01*
Y122304D01*
X13033Y121017D01*
X13800Y120250D01*
X13033Y119483D01*
X12500Y118196D01*
Y116804D01*
X13033Y115517D01*
X13972Y114578D01*
X13961Y114333D01*
X13609Y113078D01*
X10204D01*
X9078Y114204D01*
Y156311D01*
X13884Y161116D01*
X13884Y161116D01*
X14768Y162439D01*
X15078Y164000D01*
X15078Y164000D01*
Y168000D01*
X14768Y169561D01*
X13884Y170884D01*
X12561Y171768D01*
X11000Y172078D01*
X9439Y171768D01*
X8116Y170884D01*
X7232Y169561D01*
X6922Y168000D01*
Y165689D01*
X2116Y160884D01*
X1500Y159962D01*
X0Y160417D01*
Y464000D01*
X240000D01*
Y443000D01*
D02*
G37*
G36*
X69522Y404400D02*
X69522Y404400D01*
X69832Y402839D01*
X70716Y401516D01*
X82116Y390116D01*
X83439Y389232D01*
X85000Y388922D01*
X85000Y388922D01*
X103922D01*
Y362689D01*
X101911Y360678D01*
X94438D01*
X94290Y362178D01*
X94561Y362232D01*
X95884Y363116D01*
X96768Y364439D01*
X97078Y366000D01*
X96768Y367561D01*
X95884Y368884D01*
X94561Y369768D01*
X93000Y370078D01*
X67678D01*
Y416600D01*
X67368Y418161D01*
X66484Y419484D01*
X65161Y420368D01*
X64890Y420422D01*
X65038Y421922D01*
X69522D01*
Y404400D01*
D02*
G37*
G36*
X195922Y293311D02*
Y287967D01*
X194422Y287346D01*
X167884Y313884D01*
X166561Y314768D01*
X165000Y315078D01*
X165000Y315078D01*
X148000D01*
X146439Y314768D01*
X145116Y313884D01*
X145116Y313884D01*
X140716Y309484D01*
X139832Y308161D01*
X139522Y306600D01*
X139832Y305039D01*
X140716Y303716D01*
X152501Y291931D01*
Y281269D01*
X131311Y260078D01*
X93000D01*
X93000Y260078D01*
X78186D01*
X77381Y260884D01*
X76058Y261768D01*
X74497Y262078D01*
X74497Y262078D01*
X73289D01*
X67678Y267689D01*
Y275000D01*
Y306600D01*
X67368Y308161D01*
X66484Y309484D01*
X65627Y310056D01*
X65957Y311623D01*
X66524Y311708D01*
X74493Y303740D01*
Y294429D01*
X74493Y294429D01*
X74803Y292868D01*
X75687Y291545D01*
X80116Y287116D01*
X81439Y286232D01*
X83000Y285922D01*
X83000Y285922D01*
X127000D01*
X127000Y285922D01*
X128561Y286232D01*
X129884Y287116D01*
X136484Y293716D01*
X136484Y293716D01*
X137368Y295039D01*
X137678Y296600D01*
Y306600D01*
Y314311D01*
X145289Y321922D01*
X167311D01*
X195922Y293311D01*
D02*
G37*
G36*
X204451Y266690D02*
Y240678D01*
X164149D01*
Y261382D01*
X165884Y263116D01*
X166729Y264382D01*
X166782Y264443D01*
X168380Y264853D01*
X169116Y264116D01*
X169116Y264116D01*
X170439Y263232D01*
X172000Y262922D01*
X172000Y262922D01*
X197071D01*
X197071Y262922D01*
X198632Y263232D01*
X199955Y264116D01*
X202884Y267045D01*
X202884Y267045D01*
X202951Y267145D01*
X204451Y266690D01*
D02*
G37*
G36*
X148922Y264033D02*
Y257689D01*
X141566Y250334D01*
X74012D01*
X73961Y250368D01*
X72400Y250678D01*
X72400Y250678D01*
X66588D01*
X66221Y251499D01*
X66128Y252178D01*
X66967Y253017D01*
X67500Y254304D01*
X67900Y254571D01*
X69000Y254926D01*
X70039Y254232D01*
X71600Y253922D01*
X71600Y253922D01*
X72808D01*
X73613Y253116D01*
X73613Y253116D01*
X74936Y252232D01*
X76497Y251922D01*
X93000D01*
X93000Y251922D01*
X93000Y251922D01*
X133000D01*
X133000Y251922D01*
X134561Y252232D01*
X135884Y253116D01*
X147422Y264654D01*
X148922Y264033D01*
D02*
G37*
G36*
X155993Y251104D02*
Y240678D01*
X143600D01*
X142039Y240368D01*
X140716Y239484D01*
X139832Y238161D01*
X139522Y236600D01*
X139832Y235039D01*
X140716Y233716D01*
X142039Y232832D01*
X143315Y232578D01*
X143167Y231078D01*
X134033D01*
X133885Y232578D01*
X135161Y232832D01*
X136484Y233716D01*
X137368Y235039D01*
X137678Y236600D01*
X137368Y238161D01*
X136484Y239484D01*
X135161Y240368D01*
X133600Y240678D01*
X133603Y242177D01*
X143256D01*
X143256Y242177D01*
X144816Y242488D01*
X146139Y243372D01*
X154493Y251725D01*
X155993Y251104D01*
D02*
G37*
G36*
X71439Y242232D02*
X72581Y242005D01*
Y240476D01*
X72039Y240368D01*
X70716Y239484D01*
X69832Y238161D01*
X69522Y236600D01*
X69832Y235039D01*
X70716Y233716D01*
X72039Y232832D01*
X73315Y232578D01*
X73167Y231078D01*
X56689D01*
X56149Y231618D01*
Y242522D01*
X71006D01*
X71439Y242232D01*
D02*
G37*
G36*
X182922Y195466D02*
Y182689D01*
X165311Y165078D01*
X147308D01*
X144524Y167862D01*
X144210Y168072D01*
X143168Y169114D01*
X143550Y170854D01*
X143983Y171033D01*
X144967Y172017D01*
X145500Y173304D01*
Y174696D01*
X144967Y175983D01*
X143983Y176967D01*
X142696Y177500D01*
X141304D01*
X140017Y176967D01*
X139178Y176128D01*
X138499Y176221D01*
X137678Y176588D01*
Y194633D01*
X139178Y195254D01*
X140716Y193716D01*
X140716Y193716D01*
X142039Y192832D01*
X143600Y192522D01*
X160744D01*
X161843Y191554D01*
Y191554D01*
X161843D01*
X161904Y191100D01*
X160617Y190567D01*
X159633Y189583D01*
X159100Y188296D01*
Y186904D01*
X159633Y185617D01*
X160617Y184633D01*
X161904Y184100D01*
X163296D01*
X164583Y184633D01*
X165567Y185617D01*
X166100Y186904D01*
Y188296D01*
X165567Y189583D01*
X164583Y190567D01*
X163296Y191100D01*
X163357Y191554D01*
X163357D01*
X163357Y191554D01*
X164456Y192522D01*
X176600D01*
X176600Y192522D01*
X178161Y192832D01*
X179484Y193716D01*
X180884Y195116D01*
X181422Y195921D01*
X182922Y195466D01*
D02*
G37*
G36*
X204451Y156210D02*
X169730D01*
X169275Y157710D01*
X169884Y158116D01*
X188689Y176922D01*
X194000D01*
X194000Y176922D01*
X195561Y177232D01*
X196884Y178116D01*
X199884Y181116D01*
X200768Y182439D01*
X201078Y184000D01*
X200768Y185561D01*
X199884Y186884D01*
X198561Y187768D01*
X197000Y188078D01*
X195439Y187768D01*
X194116Y186884D01*
X192578Y185346D01*
X191078Y185725D01*
Y218000D01*
X190768Y219561D01*
X189884Y220884D01*
X189884Y220884D01*
X180884Y229884D01*
X179561Y230768D01*
X178285Y231022D01*
X178433Y232522D01*
X204451D01*
Y156210D01*
D02*
G37*
G36*
X79922Y194837D02*
Y185894D01*
X79922Y185894D01*
X80232Y184333D01*
X81116Y183010D01*
X89010Y175116D01*
X89067Y175078D01*
X88612Y173578D01*
X88222D01*
X86662Y173268D01*
X85338Y172384D01*
X85338Y172384D01*
X82033Y169078D01*
X78204D01*
X77078Y170204D01*
Y181091D01*
X77368Y181525D01*
X77678Y183085D01*
X77678Y183085D01*
Y194715D01*
X79178Y195411D01*
X79922Y194837D01*
D02*
G37*
G36*
X134621Y166151D02*
X134674Y166073D01*
X138652Y162095D01*
X138652Y162095D01*
X138966Y161885D01*
X141541Y159311D01*
Y147308D01*
X139043Y144810D01*
X138692Y145161D01*
X137369Y146045D01*
X135808Y146356D01*
X135808Y146356D01*
X130837D01*
X129277Y146045D01*
X129105Y145931D01*
X129024Y145934D01*
X127541Y146690D01*
X127368Y147561D01*
X126484Y148884D01*
X125484Y149884D01*
X124161Y150768D01*
X122600Y151078D01*
X122600Y151078D01*
X116047D01*
X103089Y164036D01*
X103663Y165422D01*
X130081D01*
X130081Y165422D01*
X131642Y165732D01*
X132965Y166616D01*
X132999Y166650D01*
X134621Y166151D01*
D02*
G37*
G36*
X110511Y145078D02*
X109890Y143578D01*
X104886D01*
X100580Y147884D01*
X99257Y148768D01*
X97696Y149078D01*
X97696Y149078D01*
X87833D01*
X87656Y149317D01*
X87275Y150578D01*
X89884Y153187D01*
X89884Y153187D01*
X90768Y154510D01*
X91078Y156071D01*
Y157396D01*
X92604Y158922D01*
X96668D01*
X110511Y145078D01*
D02*
G37*
G36*
X148922Y141033D02*
Y130078D01*
X83377D01*
X82976Y130770D01*
X82823Y131578D01*
X84950Y133706D01*
X90344D01*
X91017Y133033D01*
X92304Y132500D01*
X93696D01*
X94983Y133033D01*
X95967Y134017D01*
X96500Y135304D01*
Y136696D01*
X95967Y137983D01*
X94983Y138967D01*
X93696Y139500D01*
X93885Y140922D01*
X96007D01*
X100312Y136616D01*
X100312Y136616D01*
X101635Y135732D01*
X103196Y135422D01*
X103196Y135422D01*
X128060D01*
X128060Y135422D01*
X129621Y135732D01*
X130944Y136616D01*
X132527Y138199D01*
X134119D01*
X135701Y136616D01*
X137024Y135732D01*
X138585Y135422D01*
X139500D01*
X139500Y135422D01*
X141061Y135732D01*
X142384Y136616D01*
X147422Y141654D01*
X148922Y141033D01*
D02*
G37*
G36*
X204451Y125790D02*
X202951Y125642D01*
X202768Y126561D01*
X201884Y127884D01*
X200561Y128768D01*
X199000Y129078D01*
X197439Y128768D01*
X196116Y127884D01*
X195232Y126561D01*
X194922Y125000D01*
Y115689D01*
X192116Y112884D01*
X192116Y112884D01*
X162711Y83478D01*
X155289D01*
X147678Y91089D01*
Y106000D01*
X147368Y107561D01*
X146793Y108422D01*
X147399Y109860D01*
X147457Y109922D01*
X150311D01*
X156116Y104116D01*
X156116Y104116D01*
X157439Y103232D01*
X159000Y102922D01*
X160561Y103232D01*
X161884Y104116D01*
X175884Y118116D01*
X175884Y118116D01*
X176768Y119439D01*
X177078Y121000D01*
X177078Y121000D01*
Y135000D01*
X177078Y135000D01*
X176768Y136561D01*
X175884Y137884D01*
X169884Y143884D01*
X168561Y144768D01*
X167000Y145078D01*
X165439Y144768D01*
X164116Y143884D01*
X163232Y142561D01*
X162922Y141000D01*
X163232Y139439D01*
X164116Y138116D01*
X168922Y133311D01*
Y122689D01*
X159000Y112768D01*
X154884Y116884D01*
X153561Y117768D01*
X152000Y118078D01*
X152000Y118078D01*
X134515D01*
X134515Y118078D01*
X132954Y117768D01*
X131631Y116884D01*
X125116Y110369D01*
X124232Y109046D01*
X123922Y107485D01*
X123922Y107485D01*
Y81103D01*
X122417Y79599D01*
X87118D01*
X86578Y80139D01*
Y87500D01*
X86578Y87500D01*
X86268Y89061D01*
X85384Y90384D01*
X84654Y91114D01*
X85069Y92820D01*
X85583Y93033D01*
X86567Y94017D01*
X87100Y95304D01*
Y96696D01*
X86567Y97983D01*
X85583Y98967D01*
X84296Y99500D01*
X82904D01*
X81617Y98967D01*
X80633Y97983D01*
X80420Y97469D01*
X78714Y97053D01*
X76884Y98884D01*
X75561Y99768D01*
X74000Y100078D01*
X74000Y100078D01*
X68689D01*
X57884Y110884D01*
X56561Y111768D01*
X55000Y112078D01*
X55000Y112078D01*
X50616D01*
X49500Y113304D01*
X49500Y113392D01*
Y114696D01*
X49172Y115488D01*
X48983Y117033D01*
X49967Y118017D01*
X50500Y119304D01*
Y120696D01*
X51319Y121922D01*
X70995D01*
X72000Y121722D01*
X77225D01*
X77225Y121722D01*
X78231Y121922D01*
X152400D01*
X152400Y121922D01*
X153961Y122232D01*
X155284Y123116D01*
X155884Y123716D01*
X155884Y123716D01*
X156768Y125039D01*
X157078Y126600D01*
X157078Y126600D01*
Y146311D01*
X158689Y147922D01*
X167000D01*
X167660Y148053D01*
X204451D01*
Y125790D01*
D02*
G37*
G36*
X62654Y94578D02*
X62033Y93078D01*
X54000D01*
X52439Y92768D01*
X51116Y91884D01*
X50569Y91064D01*
X49069Y91519D01*
Y103022D01*
X49968Y103922D01*
X53311D01*
X62654Y94578D01*
D02*
G37*
G36*
X139801Y109860D02*
X140407Y108422D01*
X139832Y107561D01*
X139522Y106000D01*
Y89400D01*
X139522Y89400D01*
X139832Y87839D01*
X140716Y86516D01*
X149522Y77711D01*
Y51078D01*
X138000D01*
X138000Y51078D01*
X136439Y50768D01*
X135116Y49884D01*
X135116Y49884D01*
X129311Y44078D01*
X123689D01*
X109884Y57884D01*
X108561Y58768D01*
X107000Y59078D01*
X107000Y59078D01*
X77678D01*
Y75766D01*
X79178Y76221D01*
X79616Y75566D01*
X82545Y72637D01*
X82545Y72637D01*
X83868Y71753D01*
X85429Y71442D01*
X124106D01*
X124107Y71442D01*
X125667Y71753D01*
X126990Y72637D01*
X130884Y76530D01*
X131768Y77853D01*
X132078Y79414D01*
X132078Y79414D01*
Y100681D01*
X133304Y101500D01*
X134696D01*
X135983Y102033D01*
X136967Y103017D01*
X137500Y104304D01*
Y105696D01*
X136967Y106983D01*
X136177Y107773D01*
X135873Y108559D01*
X135931Y108684D01*
X137022Y109922D01*
X139743D01*
X139801Y109860D01*
D02*
G37*
G36*
X114780Y41453D02*
X114041Y40070D01*
X114000Y40078D01*
X114000Y40078D01*
X73600D01*
X72039Y39768D01*
X70716Y38884D01*
X69832Y37561D01*
X69522Y36000D01*
X69832Y34439D01*
X70716Y33116D01*
X71648Y32494D01*
X71656Y32450D01*
X71490Y30928D01*
X70617Y30567D01*
X69633Y29583D01*
X69523Y29317D01*
X68023Y29615D01*
Y43655D01*
X75289Y50922D01*
X105311D01*
X114780Y41453D01*
D02*
G37*
G36*
X69522Y84911D02*
Y56689D01*
X61061Y48228D01*
X60177Y46905D01*
X59866Y45344D01*
X59866Y45344D01*
Y25000D01*
X60177Y23439D01*
X61061Y22116D01*
X62384Y21232D01*
X63944Y20922D01*
X65505Y21232D01*
X66828Y22116D01*
X67712Y23439D01*
X68023Y25000D01*
Y25585D01*
X69523Y25883D01*
X69633Y25617D01*
X70617Y24633D01*
X71904Y24100D01*
X73296D01*
X74531Y23275D01*
Y21663D01*
X73477Y20609D01*
X72703Y19451D01*
X72431Y18085D01*
Y10821D01*
X72179Y10569D01*
X55821D01*
X55569Y10821D01*
Y81515D01*
X55297Y82880D01*
X54935Y83422D01*
X55696Y84922D01*
X69511D01*
X69522Y84911D01*
D02*
G37*
%LPC*%
G36*
X113696Y439500D02*
X112304D01*
X111017Y438967D01*
X110033Y437983D01*
X109500Y436696D01*
Y435304D01*
X110033Y434017D01*
X111017Y433033D01*
X112304Y432500D01*
X113696D01*
X114983Y433033D01*
X115967Y434017D01*
X116500Y435304D01*
Y436696D01*
X115967Y437983D01*
X114983Y438967D01*
X113696Y439500D01*
D02*
G37*
G36*
X84296Y439500D02*
X82904D01*
X81617Y438967D01*
X80633Y437983D01*
X80100Y436696D01*
Y435304D01*
X80633Y434017D01*
X81617Y433033D01*
X82904Y432500D01*
X84296D01*
X85583Y433033D01*
X86567Y434017D01*
X87100Y435304D01*
Y436696D01*
X86567Y437983D01*
X85583Y438967D01*
X84296Y439500D01*
D02*
G37*
G36*
X74296D02*
X72904D01*
X71617Y438967D01*
X70633Y437983D01*
X70100Y436696D01*
Y435304D01*
X70633Y434017D01*
X71617Y433033D01*
X72904Y432500D01*
X74296D01*
X75583Y433033D01*
X76567Y434017D01*
X77100Y435304D01*
Y436696D01*
X76567Y437983D01*
X75583Y438967D01*
X74296Y439500D01*
D02*
G37*
G36*
X103696Y430100D02*
X102304D01*
X101017Y429567D01*
X100033Y428583D01*
X99500Y427296D01*
Y425904D01*
X100033Y424617D01*
X101017Y423633D01*
X102304Y423100D01*
X103696D01*
X104983Y423633D01*
X105967Y424617D01*
X106500Y425904D01*
Y427296D01*
X105967Y428583D01*
X104983Y429567D01*
X103696Y430100D01*
D02*
G37*
G36*
X113696Y429500D02*
X112304D01*
X111017Y428967D01*
X110033Y427983D01*
X109500Y426696D01*
Y425304D01*
X110033Y424017D01*
X111017Y423033D01*
X112304Y422500D01*
X113696D01*
X114983Y423033D01*
X115967Y424017D01*
X116500Y425304D01*
Y426696D01*
X115967Y427983D01*
X114983Y428967D01*
X113696Y429500D01*
D02*
G37*
G36*
X84296Y429500D02*
X82904D01*
X81617Y428967D01*
X80633Y427983D01*
X80100Y426696D01*
Y425304D01*
X80633Y424017D01*
X81617Y423033D01*
X82904Y422500D01*
X84296D01*
X85583Y423033D01*
X86567Y424017D01*
X87100Y425304D01*
Y426696D01*
X86567Y427983D01*
X85583Y428967D01*
X84296Y429500D01*
D02*
G37*
G36*
X94296Y420100D02*
X92904D01*
X91617Y419567D01*
X90633Y418583D01*
X90100Y417296D01*
Y415904D01*
X90633Y414617D01*
X91617Y413633D01*
X92904Y413100D01*
X94296D01*
X95583Y413633D01*
X96567Y414617D01*
X97100Y415904D01*
Y417296D01*
X96567Y418583D01*
X95583Y419567D01*
X94296Y420100D01*
D02*
G37*
G36*
X113696Y329500D02*
X112304D01*
X111017Y328967D01*
X110033Y327983D01*
X109500Y326696D01*
Y325304D01*
X110033Y324017D01*
X111017Y323033D01*
X112304Y322500D01*
X113696D01*
X114983Y323033D01*
X115967Y324017D01*
X116500Y325304D01*
Y326696D01*
X115967Y327983D01*
X114983Y328967D01*
X113696Y329500D01*
D02*
G37*
G36*
X84296Y329500D02*
X82904D01*
X81617Y328967D01*
X80633Y327983D01*
X80100Y326696D01*
Y325304D01*
X80633Y324017D01*
X81617Y323033D01*
X82904Y322500D01*
X84296D01*
X85583Y323033D01*
X86567Y324017D01*
X87100Y325304D01*
Y326696D01*
X86567Y327983D01*
X85583Y328967D01*
X84296Y329500D01*
D02*
G37*
G36*
X64296D02*
X62904D01*
X61617Y328967D01*
X60633Y327983D01*
X60100Y326696D01*
Y325304D01*
X60633Y324017D01*
X61617Y323033D01*
X62904Y322500D01*
X64296D01*
X65583Y323033D01*
X66567Y324017D01*
X67100Y325304D01*
Y326696D01*
X66567Y327983D01*
X65583Y328967D01*
X64296Y329500D01*
D02*
G37*
G36*
X103696Y320100D02*
X102304D01*
X101017Y319567D01*
X100033Y318583D01*
X99500Y317296D01*
Y315904D01*
X100033Y314617D01*
X101017Y313633D01*
X102304Y313100D01*
X103696D01*
X104983Y313633D01*
X105967Y314617D01*
X106500Y315904D01*
Y317296D01*
X105967Y318583D01*
X104983Y319567D01*
X103696Y320100D01*
D02*
G37*
G36*
X113696Y319500D02*
X112304D01*
X111017Y318967D01*
X110033Y317983D01*
X109500Y316696D01*
Y315304D01*
X110033Y314017D01*
X111017Y313033D01*
X112304Y312500D01*
X113696D01*
X114983Y313033D01*
X115967Y314017D01*
X116500Y315304D01*
Y316696D01*
X115967Y317983D01*
X114983Y318967D01*
X113696Y319500D01*
D02*
G37*
G36*
X84296Y319500D02*
X82904D01*
X81617Y318967D01*
X80633Y317983D01*
X80100Y316696D01*
Y315304D01*
X80633Y314017D01*
X81617Y313033D01*
X82904Y312500D01*
X84296D01*
X85583Y313033D01*
X86567Y314017D01*
X87100Y315304D01*
Y316696D01*
X86567Y317983D01*
X85583Y318967D01*
X84296Y319500D01*
D02*
G37*
G36*
X94296Y310100D02*
X92904D01*
X91617Y309567D01*
X90633Y308583D01*
X90100Y307296D01*
Y305904D01*
X90633Y304617D01*
X91617Y303633D01*
X92904Y303100D01*
X94296D01*
X95583Y303633D01*
X96567Y304617D01*
X97100Y305904D01*
Y307296D01*
X96567Y308583D01*
X95583Y309567D01*
X94296Y310100D01*
D02*
G37*
G36*
X217118Y460500D02*
X212882D01*
X208729Y459674D01*
X204816Y458053D01*
X201295Y455700D01*
X198300Y452705D01*
X195947Y449184D01*
X194326Y445271D01*
X193500Y441118D01*
Y436882D01*
X194326Y432729D01*
X195947Y428816D01*
X198300Y425295D01*
X201295Y422300D01*
X204816Y419947D01*
X205847Y419520D01*
X205952Y418564D01*
X205917Y417867D01*
X205033Y416983D01*
X204500Y415696D01*
Y414304D01*
X205033Y413017D01*
X206017Y412033D01*
X207304Y411500D01*
X208696D01*
X209983Y412033D01*
X210967Y413017D01*
X211500Y414304D01*
Y415696D01*
X211252Y416295D01*
X212292Y417617D01*
X212882Y417500D01*
X217118D01*
X221271Y418326D01*
X225184Y419947D01*
X228705Y422300D01*
X231700Y425295D01*
X234053Y428816D01*
X235674Y432729D01*
X236500Y436882D01*
Y441118D01*
X235674Y445271D01*
X234053Y449184D01*
X231700Y452705D01*
X228705Y455700D01*
X225184Y458053D01*
X221271Y459674D01*
X217118Y460500D01*
D02*
G37*
G36*
X186021Y418825D02*
X184629D01*
X183342Y418292D01*
X182358Y417308D01*
X181825Y416021D01*
Y414629D01*
X182358Y413343D01*
X183342Y412358D01*
X184629Y411825D01*
X186021D01*
X187308Y412358D01*
X188292Y413343D01*
X188825Y414629D01*
Y416021D01*
X188292Y417308D01*
X187308Y418292D01*
X186021Y418825D01*
D02*
G37*
G36*
X219696Y409500D02*
X218304D01*
X217017Y408967D01*
X216033Y407983D01*
X215500Y406696D01*
Y405304D01*
X216033Y404017D01*
X217017Y403033D01*
X218304Y402500D01*
X219696D01*
X220983Y403033D01*
X221967Y404017D01*
X222500Y405304D01*
Y406696D01*
X221967Y407983D01*
X220983Y408967D01*
X219696Y409500D01*
D02*
G37*
G36*
X190696Y407500D02*
X189304D01*
X188017Y406967D01*
X187033Y405983D01*
X186500Y404696D01*
Y403304D01*
X187033Y402017D01*
X188017Y401033D01*
X189304Y400500D01*
X190696D01*
X191983Y401033D01*
X192967Y402017D01*
X193500Y403304D01*
Y404696D01*
X192967Y405983D01*
X191983Y406967D01*
X190696Y407500D01*
D02*
G37*
G36*
X228696Y413500D02*
X227304D01*
X226017Y412967D01*
X225033Y411983D01*
X224500Y410696D01*
Y409304D01*
X225033Y408017D01*
X226017Y407033D01*
X227304Y406500D01*
X228696D01*
X229983Y407033D01*
X231008Y405957D01*
X230033Y404983D01*
X229500Y403696D01*
Y402304D01*
X230033Y401017D01*
X231017Y400033D01*
X232304Y399500D01*
X233696D01*
X234983Y400033D01*
X235967Y401017D01*
X236500Y402304D01*
Y403696D01*
X235967Y404983D01*
X234983Y405967D01*
X233696Y406500D01*
X232304D01*
X231017Y405967D01*
X229992Y407043D01*
X230967Y408017D01*
X231500Y409304D01*
Y410696D01*
X230967Y411983D01*
X229983Y412967D01*
X228696Y413500D01*
D02*
G37*
G36*
X44696Y399500D02*
X43304D01*
X42017Y398967D01*
X41033Y397983D01*
X40500Y396696D01*
Y395304D01*
X41033Y394017D01*
X42017Y393033D01*
X43304Y392500D01*
X44696D01*
X45983Y393033D01*
X46967Y394017D01*
X47500Y395304D01*
Y396696D01*
X46967Y397983D01*
X45983Y398967D01*
X44696Y399500D01*
D02*
G37*
G36*
X224696Y392500D02*
X223304D01*
X222017Y391967D01*
X221033Y390983D01*
X220500Y389696D01*
Y388304D01*
X221033Y387017D01*
X222017Y386033D01*
X223304Y385500D01*
X224696D01*
X225983Y386033D01*
X226967Y387017D01*
X227500Y388304D01*
Y389696D01*
X226967Y390983D01*
X225983Y391967D01*
X224696Y392500D01*
D02*
G37*
G36*
X244696Y388500D02*
X243304D01*
X242017Y387967D01*
X241033Y386983D01*
X240500Y385696D01*
Y384304D01*
X241033Y383017D01*
X242017Y382033D01*
X243304Y381500D01*
X244696D01*
X245983Y382033D01*
X246967Y383017D01*
X247500Y384304D01*
Y385696D01*
X246967Y386983D01*
X245983Y387967D01*
X244696Y388500D01*
D02*
G37*
G36*
X234696D02*
X233304D01*
X232017Y387967D01*
X231033Y386983D01*
X230500Y385696D01*
Y384304D01*
X231033Y383017D01*
X232017Y382033D01*
X233304Y381500D01*
X234696D01*
X235983Y382033D01*
X236967Y383017D01*
X237500Y384304D01*
Y385696D01*
X236967Y386983D01*
X235983Y387967D01*
X234696Y388500D01*
D02*
G37*
G36*
X193696Y377500D02*
X192304D01*
X191017Y376967D01*
X190033Y375983D01*
X189500Y374696D01*
Y373304D01*
X190033Y372017D01*
X191017Y371033D01*
X192304Y370500D01*
X193696D01*
X194983Y371033D01*
X195967Y372017D01*
X196500Y373304D01*
Y374696D01*
X195967Y375983D01*
X194983Y376967D01*
X193696Y377500D01*
D02*
G37*
G36*
X243696Y376500D02*
X242304D01*
X241017Y375967D01*
X240033Y374983D01*
X239500Y373696D01*
Y372304D01*
X240033Y371017D01*
X241017Y370033D01*
X242304Y369500D01*
X243696D01*
X244983Y370033D01*
X245967Y371017D01*
X246500Y372304D01*
Y373696D01*
X245967Y374983D01*
X244983Y375967D01*
X243696Y376500D01*
D02*
G37*
G36*
X183696Y362500D02*
X182304D01*
X181017Y361967D01*
X180033Y360983D01*
X179500Y359696D01*
Y358304D01*
X180033Y357017D01*
X181017Y356033D01*
X182304Y355500D01*
X183696D01*
X184500Y354304D01*
X185033Y353017D01*
X186017Y352033D01*
X187304Y351500D01*
X188696D01*
X189983Y352033D01*
X190967Y353017D01*
X191500Y354304D01*
Y355696D01*
X190967Y356983D01*
X189983Y357967D01*
X188696Y358500D01*
X187304D01*
X186500Y359696D01*
X185967Y360983D01*
X184983Y361967D01*
X183696Y362500D01*
D02*
G37*
G36*
X208696Y352500D02*
X207304D01*
X206017Y351967D01*
X205033Y350983D01*
X204500Y349696D01*
Y348304D01*
X205033Y347017D01*
X206017Y346033D01*
X207304Y345500D01*
X208696D01*
X209983Y346033D01*
X210967Y347017D01*
X211500Y348304D01*
Y349696D01*
X210967Y350983D01*
X209983Y351967D01*
X208696Y352500D01*
D02*
G37*
G36*
X198696D02*
X197304D01*
X196017Y351967D01*
X195033Y350983D01*
X194500Y349696D01*
Y348304D01*
X195033Y347017D01*
X196017Y346033D01*
X197304Y345500D01*
X198696D01*
X199983Y346033D01*
X200967Y347017D01*
X201500Y348304D01*
Y349696D01*
X200967Y350983D01*
X199983Y351967D01*
X198696Y352500D01*
D02*
G37*
G36*
X27118Y385500D02*
X22882D01*
X18729Y384674D01*
X14816Y383053D01*
X11295Y380700D01*
X8300Y377705D01*
X5947Y374184D01*
X4326Y370271D01*
X3500Y366118D01*
Y361882D01*
X4326Y357729D01*
X5947Y353816D01*
X8300Y350295D01*
X11295Y347300D01*
X14816Y344947D01*
X18729Y343326D01*
X22882Y342500D01*
X27118D01*
X31271Y343326D01*
X35184Y344947D01*
X38705Y347300D01*
X41700Y350295D01*
X44053Y353816D01*
X45674Y357729D01*
X46500Y361882D01*
Y366118D01*
X45674Y370271D01*
X44053Y374184D01*
X41700Y377705D01*
X38705Y380700D01*
X35184Y383053D01*
X31271Y384674D01*
X27118Y385500D01*
D02*
G37*
G36*
X266000Y369624D02*
X248000D01*
X246852Y369148D01*
X246376Y368000D01*
Y304000D01*
X246852Y302852D01*
X248000Y302376D01*
X266000D01*
X267148Y302852D01*
X267624Y304000D01*
Y368000D01*
X267148Y369148D01*
X266000Y369624D01*
D02*
G37*
G36*
X48696Y263500D02*
X47304D01*
X46017Y262967D01*
X45033Y261983D01*
X44500Y260696D01*
Y259304D01*
X45033Y258017D01*
X46017Y257033D01*
X47304Y256500D01*
X48696D01*
X49983Y257033D01*
X50967Y258017D01*
X51500Y259304D01*
Y260696D01*
X50967Y261983D01*
X49983Y262967D01*
X48696Y263500D01*
D02*
G37*
G36*
X113696Y219500D02*
X112304D01*
X111017Y218967D01*
X110033Y217983D01*
X109500Y216696D01*
Y215304D01*
X110033Y214017D01*
X111017Y213033D01*
X112304Y212500D01*
X113696D01*
X114983Y213033D01*
X115967Y214017D01*
X116500Y215304D01*
Y216696D01*
X115967Y217983D01*
X114983Y218967D01*
X113696Y219500D01*
D02*
G37*
G36*
X84296Y219500D02*
X82904D01*
X81617Y218967D01*
X80633Y217983D01*
X80100Y216696D01*
Y215304D01*
X80633Y214017D01*
X81617Y213033D01*
X82904Y212500D01*
X84296D01*
X85583Y213033D01*
X86567Y214017D01*
X87100Y215304D01*
Y216696D01*
X86567Y217983D01*
X85583Y218967D01*
X84296Y219500D01*
D02*
G37*
G36*
X134696Y218500D02*
X133304D01*
X132017Y217967D01*
X131033Y216983D01*
X130500Y215696D01*
Y214304D01*
X131033Y213017D01*
X132017Y212033D01*
X133304Y211500D01*
X134696D01*
X135983Y212033D01*
X136967Y213017D01*
X137500Y214304D01*
Y215696D01*
X136967Y216983D01*
X135983Y217967D01*
X134696Y218500D01*
D02*
G37*
G36*
X103696Y210100D02*
X102304D01*
X101017Y209567D01*
X100033Y208583D01*
X99500Y207296D01*
Y205904D01*
X100033Y204617D01*
X101017Y203633D01*
X102304Y203100D01*
X103696D01*
X104983Y203633D01*
X105967Y204617D01*
X106500Y205904D01*
Y207296D01*
X105967Y208583D01*
X104983Y209567D01*
X103696Y210100D01*
D02*
G37*
G36*
X113696Y209500D02*
X112304D01*
X111017Y208967D01*
X110033Y207983D01*
X109500Y206696D01*
Y205304D01*
X110033Y204017D01*
X111017Y203033D01*
X112304Y202500D01*
X113696D01*
X114983Y203033D01*
X115967Y204017D01*
X116500Y205304D01*
Y206696D01*
X115967Y207983D01*
X114983Y208967D01*
X113696Y209500D01*
D02*
G37*
G36*
X94296Y200100D02*
X92904D01*
X91617Y199567D01*
X90633Y198583D01*
X90100Y197296D01*
Y195904D01*
X90633Y194617D01*
X91617Y193633D01*
X92904Y193100D01*
X94296D01*
X95583Y193633D01*
X96567Y194617D01*
X97100Y195904D01*
Y197296D01*
X96567Y198583D01*
X95583Y199567D01*
X94296Y200100D01*
D02*
G37*
G36*
X217118Y71500D02*
X212882D01*
X208729Y70674D01*
X204816Y69053D01*
X201295Y66700D01*
X198300Y63705D01*
X195947Y60184D01*
X194326Y56271D01*
X193500Y52118D01*
Y47882D01*
X194326Y43729D01*
X195947Y39816D01*
X198300Y36295D01*
X201295Y33300D01*
X204816Y30947D01*
X208729Y29326D01*
X212882Y28500D01*
X217118D01*
X221271Y29326D01*
X225184Y30947D01*
X228705Y33300D01*
X231700Y36295D01*
X234053Y39816D01*
X235674Y43729D01*
X236500Y47882D01*
Y52118D01*
X235674Y56271D01*
X234053Y60184D01*
X231700Y63705D01*
X228705Y66700D01*
X225184Y69053D01*
X221271Y70674D01*
X217118Y71500D01*
D02*
G37*
G36*
X104296Y30100D02*
X102904D01*
X101617Y29567D01*
X100633Y28583D01*
X100100Y27296D01*
Y25904D01*
X100633Y24617D01*
X101617Y23633D01*
X102904Y23100D01*
X104296D01*
X105583Y23633D01*
X106567Y24617D01*
X107100Y25904D01*
Y27296D01*
X106567Y28583D01*
X105583Y29567D01*
X104296Y30100D01*
D02*
G37*
G36*
X30987Y20500D02*
X29013D01*
X27105Y19989D01*
X25395Y19001D01*
X23998Y17605D01*
X23011Y15895D01*
X22500Y13987D01*
Y12013D01*
X23011Y10105D01*
X23998Y8395D01*
X25395Y6999D01*
X27105Y6011D01*
X29013Y5500D01*
X30987D01*
X32895Y6011D01*
X34605Y6999D01*
X36002Y8395D01*
X36989Y10105D01*
X37500Y12013D01*
Y13987D01*
X36989Y15895D01*
X36002Y17605D01*
X34605Y19001D01*
X32895Y19989D01*
X30987Y20500D01*
D02*
G37*
G36*
X214987Y19500D02*
X213013D01*
X211105Y18989D01*
X209395Y18002D01*
X207999Y16605D01*
X207011Y14895D01*
X206500Y12987D01*
Y11013D01*
X207011Y9105D01*
X207999Y7395D01*
X209395Y5998D01*
X211105Y5011D01*
X213013Y4500D01*
X214987D01*
X216895Y5011D01*
X218605Y5998D01*
X220002Y7395D01*
X220989Y9105D01*
X221500Y11013D01*
Y12987D01*
X220989Y14895D01*
X220002Y16605D01*
X218605Y18002D01*
X216895Y18989D01*
X214987Y19500D01*
D02*
G37*
%LPD*%
G36*
X266000Y304000D02*
X248000D01*
Y368000D01*
X266000D01*
Y304000D01*
D02*
G37*
%LPC*%
G36*
X144696Y288500D02*
X143304D01*
X142017Y287967D01*
X141033Y286983D01*
X140500Y285696D01*
Y284304D01*
X141033Y283017D01*
X142017Y282033D01*
X143304Y281500D01*
X144696D01*
X145983Y282033D01*
X146967Y283017D01*
X147500Y284304D01*
Y285696D01*
X146967Y286983D01*
X145983Y287967D01*
X144696Y288500D01*
D02*
G37*
G36*
X69696Y112500D02*
X68304D01*
X67017Y111967D01*
X66033Y110983D01*
X65500Y109696D01*
Y108304D01*
X66033Y107017D01*
X67017Y106033D01*
X68304Y105500D01*
X69696D01*
X70983Y106033D01*
X71967Y107017D01*
X72500Y108304D01*
Y109696D01*
X71967Y110983D01*
X70983Y111967D01*
X69696Y112500D01*
D02*
G37*
G36*
X113696Y109500D02*
X112304D01*
X111017Y108967D01*
X110033Y107983D01*
X109500Y106696D01*
Y105304D01*
X110033Y104017D01*
X111017Y103033D01*
X112304Y102500D01*
X113696D01*
X114983Y103033D01*
X115967Y104017D01*
X116500Y105304D01*
Y106696D01*
X115967Y107983D01*
X114983Y108967D01*
X113696Y109500D01*
D02*
G37*
G36*
X84296Y109500D02*
X82904D01*
X81617Y108967D01*
X80633Y107983D01*
X80100Y106696D01*
Y105304D01*
X80633Y104017D01*
X81617Y103033D01*
X82904Y102500D01*
X84296D01*
X85583Y103033D01*
X86567Y104017D01*
X87100Y105304D01*
Y106696D01*
X86567Y107983D01*
X85583Y108967D01*
X84296Y109500D01*
D02*
G37*
G36*
X103696Y100100D02*
X102304D01*
X101017Y99567D01*
X100033Y98583D01*
X99500Y97296D01*
Y95904D01*
X100033Y94617D01*
X101017Y93633D01*
X102304Y93100D01*
X103696D01*
X104983Y93633D01*
X105967Y94617D01*
X106500Y95904D01*
Y97296D01*
X105967Y98583D01*
X104983Y99567D01*
X103696Y100100D01*
D02*
G37*
G36*
X113696Y99500D02*
X112304D01*
X111017Y98967D01*
X110033Y97983D01*
X109500Y96696D01*
Y95304D01*
X110033Y94017D01*
X111017Y93033D01*
X112304Y92500D01*
X113696D01*
X114983Y93033D01*
X115967Y94017D01*
X116500Y95304D01*
Y96696D01*
X115967Y97983D01*
X114983Y98967D01*
X113696Y99500D01*
D02*
G37*
G36*
X94296Y90100D02*
X92904D01*
X91617Y89567D01*
X90633Y88583D01*
X90100Y87296D01*
Y85904D01*
X90633Y84617D01*
X91617Y83633D01*
X92904Y83100D01*
X94296D01*
X95583Y83633D01*
X96567Y84617D01*
X97100Y85904D01*
Y87296D01*
X96567Y88583D01*
X95583Y89567D01*
X94296Y90100D01*
D02*
G37*
G36*
X142696Y64500D02*
X141304D01*
X140017Y63967D01*
X139033Y62983D01*
X138500Y61696D01*
Y60304D01*
X139033Y59017D01*
X140017Y58033D01*
X141304Y57500D01*
X142696D01*
X143983Y58033D01*
X144967Y59017D01*
X145500Y60304D01*
Y61696D01*
X144967Y62983D01*
X143983Y63967D01*
X142696Y64500D01*
D02*
G37*
%LPD*%
D12*
X63000Y134000D02*
Y146000D01*
X64000Y147000D01*
X66100Y130900D02*
X75113D01*
X63000Y134000D02*
X66100Y130900D01*
X77213Y133000D02*
X81000D01*
X75113Y130900D02*
X77213Y133000D01*
X81000D02*
X84000Y136000D01*
X93000D01*
D28*
X40000Y275000D02*
Y275487D01*
X39000Y276487D02*
X40000Y275487D01*
X17844Y117844D02*
X25000Y125000D01*
Y133000D01*
X56500Y140689D02*
Y146005D01*
X31400Y139400D02*
X55211D01*
X56500Y140689D01*
Y146005D02*
X62095Y151600D01*
X66000D02*
X72000Y145600D01*
X62095Y151600D02*
X66000D01*
X25000Y133000D02*
X31400Y139400D01*
X16000Y117500D02*
X16344Y117844D01*
X17844D01*
X39000Y276487D02*
Y290000D01*
D31*
X76000Y9343D02*
Y18085D01*
X78100Y20185D02*
Y29878D01*
X54343Y7000D02*
X73657D01*
X76000Y31978D02*
X78100Y29878D01*
X73600Y36000D02*
X76000Y33600D01*
X73657Y7000D02*
X76000Y9343D01*
Y31978D02*
Y33600D01*
Y18085D02*
X78100Y20185D01*
X52000Y9343D02*
Y81515D01*
Y9343D02*
X54343Y7000D01*
X45500Y88015D02*
X52000Y81515D01*
X45500Y88015D02*
Y104500D01*
X49000Y108000D01*
D32*
X32000Y165000D02*
X36000D01*
X34000Y161000D02*
X37808D01*
X36000Y165000D02*
X40000D01*
X30000Y161000D02*
X34000D01*
X34000Y161000D01*
X30000Y163000D02*
X32000Y165000D01*
X73600Y36000D02*
X83600D01*
X63000Y366000D02*
X75000D01*
X93000D01*
X30000Y161000D02*
Y163000D01*
X5000Y112515D02*
Y158000D01*
X11000Y164000D01*
Y168000D01*
X5000Y112515D02*
X8515Y109000D01*
X170000Y398000D02*
X175000Y403000D01*
Y439000D01*
X161000Y453000D02*
X175000Y439000D01*
X48150Y416600D02*
X63600D01*
X31000Y433750D02*
X48150Y416600D01*
X31000Y433750D02*
Y442000D01*
X45000Y315000D02*
X53400Y306600D01*
X41515Y315000D02*
X45000D01*
X36071Y320444D02*
Y328071D01*
Y320444D02*
X41515Y315000D01*
X36071Y328071D02*
X52000Y344000D01*
X94000Y145000D02*
X97696D01*
X82000D02*
X94000D01*
X103196Y139500D02*
X128060D01*
X130837Y142277D01*
X138585Y139500D02*
X139500D01*
X130837Y142277D02*
X135808D01*
X138585Y139500D01*
X16757Y109000D02*
X21757Y114000D01*
X30000D01*
X42000Y126000D01*
X8515Y109000D02*
X16757D01*
X63000Y356600D02*
X68300Y351300D01*
X88300D02*
X93600Y356600D01*
X68300Y351300D02*
X88300D01*
X92000Y336000D02*
X93000Y337000D01*
X61000Y336000D02*
X92000D01*
X93000Y337000D02*
X133400D01*
X169280Y36600D02*
Y47403D01*
X164000Y52682D02*
X169280Y47403D01*
X164000Y52682D02*
Y63485D01*
X208529Y108014D01*
Y152131D01*
X153600Y36600D02*
X169280D01*
Y26280D02*
Y36600D01*
X159600Y16600D02*
X169280Y26280D01*
X170000Y380129D02*
Y398000D01*
X133400Y337000D02*
X143000Y346600D01*
X72000Y125800D02*
X77225D01*
X63944Y25000D02*
Y45344D01*
X73600Y55000D01*
X44308Y154500D02*
X56904D01*
X60404Y158000D02*
X73000D01*
X77500Y153500D01*
X37808Y161000D02*
X44308Y154500D01*
X56904D02*
X60404Y158000D01*
X42000Y126000D02*
X72000D01*
X77425D02*
X152400D01*
X77225Y125800D02*
X77425Y126000D01*
X152400D02*
X153000Y126600D01*
X73000Y136000D02*
Y136000D01*
X82000Y145000D01*
X97696D02*
X103196Y139500D01*
X139500D02*
X145619Y145619D01*
X83722Y165000D02*
X88222Y169500D01*
X90915Y163000D02*
X98357D01*
X76515Y165000D02*
X83722D01*
X87000Y159085D02*
X90915Y163000D01*
X130081Y169500D02*
X133600Y173019D01*
X98357Y163000D02*
X114357Y147000D01*
X88222Y169500D02*
X130081D01*
X73000Y168515D02*
Y182485D01*
X87000Y156071D02*
Y159085D01*
X77858Y153142D02*
X84071D01*
X87000Y156071D01*
X77500Y153500D02*
X77858Y153142D01*
X114357Y147000D02*
X122600D01*
X123600Y146000D01*
X141640Y164979D02*
X145619Y161000D01*
X141536Y164979D02*
X141640D01*
X137557Y168957D02*
X141536Y164979D01*
X137557Y168957D02*
Y169062D01*
X133600Y173019D02*
X137557Y169062D01*
X125100Y203100D02*
X137100D01*
X143600Y196600D01*
X176600D01*
X178000Y198000D01*
X122000Y200000D02*
X125100Y203100D01*
X122000Y180929D02*
Y200000D01*
X119071Y178000D02*
X122000Y180929D01*
X91894Y178000D02*
X119071D01*
X84000Y185894D02*
X91894Y178000D01*
X84000Y185894D02*
Y197000D01*
X75000Y206000D02*
X84000Y197000D01*
X63600Y206000D02*
X75000D01*
X165000Y311000D02*
X192000Y284000D01*
X148000Y311000D02*
X165000D01*
X143600Y306600D02*
X148000Y311000D01*
X144000Y388515D02*
Y416200D01*
X143600Y388115D02*
X144000Y388515D01*
X143600Y416600D02*
X144000Y416200D01*
X143600Y377200D02*
Y388115D01*
X134515Y114000D02*
X152000D01*
X128000Y107485D02*
X134515Y114000D01*
X124107Y75521D02*
X128000Y79414D01*
Y107485D01*
X71600Y258000D02*
X74497D01*
X76497Y256000D01*
X93000D01*
X93000Y256000D01*
X63600Y266000D02*
X71600Y258000D01*
X63600Y266000D02*
Y275000D01*
X71200Y89000D02*
X73600Y86600D01*
X54000Y89000D02*
X71200D01*
X82500Y78450D02*
Y87500D01*
Y78450D02*
X85429Y75521D01*
X124107D01*
X68000Y316000D02*
X78571Y305429D01*
X63000Y316000D02*
X68000D01*
X157000Y152000D02*
X167000D01*
X153000Y126600D02*
Y148000D01*
X157000Y152000D01*
X187000Y181000D02*
X194000D01*
X197000Y184000D01*
X167131Y152131D02*
X208529D01*
Y236600D01*
X167000Y161000D02*
X187000Y181000D01*
Y218000D01*
X195000Y110000D02*
X199000Y114000D01*
Y125000D01*
X164400Y79400D02*
X195000Y110000D01*
Y110000D01*
X153600Y79400D02*
X164400D01*
X95000Y9000D02*
Y15200D01*
Y9000D02*
X98000Y6000D01*
X93200Y17000D02*
X95000Y15200D01*
X173000Y121000D02*
Y135000D01*
X159000Y107000D02*
X173000Y121000D01*
X167000Y141000D02*
X173000Y135000D01*
X200000Y269929D02*
Y295000D01*
X163000Y276000D02*
X172000Y267000D01*
X197071D01*
X200000Y269929D01*
X169000Y326000D02*
X200000Y295000D01*
X143600Y326000D02*
X169000D01*
X73000Y168515D02*
X76515Y165000D01*
X73000Y182485D02*
X73600Y183085D01*
Y196600D01*
X63000Y196600D02*
X73600D01*
X53929D02*
X63000D01*
X98000Y6000D02*
X132400D01*
X143000Y16600D01*
X73600Y55000D02*
Y86600D01*
Y55000D02*
X107000D01*
X74000Y96000D02*
X82500Y87500D01*
X107000Y55000D02*
X122000Y40000D01*
X131000D02*
X138000Y47000D01*
X122000Y40000D02*
X131000D01*
X138000Y47000D02*
X153200D01*
X153000Y256000D02*
Y266000D01*
X93256Y246256D02*
X143256D01*
X73256D02*
X93256D01*
X143256D02*
X153000Y256000D01*
Y266000D02*
X163000Y276000D01*
X143600Y306600D02*
X156580Y293620D01*
Y279580D02*
Y293620D01*
X133000Y256000D02*
X156580Y279580D01*
X133000Y406000D02*
Y425400D01*
X108000Y393000D02*
X120000D01*
X133000Y406000D01*
X83000Y290000D02*
X127000D01*
X78571Y294429D02*
X83000Y290000D01*
X127000D02*
X133600Y296600D01*
X52000Y344000D02*
Y355000D01*
X63000Y366000D01*
X145619Y161000D02*
X167000D01*
X160071Y263071D02*
X163000Y266000D01*
X160071Y236600D02*
Y263071D01*
X208529Y236600D02*
Y305671D01*
X160071Y236600D02*
X208529D01*
X167600Y346600D02*
X208529Y305671D01*
X55000Y227000D02*
X178000D01*
X187000Y218000D01*
X152000Y114000D02*
X159000Y107000D01*
X143600Y364400D02*
X151400Y356600D01*
X143600Y364400D02*
Y377200D01*
X167071D01*
X170000Y380129D01*
X134800Y377200D02*
X143600D01*
X123600Y366000D02*
X134800Y377200D01*
X151400Y356600D02*
X163000D01*
X85000Y393000D02*
X108000D01*
X103600Y356600D02*
X108000Y361000D01*
Y393000D01*
X93600Y356600D02*
X103600D01*
X42000Y453000D02*
X161000D01*
X31000Y442000D02*
X42000Y453000D01*
X22000Y329000D02*
X30000Y337000D01*
X22000Y264000D02*
Y329000D01*
X53400Y306600D02*
X63600D01*
X22000Y264000D02*
X39400Y246600D01*
X32000Y208000D02*
X37000Y213000D01*
X32000Y165000D02*
Y208000D01*
X63600Y275000D02*
Y306600D01*
X39400Y246600D02*
X52071D01*
X40000Y275000D02*
X63600D01*
X51000Y193671D02*
X53929Y196600D01*
X51000Y165000D02*
Y193671D01*
X63000Y246600D02*
X72400D01*
X52071D02*
X63000D01*
X52071Y246600D02*
X52071Y246600D01*
X52071Y229929D02*
Y246600D01*
X145619Y145619D02*
Y161000D01*
X52071Y229929D02*
X55000Y227000D01*
X170929Y349929D02*
Y363671D01*
X163000Y366600D02*
X168000D01*
X170929Y363671D01*
X47000Y165000D02*
X51000D01*
X47000Y161000D02*
Y165000D01*
Y161000D02*
X51000D01*
X73000Y96000D02*
X74000D01*
X153200Y47000D02*
X153600Y46600D01*
X55000Y108000D02*
X67000Y96000D01*
X73000D01*
X49000Y108000D02*
X55000D01*
X143600Y236600D02*
X160071D01*
X37000Y213000D02*
X44000Y206000D01*
X63600D01*
X72400Y246600D02*
X73000Y246000D01*
X93000Y256000D02*
X133000D01*
X192000Y278000D02*
Y284000D01*
X133000Y425400D02*
X143600Y436000D01*
X143600Y436000D02*
X163000Y416600D01*
Y386000D02*
Y416600D01*
X73600Y404400D02*
Y426000D01*
Y404400D02*
X85000Y393000D01*
X53600Y426000D02*
X73600D01*
X143600Y89400D02*
X153600Y79400D01*
X143600Y89400D02*
Y106000D01*
X153600Y46600D02*
Y79400D01*
X123600Y26600D02*
X153600D01*
X123400D02*
X123600D01*
X83600Y36000D02*
X114000D01*
X123400Y26600D01*
X133600Y173019D02*
Y196600D01*
X73000Y246000D02*
X73256Y246256D01*
X78571Y294429D02*
Y305429D01*
X133600Y296600D02*
Y306600D01*
Y316000D01*
X143600Y326000D01*
X73600Y196600D02*
X73600Y196600D01*
X63600Y366600D02*
Y416600D01*
X63000Y366000D02*
X63600Y366600D01*
X143000Y16600D02*
X159600D01*
X167600Y346600D02*
X170929Y349929D01*
X143000Y346600D02*
X167600D01*
X73600Y236600D02*
X93600D01*
X133600D01*
D33*
X30000Y13000D02*
D03*
X214000Y12000D02*
D03*
D34*
X215000Y439000D02*
D03*
X25000Y75000D02*
D03*
X215000Y50000D02*
D03*
X25000Y364000D02*
D03*
D35*
X34000Y161000D02*
D03*
X36000Y165000D02*
D03*
X32000D02*
D03*
X75000Y366000D02*
D03*
X93000D02*
D03*
X30000Y161000D02*
D03*
X64000Y237000D02*
D03*
X169000Y415000D02*
D03*
X28000Y413000D02*
D03*
Y423000D02*
D03*
X63035Y66465D02*
D03*
X260000Y432000D02*
D03*
Y417000D02*
D03*
Y402000D02*
D03*
Y387000D02*
D03*
Y372000D02*
D03*
Y297000D02*
D03*
Y282000D02*
D03*
Y267000D02*
D03*
Y252000D02*
D03*
Y237000D02*
D03*
Y222000D02*
D03*
Y207000D02*
D03*
Y192000D02*
D03*
Y177000D02*
D03*
Y162000D02*
D03*
Y147000D02*
D03*
Y132000D02*
D03*
X245000Y432000D02*
D03*
Y417000D02*
D03*
Y297000D02*
D03*
Y282000D02*
D03*
Y267000D02*
D03*
Y252000D02*
D03*
Y237000D02*
D03*
Y222000D02*
D03*
Y207000D02*
D03*
Y192000D02*
D03*
Y177000D02*
D03*
Y162000D02*
D03*
Y147000D02*
D03*
Y132000D02*
D03*
X230000Y417000D02*
D03*
Y327000D02*
D03*
Y117000D02*
D03*
Y102000D02*
D03*
Y87000D02*
D03*
Y72000D02*
D03*
Y27000D02*
D03*
Y12000D02*
D03*
X215000Y117000D02*
D03*
Y102000D02*
D03*
Y87000D02*
D03*
X200000Y222000D02*
D03*
Y192000D02*
D03*
Y87000D02*
D03*
Y72000D02*
D03*
Y27000D02*
D03*
X185000Y252000D02*
D03*
Y72000D02*
D03*
Y12000D02*
D03*
X170000Y177000D02*
D03*
Y12000D02*
D03*
X125000Y327000D02*
D03*
X35000Y387000D02*
D03*
Y42000D02*
D03*
X20000Y447000D02*
D03*
Y402000D02*
D03*
Y387000D02*
D03*
Y192000D02*
D03*
Y27000D02*
D03*
Y12000D02*
D03*
X5000Y447000D02*
D03*
Y432000D02*
D03*
Y417000D02*
D03*
Y402000D02*
D03*
Y387000D02*
D03*
Y342000D02*
D03*
Y327000D02*
D03*
Y312000D02*
D03*
Y297000D02*
D03*
Y282000D02*
D03*
Y267000D02*
D03*
Y252000D02*
D03*
Y237000D02*
D03*
Y222000D02*
D03*
Y207000D02*
D03*
Y42000D02*
D03*
Y27000D02*
D03*
Y12000D02*
D03*
X44000Y321000D02*
D03*
X133323Y136277D02*
D03*
X134000Y105000D02*
D03*
X16000Y117500D02*
D03*
X63000Y356600D02*
D03*
X61000Y336000D02*
D03*
X93000Y338000D02*
D03*
X37000Y213000D02*
D03*
X170000Y61000D02*
D03*
X48000Y260000D02*
D03*
X39000Y290000D02*
D03*
X170000Y398000D02*
D03*
X44000Y396000D02*
D03*
X177000Y63000D02*
D03*
X142000Y61000D02*
D03*
X84000Y25000D02*
D03*
X63944D02*
D03*
X64000Y147000D02*
D03*
X73000Y136000D02*
D03*
X72000Y126000D02*
D03*
X93000Y136000D02*
D03*
X94000Y145000D02*
D03*
X142000Y174000D02*
D03*
X143600Y196600D02*
D03*
X154300Y305000D02*
D03*
X153000Y417000D02*
D03*
X136000Y393000D02*
D03*
X144000Y285000D02*
D03*
X162600Y187600D02*
D03*
X72000Y145600D02*
D03*
X77500Y153500D02*
D03*
X72600Y27600D02*
D03*
X64000Y255000D02*
D03*
X72600Y357600D02*
D03*
X134000Y435000D02*
D03*
Y325000D02*
D03*
Y215000D02*
D03*
X153000Y187000D02*
D03*
X54000Y89000D02*
D03*
X93900Y116681D02*
D03*
X98319Y81948D02*
D03*
X75756Y117037D02*
D03*
X90682Y108584D02*
D03*
X119274Y109617D02*
D03*
X107959Y194814D02*
D03*
X91226Y218861D02*
D03*
X137688Y272618D02*
D03*
X137213Y283461D02*
D03*
X76965Y280886D02*
D03*
X77304Y271195D02*
D03*
X124910Y304561D02*
D03*
X107651Y304711D02*
D03*
X123604Y316459D02*
D03*
X119831Y330041D02*
D03*
X91285Y327989D02*
D03*
X136000Y399000D02*
D03*
X79097Y386208D02*
D03*
X79741Y412329D02*
D03*
X107709Y415206D02*
D03*
X123257Y436730D02*
D03*
X123876Y426489D02*
D03*
X123543Y413390D02*
D03*
X98107Y440969D02*
D03*
X103375Y436792D02*
D03*
X93167Y436865D02*
D03*
X16000Y175000D02*
D03*
X21000D02*
D03*
X83600Y206000D02*
D03*
X11000Y115000D02*
D03*
X264000Y306000D02*
D03*
X258000D02*
D03*
X251000D02*
D03*
X264000Y311000D02*
D03*
X258000D02*
D03*
X251000D02*
D03*
X263000Y364000D02*
D03*
X257000D02*
D03*
X263000Y357000D02*
D03*
X257000D02*
D03*
X251000D02*
D03*
X197000Y184000D02*
D03*
X199000Y125000D02*
D03*
X89000Y11000D02*
D03*
X165000Y131000D02*
D03*
X79000Y171000D02*
D03*
X80204Y181204D02*
D03*
X40000Y113000D02*
D03*
X26000Y108000D02*
D03*
X49000Y144000D02*
D03*
X83000Y46000D02*
D03*
X80000Y71000D02*
D03*
X124000Y47000D02*
D03*
Y119000D02*
D03*
X93000Y156600D02*
D03*
X121000Y153000D02*
D03*
X163000Y206000D02*
D03*
X153600Y246000D02*
D03*
X143000Y256000D02*
D03*
X143600Y276000D02*
D03*
Y296600D02*
D03*
X133600Y356600D02*
D03*
X133000Y346600D02*
D03*
X123000D02*
D03*
Y356600D02*
D03*
X93000Y406000D02*
D03*
Y386600D02*
D03*
Y376600D02*
D03*
X123000Y386000D02*
D03*
X132000Y387600D02*
D03*
X132135Y267600D02*
D03*
X132000Y277600D02*
D03*
X122000Y267600D02*
D03*
Y277600D02*
D03*
X124000Y297000D02*
D03*
X93000Y296135D02*
D03*
X93735Y266000D02*
D03*
X93000Y276465D02*
D03*
X83000Y61000D02*
D03*
X134000D02*
D03*
X59000Y17000D02*
D03*
X122000Y405000D02*
D03*
X30000Y337000D02*
D03*
X178000Y198000D02*
D03*
X40000Y275000D02*
D03*
X192000Y278000D02*
D03*
X122000Y40000D02*
D03*
X159000Y107000D02*
D03*
X93256Y246256D02*
D03*
X73000Y246000D02*
D03*
X47000Y120000D02*
D03*
X46000Y114000D02*
D03*
X17026Y165889D02*
D03*
X16893Y170314D02*
D03*
X11000Y164000D02*
D03*
Y168000D02*
D03*
X51000Y165000D02*
D03*
X47000D02*
D03*
X51000Y161000D02*
D03*
X47000D02*
D03*
X40000Y165000D02*
D03*
X21000Y137000D02*
D03*
X30000Y128000D02*
D03*
Y144000D02*
D03*
X24000Y147000D02*
D03*
X30000Y150000D02*
D03*
X18000Y129000D02*
D03*
X16000Y123000D02*
D03*
X234000Y385000D02*
D03*
X243000Y373000D02*
D03*
X193000Y374000D02*
D03*
X183000Y359000D02*
D03*
X224000Y389000D02*
D03*
X244000Y385000D02*
D03*
X176000D02*
D03*
X219000Y406000D02*
D03*
X190000Y404000D02*
D03*
X185325Y415325D02*
D03*
X208000Y415000D02*
D03*
X233000Y403000D02*
D03*
X228000Y410000D02*
D03*
X208000Y349000D02*
D03*
X198000D02*
D03*
X163000Y366600D02*
D03*
X188000Y355000D02*
D03*
X69000Y109000D02*
D03*
X63000Y366000D02*
D03*
X54000Y444000D02*
D03*
X73000Y327000D02*
D03*
X93600Y236600D02*
D03*
X73600D02*
D03*
X69000Y221000D02*
D03*
X63600Y216000D02*
D03*
Y206000D02*
D03*
X73600Y196600D02*
D03*
X63000Y196600D02*
D03*
Y246600D02*
D03*
X93000Y256000D02*
D03*
X73600Y258000D02*
D03*
X63000Y316000D02*
D03*
X63600Y306600D02*
D03*
X63600Y326000D02*
D03*
X93600Y356600D02*
D03*
X73600Y436000D02*
D03*
Y426000D02*
D03*
X63600Y416600D02*
D03*
X53600Y426000D02*
D03*
X143600Y436000D02*
D03*
X143600Y416600D02*
D03*
X123600Y366000D02*
D03*
X163000Y386000D02*
D03*
X163000Y356600D02*
D03*
X143000Y346600D02*
D03*
X143600Y326000D02*
D03*
X133600Y306600D02*
D03*
X143600D02*
D03*
X163000Y276000D02*
D03*
Y266000D02*
D03*
X133000Y256000D02*
D03*
X143600Y236600D02*
D03*
X133600D02*
D03*
Y196600D02*
D03*
X123600Y146000D02*
D03*
X167000Y161000D02*
D03*
Y152000D02*
D03*
Y141000D02*
D03*
X153000Y126600D02*
D03*
X143600Y106000D02*
D03*
X51000Y101000D02*
D03*
X73000Y96000D02*
D03*
X73600Y86600D02*
D03*
X83600Y36000D02*
D03*
X73600D02*
D03*
X153600Y46600D02*
D03*
Y36600D02*
D03*
Y26600D02*
D03*
X143000Y16600D02*
D03*
X123600Y26600D02*
D03*
X113600D02*
D03*
X123000Y16600D02*
D03*
X103600Y26600D02*
D03*
Y16600D02*
D03*
X93600D02*
D03*
X83000Y16600D02*
D03*
X83600Y426000D02*
D03*
Y436000D02*
D03*
X93600Y416600D02*
D03*
X103000Y426600D02*
D03*
X113000Y436000D02*
D03*
Y426000D02*
D03*
X83600Y316000D02*
D03*
Y326000D02*
D03*
X93600Y306600D02*
D03*
X103000Y316600D02*
D03*
X113000Y326000D02*
D03*
Y316000D02*
D03*
X83600Y216000D02*
D03*
X93600Y196600D02*
D03*
X103000Y206600D02*
D03*
X113000Y216000D02*
D03*
Y206000D02*
D03*
Y96000D02*
D03*
Y106000D02*
D03*
X103000Y96600D02*
D03*
X93600Y86600D02*
D03*
X83600Y106000D02*
D03*
Y96000D02*
D03*
M02*
