G04*
G04 #@! TF.GenerationSoftware,Altium Limited,Altium Designer,24.9.1 (31)*
G04*
G04 Layer_Physical_Order=4*
G04 Layer_Color=16711680*
%FSLAX44Y44*%
%MOMM*%
G71*
G04*
G04 #@! TF.SameCoordinates,5A5FE6A1-42EB-4B62-8C37-2C097A76047A*
G04*
G04*
G04 #@! TF.FilePolarity,Positive*
G04*
G01*
G75*
%ADD12C,0.1500*%
%ADD28C,0.2200*%
%ADD31C,0.4000*%
%ADD32C,0.5000*%
%ADD33C,1.2000*%
%ADD34C,4.0000*%
%ADD35C,0.4000*%
%ADD36C,0.4500*%
%ADD37C,3.0000*%
G36*
X240000Y443000D02*
X274000D01*
Y95000D01*
X239000D01*
Y0D01*
X0D01*
Y157392D01*
X1500Y158013D01*
X3349Y156164D01*
Y110000D01*
X3349Y110000D01*
X3551Y108986D01*
X4126Y108125D01*
X8251Y104000D01*
X5125Y100875D01*
X4551Y100014D01*
X4349Y99000D01*
X4349Y99000D01*
Y57000D01*
X4349Y57000D01*
X4551Y55985D01*
X5125Y55125D01*
X52126Y8126D01*
X52126Y8126D01*
X52986Y7551D01*
X54000Y7349D01*
X67000D01*
X67000Y7349D01*
X68014Y7551D01*
X68875Y8126D01*
X75024Y14275D01*
X75599Y15136D01*
X75801Y16150D01*
X75801Y16150D01*
Y16653D01*
X77301Y17655D01*
X77554Y17550D01*
X78301D01*
X79500Y16351D01*
Y15904D01*
X80033Y14617D01*
X81017Y13633D01*
X82304Y13100D01*
X83696D01*
X84983Y13633D01*
X85967Y14617D01*
X86500Y15904D01*
Y16363D01*
X87490Y17478D01*
X87886Y17550D01*
X88714D01*
X89110Y17478D01*
X90100Y16363D01*
Y15904D01*
X90633Y14617D01*
X91617Y13633D01*
X92904Y13100D01*
X94296D01*
X95583Y13633D01*
X96567Y14617D01*
X97100Y15904D01*
X98322Y17023D01*
X99559Y16972D01*
X100100Y16363D01*
Y15904D01*
X100633Y14617D01*
X101617Y13633D01*
X102904Y13100D01*
X104296D01*
X105583Y13633D01*
X106567Y14617D01*
X107100Y15904D01*
Y16351D01*
X108299Y17550D01*
X109046D01*
X110424Y18121D01*
X111479Y19176D01*
X112050Y20554D01*
X113510Y20458D01*
Y20347D01*
X114239Y18587D01*
X115587Y17239D01*
X117030Y16641D01*
Y21300D01*
X119570D01*
Y16641D01*
X121013Y17239D01*
X122361Y18587D01*
X122488Y18894D01*
X124112D01*
X124239Y18587D01*
X125587Y17239D01*
X127030Y16641D01*
Y21300D01*
X129570D01*
Y16641D01*
X131013Y17239D01*
X132361Y18587D01*
X133090Y20347D01*
Y20457D01*
X134550Y20554D01*
X135121Y19176D01*
X136176Y18121D01*
X137554Y17550D01*
X137761D01*
X138922Y16600D01*
X139232Y15039D01*
X140116Y13716D01*
X141439Y12832D01*
X143000Y12522D01*
X143300D01*
X144861Y12832D01*
X146184Y13716D01*
X147068Y15039D01*
X147378Y16600D01*
X148539Y17550D01*
X149046D01*
X150424Y18121D01*
X151479Y19176D01*
X152050Y20554D01*
X153510Y20458D01*
Y20347D01*
X154239Y18587D01*
X155587Y17239D01*
X157030Y16641D01*
Y21300D01*
X158300D01*
Y22570D01*
X162959D01*
X162904Y22702D01*
X163737Y23949D01*
X165850D01*
X165850Y23949D01*
X166864Y24151D01*
X167724Y24725D01*
X172624Y29625D01*
X172624Y29625D01*
X173199Y30485D01*
X173401Y31500D01*
X173401Y31500D01*
Y45631D01*
X173401Y45631D01*
X173199Y46646D01*
X172651Y47466D01*
Y58701D01*
X172967Y59017D01*
X173244Y59685D01*
X174802Y60140D01*
X174926Y60125D01*
X175017Y60033D01*
X176304Y59500D01*
X177696D01*
X177702Y59502D01*
X178949Y58669D01*
Y26400D01*
X178949Y26400D01*
X179151Y25385D01*
X179725Y24525D01*
X194125Y10126D01*
X194125Y10125D01*
X194986Y9551D01*
X196000Y9349D01*
X196000Y9349D01*
X206946D01*
X207011Y9105D01*
X207999Y7395D01*
X209395Y5998D01*
X211105Y5011D01*
X213013Y4500D01*
X214987D01*
X216895Y5011D01*
X218605Y5998D01*
X220002Y7395D01*
X220989Y9105D01*
X221500Y11013D01*
Y12987D01*
X220989Y14895D01*
X220002Y16605D01*
X218605Y18002D01*
X216895Y18989D01*
X214987Y19500D01*
X213013D01*
X211105Y18989D01*
X209395Y18002D01*
X207999Y16605D01*
X207011Y14895D01*
X206946Y14651D01*
X197098D01*
X184251Y27498D01*
Y64905D01*
X184049Y65920D01*
X183475Y66780D01*
X183474Y66780D01*
X163145Y87109D01*
X163005Y87203D01*
X161991Y88217D01*
X162361Y88587D01*
X162959Y90030D01*
X158300D01*
Y92570D01*
X162959D01*
X162361Y94013D01*
X161013Y95361D01*
X159253Y96090D01*
X158960D01*
X158339Y97590D01*
X160574Y99825D01*
X160574Y99825D01*
X161149Y100686D01*
X161351Y101700D01*
Y102922D01*
X182142D01*
X182142Y102922D01*
X183703Y103232D01*
X185026Y104116D01*
X187955Y107045D01*
X187955Y107045D01*
X188839Y108368D01*
X189149Y109929D01*
Y141000D01*
Y190929D01*
X189149Y190929D01*
X188839Y192490D01*
X187955Y193813D01*
X180884Y200884D01*
X179561Y201768D01*
X178000Y202078D01*
X176439Y201768D01*
X175116Y200884D01*
X174232Y199561D01*
X173922Y198000D01*
X174232Y196439D01*
X175116Y195116D01*
X180993Y189240D01*
Y145078D01*
X167000D01*
X165439Y144768D01*
X164116Y143884D01*
X164061Y143801D01*
X161102D01*
X160424Y144479D01*
X159046Y145050D01*
X157554D01*
X156176Y144479D01*
X155121Y143424D01*
X154550Y142046D01*
X153090Y142142D01*
Y142253D01*
X152361Y144013D01*
X151013Y145361D01*
X150706Y145488D01*
Y147112D01*
X151013Y147239D01*
X152361Y148587D01*
X152949Y150008D01*
X154476Y150022D01*
X154532Y149739D01*
X155416Y148416D01*
X156739Y147532D01*
X158300Y147222D01*
X165813D01*
X167374Y147532D01*
X168697Y148416D01*
X169363Y149413D01*
X169967Y150017D01*
X170500Y151304D01*
Y152696D01*
X169967Y153983D01*
X168983Y154967D01*
X167696Y155500D01*
X166304D01*
X165946Y155352D01*
X165813Y155378D01*
X158300D01*
X156739Y155068D01*
X155416Y154184D01*
X154532Y152861D01*
X154476Y152578D01*
X152949Y152592D01*
X152361Y154013D01*
X151013Y155361D01*
X150706Y155488D01*
Y157112D01*
X151013Y157239D01*
X152361Y158587D01*
X153090Y160347D01*
Y160458D01*
X154550Y160554D01*
X155121Y159176D01*
X156176Y158121D01*
X157554Y157550D01*
X159046D01*
X160424Y158121D01*
X160952Y158649D01*
X164401D01*
X165017Y158033D01*
X166304Y157500D01*
X167696D01*
X168983Y158033D01*
X169967Y159017D01*
X170500Y160304D01*
Y161696D01*
X169967Y162983D01*
X168983Y163967D01*
X167696Y164500D01*
X166304D01*
X165017Y163967D01*
X165001Y163951D01*
X160952D01*
X160424Y164479D01*
X159046Y165050D01*
X157920D01*
X157268Y166124D01*
X157185Y166436D01*
X157377Y166628D01*
X157377Y166628D01*
X157377Y166628D01*
X158299Y167550D01*
X159046D01*
X160424Y168121D01*
X161479Y169176D01*
X162050Y170554D01*
Y172046D01*
X161479Y173424D01*
X160424Y174479D01*
X159046Y175050D01*
X157920D01*
X157268Y176124D01*
X157185Y176436D01*
X158299Y177550D01*
X159046D01*
X160424Y178121D01*
X161479Y179176D01*
X162050Y180554D01*
Y182046D01*
X161803Y182642D01*
X162763Y184100D01*
X163296D01*
X164583Y184633D01*
X165567Y185617D01*
X166100Y186904D01*
Y188296D01*
X165567Y189583D01*
X164583Y190567D01*
X163296Y191100D01*
X162549D01*
X162050Y191599D01*
Y192046D01*
X161479Y193424D01*
X160424Y194479D01*
X159046Y195050D01*
X159142Y196510D01*
X159253D01*
X161013Y197239D01*
X162361Y198587D01*
X162959Y200030D01*
X158300D01*
Y201300D01*
X157030D01*
Y205959D01*
X155587Y205361D01*
X154239Y204013D01*
X153651Y202592D01*
X152124Y202578D01*
X152068Y202861D01*
X151184Y204184D01*
X149861Y205068D01*
X148786Y205282D01*
X148178Y206594D01*
X148155Y206820D01*
X148704Y207550D01*
X149046D01*
X150424Y208121D01*
X151479Y209176D01*
X152050Y210554D01*
Y212046D01*
X151479Y213424D01*
X150424Y214479D01*
X149046Y215050D01*
X147554D01*
X146176Y214479D01*
X145121Y213424D01*
X144550Y212046D01*
Y211299D01*
X143436Y210185D01*
X143124Y210268D01*
X142050Y210920D01*
Y212046D01*
X141479Y213424D01*
X140424Y214479D01*
X139046Y215050D01*
X137999D01*
X137500Y215549D01*
Y215696D01*
X136967Y216983D01*
X135983Y217967D01*
X134696Y218500D01*
X133304D01*
X132017Y217967D01*
X131033Y216983D01*
X130633Y216016D01*
X129879Y215420D01*
X129046Y215050D01*
X127554D01*
X126176Y214479D01*
X125121Y213424D01*
X124550Y212046D01*
Y210554D01*
X125121Y209176D01*
X126176Y208121D01*
X127554Y207550D01*
X129046D01*
X130424Y208121D01*
X131479Y209176D01*
X132050Y210554D01*
Y210669D01*
X133243Y211466D01*
X134550Y210883D01*
Y210554D01*
X135121Y209176D01*
X136176Y208121D01*
X137554Y207550D01*
X138680D01*
X139332Y206476D01*
X139415Y206164D01*
X138301Y205050D01*
X137554D01*
X136176Y204479D01*
X135121Y203424D01*
X134550Y202046D01*
X133214Y200903D01*
X132283Y201023D01*
X132050Y201370D01*
Y202046D01*
X131479Y203424D01*
X130424Y204479D01*
X129046Y205050D01*
X127554D01*
X126176Y204479D01*
X125121Y203424D01*
X124550Y202046D01*
Y200554D01*
X125121Y199176D01*
X126176Y198121D01*
X127554Y197550D01*
X128714D01*
X129110Y197477D01*
X130100Y196363D01*
Y195904D01*
X130633Y194617D01*
X131617Y193633D01*
X132904Y193100D01*
X134296D01*
X135583Y193633D01*
X136567Y194617D01*
X137100Y195904D01*
Y196351D01*
X138152Y197403D01*
X138588Y197325D01*
X139390Y196702D01*
X139608Y196164D01*
X139832Y195039D01*
X140716Y193716D01*
X142039Y192832D01*
X142124Y192815D01*
X143510Y192253D01*
X143510Y190347D01*
X144239Y188587D01*
X145587Y187239D01*
X146484Y186868D01*
X146576Y186713D01*
X146671Y185167D01*
X146125Y184814D01*
X145438Y184951D01*
X145438Y184951D01*
X135257D01*
X132184Y188025D01*
X131323Y188599D01*
X130309Y188801D01*
X130309Y188801D01*
X72947D01*
X71945Y190301D01*
X72050Y190554D01*
Y191830D01*
X72410Y192366D01*
X73237Y193100D01*
X74296D01*
X75583Y193633D01*
X76567Y194617D01*
X77100Y195904D01*
Y196351D01*
X78299Y197550D01*
X79046D01*
X80424Y198121D01*
X81479Y199176D01*
X82050Y200554D01*
Y201230D01*
X82283Y201577D01*
X83214Y201696D01*
X84550Y200554D01*
X85121Y199176D01*
X86176Y198121D01*
X87554Y197550D01*
X88714D01*
X89110Y197477D01*
X90100Y196363D01*
Y195904D01*
X90633Y194617D01*
X91617Y193633D01*
X92904Y193100D01*
X94296D01*
X95583Y193633D01*
X96567Y194617D01*
X97100Y195904D01*
Y196351D01*
X98299Y197550D01*
X99046D01*
X100424Y198121D01*
X101479Y199176D01*
X102050Y200554D01*
Y201401D01*
X102777Y202074D01*
X103474Y202418D01*
X104324Y202166D01*
X104550Y201830D01*
Y200554D01*
X105121Y199176D01*
X106176Y198121D01*
X107554Y197550D01*
X109046D01*
X110424Y198121D01*
X111479Y199176D01*
X112050Y200554D01*
X113386Y201696D01*
X114317Y201577D01*
X114550Y201230D01*
Y200554D01*
X115121Y199176D01*
X116176Y198121D01*
X117554Y197550D01*
X119046D01*
X120424Y198121D01*
X121479Y199176D01*
X122050Y200554D01*
Y202046D01*
X121479Y203424D01*
X120424Y204479D01*
X119046Y205050D01*
X118199D01*
X117526Y205777D01*
X117182Y206474D01*
X117434Y207324D01*
X117770Y207550D01*
X119046D01*
X120424Y208121D01*
X121479Y209176D01*
X122050Y210554D01*
Y212046D01*
X121479Y213424D01*
X120424Y214479D01*
X119046Y215050D01*
X117886D01*
X117490Y215123D01*
X116500Y216237D01*
Y216696D01*
X115967Y217983D01*
X114983Y218967D01*
X113696Y219500D01*
X112304D01*
X111017Y218967D01*
X110033Y217983D01*
X109500Y216696D01*
Y216249D01*
X108301Y215050D01*
X107554D01*
X106176Y214479D01*
X105121Y213424D01*
X104550Y212046D01*
Y211370D01*
X104317Y211023D01*
X103386Y210903D01*
X102050Y212046D01*
X101479Y213424D01*
X100424Y214479D01*
X99046Y215050D01*
X97554D01*
X96176Y214479D01*
X95121Y213424D01*
X94550Y212046D01*
Y210554D01*
X95121Y209176D01*
X96176Y208121D01*
X97554Y207550D01*
X98697Y206214D01*
X98577Y205283D01*
X98230Y205050D01*
X97554D01*
X96176Y204479D01*
X95121Y203424D01*
X94550Y202046D01*
X93214Y200903D01*
X92283Y201023D01*
X92050Y201370D01*
Y202046D01*
X91479Y203424D01*
X90424Y204479D01*
X89046Y205050D01*
X87903Y206386D01*
X88023Y207317D01*
X88370Y207550D01*
X89046D01*
X90424Y208121D01*
X91479Y209176D01*
X92050Y210554D01*
Y212046D01*
X91479Y213424D01*
X90424Y214479D01*
X89046Y215050D01*
X88299D01*
X87100Y216249D01*
Y216696D01*
X86567Y217983D01*
X85583Y218967D01*
X84296Y219500D01*
X82904D01*
X81617Y218967D01*
X80633Y217983D01*
X80100Y216696D01*
Y216237D01*
X79696Y215782D01*
X77845Y215704D01*
X72500Y221049D01*
Y221696D01*
X71967Y222983D01*
X70983Y223967D01*
X69696Y224500D01*
X68304D01*
X67017Y223967D01*
X66033Y222983D01*
X65500Y221696D01*
Y220625D01*
X64491Y219630D01*
X64296Y219500D01*
X62904D01*
X61617Y218967D01*
X60633Y217983D01*
X60336Y217265D01*
X59570Y216434D01*
Y211300D01*
X58300D01*
Y210030D01*
X53642D01*
X54239Y208587D01*
X55587Y207239D01*
X57347Y206510D01*
X57458D01*
X57554Y205050D01*
X56176Y204479D01*
X55121Y203424D01*
X54550Y202046D01*
Y200554D01*
X55121Y199176D01*
X56176Y198121D01*
X57554Y197550D01*
X58697Y196214D01*
X58577Y195283D01*
X58230Y195050D01*
X57554D01*
X56176Y194479D01*
X55121Y193424D01*
X54550Y192046D01*
Y190554D01*
X54655Y190301D01*
X53653Y188801D01*
X15139D01*
X14124Y188599D01*
X13264Y188025D01*
X7812Y182573D01*
X6185Y183066D01*
X6124Y183375D01*
X17874Y195126D01*
X18449Y195986D01*
X18651Y197000D01*
X18651Y197000D01*
Y261902D01*
X34332Y277583D01*
X35043Y277482D01*
X35253Y277320D01*
X36095Y275870D01*
X35922Y275000D01*
Y217689D01*
X34116Y215884D01*
X33232Y214561D01*
X32922Y213000D01*
X33232Y211439D01*
X34116Y210116D01*
X35439Y209232D01*
X37000Y208922D01*
X38561Y209232D01*
X39884Y210116D01*
X42884Y213116D01*
X42884Y213116D01*
X43768Y214439D01*
X44078Y216000D01*
X44078Y216000D01*
Y250700D01*
X45551Y250986D01*
X46125Y250126D01*
X48349Y247902D01*
Y238000D01*
X48349Y238000D01*
X48551Y236985D01*
X49125Y236126D01*
X57126Y228125D01*
X57986Y227551D01*
X59000Y227349D01*
X77000D01*
X77000Y227349D01*
X78014Y227551D01*
X78875Y228125D01*
X87794Y237045D01*
X89559Y236972D01*
X90100Y236363D01*
Y235904D01*
X90633Y234617D01*
X91617Y233633D01*
X92904Y233100D01*
X94296D01*
X95583Y233633D01*
X96567Y234617D01*
X97100Y235904D01*
Y236351D01*
X98299Y237550D01*
X99046D01*
X100424Y238121D01*
X101479Y239176D01*
X102050Y240554D01*
Y242046D01*
X101479Y243424D01*
X100424Y244479D01*
X99046Y245050D01*
X98141D01*
X97857Y245155D01*
X97268Y246124D01*
X97185Y246436D01*
X98299Y247550D01*
X99046D01*
X100424Y248121D01*
X101479Y249176D01*
X102050Y250554D01*
Y252046D01*
X101479Y253424D01*
X100424Y254479D01*
X99046Y255050D01*
X97886D01*
X97490Y255123D01*
X96500Y256237D01*
Y256696D01*
X95967Y257983D01*
X94983Y258967D01*
X93696Y259500D01*
X92304D01*
X91017Y258967D01*
X90033Y257983D01*
X89500Y256696D01*
Y256249D01*
X88301Y255050D01*
X87554D01*
X86176Y254479D01*
X85121Y253424D01*
X84550Y252046D01*
Y250554D01*
X83379Y249617D01*
X83221D01*
X83048Y249755D01*
X82050Y250971D01*
Y252046D01*
X81479Y253424D01*
X80424Y254479D01*
X79046Y255050D01*
X78299D01*
X76791Y256558D01*
X77100Y257304D01*
Y258696D01*
X76567Y259983D01*
X75583Y260967D01*
X74296Y261500D01*
X72904D01*
X72881Y261491D01*
X72050Y262046D01*
X71479Y263424D01*
X70424Y264479D01*
X69046Y265050D01*
X67554D01*
X67487Y265055D01*
X66328Y265784D01*
X66118Y266521D01*
X67363Y267629D01*
X67554Y267550D01*
X69046D01*
X70424Y268121D01*
X71479Y269176D01*
X72050Y270554D01*
Y272046D01*
X71479Y273424D01*
X70424Y274479D01*
X69046Y275050D01*
X67554D01*
X66176Y274479D01*
X65121Y273424D01*
X64550Y272046D01*
Y270554D01*
X64637Y270343D01*
X63537Y269081D01*
X62789Y269276D01*
X62064Y270410D01*
X62050Y270554D01*
Y272046D01*
X61479Y273424D01*
X60424Y274479D01*
X59046Y275050D01*
X57554D01*
X56176Y274479D01*
X55121Y273424D01*
X54630Y272240D01*
X53816Y271876D01*
X53050Y271699D01*
X49651Y275098D01*
Y279000D01*
X49651Y279000D01*
X49449Y280014D01*
X48875Y280875D01*
X48874Y280875D01*
X46874Y282875D01*
X46014Y283449D01*
X45000Y283651D01*
X45000Y283651D01*
X34000D01*
X34000Y283651D01*
X32985Y283449D01*
X32125Y282875D01*
X14125Y264874D01*
X13551Y264014D01*
X13349Y263000D01*
X13349Y263000D01*
Y198098D01*
X1500Y186249D01*
X0Y186870D01*
Y464000D01*
X240000D01*
Y443000D01*
D02*
G37*
G36*
X65121Y239176D02*
X66176Y238121D01*
X67554Y237550D01*
X68714D01*
X69110Y237477D01*
X70100Y236363D01*
Y235904D01*
X70633Y234617D01*
X71099Y234151D01*
X70478Y232651D01*
X60098D01*
X57739Y235010D01*
X58360Y236510D01*
X59253D01*
X61013Y237239D01*
X62361Y238587D01*
X63090Y240347D01*
Y240458D01*
X64550Y240554D01*
X65121Y239176D01*
D02*
G37*
G36*
X155121Y189176D02*
X156176Y188121D01*
X157554Y187550D01*
X158427D01*
X159164Y186283D01*
X158244Y185050D01*
X157554D01*
X156176Y184479D01*
X155121Y183424D01*
X154550Y182046D01*
Y181299D01*
X153436Y180185D01*
X153124Y180268D01*
X152050Y180920D01*
Y182046D01*
X151479Y183424D01*
X150424Y184479D01*
X149046Y185050D01*
X149143Y186510D01*
X149253D01*
X151013Y187239D01*
X152361Y188587D01*
X153090Y190347D01*
Y190458D01*
X154550Y190554D01*
X155121Y189176D01*
D02*
G37*
G36*
X83298Y182570D02*
X88300D01*
Y180030D01*
X83622D01*
X82801Y178801D01*
X72947D01*
X71945Y180301D01*
X72050Y180554D01*
Y182046D01*
X73072Y183499D01*
X82677D01*
X83298Y182570D01*
D02*
G37*
G36*
X54550Y182046D02*
Y180554D01*
X54655Y180301D01*
X53653Y178801D01*
X30917D01*
X30917Y178801D01*
X29903Y178599D01*
X29043Y178025D01*
X19826Y168807D01*
X19251Y167947D01*
X19049Y166933D01*
X19049Y166933D01*
Y163798D01*
X14791Y159540D01*
X12734Y159560D01*
X12693Y159603D01*
X12977Y161031D01*
X12983Y161033D01*
X13967Y162017D01*
X14500Y163304D01*
Y164696D01*
X13967Y165983D01*
X13950Y166000D01*
X13967Y166017D01*
X14500Y167304D01*
Y168696D01*
X13967Y169983D01*
X12983Y170967D01*
X11696Y171500D01*
X10304D01*
X10298Y171498D01*
X9051Y172331D01*
Y176313D01*
X16237Y183499D01*
X53528D01*
X54550Y182046D01*
D02*
G37*
G36*
X138502Y174702D02*
X138500Y174696D01*
Y173304D01*
X139033Y172017D01*
X140017Y171033D01*
X141304Y170500D01*
X141181Y169051D01*
X133903D01*
X133249Y170030D01*
X128300D01*
Y172570D01*
X132959D01*
X132361Y174013D01*
X131991Y174383D01*
X133557Y175949D01*
X137669D01*
X138502Y174702D01*
D02*
G37*
G36*
X83298Y172570D02*
X88300D01*
Y170030D01*
X83351D01*
X82697Y169051D01*
X73051D01*
X72049Y170551D01*
X72050Y170554D01*
Y172046D01*
X73072Y173499D01*
X82677D01*
X83298Y172570D01*
D02*
G37*
G36*
X143568Y162570D02*
X148300D01*
Y160030D01*
X143642D01*
X144239Y158587D01*
X145587Y157239D01*
X145894Y157112D01*
Y155488D01*
X145587Y155361D01*
X144239Y154013D01*
X143641Y152570D01*
X148300D01*
Y150030D01*
X143641D01*
X144239Y148587D01*
X145587Y147239D01*
X145894Y147112D01*
Y145488D01*
X145587Y145361D01*
X144239Y144013D01*
X144112Y143706D01*
X142488D01*
X142361Y144013D01*
X141013Y145361D01*
X139570Y145959D01*
Y141300D01*
X137030D01*
Y145959D01*
X135587Y145361D01*
X134239Y144013D01*
X133510Y142253D01*
Y142142D01*
X132050Y142046D01*
X131479Y143424D01*
X130424Y144479D01*
X129046Y145050D01*
X128299D01*
X127100Y146249D01*
Y146696D01*
X126567Y147983D01*
X125583Y148967D01*
X124296Y149500D01*
X122904D01*
X121617Y148967D01*
X120633Y147983D01*
X120336Y147265D01*
X119570Y146434D01*
Y141300D01*
X117030D01*
Y145958D01*
X115587Y145361D01*
X114239Y144013D01*
X113510Y142253D01*
Y142142D01*
X112050Y142046D01*
X111479Y143424D01*
X110424Y144479D01*
X109046Y145050D01*
X108299D01*
X100475Y152874D01*
X99614Y153449D01*
X98600Y153651D01*
X98600Y153651D01*
X87603D01*
X85675Y155579D01*
X86525Y156851D01*
X87030Y156641D01*
Y160030D01*
X83642D01*
X83850Y159525D01*
X82579Y158675D01*
X81280Y159974D01*
X80420Y160549D01*
X79405Y160751D01*
X79405Y160751D01*
X72050D01*
Y162046D01*
X71966Y162249D01*
X72968Y163749D01*
X82780D01*
X83568Y162570D01*
X88300D01*
Y161300D01*
X89570D01*
Y156641D01*
X91013Y157239D01*
X92361Y158587D01*
X92488Y158894D01*
X94112D01*
X94239Y158587D01*
X95587Y157239D01*
X97030Y156641D01*
Y161300D01*
X99570D01*
Y156641D01*
X101013Y157239D01*
X102361Y158587D01*
X102488Y158894D01*
X104112D01*
X104239Y158587D01*
X105587Y157239D01*
X107030Y156641D01*
Y161300D01*
X109570D01*
Y156641D01*
X111013Y157239D01*
X112361Y158587D01*
X112488Y158894D01*
X114112D01*
X114239Y158587D01*
X115587Y157239D01*
X117030Y156641D01*
Y161300D01*
X119570D01*
Y156641D01*
X121013Y157239D01*
X122361Y158587D01*
X122488Y158894D01*
X124112D01*
X124239Y158587D01*
X125587Y157239D01*
X127030Y156641D01*
Y161300D01*
X128300D01*
Y162570D01*
X133032D01*
X133820Y163749D01*
X142780D01*
X143568Y162570D01*
D02*
G37*
G36*
X125121Y139176D02*
X126176Y138121D01*
X127554Y137550D01*
X127458Y136090D01*
X127347D01*
X125587Y135361D01*
X124239Y134013D01*
X124112Y133706D01*
X122488D01*
X122361Y134013D01*
X121013Y135361D01*
X120706Y135488D01*
Y137112D01*
X121013Y137239D01*
X122361Y138587D01*
X123090Y140347D01*
Y140458D01*
X124550Y140554D01*
X125121Y139176D01*
D02*
G37*
G36*
X54573Y152102D02*
X54550Y152046D01*
Y150554D01*
X55121Y149176D01*
X56176Y148121D01*
X57554Y147550D01*
X59046D01*
X59653Y147124D01*
X59729Y146391D01*
X59597Y146132D01*
X58382Y145050D01*
X57554D01*
X56176Y144479D01*
X55121Y143424D01*
X54550Y142046D01*
Y140554D01*
X55121Y139176D01*
X56176Y138121D01*
X57554Y137550D01*
X57457Y136090D01*
X57347D01*
X55587Y135361D01*
X54239Y134013D01*
X53689Y132686D01*
X52124Y132130D01*
X33780Y150475D01*
X33725Y150511D01*
X33472Y150764D01*
X33022Y151849D01*
X33261Y152515D01*
X33722Y153349D01*
X53740D01*
X54573Y152102D01*
D02*
G37*
G36*
X133510Y140457D02*
Y140347D01*
X134239Y138587D01*
X135587Y137239D01*
X137347Y136510D01*
X137458D01*
X137554Y135050D01*
X136176Y134479D01*
X135121Y133424D01*
X134550Y132046D01*
X133090Y132142D01*
Y132253D01*
X132361Y134013D01*
X131013Y135361D01*
X129253Y136090D01*
X129143D01*
X129046Y137550D01*
X130424Y138121D01*
X131479Y139176D01*
X132050Y140554D01*
X133510Y140457D01*
D02*
G37*
G36*
X164116Y138116D02*
X165439Y137232D01*
X167000Y136922D01*
X180993D01*
Y111618D01*
X180453Y111078D01*
X159000D01*
X157439Y110768D01*
X156116Y109884D01*
X155232Y108561D01*
X154922Y107000D01*
X155232Y105439D01*
X156049Y104217D01*
Y102798D01*
X153436Y100185D01*
X153124Y100268D01*
X152050Y100920D01*
Y102046D01*
X151479Y103424D01*
X150424Y104479D01*
X149046Y105050D01*
X148299D01*
X147100Y106249D01*
Y106696D01*
X146567Y107983D01*
X145583Y108967D01*
X144296Y109500D01*
X142904D01*
X141617Y108967D01*
X140633Y107983D01*
X140100Y106696D01*
Y106237D01*
X139355Y105398D01*
X138209Y105352D01*
X137500Y105696D01*
X136967Y106983D01*
X135983Y107967D01*
X134696Y108500D01*
X133304D01*
X132017Y107967D01*
X131033Y106983D01*
X130633Y106016D01*
X129879Y105420D01*
X129046Y105050D01*
X127554D01*
X126176Y104479D01*
X125121Y103424D01*
X124550Y102046D01*
Y100554D01*
X125121Y99176D01*
X126176Y98121D01*
X127554Y97550D01*
X129046D01*
X129983Y96379D01*
Y96221D01*
X129845Y96048D01*
X128629Y95050D01*
X127554D01*
X126176Y94479D01*
X125121Y93424D01*
X124550Y92046D01*
Y90554D01*
X125121Y89176D01*
X126176Y88121D01*
X127554Y87550D01*
X129046D01*
X129436Y87712D01*
X130904Y87547D01*
X131355Y87006D01*
X131575Y86676D01*
X133675Y84576D01*
X133675Y84576D01*
X134536Y84001D01*
X135550Y83799D01*
X142801D01*
X143622Y82570D01*
X148300D01*
Y80030D01*
X143228D01*
X142403Y79101D01*
X73072D01*
X72050Y80554D01*
Y81830D01*
X72410Y82366D01*
X73237Y83100D01*
X74296D01*
X75583Y83633D01*
X76567Y84617D01*
X77100Y85904D01*
Y86351D01*
X78299Y87550D01*
X79046D01*
X80424Y88121D01*
X81479Y89176D01*
X82050Y90554D01*
Y91230D01*
X82283Y91577D01*
X83214Y91697D01*
X84550Y90554D01*
X85121Y89176D01*
X86176Y88121D01*
X87554Y87550D01*
X88714D01*
X89110Y87477D01*
X90100Y86363D01*
Y85904D01*
X90633Y84617D01*
X91617Y83633D01*
X92904Y83100D01*
X94296D01*
X95583Y83633D01*
X96567Y84617D01*
X97100Y85904D01*
Y86351D01*
X98299Y87550D01*
X99046D01*
X100424Y88121D01*
X101479Y89176D01*
X102050Y90554D01*
Y91401D01*
X102777Y92074D01*
X103474Y92418D01*
X104324Y92166D01*
X104550Y91830D01*
Y90554D01*
X105121Y89176D01*
X106176Y88121D01*
X107554Y87550D01*
X109046D01*
X110424Y88121D01*
X111479Y89176D01*
X112050Y90554D01*
X113386Y91697D01*
X114317Y91577D01*
X114550Y91230D01*
Y90554D01*
X115121Y89176D01*
X116176Y88121D01*
X117554Y87550D01*
X119046D01*
X120424Y88121D01*
X121479Y89176D01*
X122050Y90554D01*
Y92046D01*
X121479Y93424D01*
X120424Y94479D01*
X119046Y95050D01*
X118199D01*
X117526Y95777D01*
X117182Y96474D01*
X117434Y97324D01*
X117770Y97550D01*
X119046D01*
X120424Y98121D01*
X121479Y99176D01*
X122050Y100554D01*
Y102046D01*
X121479Y103424D01*
X120424Y104479D01*
X119046Y105050D01*
X117886D01*
X117490Y105122D01*
X116500Y106237D01*
Y106696D01*
X115967Y107983D01*
X114983Y108967D01*
X113696Y109500D01*
X112304D01*
X111017Y108967D01*
X110033Y107983D01*
X109500Y106696D01*
Y106249D01*
X108301Y105050D01*
X107554D01*
X106176Y104479D01*
X105121Y103424D01*
X104550Y102046D01*
Y101370D01*
X104317Y101023D01*
X103386Y100903D01*
X102050Y102046D01*
X101479Y103424D01*
X100424Y104479D01*
X99046Y105050D01*
X97554D01*
X96176Y104479D01*
X95121Y103424D01*
X94550Y102046D01*
Y100554D01*
X95121Y99176D01*
X96176Y98121D01*
X97554Y97550D01*
X98697Y96214D01*
X98577Y95283D01*
X98230Y95050D01*
X97554D01*
X96176Y94479D01*
X95121Y93424D01*
X94550Y92046D01*
X93214Y90903D01*
X92283Y91023D01*
X92050Y91370D01*
Y92046D01*
X91479Y93424D01*
X90424Y94479D01*
X89046Y95050D01*
X87903Y96386D01*
X88023Y97317D01*
X88370Y97550D01*
X89046D01*
X90424Y98121D01*
X91479Y99176D01*
X92050Y100554D01*
Y102046D01*
X91479Y103424D01*
X90424Y104479D01*
X89046Y105050D01*
X88299D01*
X87100Y106249D01*
Y106696D01*
X86567Y107983D01*
X85583Y108967D01*
X84296Y109500D01*
X82904D01*
X81617Y108967D01*
X80633Y107983D01*
X80100Y106696D01*
Y106237D01*
X79836Y105940D01*
X78472Y105871D01*
X77253Y107045D01*
Y111107D01*
X77253Y111107D01*
X77051Y112121D01*
X76477Y112981D01*
X72095Y117363D01*
X72669Y118749D01*
X73905D01*
X73905Y118749D01*
X74920Y118951D01*
X75516Y119349D01*
X99000D01*
X99000Y119349D01*
X100014Y119551D01*
X100875Y120126D01*
X108299Y127550D01*
X109046D01*
X110424Y128121D01*
X111479Y129176D01*
X112050Y130554D01*
X113510Y130458D01*
Y130347D01*
X114239Y128587D01*
X115587Y127239D01*
X117030Y126641D01*
Y131300D01*
X119570D01*
Y126641D01*
X121013Y127239D01*
X122361Y128587D01*
X122488Y128894D01*
X124112D01*
X124239Y128587D01*
X125587Y127239D01*
X127030Y126641D01*
Y131300D01*
X129570D01*
Y126641D01*
X131013Y127239D01*
X132361Y128587D01*
X133090Y130347D01*
Y130457D01*
X134550Y130554D01*
X135121Y129176D01*
X136176Y128121D01*
X137554Y127550D01*
X139046D01*
X140424Y128121D01*
X140952Y128649D01*
X145648D01*
X146176Y128121D01*
X147554Y127550D01*
X148301D01*
X149500Y126351D01*
Y125904D01*
X150033Y124617D01*
X151017Y123633D01*
X152304Y123100D01*
X153696D01*
X154983Y123633D01*
X155967Y124617D01*
X156264Y125335D01*
X157030Y126166D01*
Y131300D01*
X158300D01*
Y132570D01*
X162959D01*
X162361Y134013D01*
X161013Y135361D01*
X159253Y136090D01*
X159143D01*
X159046Y137550D01*
X160424Y138121D01*
X160802Y138499D01*
X163860D01*
X164116Y138116D01*
D02*
G37*
G36*
X14500Y128751D02*
Y128304D01*
X15033Y127017D01*
X14017Y125967D01*
X13033Y124983D01*
X12500Y123696D01*
Y122304D01*
X13033Y121017D01*
X13800Y120250D01*
X13033Y119483D01*
X12500Y118196D01*
Y116804D01*
X13033Y115517D01*
X13349Y115201D01*
Y109098D01*
X12000Y107749D01*
X8651Y111098D01*
Y132632D01*
X10042Y133097D01*
X10151Y133100D01*
X14500Y128751D01*
D02*
G37*
G36*
X42738Y116515D02*
X42977Y115849D01*
X42500Y114696D01*
Y113304D01*
X43033Y112017D01*
X44017Y111033D01*
X45304Y110500D01*
X46696D01*
X47983Y111033D01*
X48299Y111349D01*
X56391D01*
X58606Y109135D01*
X58606Y109135D01*
X59466Y108560D01*
X60480Y108358D01*
X60480Y108358D01*
X65500D01*
Y108304D01*
X66033Y107017D01*
X66349Y106701D01*
Y104551D01*
X66176Y104479D01*
X65121Y103424D01*
X64550Y102046D01*
X63090Y102142D01*
Y102253D01*
X62361Y104013D01*
X61013Y105361D01*
X59570Y105959D01*
Y101300D01*
X58300D01*
Y100030D01*
X53566D01*
X52779Y98853D01*
X48896D01*
X37651Y110098D01*
Y117349D01*
X42278D01*
X42738Y116515D01*
D02*
G37*
G36*
X59520Y87217D02*
Y86354D01*
X58158Y85050D01*
X57554D01*
X56176Y84479D01*
X55121Y83424D01*
X54550Y82046D01*
Y80554D01*
X55121Y79176D01*
X56176Y78121D01*
X57554Y77550D01*
X59046D01*
X59166Y77600D01*
X60701Y77574D01*
X61276Y76714D01*
X63414Y74576D01*
X63414Y74576D01*
X63950Y74218D01*
X64276Y73997D01*
X64556Y73246D01*
X64692Y72388D01*
X64550Y72046D01*
Y70554D01*
X65121Y69176D01*
X66176Y68121D01*
X67554Y67550D01*
X69046D01*
X70424Y68121D01*
X71479Y69176D01*
X72050Y70554D01*
Y72046D01*
X71945Y72299D01*
X72947Y73799D01*
X82801D01*
X83622Y72570D01*
X88300D01*
Y70030D01*
X83351D01*
X82697Y69051D01*
X80000D01*
X78986Y68849D01*
X78126Y68274D01*
X78125Y68274D01*
X76125Y66274D01*
X75551Y65415D01*
X75349Y64400D01*
X75349Y64400D01*
Y59101D01*
X73072D01*
X72050Y60554D01*
Y62046D01*
X71479Y63424D01*
X70424Y64479D01*
X69046Y65050D01*
X67554D01*
X66176Y64479D01*
X65121Y63424D01*
X64550Y62046D01*
Y60554D01*
X64217Y60080D01*
X63354D01*
X62050Y61442D01*
Y62046D01*
X61479Y63424D01*
X60424Y64479D01*
X59046Y65050D01*
X57554D01*
X56176Y64479D01*
X55121Y63424D01*
X54550Y62046D01*
Y61320D01*
X53050Y60699D01*
X51651Y62098D01*
Y84561D01*
X53151Y85563D01*
X53304Y85500D01*
X54696D01*
X55983Y86033D01*
X56967Y87017D01*
X56986Y87062D01*
X57597Y87470D01*
X57677Y87550D01*
X59046D01*
X59520Y87217D01*
D02*
G37*
G36*
X144550Y71301D02*
Y70554D01*
X144551Y70551D01*
X143549Y69051D01*
X133903D01*
X133249Y70030D01*
X128300D01*
Y72570D01*
X132978D01*
X133799Y73799D01*
X142052D01*
X144550Y71301D01*
D02*
G37*
G36*
X42706Y71749D02*
Y56000D01*
X42881Y55122D01*
X43378Y54378D01*
X53378Y44378D01*
X54122Y43881D01*
X54634Y42249D01*
X54550Y42046D01*
Y40554D01*
X55121Y39176D01*
X56176Y38121D01*
X57554Y37550D01*
X59046D01*
X60424Y38121D01*
X61479Y39176D01*
X62050Y40554D01*
Y42046D01*
X63300Y42812D01*
X63483Y42700D01*
X64550Y41470D01*
Y40554D01*
X65121Y39176D01*
X66176Y38121D01*
X67554Y37550D01*
X68830D01*
X69166Y37324D01*
X69418Y36474D01*
X69074Y35777D01*
X68401Y35050D01*
X67554D01*
X66176Y34479D01*
X65121Y33424D01*
X64550Y32046D01*
Y30593D01*
X64439Y30487D01*
X63251Y29770D01*
X62050Y30971D01*
Y32046D01*
X61479Y33424D01*
X60424Y34479D01*
X59046Y35050D01*
X57554D01*
X56176Y34479D01*
X55121Y33424D01*
X54550Y32046D01*
Y30554D01*
X55121Y29176D01*
X56176Y28121D01*
X56984Y27786D01*
X57379Y26164D01*
X57347Y26090D01*
X55587Y25361D01*
X54239Y24013D01*
X53641Y22570D01*
X58300D01*
Y21300D01*
X59570D01*
Y16641D01*
X61013Y17239D01*
X62361Y18587D01*
X63090Y20347D01*
X63164Y20379D01*
X64786Y19983D01*
X65121Y19176D01*
X66176Y18121D01*
X67554Y17550D01*
X68680D01*
X69332Y16476D01*
X69415Y16164D01*
X65902Y12651D01*
X55098D01*
X9651Y58098D01*
Y65572D01*
X11151Y66027D01*
X12184Y64482D01*
X14482Y62184D01*
X17184Y60378D01*
X20187Y59134D01*
X23375Y58500D01*
X26625D01*
X29813Y59134D01*
X32816Y60378D01*
X35518Y62184D01*
X37816Y64482D01*
X39622Y67184D01*
X40866Y70187D01*
X41206Y71897D01*
X42706Y71749D01*
D02*
G37*
G36*
X138729Y62249D02*
X138500Y61696D01*
Y60304D01*
X138649Y59944D01*
X137647Y58444D01*
X133925D01*
X132923Y59944D01*
X132959Y60030D01*
X128300D01*
Y62570D01*
X133032D01*
X133820Y63749D01*
X137839D01*
X138729Y62249D01*
D02*
G37*
G36*
X83568Y62570D02*
X88300D01*
Y60030D01*
X83641D01*
X83702Y59884D01*
X83272Y58269D01*
X82528Y57772D01*
X82102Y57347D01*
X81317Y57559D01*
X80651Y58017D01*
Y63302D01*
X81098Y63749D01*
X82780D01*
X83568Y62570D01*
D02*
G37*
G36*
X143658Y52609D02*
X143642Y52570D01*
X148300D01*
Y50030D01*
X143641D01*
X144239Y48587D01*
X145587Y47239D01*
X145894Y47112D01*
Y45488D01*
X145587Y45361D01*
X144239Y44013D01*
X143641Y42570D01*
X148300D01*
Y40030D01*
X143641D01*
X144239Y38587D01*
X145587Y37239D01*
X145894Y37112D01*
Y35488D01*
X145587Y35361D01*
X144239Y34013D01*
X144112Y33706D01*
X142488D01*
X142361Y34013D01*
X141013Y35361D01*
X139570Y35959D01*
Y31300D01*
X137030D01*
Y35959D01*
X135587Y35361D01*
X134239Y34013D01*
X133510Y32253D01*
Y32143D01*
X132050Y32046D01*
X131479Y33424D01*
X130424Y34479D01*
X129046Y35050D01*
X127554D01*
X126176Y34479D01*
X125121Y33424D01*
X124550Y32046D01*
X123090Y32142D01*
Y32253D01*
X122361Y34013D01*
X121374Y35000D01*
X121884Y36500D01*
X122696D01*
X123983Y37033D01*
X124967Y38017D01*
X125500Y39304D01*
Y40696D01*
X124967Y41983D01*
X123983Y42967D01*
X122696Y43500D01*
X121304D01*
X120017Y42967D01*
X119701Y42651D01*
X107000D01*
X105985Y42449D01*
X105126Y41874D01*
X105126Y41874D01*
X98301Y35050D01*
X97554D01*
X96176Y34479D01*
X95121Y33424D01*
X94550Y32046D01*
Y30554D01*
X95121Y29176D01*
X96176Y28121D01*
X97554Y27550D01*
X98401D01*
X99074Y26823D01*
X99418Y26126D01*
X99166Y25276D01*
X98830Y25050D01*
X97554D01*
X96176Y24479D01*
X95121Y23424D01*
X94550Y22046D01*
X93214Y20903D01*
X92283Y21023D01*
X92050Y21370D01*
Y22046D01*
X91479Y23424D01*
X90424Y24479D01*
X89046Y25050D01*
X88173D01*
X87436Y26317D01*
X88356Y27550D01*
X89046D01*
X90424Y28121D01*
X91479Y29176D01*
X92050Y30554D01*
Y32046D01*
X91479Y33424D01*
X90424Y34479D01*
X89046Y35050D01*
X88299D01*
X87100Y36249D01*
Y36696D01*
X86567Y37983D01*
X85583Y38967D01*
X84296Y39500D01*
X82904D01*
X81617Y38967D01*
X80633Y37983D01*
X80100Y36696D01*
X78870Y35897D01*
X77452D01*
X77100Y36249D01*
Y36696D01*
X76567Y37983D01*
X75583Y38967D01*
X74296Y39500D01*
X73237D01*
X72410Y40234D01*
X72050Y40770D01*
Y42046D01*
X71984Y42206D01*
X72986Y43706D01*
X74000D01*
X74878Y43881D01*
X75622Y44378D01*
X82010Y50766D01*
X82898Y50518D01*
X83569Y50204D01*
X84239Y48587D01*
X85587Y47239D01*
X87030Y46641D01*
Y51300D01*
X89570D01*
Y46641D01*
X91013Y47239D01*
X92361Y48587D01*
X92488Y48894D01*
X94112D01*
X94239Y48587D01*
X95587Y47239D01*
X97030Y46641D01*
Y51300D01*
X99570D01*
Y46641D01*
X101013Y47239D01*
X102361Y48587D01*
X102488Y48894D01*
X104112D01*
X104239Y48587D01*
X105587Y47239D01*
X107030Y46641D01*
Y51300D01*
X109570D01*
Y46641D01*
X111013Y47239D01*
X112361Y48587D01*
X112488Y48894D01*
X114112D01*
X114239Y48587D01*
X115587Y47239D01*
X117030Y46641D01*
Y51300D01*
X119570D01*
Y46641D01*
X121013Y47239D01*
X122361Y48587D01*
X122488Y48894D01*
X124112D01*
X124239Y48587D01*
X125587Y47239D01*
X127030Y46641D01*
Y51300D01*
X128300D01*
Y52570D01*
X132959D01*
X132943Y52609D01*
X133776Y53856D01*
X142824D01*
X143658Y52609D01*
D02*
G37*
G36*
X113510Y30458D02*
Y30347D01*
X114239Y28587D01*
X115587Y27239D01*
X115894Y27112D01*
Y25488D01*
X115587Y25361D01*
X114239Y24013D01*
X113510Y22253D01*
Y22142D01*
X112050Y22046D01*
X111479Y23424D01*
X110424Y24479D01*
X109046Y25050D01*
X108370D01*
X108023Y25283D01*
X107903Y26214D01*
X109046Y27550D01*
X110424Y28121D01*
X111479Y29176D01*
X112050Y30554D01*
X113510Y30458D01*
D02*
G37*
%LPC*%
G36*
X159570Y425959D02*
Y422570D01*
X162959D01*
X162361Y424013D01*
X161013Y425361D01*
X159570Y425959D01*
D02*
G37*
G36*
X217118Y460500D02*
X212882D01*
X208729Y459674D01*
X204816Y458053D01*
X201295Y455700D01*
X198300Y452705D01*
X195947Y449184D01*
X194326Y445271D01*
X193500Y441118D01*
Y436882D01*
X194326Y432729D01*
X195947Y428816D01*
X198300Y425295D01*
X201295Y422300D01*
X204588Y420099D01*
X204865Y419620D01*
X205075Y418216D01*
X204783Y417813D01*
X187786D01*
X187308Y418292D01*
X186021Y418825D01*
X184629D01*
X183342Y418292D01*
X182358Y417308D01*
X181825Y416021D01*
Y414629D01*
X182358Y413343D01*
X183342Y412358D01*
X184629Y411825D01*
X185541D01*
X186019Y410874D01*
X186106Y410360D01*
X184547Y408801D01*
X174192D01*
X173438Y408951D01*
X173438Y408951D01*
X166562D01*
X166562Y408951D01*
X165808Y408801D01*
X162947D01*
X161945Y410301D01*
X162050Y410554D01*
Y412046D01*
X161479Y413424D01*
X160424Y414479D01*
X159046Y415050D01*
X159139Y416464D01*
X159160Y416510D01*
X159253D01*
X161013Y417239D01*
X162361Y418587D01*
X162959Y420030D01*
X158300D01*
Y421300D01*
X157030D01*
Y425959D01*
X155587Y425361D01*
X154239Y424013D01*
X153510Y422253D01*
Y422142D01*
X152050Y422046D01*
X151479Y423424D01*
X150424Y424479D01*
X149046Y425050D01*
X147920D01*
X147268Y426124D01*
X147185Y426436D01*
X148299Y427550D01*
X149046D01*
X150424Y428121D01*
X151479Y429176D01*
X152050Y430554D01*
Y432046D01*
X151479Y433424D01*
X150424Y434479D01*
X149046Y435050D01*
X148299D01*
X147100Y436249D01*
Y436696D01*
X146567Y437983D01*
X145583Y438967D01*
X144296Y439500D01*
X142904D01*
X141617Y438967D01*
X140633Y437983D01*
X140100Y436696D01*
Y436237D01*
X139355Y435398D01*
X138209Y435352D01*
X137500Y435696D01*
X136967Y436983D01*
X135983Y437967D01*
X134696Y438500D01*
X133304D01*
X132017Y437967D01*
X131033Y436983D01*
X130633Y436016D01*
X129879Y435420D01*
X129046Y435050D01*
X127554D01*
X126176Y434479D01*
X125121Y433424D01*
X124550Y432046D01*
Y430554D01*
X125121Y429176D01*
X126176Y428121D01*
X127554Y427550D01*
X129046D01*
X130424Y428121D01*
X131479Y429176D01*
X132050Y430554D01*
Y430669D01*
X133243Y431466D01*
X134550Y430883D01*
Y430554D01*
X135121Y429176D01*
X136176Y428121D01*
X137554Y427550D01*
X138680D01*
X139332Y426476D01*
X139415Y426164D01*
X138301Y425050D01*
X137554D01*
X136176Y424479D01*
X135121Y423424D01*
X134550Y422046D01*
Y420554D01*
X135121Y419176D01*
X136176Y418121D01*
X137554Y417550D01*
X138714D01*
X139110Y417477D01*
X140100Y416363D01*
Y415904D01*
X140633Y414617D01*
X141617Y413633D01*
X142335Y413336D01*
X143166Y412570D01*
X148300D01*
Y410030D01*
X143642D01*
X144239Y408587D01*
X145587Y407239D01*
X147347Y406510D01*
X147458D01*
X147554Y405050D01*
X146176Y404479D01*
X145121Y403424D01*
X144550Y402046D01*
Y400554D01*
X145121Y399176D01*
X146176Y398121D01*
X147554Y397550D01*
X149046D01*
X150424Y398121D01*
X151479Y399176D01*
X152050Y400554D01*
Y401301D01*
X153164Y402415D01*
X153476Y402332D01*
X154550Y401680D01*
Y400554D01*
X155121Y399176D01*
X156176Y398121D01*
X157554Y397550D01*
X158680D01*
X159332Y396476D01*
X159415Y396164D01*
X158301Y395050D01*
X157554D01*
X156176Y394479D01*
X155121Y393424D01*
X154550Y392046D01*
Y390554D01*
X155121Y389176D01*
X156176Y388121D01*
X157554Y387550D01*
X158230D01*
X158577Y387317D01*
X158697Y386386D01*
X157554Y385050D01*
X156176Y384479D01*
X155121Y383424D01*
X154550Y382046D01*
X153090Y382142D01*
Y382253D01*
X152361Y384013D01*
X151013Y385361D01*
X149253Y386090D01*
X149142D01*
X149046Y387550D01*
X150424Y388121D01*
X151479Y389176D01*
X152050Y390554D01*
Y392046D01*
X151479Y393424D01*
X150424Y394479D01*
X149046Y395050D01*
X147554D01*
X146176Y394479D01*
X145648Y393951D01*
X139395D01*
X138967Y394983D01*
X137983Y395967D01*
X136696Y396500D01*
X135304D01*
X134017Y395967D01*
X133033Y394983D01*
X131993Y394975D01*
X131190Y395726D01*
X131146Y396100D01*
X131235Y397461D01*
X132361Y398587D01*
X132959Y400030D01*
X128300D01*
Y401300D01*
X127030D01*
Y405959D01*
X125587Y405361D01*
X124239Y404013D01*
X124112Y403706D01*
X122488D01*
X122361Y404013D01*
X121013Y405361D01*
X119570Y405959D01*
Y401300D01*
X117030D01*
Y405959D01*
X115587Y405361D01*
X114239Y404013D01*
X114112Y403706D01*
X112488D01*
X112361Y404013D01*
X111013Y405361D01*
X109570Y405959D01*
Y401300D01*
X107030D01*
Y405959D01*
X105587Y405361D01*
X104239Y404013D01*
X104112Y403706D01*
X102488D01*
X102361Y404013D01*
X101013Y405361D01*
X99570Y405959D01*
Y401300D01*
X97030D01*
Y405959D01*
X95587Y405361D01*
X94239Y404013D01*
X94112Y403706D01*
X92488D01*
X92361Y404013D01*
X91013Y405361D01*
X89570Y405959D01*
Y401300D01*
X88300D01*
Y400030D01*
X83641D01*
X84239Y398587D01*
X85587Y397239D01*
X85894Y397112D01*
Y395488D01*
X85587Y395361D01*
X84239Y394013D01*
X83641Y392570D01*
X88300D01*
Y390030D01*
X83641D01*
X84239Y388587D01*
X85587Y387239D01*
X85894Y387112D01*
Y385488D01*
X85587Y385361D01*
X84239Y384013D01*
X83641Y382570D01*
X88300D01*
Y381300D01*
X89570D01*
Y376641D01*
X91013Y377239D01*
X92361Y378587D01*
X92488Y378894D01*
X94112D01*
X94239Y378587D01*
X95587Y377239D01*
X97030Y376641D01*
Y381300D01*
X99570D01*
Y376641D01*
X101013Y377239D01*
X102361Y378587D01*
X102488Y378894D01*
X104112D01*
X104239Y378587D01*
X105587Y377239D01*
X107030Y376641D01*
Y381300D01*
X109570D01*
Y376641D01*
X111013Y377239D01*
X112228Y378454D01*
X113393Y378498D01*
X113874Y378456D01*
X114276Y377920D01*
X113857Y376363D01*
X113125Y375874D01*
X113125Y375874D01*
X106426Y369174D01*
X105851Y368315D01*
X105649Y367300D01*
X105649Y367300D01*
Y363952D01*
X105121Y363424D01*
X104550Y362046D01*
Y360554D01*
X105121Y359176D01*
X106176Y358121D01*
X107554Y357550D01*
X109046D01*
X110424Y358121D01*
X111479Y359176D01*
X112050Y360554D01*
X113510Y360458D01*
Y360347D01*
X114239Y358587D01*
X115587Y357239D01*
X115894Y357112D01*
Y355488D01*
X115587Y355361D01*
X114239Y354013D01*
X113510Y352253D01*
Y352142D01*
X112050Y352046D01*
X111479Y353424D01*
X110424Y354479D01*
X109046Y355050D01*
X107554D01*
X106176Y354479D01*
X105121Y353424D01*
X104550Y352046D01*
Y350554D01*
X105121Y349176D01*
X106176Y348121D01*
X107554Y347550D01*
X108301D01*
X117725Y338125D01*
X118586Y337551D01*
X119600Y337349D01*
X166000D01*
X166000Y337349D01*
X167015Y337551D01*
X167875Y338125D01*
X175874Y346125D01*
X175875Y346125D01*
X176449Y346986D01*
X176651Y348000D01*
X176651Y348000D01*
Y361407D01*
X182740Y367496D01*
X183015Y367551D01*
X183874Y368125D01*
X188221Y372472D01*
X189118Y372476D01*
X189939Y372244D01*
X190033Y372017D01*
X190349Y371701D01*
Y359439D01*
X188849Y358437D01*
X188696Y358500D01*
X187304D01*
X186614Y359527D01*
X186467Y359777D01*
X185967Y360983D01*
X184983Y361967D01*
X183696Y362500D01*
X182304D01*
X181017Y361967D01*
X180033Y360983D01*
X179500Y359696D01*
Y358304D01*
X180033Y357017D01*
X180349Y356701D01*
Y320239D01*
X163229Y303119D01*
X161479Y303424D01*
X160424Y304479D01*
X159046Y305050D01*
X159142Y306510D01*
X159253D01*
X161013Y307239D01*
X162361Y308587D01*
X162959Y310030D01*
X158300D01*
Y311300D01*
X157030D01*
Y315959D01*
X155587Y315361D01*
X154239Y314013D01*
X153510Y312253D01*
Y312142D01*
X152050Y312046D01*
X151479Y313424D01*
X150424Y314479D01*
X149046Y315050D01*
X147554D01*
X146176Y314479D01*
X145121Y313424D01*
X144550Y312046D01*
X143214Y310903D01*
X142283Y311023D01*
X142050Y311370D01*
Y312046D01*
X141479Y313424D01*
X140424Y314479D01*
X139046Y315050D01*
X137554D01*
X136176Y314479D01*
X135121Y313424D01*
X134550Y312046D01*
X133214Y310903D01*
X132283Y311023D01*
X132050Y311370D01*
Y312046D01*
X131479Y313424D01*
X130424Y314479D01*
X129046Y315050D01*
X127554D01*
X126176Y314479D01*
X125121Y313424D01*
X124550Y312046D01*
Y310554D01*
X125121Y309176D01*
X126176Y308121D01*
X127554Y307550D01*
X128714D01*
X129110Y307477D01*
X130100Y306363D01*
Y305904D01*
X130633Y304617D01*
X131617Y303633D01*
X132904Y303100D01*
X134296D01*
X135583Y303633D01*
X136567Y304617D01*
X137100Y305904D01*
X138322Y307023D01*
X139559Y306972D01*
X140100Y306363D01*
Y305904D01*
X140633Y304617D01*
X141617Y303633D01*
X142335Y303336D01*
X143166Y302570D01*
X148300D01*
Y300030D01*
X143641D01*
X144239Y298587D01*
X145587Y297239D01*
X147347Y296510D01*
X147458D01*
X147554Y295050D01*
X146176Y294479D01*
X145121Y293424D01*
X144550Y292046D01*
Y290554D01*
X144797Y289958D01*
X143837Y288500D01*
X143304D01*
X142017Y287967D01*
X141033Y286983D01*
X140500Y285696D01*
Y284304D01*
X141033Y283017D01*
X142017Y282033D01*
X143304Y281500D01*
X144051D01*
X144550Y281001D01*
Y280554D01*
X145121Y279176D01*
X146176Y278121D01*
X147554Y277550D01*
X147458Y276090D01*
X147347D01*
X145587Y275361D01*
X144239Y274013D01*
X143641Y272570D01*
X148300D01*
Y270030D01*
X143641D01*
X144239Y268587D01*
X145587Y267239D01*
X145894Y267112D01*
Y265488D01*
X145587Y265361D01*
X144239Y264013D01*
X143641Y262570D01*
X148300D01*
Y260030D01*
X143642D01*
X144239Y258587D01*
X145587Y257239D01*
X145894Y257112D01*
Y255488D01*
X145587Y255361D01*
X144239Y254013D01*
X144112Y253706D01*
X142488D01*
X142361Y254013D01*
X141013Y255361D01*
X139570Y255959D01*
Y251300D01*
X137030D01*
Y256434D01*
X136264Y257265D01*
X135967Y257983D01*
X134983Y258967D01*
X133696Y259500D01*
X132304D01*
X131017Y258967D01*
X130033Y257983D01*
X129500Y256696D01*
Y256249D01*
X128301Y255050D01*
X127554D01*
X126176Y254479D01*
X125121Y253424D01*
X124550Y252046D01*
X123090Y252142D01*
Y252253D01*
X122361Y254013D01*
X121013Y255361D01*
X119570Y255959D01*
Y251300D01*
X117030D01*
Y255958D01*
X115587Y255361D01*
X114239Y254013D01*
X113510Y252253D01*
Y252142D01*
X112050Y252046D01*
X111479Y253424D01*
X110424Y254479D01*
X109046Y255050D01*
X107554D01*
X106176Y254479D01*
X105121Y253424D01*
X104550Y252046D01*
Y250554D01*
X105121Y249176D01*
X106176Y248121D01*
X107554Y247550D01*
X108301D01*
X109415Y246436D01*
X109332Y246124D01*
X108680Y245050D01*
X107554D01*
X106176Y244479D01*
X105121Y243424D01*
X104550Y242046D01*
Y240554D01*
X105121Y239176D01*
X105649Y238648D01*
Y233700D01*
X105649Y233700D01*
X105851Y232686D01*
X106426Y231826D01*
X115126Y223126D01*
X115126Y223125D01*
X115985Y222551D01*
X117000Y222349D01*
X181000D01*
X181000Y222349D01*
X182015Y222551D01*
X182875Y223125D01*
X209874Y250125D01*
X209874Y250126D01*
X210449Y250986D01*
X210651Y252000D01*
Y346701D01*
X210967Y347017D01*
X211500Y348304D01*
Y349696D01*
X210967Y350983D01*
X209983Y351967D01*
X208696Y352500D01*
X207304D01*
X206017Y351967D01*
X205033Y350983D01*
X204500Y349696D01*
Y348304D01*
X205033Y347017D01*
X205349Y346701D01*
Y253098D01*
X179902Y227651D01*
X176521D01*
X175900Y229151D01*
X199874Y253125D01*
X199874Y253125D01*
X200449Y253986D01*
X200651Y255000D01*
X200651Y255000D01*
Y346701D01*
X200967Y347017D01*
X201500Y348304D01*
Y349696D01*
X200967Y350983D01*
X199983Y351967D01*
X198696Y352500D01*
X197304D01*
X197151Y352437D01*
X195651Y353439D01*
Y371701D01*
X195967Y372017D01*
X196500Y373304D01*
Y373518D01*
X198000Y374140D01*
X201014Y371125D01*
X201874Y370551D01*
X202889Y370349D01*
X240701D01*
X241017Y370033D01*
X242304Y369500D01*
X243696D01*
X244983Y370033D01*
X245967Y371017D01*
X246500Y372304D01*
Y373696D01*
X245967Y374983D01*
X244983Y375967D01*
X243696Y376500D01*
X242304D01*
X241017Y375967D01*
X240701Y375651D01*
X230521D01*
X229900Y377151D01*
X234249Y381500D01*
X234696D01*
X235983Y382033D01*
X236967Y383017D01*
X237500Y384304D01*
Y385630D01*
X237686Y385800D01*
X238819Y386432D01*
X240500Y384751D01*
Y384304D01*
X241033Y383017D01*
X242017Y382033D01*
X243304Y381500D01*
X244696D01*
X245983Y382033D01*
X246967Y383017D01*
X247500Y384304D01*
Y385696D01*
X246967Y386983D01*
X245983Y387967D01*
X244696Y388500D01*
X244249D01*
X239422Y393327D01*
X238562Y393902D01*
X237547Y394104D01*
X237547Y394104D01*
X232958D01*
X231944Y393902D01*
X231084Y393327D01*
X231084Y393327D01*
X228441Y390684D01*
X226970Y390977D01*
X226967Y390983D01*
X225983Y391967D01*
X224696Y392500D01*
X223304D01*
X222368Y392113D01*
X222240Y392138D01*
X222240Y392138D01*
X203814D01*
X200589Y395363D01*
X201163Y396749D01*
X212633D01*
X212633Y396749D01*
X213647Y396951D01*
X214507Y397525D01*
X215631Y398649D01*
X230813D01*
X230813Y398649D01*
X231827Y398851D01*
X232687Y399426D01*
X232762Y399500D01*
X233696D01*
X234983Y400033D01*
X235967Y401017D01*
X236500Y402304D01*
Y403696D01*
X235967Y404983D01*
X234983Y405967D01*
X233696Y406500D01*
X232304D01*
X231017Y405967D01*
X229992Y407043D01*
X230967Y408017D01*
X231500Y409304D01*
Y410696D01*
X230967Y411983D01*
X229983Y412967D01*
X228696Y413500D01*
X227304D01*
X226017Y412967D01*
X225701Y412651D01*
X222516D01*
X221920Y413049D01*
X220905Y413251D01*
X220905Y413251D01*
X217095D01*
X217095Y413251D01*
X216080Y413049D01*
X215484Y412651D01*
X212439D01*
X211437Y414151D01*
X211500Y414304D01*
Y415696D01*
X211252Y416295D01*
X212292Y417617D01*
X212882Y417500D01*
X217118D01*
X221271Y418326D01*
X225184Y419947D01*
X228705Y422300D01*
X231700Y425295D01*
X234053Y428816D01*
X235674Y432729D01*
X236500Y436882D01*
Y441118D01*
X235674Y445271D01*
X234053Y449184D01*
X231700Y452705D01*
X228705Y455700D01*
X225184Y458053D01*
X221271Y459674D01*
X217118Y460500D01*
D02*
G37*
G36*
X129046Y425050D02*
X127554D01*
X126176Y424479D01*
X125121Y423424D01*
X124550Y422046D01*
Y420554D01*
X125121Y419176D01*
X126176Y418121D01*
X127554Y417550D01*
X129046D01*
X130424Y418121D01*
X131479Y419176D01*
X132050Y420554D01*
Y422046D01*
X131479Y423424D01*
X130424Y424479D01*
X129046Y425050D01*
D02*
G37*
G36*
X54696Y447500D02*
X53304D01*
X52017Y446967D01*
X51033Y445983D01*
X50500Y444696D01*
Y443304D01*
X51033Y442017D01*
X52017Y441033D01*
X53304Y440500D01*
X54696D01*
X55159Y440692D01*
X58261Y437590D01*
X57640Y436090D01*
X57347D01*
X55587Y435361D01*
X54239Y434013D01*
X53641Y432570D01*
X58300D01*
Y430030D01*
X53166D01*
X52335Y429264D01*
X51617Y428967D01*
X50633Y427983D01*
X50100Y426696D01*
Y425304D01*
X50633Y424017D01*
X51617Y423033D01*
X52904Y422500D01*
X53351D01*
X54550Y421301D01*
Y420554D01*
X55121Y419176D01*
X56176Y418121D01*
X57554Y417550D01*
X58401D01*
X59074Y416823D01*
X59418Y416126D01*
X59166Y415276D01*
X58830Y415050D01*
X57554D01*
X56176Y414479D01*
X55121Y413424D01*
X54550Y412046D01*
Y410554D01*
X55121Y409176D01*
X56176Y408121D01*
X57554Y407550D01*
X59046D01*
X60424Y408121D01*
X61479Y409176D01*
X62050Y410554D01*
Y411830D01*
X62276Y412166D01*
X63126Y412418D01*
X63823Y412074D01*
X64550Y411401D01*
Y410554D01*
X65121Y409176D01*
X66176Y408121D01*
X67554Y407550D01*
X69046D01*
X70424Y408121D01*
X71479Y409176D01*
X72050Y410554D01*
Y412046D01*
X71479Y413424D01*
X70424Y414479D01*
X69046Y415050D01*
X68370D01*
X68023Y415283D01*
X67903Y416214D01*
X69046Y417550D01*
X70424Y418121D01*
X71479Y419176D01*
X72050Y420554D01*
Y421230D01*
X72283Y421577D01*
X73214Y421697D01*
X74550Y420554D01*
X75121Y419176D01*
X76176Y418121D01*
X77554Y417550D01*
X79046D01*
X80424Y418121D01*
X81479Y419176D01*
X82050Y420554D01*
Y421230D01*
X82283Y421577D01*
X83214Y421697D01*
X84550Y420554D01*
X85121Y419176D01*
X86176Y418121D01*
X87554Y417550D01*
X88714D01*
X89110Y417477D01*
X90100Y416363D01*
Y415904D01*
X90633Y414617D01*
X91617Y413633D01*
X92904Y413100D01*
X94296D01*
X95583Y413633D01*
X96567Y414617D01*
X97100Y415904D01*
Y416351D01*
X98299Y417550D01*
X99046D01*
X100424Y418121D01*
X101479Y419176D01*
X102050Y420554D01*
Y421401D01*
X102777Y422074D01*
X103474Y422418D01*
X104324Y422166D01*
X104550Y421830D01*
Y420554D01*
X105121Y419176D01*
X106176Y418121D01*
X107554Y417550D01*
X109046D01*
X110424Y418121D01*
X111479Y419176D01*
X112050Y420554D01*
X113386Y421697D01*
X114317Y421577D01*
X114550Y421230D01*
Y420554D01*
X115121Y419176D01*
X116176Y418121D01*
X117554Y417550D01*
X119046D01*
X120424Y418121D01*
X121479Y419176D01*
X122050Y420554D01*
Y422046D01*
X121479Y423424D01*
X120424Y424479D01*
X119046Y425050D01*
X118199D01*
X117526Y425777D01*
X117182Y426474D01*
X117434Y427324D01*
X117770Y427550D01*
X119046D01*
X120424Y428121D01*
X121479Y429176D01*
X122050Y430554D01*
Y432046D01*
X121479Y433424D01*
X120424Y434479D01*
X119046Y435050D01*
X117886D01*
X117490Y435122D01*
X116500Y436237D01*
Y436696D01*
X115967Y437983D01*
X114983Y438967D01*
X113696Y439500D01*
X112304D01*
X111017Y438967D01*
X110033Y437983D01*
X109500Y436696D01*
Y436249D01*
X108301Y435050D01*
X107554D01*
X106176Y434479D01*
X105121Y433424D01*
X104550Y432046D01*
Y431370D01*
X104317Y431023D01*
X103386Y430903D01*
X102050Y432046D01*
X101479Y433424D01*
X100424Y434479D01*
X99046Y435050D01*
X97554D01*
X96176Y434479D01*
X95121Y433424D01*
X94550Y432046D01*
Y430554D01*
X95121Y429176D01*
X96176Y428121D01*
X97554Y427550D01*
X98697Y426214D01*
X98577Y425283D01*
X98230Y425050D01*
X97554D01*
X96176Y424479D01*
X95121Y423424D01*
X94550Y422046D01*
X93214Y420903D01*
X92283Y421023D01*
X92050Y421370D01*
Y422046D01*
X91479Y423424D01*
X90424Y424479D01*
X89046Y425050D01*
X87903Y426386D01*
X88023Y427317D01*
X88370Y427550D01*
X89046D01*
X90424Y428121D01*
X91479Y429176D01*
X92050Y430554D01*
Y432046D01*
X91479Y433424D01*
X90424Y434479D01*
X89046Y435050D01*
X88299D01*
X87100Y436249D01*
Y436696D01*
X86567Y437983D01*
X85583Y438967D01*
X84296Y439500D01*
X82904D01*
X81617Y438967D01*
X80633Y437983D01*
X80100Y436696D01*
Y436237D01*
X79559Y435628D01*
X78322Y435577D01*
X77100Y436696D01*
X76567Y437983D01*
X75583Y438967D01*
X74296Y439500D01*
X72904D01*
X71617Y438967D01*
X70633Y437983D01*
X70100Y436696D01*
Y436237D01*
X69559Y435628D01*
X67794Y435555D01*
X57819Y445530D01*
X56959Y446105D01*
X56817Y446133D01*
X55983Y446967D01*
X54696Y447500D01*
D02*
G37*
G36*
X129570Y405959D02*
Y402570D01*
X132959D01*
X132361Y404013D01*
X131013Y405361D01*
X129570Y405959D01*
D02*
G37*
G36*
X87030D02*
X85587Y405361D01*
X84239Y404013D01*
X83642Y402570D01*
X87030D01*
Y405959D01*
D02*
G37*
G36*
X69046Y405050D02*
X67554D01*
X66176Y404479D01*
X65121Y403424D01*
X64550Y402046D01*
Y400554D01*
X65121Y399176D01*
X66176Y398121D01*
X67554Y397550D01*
X69046D01*
X70424Y398121D01*
X71479Y399176D01*
X72050Y400554D01*
Y402046D01*
X71479Y403424D01*
X70424Y404479D01*
X69046Y405050D01*
D02*
G37*
G36*
X59046D02*
X57554D01*
X56176Y404479D01*
X55121Y403424D01*
X54550Y402046D01*
Y400554D01*
X55121Y399176D01*
X56176Y398121D01*
X57554Y397550D01*
X59046D01*
X60424Y398121D01*
X61479Y399176D01*
X62050Y400554D01*
Y402046D01*
X61479Y403424D01*
X60424Y404479D01*
X59046Y405050D01*
D02*
G37*
G36*
X69046Y395050D02*
X67554D01*
X66176Y394479D01*
X65121Y393424D01*
X64550Y392046D01*
Y390554D01*
X65121Y389176D01*
X66176Y388121D01*
X67554Y387550D01*
X69046D01*
X70424Y388121D01*
X71479Y389176D01*
X72050Y390554D01*
Y392046D01*
X71479Y393424D01*
X70424Y394479D01*
X69046Y395050D01*
D02*
G37*
G36*
X59046D02*
X57554D01*
X56176Y394479D01*
X55121Y393424D01*
X54550Y392046D01*
Y390554D01*
X55121Y389176D01*
X56176Y388121D01*
X57554Y387550D01*
X59046D01*
X60424Y388121D01*
X61479Y389176D01*
X62050Y390554D01*
Y392046D01*
X61479Y393424D01*
X60424Y394479D01*
X59046Y395050D01*
D02*
G37*
G36*
X69046Y385050D02*
X67554D01*
X66176Y384479D01*
X65121Y383424D01*
X64550Y382046D01*
Y380554D01*
X65121Y379176D01*
X66176Y378121D01*
X67554Y377550D01*
X69046D01*
X70424Y378121D01*
X71479Y379176D01*
X72050Y380554D01*
Y382046D01*
X71479Y383424D01*
X70424Y384479D01*
X69046Y385050D01*
D02*
G37*
G36*
X59046D02*
X57554D01*
X56176Y384479D01*
X55121Y383424D01*
X54550Y382046D01*
Y380554D01*
X55121Y379176D01*
X56176Y378121D01*
X57554Y377550D01*
X59046D01*
X60424Y378121D01*
X61479Y379176D01*
X62050Y380554D01*
Y382046D01*
X61479Y383424D01*
X60424Y384479D01*
X59046Y385050D01*
D02*
G37*
G36*
X87030Y380030D02*
X83641D01*
X84239Y378587D01*
X85587Y377239D01*
X87030Y376641D01*
Y380030D01*
D02*
G37*
G36*
X263696Y367500D02*
X262304D01*
X261017Y366967D01*
X260980Y366930D01*
X260000Y366013D01*
X259020Y366930D01*
X258983Y366967D01*
X257696Y367500D01*
X256304D01*
X255017Y366967D01*
X254033Y365983D01*
X253500Y364696D01*
Y363304D01*
X254033Y362017D01*
X254332Y361718D01*
X254221Y360094D01*
X253215Y359747D01*
X253020Y359930D01*
X252983Y359967D01*
X251696Y360500D01*
X250304D01*
X249017Y359967D01*
X248033Y358983D01*
X247500Y357696D01*
Y356304D01*
X248033Y355017D01*
X249017Y354033D01*
X250304Y353500D01*
X251696D01*
X252983Y354033D01*
X253020Y354070D01*
X254000Y354987D01*
X254980Y354070D01*
X255017Y354033D01*
X256304Y353500D01*
X257696D01*
X258983Y354033D01*
X259020Y354070D01*
X260000Y354987D01*
X260980Y354070D01*
X261017Y354033D01*
X262304Y353500D01*
X263696D01*
X264983Y354033D01*
X265967Y355017D01*
X266500Y356304D01*
Y357696D01*
X265967Y358983D01*
X265377Y359573D01*
X265127Y360500D01*
X265377Y361427D01*
X265967Y362017D01*
X266500Y363304D01*
Y364696D01*
X265967Y365983D01*
X264983Y366967D01*
X263696Y367500D01*
D02*
G37*
G36*
X26625Y380500D02*
X23375D01*
X20187Y379866D01*
X17184Y378622D01*
X14482Y376816D01*
X12184Y374518D01*
X10378Y371816D01*
X9134Y368813D01*
X8500Y365625D01*
Y362375D01*
X9134Y359187D01*
X10378Y356184D01*
X12184Y353482D01*
X14482Y351184D01*
X17184Y349378D01*
X20187Y348134D01*
X23375Y347500D01*
X26625D01*
X29813Y348134D01*
X32816Y349378D01*
X35518Y351184D01*
X37816Y353482D01*
X39622Y356184D01*
X40866Y359187D01*
X41500Y362375D01*
Y365625D01*
X40866Y368813D01*
X39622Y371816D01*
X37816Y374518D01*
X35518Y376816D01*
X32816Y378622D01*
X29813Y379866D01*
X26625Y380500D01*
D02*
G37*
G36*
X44696Y399500D02*
X43304D01*
X42017Y398967D01*
X41033Y397983D01*
X40500Y396696D01*
Y395304D01*
X41033Y394017D01*
X41349Y393701D01*
Y373901D01*
X41349Y373901D01*
X41551Y372886D01*
X42126Y372026D01*
X43349Y370803D01*
Y345651D01*
X26000D01*
X24985Y345449D01*
X24125Y344874D01*
X24125Y344874D01*
X20126Y340874D01*
X19551Y340014D01*
X19349Y339000D01*
X19349Y339000D01*
Y331289D01*
X19349Y331289D01*
X19551Y330274D01*
X20126Y329414D01*
X21414Y328126D01*
X21414Y328125D01*
X22274Y327551D01*
X23289Y327349D01*
X56467D01*
X56766Y325849D01*
X55587Y325361D01*
X54239Y324013D01*
X53641Y322570D01*
X58300D01*
Y320030D01*
X53641D01*
X54239Y318587D01*
X55587Y317239D01*
X57347Y316510D01*
X57458D01*
X57554Y315050D01*
X56176Y314479D01*
X55121Y313424D01*
X54550Y312046D01*
Y310554D01*
X55121Y309176D01*
X56176Y308121D01*
X57554Y307550D01*
X58401D01*
X59074Y306823D01*
X59418Y306126D01*
X59166Y305276D01*
X58830Y305050D01*
X57554D01*
X56176Y304479D01*
X55121Y303424D01*
X54550Y302046D01*
Y300554D01*
X55121Y299176D01*
X56176Y298121D01*
X57554Y297550D01*
X59046D01*
X60424Y298121D01*
X61479Y299176D01*
X62050Y300554D01*
Y301830D01*
X62276Y302166D01*
X63126Y302418D01*
X63823Y302074D01*
X64550Y301401D01*
Y300554D01*
X65121Y299176D01*
X66176Y298121D01*
X67554Y297550D01*
X69046D01*
X70424Y298121D01*
X71479Y299176D01*
X72050Y300554D01*
Y302046D01*
X71479Y303424D01*
X70424Y304479D01*
X69046Y305050D01*
X68370D01*
X68023Y305283D01*
X67903Y306214D01*
X69046Y307550D01*
X70424Y308121D01*
X71479Y309176D01*
X72050Y310554D01*
Y311680D01*
X73124Y312332D01*
X73436Y312415D01*
X74550Y311301D01*
Y310554D01*
X75121Y309176D01*
X76176Y308121D01*
X77554Y307550D01*
X79046D01*
X80424Y308121D01*
X81479Y309176D01*
X82050Y310554D01*
Y311230D01*
X82283Y311577D01*
X83214Y311697D01*
X84550Y310554D01*
X85121Y309176D01*
X86176Y308121D01*
X87554Y307550D01*
X88714D01*
X89110Y307477D01*
X90100Y306363D01*
Y305904D01*
X90633Y304617D01*
X91617Y303633D01*
X92904Y303100D01*
X94296D01*
X95583Y303633D01*
X96567Y304617D01*
X97100Y305904D01*
Y306351D01*
X98299Y307550D01*
X99046D01*
X100424Y308121D01*
X101479Y309176D01*
X102050Y310554D01*
Y311401D01*
X102777Y312074D01*
X103474Y312418D01*
X104324Y312166D01*
X104550Y311830D01*
Y310554D01*
X105121Y309176D01*
X106176Y308121D01*
X107554Y307550D01*
X109046D01*
X110424Y308121D01*
X111479Y309176D01*
X112050Y310554D01*
X113386Y311697D01*
X114317Y311577D01*
X114550Y311230D01*
Y310554D01*
X115121Y309176D01*
X116176Y308121D01*
X117554Y307550D01*
X119046D01*
X120424Y308121D01*
X121479Y309176D01*
X122050Y310554D01*
Y312046D01*
X121479Y313424D01*
X120424Y314479D01*
X119046Y315050D01*
X118199D01*
X117526Y315777D01*
X117182Y316474D01*
X117434Y317324D01*
X117770Y317550D01*
X119046D01*
X120424Y318121D01*
X121479Y319176D01*
X122050Y320554D01*
Y322046D01*
X121479Y323424D01*
X120424Y324479D01*
X119046Y325050D01*
X117886D01*
X117490Y325122D01*
X116500Y326237D01*
Y326696D01*
X115967Y327983D01*
X114983Y328967D01*
X113696Y329500D01*
X112304D01*
X111017Y328967D01*
X110033Y327983D01*
X109500Y326696D01*
Y326249D01*
X108301Y325050D01*
X107554D01*
X106176Y324479D01*
X105121Y323424D01*
X104550Y322046D01*
Y321370D01*
X104317Y321023D01*
X103386Y320903D01*
X102050Y322046D01*
X101479Y323424D01*
X100424Y324479D01*
X99046Y325050D01*
X97554D01*
X96176Y324479D01*
X95121Y323424D01*
X94550Y322046D01*
Y320554D01*
X95121Y319176D01*
X96176Y318121D01*
X97554Y317550D01*
X98697Y316214D01*
X98577Y315283D01*
X98230Y315050D01*
X97554D01*
X96176Y314479D01*
X95121Y313424D01*
X94550Y312046D01*
X93214Y310903D01*
X92283Y311023D01*
X92050Y311370D01*
Y312046D01*
X91479Y313424D01*
X90424Y314479D01*
X89046Y315050D01*
X87903Y316386D01*
X88023Y317317D01*
X88370Y317550D01*
X89046D01*
X90424Y318121D01*
X91479Y319176D01*
X92050Y320554D01*
Y322046D01*
X91479Y323424D01*
X90424Y324479D01*
X89046Y325050D01*
X88299D01*
X87100Y326249D01*
Y326696D01*
X86567Y327983D01*
X85583Y328967D01*
X84296Y329500D01*
X82904D01*
X81617Y328967D01*
X80633Y327983D01*
X80100Y326696D01*
Y326237D01*
X79696Y325782D01*
X77845Y325704D01*
X76500Y327049D01*
Y327696D01*
X75967Y328983D01*
X74983Y329967D01*
X73696Y330500D01*
X72370D01*
X72200Y330686D01*
X71568Y331819D01*
X80467Y340718D01*
X81359Y340895D01*
X82219Y341470D01*
X88299Y347550D01*
X89046D01*
X90424Y348121D01*
X91479Y349176D01*
X92050Y350554D01*
Y351830D01*
X92096Y351898D01*
X92910Y352043D01*
X93238Y351857D01*
X94222Y350830D01*
Y344989D01*
X90116Y340884D01*
X89232Y339561D01*
X88922Y338000D01*
X89232Y336439D01*
X90116Y335116D01*
X91439Y334232D01*
X93000Y333922D01*
X94561Y334232D01*
X95884Y335116D01*
X101184Y340416D01*
X101184Y340416D01*
X102068Y341739D01*
X102378Y343300D01*
X102378Y343300D01*
Y351300D01*
X102068Y352861D01*
X101184Y354184D01*
X99861Y355068D01*
X98786Y355282D01*
X98315Y356154D01*
X98171Y356841D01*
X98704Y357550D01*
X99046D01*
X100424Y358121D01*
X101479Y359176D01*
X102050Y360554D01*
Y362046D01*
X101479Y363424D01*
X100424Y364479D01*
X99046Y365050D01*
X97886D01*
X97490Y365122D01*
X96500Y366237D01*
Y366696D01*
X95967Y367983D01*
X94983Y368967D01*
X93696Y369500D01*
X92304D01*
X91017Y368967D01*
X90701Y368651D01*
X78679D01*
X77925Y368801D01*
X77925Y368801D01*
X77149D01*
X76983Y368967D01*
X75696Y369500D01*
X74304D01*
X73017Y368967D01*
X72730Y369002D01*
X71945Y370301D01*
X72050Y370554D01*
Y372046D01*
X71479Y373424D01*
X70424Y374479D01*
X69046Y375050D01*
X67554D01*
X66176Y374479D01*
X65121Y373424D01*
X64550Y372046D01*
Y370770D01*
X64324Y370434D01*
X63474Y370182D01*
X62777Y370526D01*
X62050Y371199D01*
Y372046D01*
X61479Y373424D01*
X60424Y374479D01*
X59046Y375050D01*
X57554D01*
X56176Y374479D01*
X55121Y373424D01*
X54550Y372046D01*
Y370554D01*
X55121Y369176D01*
X56176Y368121D01*
X57554Y367550D01*
X58230D01*
X59276Y366847D01*
X59359Y366595D01*
X58622Y365143D01*
X58114Y365050D01*
X57554D01*
X56176Y364479D01*
X55121Y363424D01*
X54550Y362046D01*
Y360554D01*
X55121Y359176D01*
X56176Y358121D01*
X57554Y357550D01*
X57457Y356090D01*
X57347D01*
X55587Y355361D01*
X54239Y354013D01*
X53642Y352570D01*
X58300D01*
Y350030D01*
X53641D01*
X54239Y348587D01*
X55587Y347239D01*
X55500Y345667D01*
X54999Y345078D01*
X49924D01*
X49924Y345078D01*
X49810Y345056D01*
X48651Y346007D01*
Y371901D01*
X48651Y371901D01*
X48449Y372915D01*
X47874Y373775D01*
X47874Y373775D01*
X46651Y374999D01*
Y393701D01*
X46967Y394017D01*
X47500Y395304D01*
Y396696D01*
X46967Y397983D01*
X45983Y398967D01*
X44696Y399500D01*
D02*
G37*
G36*
X144296Y329500D02*
X142904D01*
X141617Y328967D01*
X140633Y327983D01*
X140100Y326696D01*
Y326237D01*
X139355Y325398D01*
X138209Y325352D01*
X137500Y325696D01*
X136967Y326983D01*
X135983Y327967D01*
X134696Y328500D01*
X133304D01*
X132017Y327967D01*
X131033Y326983D01*
X130633Y326016D01*
X129879Y325420D01*
X129046Y325050D01*
X127554D01*
X126176Y324479D01*
X125121Y323424D01*
X124550Y322046D01*
Y320554D01*
X125121Y319176D01*
X126176Y318121D01*
X127554Y317550D01*
X129046D01*
X130424Y318121D01*
X131479Y319176D01*
X132050Y320554D01*
Y320669D01*
X133243Y321466D01*
X134550Y320883D01*
Y320554D01*
X135121Y319176D01*
X136176Y318121D01*
X137554Y317550D01*
X139046D01*
X140424Y318121D01*
X141479Y319176D01*
X142050Y320554D01*
Y321230D01*
X142283Y321577D01*
X143214Y321697D01*
X144550Y320554D01*
X145121Y319176D01*
X146176Y318121D01*
X147554Y317550D01*
X149046D01*
X150424Y318121D01*
X151479Y319176D01*
X152050Y320554D01*
Y322046D01*
X151479Y323424D01*
X150424Y324479D01*
X149046Y325050D01*
X148299D01*
X147100Y326249D01*
Y326696D01*
X146567Y327983D01*
X145583Y328967D01*
X144296Y329500D01*
D02*
G37*
G36*
X264696Y314500D02*
X263304D01*
X262017Y313967D01*
X261980Y313930D01*
X261000Y313013D01*
X260020Y313930D01*
X259983Y313967D01*
X258696Y314500D01*
X257304D01*
X256017Y313967D01*
X255427Y313377D01*
X254500Y313127D01*
X253573Y313377D01*
X252983Y313967D01*
X251696Y314500D01*
X250304D01*
X249017Y313967D01*
X248033Y312983D01*
X247500Y311696D01*
Y310304D01*
X248033Y309017D01*
X248550Y308500D01*
X248033Y307983D01*
X247500Y306696D01*
Y305304D01*
X248033Y304017D01*
X249017Y303033D01*
X250304Y302500D01*
X251696D01*
X252983Y303033D01*
X253573Y303623D01*
X254500Y303873D01*
X255427Y303623D01*
X256017Y303033D01*
X257304Y302500D01*
X258696D01*
X259983Y303033D01*
X260020Y303070D01*
X261000Y303987D01*
X261980Y303070D01*
X262017Y303033D01*
X263304Y302500D01*
X264696D01*
X265983Y303033D01*
X266967Y304017D01*
X267500Y305304D01*
Y306696D01*
X266967Y307983D01*
X266450Y308500D01*
X266967Y309017D01*
X267500Y310304D01*
Y311696D01*
X266967Y312983D01*
X265983Y313967D01*
X264696Y314500D01*
D02*
G37*
G36*
X159570Y315959D02*
Y312570D01*
X162959D01*
X162361Y314013D01*
X161013Y315361D01*
X159570Y315959D01*
D02*
G37*
G36*
X129570Y295959D02*
Y292570D01*
X132959D01*
X132361Y294013D01*
X131013Y295361D01*
X129570Y295959D01*
D02*
G37*
G36*
X87030D02*
X85587Y295361D01*
X84239Y294013D01*
X83641Y292570D01*
X87030D01*
Y295959D01*
D02*
G37*
G36*
X119570Y295959D02*
Y291300D01*
X117030D01*
Y295959D01*
X115587Y295361D01*
X114239Y294013D01*
X114112Y293706D01*
X112488D01*
X112361Y294013D01*
X111013Y295361D01*
X109570Y295959D01*
Y291300D01*
X107030D01*
Y295959D01*
X105587Y295361D01*
X104239Y294013D01*
X104112Y293706D01*
X102488D01*
X102361Y294013D01*
X101013Y295361D01*
X99570Y295959D01*
Y291300D01*
X97030D01*
Y295959D01*
X95587Y295361D01*
X94239Y294013D01*
X94112Y293706D01*
X92488D01*
X92361Y294013D01*
X91013Y295361D01*
X89570Y295959D01*
Y291300D01*
X88300D01*
Y290030D01*
X83641D01*
X84239Y288587D01*
X85587Y287239D01*
X85894Y287112D01*
Y285488D01*
X85587Y285361D01*
X84239Y284013D01*
X83641Y282570D01*
X88300D01*
Y280030D01*
X83641D01*
X84239Y278587D01*
X85587Y277239D01*
X85894Y277112D01*
Y275488D01*
X85587Y275361D01*
X84239Y274013D01*
X83641Y272570D01*
X88300D01*
Y271300D01*
X89570D01*
Y266641D01*
X91013Y267239D01*
X92361Y268587D01*
X92488Y268894D01*
X94112D01*
X94239Y268587D01*
X95587Y267239D01*
X97030Y266641D01*
Y271300D01*
X99570D01*
Y266641D01*
X101013Y267239D01*
X102361Y268587D01*
X102488Y268894D01*
X104112D01*
X104239Y268587D01*
X105587Y267239D01*
X107030Y266641D01*
Y271300D01*
X109570D01*
Y266641D01*
X111013Y267239D01*
X112361Y268587D01*
X112488Y268894D01*
X114112D01*
X114239Y268587D01*
X115587Y267239D01*
X117030Y266641D01*
Y271300D01*
X119570D01*
Y266641D01*
X121013Y267239D01*
X122361Y268587D01*
X122488Y268894D01*
X124112D01*
X124239Y268587D01*
X125587Y267239D01*
X127030Y266641D01*
Y271300D01*
X128300D01*
Y272570D01*
X132959D01*
X132361Y274013D01*
X131013Y275361D01*
X130706Y275488D01*
Y277112D01*
X131013Y277239D01*
X132361Y278587D01*
X132959Y280030D01*
X128300D01*
Y282570D01*
X132959D01*
X132361Y284013D01*
X131013Y285361D01*
X130706Y285488D01*
Y287112D01*
X131013Y287239D01*
X132361Y288587D01*
X132959Y290030D01*
X128300D01*
Y291300D01*
X127030D01*
Y295959D01*
X125587Y295361D01*
X124239Y294013D01*
X124112Y293706D01*
X122488D01*
X122361Y294013D01*
X121013Y295361D01*
X119570Y295959D01*
D02*
G37*
G36*
X69046Y295050D02*
X67554D01*
X66176Y294479D01*
X65121Y293424D01*
X64550Y292046D01*
Y290554D01*
X65121Y289176D01*
X66176Y288121D01*
X67554Y287550D01*
X69046D01*
X70424Y288121D01*
X71479Y289176D01*
X72050Y290554D01*
Y292046D01*
X71479Y293424D01*
X70424Y294479D01*
X69046Y295050D01*
D02*
G37*
G36*
X59046D02*
X57554D01*
X56176Y294479D01*
X55121Y293424D01*
X54550Y292046D01*
Y290554D01*
X55121Y289176D01*
X56176Y288121D01*
X57554Y287550D01*
X59046D01*
X60424Y288121D01*
X61479Y289176D01*
X62050Y290554D01*
Y292046D01*
X61479Y293424D01*
X60424Y294479D01*
X59046Y295050D01*
D02*
G37*
G36*
X39696Y293500D02*
X38304D01*
X37017Y292967D01*
X36033Y291983D01*
X35500Y290696D01*
Y289304D01*
X36033Y288017D01*
X37017Y287033D01*
X38304Y286500D01*
X39696D01*
X40983Y287033D01*
X41967Y288017D01*
X42500Y289304D01*
Y290696D01*
X41967Y291983D01*
X40983Y292967D01*
X39696Y293500D01*
D02*
G37*
G36*
X69046Y285050D02*
X67554D01*
X66176Y284479D01*
X65121Y283424D01*
X64550Y282046D01*
Y280554D01*
X65121Y279176D01*
X66176Y278121D01*
X67554Y277550D01*
X69046D01*
X70424Y278121D01*
X71479Y279176D01*
X72050Y280554D01*
Y282046D01*
X71479Y283424D01*
X70424Y284479D01*
X69046Y285050D01*
D02*
G37*
G36*
X59046D02*
X57554D01*
X56176Y284479D01*
X55121Y283424D01*
X54550Y282046D01*
Y280554D01*
X55121Y279176D01*
X56176Y278121D01*
X57554Y277550D01*
X59046D01*
X60424Y278121D01*
X61479Y279176D01*
X62050Y280554D01*
Y282046D01*
X61479Y283424D01*
X60424Y284479D01*
X59046Y285050D01*
D02*
G37*
G36*
X132959Y270030D02*
X129570D01*
Y266641D01*
X131013Y267239D01*
X132361Y268587D01*
X132959Y270030D01*
D02*
G37*
G36*
X87030D02*
X83641D01*
X84239Y268587D01*
X85587Y267239D01*
X87030Y266641D01*
Y270030D01*
D02*
G37*
G36*
X57030Y215959D02*
X55587Y215361D01*
X54239Y214013D01*
X53641Y212570D01*
X57030D01*
Y215959D01*
D02*
G37*
G36*
X159570Y205959D02*
Y202570D01*
X162959D01*
X162361Y204013D01*
X161013Y205361D01*
X159570Y205959D01*
D02*
G37*
G36*
X197000Y188078D02*
X195439Y187768D01*
X194116Y186884D01*
X193232Y185561D01*
X192922Y184000D01*
X193232Y182439D01*
X194116Y181116D01*
X194922Y180311D01*
Y125000D01*
X195232Y123439D01*
X196116Y122116D01*
X197439Y121232D01*
X199000Y120922D01*
X200561Y121232D01*
X201884Y122116D01*
X202768Y123439D01*
X203078Y125000D01*
Y182000D01*
X202768Y183561D01*
X201884Y184884D01*
X201884Y184884D01*
X199884Y186884D01*
X198561Y187768D01*
X197000Y188078D01*
D02*
G37*
G36*
X217118Y71500D02*
X212882D01*
X208729Y70674D01*
X204816Y69053D01*
X201295Y66700D01*
X198300Y63705D01*
X195947Y60184D01*
X194326Y56271D01*
X193500Y52118D01*
Y47882D01*
X194326Y43729D01*
X195947Y39816D01*
X198300Y36295D01*
X201295Y33300D01*
X204816Y30947D01*
X208729Y29326D01*
X212882Y28500D01*
X217118D01*
X221271Y29326D01*
X225184Y30947D01*
X228705Y33300D01*
X231700Y36295D01*
X234053Y39816D01*
X235674Y43729D01*
X236500Y47882D01*
Y52118D01*
X235674Y56271D01*
X234053Y60184D01*
X231700Y63705D01*
X228705Y66700D01*
X225184Y69053D01*
X221271Y70674D01*
X217118Y71500D01*
D02*
G37*
G36*
X162959Y20030D02*
X159570D01*
Y16641D01*
X161013Y17239D01*
X162361Y18587D01*
X162959Y20030D01*
D02*
G37*
G36*
X30987Y20500D02*
X29013D01*
X27105Y19989D01*
X25395Y19001D01*
X23998Y17605D01*
X23011Y15895D01*
X22500Y13987D01*
Y12013D01*
X23011Y10105D01*
X23998Y8395D01*
X25395Y6999D01*
X27105Y6011D01*
X29013Y5500D01*
X30987D01*
X32895Y6011D01*
X34605Y6999D01*
X36002Y8395D01*
X36989Y10105D01*
X37500Y12013D01*
Y13987D01*
X36989Y15895D01*
X36002Y17605D01*
X34605Y19001D01*
X32895Y19989D01*
X30987Y20500D01*
D02*
G37*
%LPD*%
G36*
X124239Y398587D02*
X125587Y397239D01*
X125894Y397112D01*
Y395488D01*
X125587Y395361D01*
X124239Y394013D01*
X124112Y393706D01*
X122488D01*
X122361Y394013D01*
X121013Y395361D01*
X120706Y395488D01*
Y397112D01*
X121013Y397239D01*
X122361Y398587D01*
X122488Y398894D01*
X124112D01*
X124239Y398587D01*
D02*
G37*
G36*
X114239D02*
X115587Y397239D01*
X115894Y397112D01*
Y395488D01*
X115587Y395361D01*
X114239Y394013D01*
X114112Y393706D01*
X112488D01*
X112361Y394013D01*
X111013Y395361D01*
X110706Y395488D01*
Y397112D01*
X111013Y397239D01*
X112361Y398587D01*
X112488Y398894D01*
X114112D01*
X114239Y398587D01*
D02*
G37*
G36*
X104239D02*
X105587Y397239D01*
X105894Y397112D01*
Y395488D01*
X105587Y395361D01*
X104239Y394013D01*
X104112Y393706D01*
X102488D01*
X102361Y394013D01*
X101013Y395361D01*
X100706Y395488D01*
Y397112D01*
X101013Y397239D01*
X102361Y398587D01*
X102488Y398894D01*
X104112D01*
X104239Y398587D01*
D02*
G37*
G36*
X94239D02*
X95587Y397239D01*
X95894Y397112D01*
Y395488D01*
X95587Y395361D01*
X94239Y394013D01*
X94112Y393706D01*
X92488D01*
X92361Y394013D01*
X91013Y395361D01*
X90706Y395488D01*
Y397112D01*
X91013Y397239D01*
X92361Y398587D01*
X92488Y398894D01*
X94112D01*
X94239Y398587D01*
D02*
G37*
G36*
X124239Y388587D02*
X125587Y387239D01*
X125894Y387112D01*
Y385488D01*
X125587Y385361D01*
X124239Y384013D01*
X124112Y383706D01*
X122488D01*
X122361Y384013D01*
X121013Y385361D01*
X120706Y385488D01*
Y387112D01*
X121013Y387239D01*
X122361Y388587D01*
X122488Y388894D01*
X124112D01*
X124239Y388587D01*
D02*
G37*
G36*
X114239D02*
X115587Y387239D01*
X115894Y387112D01*
Y385488D01*
X115587Y385361D01*
X114239Y384013D01*
X114112Y383706D01*
X112488D01*
X112361Y384013D01*
X111013Y385361D01*
X110706Y385488D01*
Y387112D01*
X111013Y387239D01*
X112361Y388587D01*
X112488Y388894D01*
X114112D01*
X114239Y388587D01*
D02*
G37*
G36*
X104239D02*
X105587Y387239D01*
X105894Y387112D01*
Y385488D01*
X105587Y385361D01*
X104239Y384013D01*
X104112Y383706D01*
X102488D01*
X102361Y384013D01*
X101013Y385361D01*
X100706Y385488D01*
Y387112D01*
X101013Y387239D01*
X102361Y388587D01*
X102488Y388894D01*
X104112D01*
X104239Y388587D01*
D02*
G37*
G36*
X94239D02*
X95587Y387239D01*
X95894Y387112D01*
Y385488D01*
X95587Y385361D01*
X94239Y384013D01*
X94112Y383706D01*
X92488D01*
X92361Y384013D01*
X91013Y385361D01*
X90706Y385488D01*
Y387112D01*
X91013Y387239D01*
X92361Y388587D01*
X92488Y388894D01*
X94112D01*
X94239Y388587D01*
D02*
G37*
G36*
X134395Y389876D02*
X135304Y389500D01*
X136238D01*
X136313Y389426D01*
X137173Y388851D01*
X138187Y388649D01*
X138187Y388649D01*
X145648D01*
X146176Y388121D01*
X147554Y387550D01*
X147458Y386090D01*
X147347D01*
X145587Y385361D01*
X144239Y384013D01*
X143641Y382570D01*
X148300D01*
Y380030D01*
X143298D01*
X142677Y379101D01*
X141450D01*
X141450Y379101D01*
X140435Y378899D01*
X139576Y378325D01*
X139575Y378324D01*
X137902Y376651D01*
X132546D01*
X131925Y378151D01*
X132361Y378587D01*
X132959Y380030D01*
X128300D01*
Y382570D01*
X132959D01*
X132361Y384013D01*
X131013Y385361D01*
X130706Y385488D01*
Y387112D01*
X131013Y387239D01*
X132361Y388587D01*
X132648Y389281D01*
X133995Y390021D01*
X134395Y389876D01*
D02*
G37*
G36*
X184007Y378074D02*
X184086Y377954D01*
X183896Y377000D01*
X183896Y377000D01*
Y375645D01*
X180755Y372504D01*
X180480Y372449D01*
X179620Y371875D01*
X179620Y371874D01*
X172125Y364380D01*
X171551Y363520D01*
X171349Y362505D01*
X171349Y362505D01*
Y349098D01*
X164902Y342651D01*
X146122D01*
X145501Y344151D01*
X145967Y344617D01*
X146500Y345904D01*
Y346051D01*
X147999Y347550D01*
X149046D01*
X150424Y348121D01*
X151479Y349176D01*
X152050Y350554D01*
X153510Y350458D01*
Y350347D01*
X154239Y348587D01*
X155587Y347239D01*
X157030Y346641D01*
Y351300D01*
X158300D01*
Y352570D01*
X163434D01*
X164265Y353336D01*
X164983Y353633D01*
X165967Y354617D01*
X166500Y355904D01*
Y357296D01*
X165967Y358583D01*
X164983Y359567D01*
X163696Y360100D01*
X162577Y361322D01*
X162628Y362560D01*
X163237Y363100D01*
X163696D01*
X164983Y363633D01*
X165967Y364617D01*
X166500Y365904D01*
Y367296D01*
X165967Y368583D01*
X164983Y369567D01*
X163696Y370100D01*
X163249D01*
X162050Y371299D01*
Y372046D01*
X161945Y372299D01*
X162947Y373799D01*
X176450D01*
X176450Y373799D01*
X177465Y374001D01*
X178325Y374576D01*
X180347Y376598D01*
X181137Y377126D01*
X182849Y378838D01*
X184007Y378074D01*
D02*
G37*
G36*
X142124Y372819D02*
X142734Y372570D01*
X148300D01*
Y370030D01*
X143641D01*
X144239Y368587D01*
X145587Y367239D01*
X145894Y367112D01*
Y365488D01*
X145587Y365361D01*
X144239Y364013D01*
X144112Y363706D01*
X142488D01*
X142361Y364013D01*
X141013Y365361D01*
X139570Y365959D01*
Y361300D01*
X137030D01*
Y365959D01*
X135587Y365361D01*
X134239Y364013D01*
X133510Y362253D01*
Y362142D01*
X132050Y362046D01*
X131479Y363424D01*
X130424Y364479D01*
X129046Y365050D01*
X128299D01*
X127100Y366249D01*
Y366696D01*
X126567Y367983D01*
X125583Y368967D01*
X124296Y369500D01*
X122904D01*
X121617Y368967D01*
X120633Y367983D01*
X120336Y367265D01*
X119570Y366434D01*
Y361300D01*
X117030D01*
Y365959D01*
X115587Y365361D01*
X114239Y364013D01*
X113510Y362253D01*
Y362142D01*
X112050Y362046D01*
X111479Y363424D01*
X110951Y363952D01*
Y366202D01*
X116098Y371349D01*
X139000D01*
X139000Y371349D01*
X140014Y371551D01*
X140875Y372126D01*
X141618Y372869D01*
X142124Y372819D01*
D02*
G37*
G36*
X125121Y359176D02*
X126176Y358121D01*
X127554Y357550D01*
X127458Y356090D01*
X127347D01*
X125587Y355361D01*
X124239Y354013D01*
X124112Y353706D01*
X122488D01*
X122361Y354013D01*
X121013Y355361D01*
X120706Y355488D01*
Y357112D01*
X121013Y357239D01*
X122361Y358587D01*
X123090Y360347D01*
Y360458D01*
X124550Y360554D01*
X125121Y359176D01*
D02*
G37*
G36*
X133510Y360457D02*
Y360347D01*
X134239Y358587D01*
X135587Y357239D01*
X137347Y356510D01*
X137458D01*
X137554Y355050D01*
X136176Y354479D01*
X135121Y353424D01*
X134550Y352046D01*
X133090Y352142D01*
Y352253D01*
X132361Y354013D01*
X131013Y355361D01*
X129253Y356090D01*
X129143D01*
X129046Y357550D01*
X130424Y358121D01*
X131479Y359176D01*
X132050Y360554D01*
X133510Y360457D01*
D02*
G37*
G36*
X155121Y359176D02*
X156176Y358121D01*
X157554Y357550D01*
X157458Y356090D01*
X157347D01*
X155587Y355361D01*
X154239Y354013D01*
X153510Y352253D01*
Y352142D01*
X152050Y352046D01*
X151479Y353424D01*
X150424Y354479D01*
X149046Y355050D01*
X149143Y356510D01*
X149253D01*
X151013Y357239D01*
X152361Y358587D01*
X153090Y360347D01*
Y360458D01*
X154550Y360554D01*
X155121Y359176D01*
D02*
G37*
G36*
X129570Y346641D02*
X131013Y347239D01*
X132361Y348587D01*
X133090Y350347D01*
Y350457D01*
X134550Y350554D01*
X135121Y349176D01*
X136176Y348121D01*
X137554Y347550D01*
X138301D01*
X139500Y346351D01*
Y345904D01*
X140033Y344617D01*
X140499Y344151D01*
X139878Y342651D01*
X120698D01*
X118339Y345010D01*
X118960Y346510D01*
X119253D01*
X121013Y347239D01*
X122361Y348587D01*
X122488Y348894D01*
X124112D01*
X124239Y348587D01*
X125587Y347239D01*
X127030Y346641D01*
Y351300D01*
X129570D01*
Y346641D01*
D02*
G37*
G36*
X194515Y274739D02*
X195349Y274278D01*
Y256098D01*
X171902Y232651D01*
X146722D01*
X146101Y234151D01*
X146567Y234617D01*
X147100Y235904D01*
Y236351D01*
X148299Y237550D01*
X149046D01*
X150424Y238121D01*
X151479Y239176D01*
X152050Y240554D01*
X153510Y240458D01*
Y240347D01*
X154239Y238587D01*
X155587Y237239D01*
X157030Y236641D01*
Y241300D01*
X158300D01*
Y242570D01*
X162959D01*
X162361Y244013D01*
X161013Y245361D01*
X159253Y246090D01*
X159143D01*
X159046Y247550D01*
X160424Y248121D01*
X160952Y248649D01*
X165300D01*
X165300Y248649D01*
X166315Y248851D01*
X167174Y249426D01*
X192249Y274500D01*
X192696D01*
X193849Y274978D01*
X194515Y274739D01*
D02*
G37*
G36*
X125121Y249176D02*
X126176Y248121D01*
X127554Y247550D01*
X127458Y246090D01*
X127347D01*
X125587Y245361D01*
X124239Y244013D01*
X124112Y243706D01*
X122488D01*
X122361Y244013D01*
X121013Y245361D01*
X120706Y245488D01*
Y247112D01*
X121013Y247239D01*
X122361Y248587D01*
X123090Y250347D01*
Y250458D01*
X124550Y250554D01*
X125121Y249176D01*
D02*
G37*
G36*
X133510Y250457D02*
Y250347D01*
X134239Y248587D01*
X135587Y247239D01*
X137347Y246510D01*
X137458D01*
X137554Y245050D01*
X136176Y244479D01*
X135121Y243424D01*
X134550Y242046D01*
X133090Y242143D01*
Y242253D01*
X132361Y244013D01*
X131013Y245361D01*
X129253Y246090D01*
X129143D01*
X129046Y247550D01*
X130424Y248121D01*
X131479Y249176D01*
X132050Y250554D01*
X133510Y250457D01*
D02*
G37*
G36*
X155121Y249176D02*
X156176Y248121D01*
X157554Y247550D01*
X157458Y246090D01*
X157347D01*
X155587Y245361D01*
X154239Y244013D01*
X153510Y242253D01*
Y242142D01*
X152050Y242046D01*
X151479Y243424D01*
X150424Y244479D01*
X149046Y245050D01*
X149143Y246510D01*
X149253D01*
X151013Y247239D01*
X152361Y248587D01*
X153090Y250347D01*
Y250458D01*
X154550Y250554D01*
X155121Y249176D01*
D02*
G37*
G36*
X129570Y236166D02*
X130336Y235335D01*
X130633Y234617D01*
X131099Y234151D01*
X130478Y232651D01*
X121098D01*
X118739Y235010D01*
X119253Y236510D01*
X121013Y237239D01*
X122361Y238587D01*
X122488Y238894D01*
X124112D01*
X124239Y238587D01*
X125587Y237239D01*
X127030Y236641D01*
Y241300D01*
X129570D01*
Y236166D01*
D02*
G37*
%LPC*%
G36*
X162959Y350030D02*
X159570D01*
Y346641D01*
X161013Y347239D01*
X162361Y348587D01*
X162959Y350030D01*
D02*
G37*
G36*
X162959Y240030D02*
X159570D01*
Y236641D01*
X161013Y237239D01*
X162361Y238587D01*
X162959Y240030D01*
D02*
G37*
%LPD*%
G36*
X124239Y278587D02*
X125587Y277239D01*
X125894Y277112D01*
Y275488D01*
X125587Y275361D01*
X124239Y274013D01*
X124112Y273706D01*
X122488D01*
X122361Y274013D01*
X121013Y275361D01*
X120706Y275488D01*
Y277112D01*
X121013Y277239D01*
X122361Y278587D01*
X122488Y278894D01*
X124112D01*
X124239Y278587D01*
D02*
G37*
G36*
X94239D02*
X95587Y277239D01*
X95894Y277112D01*
Y275488D01*
X95587Y275361D01*
X94239Y274013D01*
X94112Y273706D01*
X92488D01*
X92361Y274013D01*
X91013Y275361D01*
X90706Y275488D01*
Y277112D01*
X91013Y277239D01*
X92361Y278587D01*
X92488Y278894D01*
X94112D01*
X94239Y278587D01*
D02*
G37*
%LPC*%
G36*
X132959Y160030D02*
X129570D01*
Y156641D01*
X131013Y157239D01*
X132361Y158587D01*
X132959Y160030D01*
D02*
G37*
G36*
X162959Y130030D02*
X159570D01*
Y126641D01*
X161013Y127239D01*
X162361Y128587D01*
X162959Y130030D01*
D02*
G37*
G36*
X57030Y105959D02*
X55587Y105361D01*
X54239Y104013D01*
X53642Y102570D01*
X57030D01*
Y105959D01*
D02*
G37*
G36*
X59046Y75050D02*
X57554D01*
X56176Y74479D01*
X55121Y73424D01*
X54550Y72046D01*
Y70554D01*
X55121Y69176D01*
X56176Y68121D01*
X57554Y67550D01*
X59046D01*
X60424Y68121D01*
X61479Y69176D01*
X62050Y70554D01*
Y72046D01*
X61479Y73424D01*
X60424Y74479D01*
X59046Y75050D01*
D02*
G37*
G36*
X57030Y20030D02*
X53641D01*
X54239Y18587D01*
X55587Y17239D01*
X57030Y16641D01*
Y20030D01*
D02*
G37*
G36*
X132959Y50030D02*
X129570D01*
Y46641D01*
X131013Y47239D01*
X132361Y48587D01*
X132959Y50030D01*
D02*
G37*
%LPD*%
D12*
X45000Y56000D02*
Y85000D01*
Y56000D02*
X55000Y46000D01*
X74000D01*
X26250Y103750D02*
X45000Y85000D01*
X26000Y108000D02*
X26250Y107750D01*
Y103750D02*
Y107750D01*
X74000Y46000D02*
X84150Y56150D01*
X153150D01*
X158300Y61300D01*
D28*
X75000Y366000D02*
X75344Y365656D01*
X73600Y258000D02*
X73944Y257656D01*
Y255656D02*
Y257656D01*
X19400Y145095D02*
Y155167D01*
X25400Y161167D01*
X15700Y141813D02*
Y156700D01*
X21700Y162700D01*
X6400Y162095D02*
X12000Y156495D01*
X6000Y110000D02*
Y157262D01*
X12000Y135000D02*
Y156495D01*
Y135000D02*
X18000Y129000D01*
X2700Y160562D02*
X6000Y157262D01*
X2700Y160562D02*
Y183700D01*
X6400Y162095D02*
Y177411D01*
X2700Y183700D02*
X16000Y197000D01*
X6400Y177411D02*
X15139Y186150D01*
X7000Y57000D02*
X54000Y10000D01*
X7000Y99000D02*
X12000Y104000D01*
X7000Y57000D02*
Y99000D01*
X49000Y61000D02*
Y87000D01*
Y61000D02*
X54000Y56000D01*
X30600Y105400D02*
X49000Y87000D01*
X54000Y56000D02*
X56141D01*
X56591Y56450D01*
X76711D01*
X30600Y105400D02*
Y109905D01*
X35000Y109000D02*
X47798Y96202D01*
X60257D01*
X35000Y109000D02*
Y118711D01*
X58740Y240860D02*
X60140D01*
X64000Y237000D01*
X58300Y241300D02*
X58740Y240860D01*
X80000Y66400D02*
X153400D01*
X78000Y57739D02*
Y64400D01*
X76711Y56450D02*
X78000Y57739D01*
Y64400D02*
X80000Y66400D01*
X54000Y10000D02*
X67000D01*
X73150Y16150D01*
X133450Y88550D02*
Y103309D01*
X133656Y103515D02*
Y104656D01*
X138000Y101300D02*
X138300D01*
X133450Y88550D02*
X135550Y86450D01*
X133450Y103309D02*
X133656Y103515D01*
X134300Y105000D02*
X138000Y101300D01*
X133656Y104656D02*
X134000Y105000D01*
X134300D01*
X196000Y12000D02*
X214000D01*
X181600Y26400D02*
X196000Y12000D01*
X181600Y26400D02*
Y64905D01*
X161271Y85235D02*
X181600Y64905D01*
X160009Y86450D02*
X161224Y85235D01*
X161271D01*
X135550Y86450D02*
X160009D01*
X16000Y197000D02*
Y263000D01*
X34000Y281000D02*
X45000D01*
X16000Y263000D02*
X34000Y281000D01*
X45000D02*
X47000Y279000D01*
Y274000D02*
Y279000D01*
X54550Y266450D02*
X62191D01*
X63480Y265161D01*
X63450Y263309D02*
X63480Y263339D01*
X63450Y259291D02*
Y263309D01*
X63480Y263339D02*
Y265161D01*
X63450Y259291D02*
X64000Y258741D01*
Y255000D02*
Y258741D01*
X12000Y104000D02*
X16000Y108000D01*
X6000Y110000D02*
X12000Y104000D01*
X16000Y108000D02*
Y117500D01*
X15139Y186150D02*
X130309D01*
X47000Y274000D02*
X54550Y266450D01*
X73150Y16150D02*
Y23309D01*
X72944Y23515D02*
X73150Y23309D01*
X72944Y23515D02*
Y27256D01*
X72600Y27600D02*
X72944Y27256D01*
X58300Y361300D02*
X63000Y356600D01*
X63000D01*
X68300Y351300D01*
X64970Y339525D02*
X66526D01*
X78300Y351300D01*
X61444Y336000D02*
X64970Y339525D01*
X61000Y336000D02*
X61444D01*
X23289Y330000D02*
X60505D01*
X61105Y330600D01*
X66600D01*
X79344Y343344D01*
X170000Y46382D02*
Y61000D01*
X170750Y31500D02*
Y45631D01*
X170000Y46382D02*
X170750Y45631D01*
X165850Y26600D02*
X170750Y31500D01*
X153600Y26600D02*
X165850D01*
X51000Y238000D02*
Y249000D01*
Y238000D02*
X59000Y230000D01*
X48000Y252000D02*
X51000Y249000D01*
X48000Y252000D02*
Y260000D01*
X59000Y230000D02*
X77000D01*
X88300Y241300D01*
X168095Y393400D02*
X171905D01*
X173505Y395000D02*
X197203D01*
X166412Y406150D02*
X166562Y406300D01*
X171905Y393400D02*
X173505Y395000D01*
X173205Y401300D02*
X186195D01*
X162000Y395000D02*
X166495D01*
X168095Y402600D02*
X171905D01*
X166562Y406300D02*
X173438D01*
X166495Y395000D02*
X168095Y393400D01*
X173438Y406300D02*
X173588Y406150D01*
X158300Y401300D02*
X166795D01*
X171905Y402600D02*
X173205Y401300D01*
X153150Y406150D02*
X166412D01*
X166795Y401300D02*
X168095Y402600D01*
X173588Y406150D02*
X185645D01*
X26000Y343000D02*
X44711D01*
X46000Y344289D02*
Y371901D01*
X22000Y339000D02*
X26000Y343000D01*
X44711D02*
X46000Y344289D01*
X44000Y373901D02*
Y396000D01*
Y373901D02*
X46000Y371901D01*
X22000Y331289D02*
X23289Y330000D01*
X22000Y331289D02*
Y339000D01*
X79344Y343344D02*
X80344D01*
X88300Y351300D01*
X158300Y81300D02*
X158500D01*
X176800Y63000D01*
X177000D01*
X148150Y61150D02*
X148300Y61300D01*
X142000Y61000D02*
X142150Y61150D01*
X148150D01*
X153400Y66400D02*
X158300Y71300D01*
X84300Y25000D02*
X88000Y21300D01*
X88300D01*
X64272Y25000D02*
X67972Y21300D01*
X68300D01*
X63944Y25000D02*
Y25328D01*
X58887Y30887D02*
X59000Y31000D01*
X58887Y30385D02*
Y30887D01*
Y30385D02*
X63944Y25328D01*
Y25000D02*
X64272D01*
X60307Y124944D02*
X63850Y121400D01*
X73905D01*
X73450Y126450D02*
X94072D01*
X73905Y121400D02*
X74505Y122000D01*
X99000D01*
X73450Y126450D02*
X78300Y131300D01*
X72000Y126000D02*
X73000D01*
X99000Y122000D02*
X108300Y131300D01*
X88300Y131300D02*
X93000Y136000D01*
X88300Y131300D02*
Y131300D01*
X98600Y151000D02*
X108300Y141300D01*
X79405Y158100D02*
X86505Y151000D01*
X98600D01*
X94300Y145000D02*
X98000Y141300D01*
X98300D01*
X56341Y166400D02*
X153400D01*
X155502Y168502D02*
X158300Y171300D01*
X153400Y166400D02*
X155502Y168502D01*
X158300Y171300D02*
X158300D01*
X155502Y168502D02*
Y168502D01*
X147860Y171740D02*
X148300Y171300D01*
X30917Y176150D02*
X130009D01*
X132459Y178600D01*
X143905D01*
X146055Y176450D01*
X134159Y182300D02*
X145438D01*
X130309Y186150D02*
X134159Y182300D01*
X145998Y181740D02*
X147860D01*
X142487Y174000D02*
X144747Y171740D01*
X145438Y182300D02*
X145998Y181740D01*
X147860D02*
X148300Y181300D01*
X144747Y171740D02*
X147860D01*
X142000Y174000D02*
X142487D01*
X153450Y176450D02*
X158300Y181300D01*
X146055Y176450D02*
X153450D01*
X21700Y166933D02*
X30917Y176150D01*
X154300Y305000D02*
X158000Y301300D01*
X158300D01*
Y411300D02*
Y411500D01*
X153000Y416800D02*
X158300Y411500D01*
X153000Y416800D02*
Y417000D01*
X138187Y391300D02*
X148300D01*
X136487Y393000D02*
X138187Y391300D01*
X136000Y393000D02*
X136487D01*
X144300Y285000D02*
X148000Y281300D01*
X148300D01*
X158600Y191300D02*
X162300Y187600D01*
X158300Y191300D02*
X158600D01*
X68300Y141600D02*
X72000Y145300D01*
X68300Y141300D02*
Y141600D01*
X77500Y147750D02*
X78150Y147100D01*
Y141450D02*
Y147100D01*
X56591Y156450D02*
X70309D01*
X56141Y156000D02*
X56591Y156450D01*
X77500Y147750D02*
Y153500D01*
X71959Y158100D02*
X79405D01*
X70309Y156450D02*
X71959Y158100D01*
X78150Y141450D02*
X78300Y141300D01*
X25465Y156000D02*
X56141D01*
X24000Y154535D02*
X25465Y156000D01*
X68600Y31300D02*
X72300Y27600D01*
X68300Y31300D02*
X68600D01*
X64300Y255000D02*
X68000Y251300D01*
X68300D01*
X68600Y361300D02*
X72300Y357600D01*
X68300Y361300D02*
X68600D01*
X134300Y435000D02*
X138000Y431300D01*
X138300D01*
X134300Y325000D02*
X138000Y321300D01*
X138300D01*
X134300Y215000D02*
X138000Y211300D01*
X138300D01*
X73944Y255656D02*
X78300Y251300D01*
X54000Y89000D02*
X54344Y89344D01*
X57891Y91513D02*
X58000D01*
X54344Y89344D02*
X55722D01*
X57891Y91513D01*
X83600Y206000D02*
X83600D01*
X88300Y201300D01*
X148300Y361300D02*
Y371300D01*
Y361300D02*
X148300D01*
X158300Y351300D01*
X29889Y169600D02*
X53141D01*
X25400Y165111D02*
X29889Y169600D01*
X53141D02*
X56341Y166400D01*
X25400Y161167D02*
Y165111D01*
X118300Y71300D02*
X128300D01*
X108300D02*
X118300D01*
X98300D02*
X108300D01*
X88300D02*
X98300D01*
X30000Y110505D02*
Y128000D01*
Y110505D02*
X30600Y109905D01*
X36289Y120000D02*
X47000D01*
X35000Y118711D02*
X36289Y120000D01*
X65289Y76450D02*
X143150D01*
X63150Y78589D02*
Y93309D01*
Y78589D02*
X65289Y76450D01*
X143150D02*
X148300Y71300D01*
X88300Y161300D02*
X93000Y156600D01*
X63150Y366150D02*
X77925D01*
X60257Y96202D02*
X63150Y93309D01*
X51150Y101150D02*
X58150D01*
X58300Y101300D01*
X51000Y101000D02*
X51150Y101150D01*
X165300Y251300D02*
X191952Y277952D01*
X158300Y251300D02*
X165300D01*
X138300Y91300D02*
X148300Y101300D01*
X78075Y366000D02*
X93000D01*
X63000D02*
X63150Y366150D01*
X77925D02*
X78075Y366000D01*
X143300Y346600D02*
X148000Y351300D01*
X143000Y346600D02*
X143300D01*
X148000Y351300D02*
X148300D01*
X120000Y230000D02*
X173000D01*
X113450Y236550D02*
X120000Y230000D01*
X113450Y236550D02*
Y246150D01*
X108300Y251300D02*
X113450Y246150D01*
X117000Y225000D02*
X181000D01*
X108300Y233700D02*
Y241300D01*
Y233700D02*
X117000Y225000D01*
X107000Y40000D02*
X122000D01*
X98300Y31300D02*
X107000Y40000D01*
X158700Y101700D02*
Y106700D01*
X159000Y107000D01*
X148300Y91300D02*
X158700Y101700D01*
X166700Y161300D02*
X167000Y161000D01*
X158300Y161300D02*
X166700D01*
X123000Y16600D02*
X123300D01*
X128000Y21300D02*
X128300D01*
X123300Y16600D02*
X128000Y21300D01*
X138300Y421300D02*
X148300Y431300D01*
X73450Y316150D02*
X73600Y316000D01*
X63150Y316150D02*
X73450D01*
X63000Y316000D02*
X63150Y316150D01*
X73150Y246150D02*
X91877D01*
X73000Y246000D02*
X73150Y246150D01*
X91983Y246256D02*
X93256D01*
X91877Y246150D02*
X91983Y246256D01*
X93256D02*
Y246256D01*
X98300Y251300D01*
X72700Y246300D02*
X73000Y246000D01*
X63300Y246300D02*
X72700D01*
X63000Y246600D02*
X63300Y246300D01*
X68300Y241300D02*
X73000Y246000D01*
X63000Y196600D02*
X63000D01*
X138300Y201300D02*
X148300Y211300D01*
X58300Y141300D02*
X68300Y131300D01*
X68300D01*
X94072Y126450D02*
X98300Y130678D01*
X55562Y124944D02*
X60307D01*
X60480Y111009D02*
X66811D01*
X68820Y109000D01*
X69000D01*
X68709Y117000D02*
X74602Y111107D01*
X57322Y119400D02*
X59722Y117000D01*
X68709D01*
X54105Y119400D02*
X57322D01*
X31000Y142505D02*
X54105Y119400D01*
X31905Y148600D02*
X55562Y124944D01*
X57489Y114000D02*
X60480Y111009D01*
X46000Y114000D02*
X57489D01*
X31000Y142505D02*
Y142513D01*
X30000Y150000D02*
X30487D01*
X31887Y148600D02*
X31905D01*
X30487Y150000D02*
X31887Y148600D01*
X78300Y141300D02*
X88300D01*
X98300Y130678D02*
Y131300D01*
X138300D02*
X148300D01*
X143300Y16600D02*
X148000Y21300D01*
X148300D01*
X78600Y31300D02*
X83300Y36000D01*
X83600D01*
X78300Y31300D02*
X78600D01*
X208000Y252000D02*
Y349000D01*
X181000Y225000D02*
X208000Y252000D01*
X198000Y255000D02*
Y349000D01*
X173000Y230000D02*
X198000Y255000D01*
X193000Y316000D02*
Y374000D01*
X158300Y281300D02*
X193000Y316000D01*
X158300Y291300D02*
X162300D01*
X188000Y317000D02*
Y355000D01*
X162300Y291300D02*
X188000Y317000D01*
X153150Y296150D02*
X160009D01*
X148300Y291300D02*
X153150Y296150D01*
X160009D02*
X183000Y319141D01*
Y359000D01*
X119600Y340000D02*
X166000D01*
X108300Y351300D02*
X119600Y340000D01*
X166000D02*
X174000Y348000D01*
X21700Y162700D02*
Y166933D01*
X24000Y147000D02*
Y154535D01*
X15700Y141813D02*
X20513Y137000D01*
X19400Y145095D02*
X22495Y142000D01*
X18850Y123344D02*
X25600Y130095D01*
X22495Y142000D02*
X22505D01*
X20513Y137000D02*
X21000D01*
X22505Y142000D02*
X25600Y138905D01*
Y130095D02*
Y138905D01*
X30000Y143513D02*
X31000Y142513D01*
X30000Y143513D02*
Y144000D01*
X16344Y123344D02*
X18850D01*
X16000Y123000D02*
X16344Y123344D01*
X139000Y374000D02*
X141450Y376450D01*
X176450D01*
X202889Y373000D02*
X243000D01*
X197600Y378289D02*
X202889Y373000D01*
X227000Y378000D02*
X234000Y385000D01*
X203738Y378000D02*
X227000D01*
X237547Y391453D02*
X244000Y385000D01*
X232958Y391453D02*
X237547D01*
X224505Y383000D02*
X232958Y391453D01*
X197588Y384150D02*
X203738Y378000D01*
X179262Y379000D02*
X184112Y383850D01*
X190850D02*
X191150Y384150D01*
X184112Y383850D02*
X190850D01*
X191150Y384150D02*
X197588D01*
X179000Y379000D02*
X179262D01*
X176450Y376450D02*
X179000Y379000D01*
X195217Y378289D02*
X197600D01*
X186547Y374547D02*
Y377000D01*
X187847Y378300D02*
X190795D01*
X186547Y377000D02*
X187847Y378300D01*
X191095Y378600D02*
X194905D01*
X190795Y378300D02*
X191095Y378600D01*
X194905D02*
X195217Y378289D01*
X197971Y389000D02*
X203971Y383000D01*
X180000Y389000D02*
X197971D01*
X176000Y385000D02*
X180000Y389000D01*
X197203Y395000D02*
X202716Y389487D01*
X158300Y391300D02*
X162000Y395000D01*
X202716Y389487D02*
X222240D01*
X222383Y389344D02*
X223656D01*
X224000Y389000D01*
X222240Y389487D02*
X222383Y389344D01*
X203971Y383000D02*
X224505D01*
X182000Y370000D02*
X186547Y374547D01*
X181495Y370000D02*
X182000D01*
X174000Y348000D02*
Y362505D01*
X181495Y370000D01*
X217095Y410600D02*
X220905D01*
X216495Y410000D02*
X217095Y410600D01*
X214000Y406000D02*
X219000D01*
X208000Y410000D02*
X216495D01*
X221505D02*
X228000D01*
X220905Y410600D02*
X221505Y410000D01*
X214533Y401300D02*
X230813D01*
X205700Y407700D02*
X208000Y410000D01*
X212633Y399400D02*
X214533Y401300D01*
X190000Y404000D02*
X212000D01*
X188095Y399400D02*
X212633D01*
X192805Y407700D02*
X205700D01*
X191905Y408600D02*
X192805Y407700D01*
X212000Y404000D02*
X214000Y406000D01*
X185645Y406150D02*
X188095Y408600D01*
X191905D01*
X232513Y403000D02*
X233000D01*
X230813Y401300D02*
X232513Y403000D01*
X186195Y401300D02*
X188095Y399400D01*
X148300Y401300D02*
X153150Y406150D01*
X207838Y415163D02*
X208000Y415000D01*
X185488Y415163D02*
X207838D01*
X185325Y415325D02*
X185488Y415163D01*
X163000Y366600D02*
X163000D01*
X158300Y371300D02*
X163000Y366600D01*
X115000Y374000D02*
X139000D01*
X108300Y367300D02*
X115000Y374000D01*
X108300Y361300D02*
Y367300D01*
X78000Y101600D02*
Y102053D01*
X74602Y105451D02*
X78000Y102053D01*
X74602Y105451D02*
Y111107D01*
X69000Y108169D02*
X69000Y108168D01*
Y103626D02*
Y108168D01*
X69000Y108169D02*
Y109000D01*
X75344Y364878D02*
Y365656D01*
Y364878D02*
X78300Y361922D01*
Y361300D02*
Y361922D01*
X54000Y444000D02*
X54344Y443656D01*
X55944D02*
X68300Y431300D01*
X54344Y443656D02*
X55944D01*
X78300Y321300D02*
Y321500D01*
X73000Y326800D02*
X78300Y321500D01*
X73000Y326800D02*
Y327000D01*
X68740Y101740D02*
Y103366D01*
X68300Y101300D02*
X68740Y101740D01*
Y103366D02*
X69000Y103626D01*
X93600Y236600D02*
X98300Y241300D01*
X93600Y236600D02*
Y236600D01*
X73600D02*
X78300Y241300D01*
X73600Y236600D02*
Y236600D01*
X78300Y211300D02*
Y211500D01*
X69000Y220800D02*
X78300Y211500D01*
X69000Y220800D02*
Y221000D01*
X63600Y216000D02*
X68300Y211300D01*
X63600Y216000D02*
X63600D01*
Y206000D02*
X68300Y201300D01*
X63600Y206000D02*
X63600D01*
X73600Y196600D02*
X78300Y201300D01*
X73600Y196600D02*
Y196600D01*
X58300Y201300D02*
X63000Y196600D01*
X58300Y251300D02*
X63000Y246600D01*
X63000D01*
X88300Y251300D02*
X93000Y256000D01*
Y256000D01*
X73600Y316000D02*
X78300Y311300D01*
X73600Y316000D02*
X73600D01*
X58300Y311300D02*
X63000Y316000D01*
Y316000D01*
X63600Y306600D02*
X68300Y311300D01*
X63600Y306600D02*
Y306600D01*
Y326000D02*
X68300Y321300D01*
X63600Y326000D02*
X63600D01*
X93600Y356600D02*
X98300Y361300D01*
X93600Y356600D02*
Y356600D01*
X88300Y361300D02*
X93000Y366000D01*
Y366000D01*
X73600Y436000D02*
X78300Y431300D01*
X73600Y436000D02*
X73600D01*
Y426000D02*
X78300Y421300D01*
X73600Y426000D02*
X73600D01*
X63600Y416600D02*
X68300Y421300D01*
X63600Y416600D02*
Y416600D01*
X53600Y426000D02*
X58300Y421300D01*
X53600Y426000D02*
X53600D01*
X143600Y436000D02*
X148300Y431300D01*
X143600Y436000D02*
X143600D01*
Y416600D02*
X148300Y421300D01*
X143600Y416600D02*
Y416600D01*
X123600Y366000D02*
X128300Y361300D01*
X123600Y366000D02*
X123600D01*
X158300Y381300D02*
X163000Y386000D01*
Y386000D01*
X158300Y361300D02*
X163000Y356600D01*
X163000D01*
X138300Y351300D02*
X143000Y346600D01*
X143000D01*
X143600Y326000D02*
X148300Y321300D01*
X143600Y326000D02*
X143600D01*
X133600Y306600D02*
X138300Y311300D01*
X133600Y306600D02*
Y306600D01*
X143600D02*
X148300Y311300D01*
X143600Y306600D02*
Y306600D01*
X158300Y271300D02*
X163000Y276000D01*
Y276000D01*
X158300Y261300D02*
X163000Y266000D01*
Y266000D01*
X128300Y251300D02*
X133000Y256000D01*
Y256000D01*
X143600Y236600D02*
X148300Y241300D01*
X143600Y236600D02*
Y236600D01*
X133600D02*
X138300Y241300D01*
X133600Y236600D02*
Y236600D01*
Y196600D02*
X138300Y201300D01*
X133600Y196600D02*
Y196600D01*
X123600Y146000D02*
X128300Y141300D01*
X123600Y146000D02*
X123600D01*
X166513Y152000D02*
X167000D01*
X165813Y151300D02*
X166513Y152000D01*
X159250Y141000D02*
Y141038D01*
X159362Y141150D01*
X166850D01*
X167000Y141000D01*
X148300Y131300D02*
X153000Y126600D01*
X153000D01*
X143600Y106000D02*
X148300Y101300D01*
X143600Y106000D02*
X143600D01*
X68300Y131300D02*
X73000Y136000D01*
X68300Y91300D02*
X73000Y96000D01*
Y96000D01*
X73600Y86600D02*
X78300Y91300D01*
X73600Y86600D02*
Y86600D01*
X83600Y36000D02*
X88300Y31300D01*
X83600Y36000D02*
X83600D01*
X73600D02*
X78300Y31300D01*
X73600Y36000D02*
X73600D01*
X153600Y46600D02*
X158300Y51300D01*
X153600Y46600D02*
Y46600D01*
Y36600D02*
X158300Y41300D01*
X153600Y36600D02*
Y36600D01*
Y26600D02*
X158300Y31300D01*
X153600Y26600D02*
Y26600D01*
X138300Y21300D02*
X143000Y16600D01*
X143000D01*
X123600Y26600D02*
X128300Y31300D01*
X123600Y26600D02*
Y26600D01*
X113600D02*
X118300Y31300D01*
X113600Y26600D02*
Y26600D01*
X118300Y21300D02*
X123000Y16600D01*
X123000D01*
X103600Y26600D02*
X108300Y31300D01*
X103600Y26600D02*
Y26600D01*
Y16600D02*
X108300Y21300D01*
X103600Y16600D02*
Y16600D01*
X93600D02*
X98300Y21300D01*
X93600Y16600D02*
Y16600D01*
X78300Y21300D02*
X83000Y16600D01*
X83000D01*
X83600Y426000D02*
X88300Y421300D01*
X83600Y426000D02*
X83600D01*
Y436000D02*
X88300Y431300D01*
X83600Y436000D02*
X83600D01*
X93600Y416600D02*
X98300Y421300D01*
X93600Y416600D02*
Y416600D01*
X98300Y431300D02*
X103000Y426600D01*
X103000D01*
X108300Y431300D02*
X113000Y436000D01*
Y436000D01*
X108300Y421300D02*
X113000Y426000D01*
Y426000D01*
X83600Y316000D02*
X88300Y311300D01*
X83600Y316000D02*
X83600D01*
Y326000D02*
X88300Y321300D01*
X83600Y326000D02*
X83600D01*
X93600Y306600D02*
X98300Y311300D01*
X93600Y306600D02*
Y306600D01*
X98300Y321300D02*
X103000Y316600D01*
X103000D01*
X108300Y321300D02*
X113000Y326000D01*
Y326000D01*
X108300Y311300D02*
X113000Y316000D01*
Y316000D01*
X83600Y216000D02*
X88300Y211300D01*
X83600Y216000D02*
X83600D01*
X93600Y196600D02*
X98300Y201300D01*
X93600Y196600D02*
Y196600D01*
X98300Y211300D02*
X103000Y206600D01*
X103000D01*
X108300Y211300D02*
X113000Y216000D01*
Y216000D01*
X108300Y201300D02*
X113000Y206000D01*
Y206000D01*
Y96000D02*
Y96000D01*
X108300Y91300D02*
X113000Y96000D01*
Y106000D02*
Y106000D01*
X108300Y101300D02*
X113000Y106000D01*
X103000Y96600D02*
X103000D01*
X98300Y101300D02*
X103000Y96600D01*
X93600Y86600D02*
Y86600D01*
X98300Y91300D01*
X83600Y106000D02*
X83600D01*
X88300Y101300D01*
X83600Y96000D02*
X83600D01*
X88300Y91300D01*
D31*
X128300Y131300D02*
X138300Y141300D01*
X148435Y191300D02*
X152735Y187000D01*
X153000D01*
X148300Y191300D02*
X148435D01*
X148300Y251300D02*
X153600Y246000D01*
X148300Y251300D02*
X148300D01*
X143000Y256000D02*
X148300Y261300D01*
X143000Y256000D02*
X143465D01*
X148165Y251300D02*
X148300D01*
X143465Y256000D02*
X148165Y251300D01*
X128300Y241300D02*
X138300Y251300D01*
X123300Y246300D02*
X128300Y241300D01*
X118300Y251300D02*
X123300Y246300D01*
X118300Y241300D02*
X123300Y246300D01*
X118300Y241300D02*
X118300D01*
X118300Y251300D02*
X118300D01*
X128165Y351300D02*
X128300D01*
X128300D01*
X123000Y356600D02*
X128300Y351300D01*
X123465Y346600D02*
X128165Y351300D01*
X123000Y346600D02*
X123465D01*
X128300Y351300D02*
X133600Y356600D01*
X118300Y351300D02*
Y351435D01*
X123000Y356135D01*
Y356600D01*
X138300Y361300D02*
X148300D01*
X128300Y161300D02*
X148300Y141300D01*
X128300Y161300D02*
Y161300D01*
X54000Y135735D02*
X58300Y131435D01*
X54000Y135735D02*
Y136000D01*
X58300Y131300D02*
Y131435D01*
X148300Y151300D02*
Y161300D01*
Y141300D02*
Y151300D01*
X138300Y141300D02*
X148300D01*
X123000Y136600D02*
X128300Y131300D01*
X118300Y141300D02*
X123000Y136600D01*
X118300Y131300D02*
Y131435D01*
X123000Y136135D01*
Y136600D01*
X128300Y131300D02*
X128300D01*
X88300Y401300D02*
X98300Y391300D01*
X113300Y386300D02*
X118300Y391300D01*
X108300Y381300D02*
X113300Y386300D01*
X118300Y381300D01*
X108300Y391300D02*
X113300Y386300D01*
X103300D02*
X108300Y391300D01*
X98300Y381300D02*
X103300Y386300D01*
X108300Y381300D01*
Y381300D02*
Y381300D01*
X113300Y396300D02*
X118300Y391300D01*
Y391300D02*
Y391300D01*
X128165Y401165D02*
Y401300D01*
X118300Y391300D02*
X128165Y401165D01*
X98300Y391300D02*
X103300Y386300D01*
X113300Y396300D02*
X118300Y401300D01*
X108300Y391300D02*
X113300Y396300D01*
X108300Y401300D02*
X113300Y396300D01*
X103300D02*
X108300Y401300D01*
X98300Y391300D02*
X103300Y396300D01*
X108300Y391300D01*
X98300Y401300D02*
X103300Y396300D01*
X93465Y376600D02*
X98165Y381300D01*
X93000Y376600D02*
X93465D01*
X98165Y381300D02*
X98300D01*
X93465Y386600D02*
X98165Y391300D01*
X98300D01*
X93000Y386600D02*
X93465D01*
X118300Y391165D02*
X123000Y386465D01*
X118300Y391165D02*
Y391300D01*
X123000Y386000D02*
Y386465D01*
Y386000D02*
X128300Y391300D01*
X123465Y386000D02*
X128165Y381300D01*
X123000Y386000D02*
X123465D01*
X128165Y381300D02*
X128300D01*
X128165Y401300D02*
X128300D01*
X124465Y405000D02*
X128165Y401300D01*
X122000Y405000D02*
X124465D01*
X93000Y406000D02*
X93465D01*
X98165Y401300D02*
X98300D01*
X93465Y406000D02*
X98165Y401300D01*
X79300Y171300D02*
X98300D01*
X79000Y171000D02*
X79300Y171300D01*
X80204Y181204D02*
X88204D01*
X88300Y181300D01*
X118300Y171300D02*
X128300D01*
X108300D02*
X118300D01*
X98300D02*
X108300D01*
X118300Y181300D02*
X128300D01*
X108300D02*
X118300D01*
X98300D02*
X108300D01*
X88300D02*
X98300D01*
X118300Y271300D02*
Y281300D01*
X128300Y271300D02*
Y281300D01*
X124465Y277600D02*
X128165Y281300D01*
X122000Y277600D02*
X124465D01*
X128165Y281300D02*
X128300D01*
X122000Y267600D02*
X124465D01*
X128165Y271300D02*
X128300D01*
X124465Y267600D02*
X128165Y271300D01*
X128300Y281300D02*
Y291300D01*
X88300Y281300D02*
Y291300D01*
Y271300D02*
Y281165D01*
X108300Y281300D02*
Y291300D01*
Y271300D02*
Y281300D01*
X118300D02*
Y291300D01*
X98300Y281300D02*
Y291300D01*
Y271300D02*
Y281300D01*
X108300Y291300D02*
X118300D01*
X98300D02*
X108300D01*
Y281300D02*
X118300D01*
X98300D02*
X108300D01*
Y271300D02*
X118300D01*
X98300D02*
X108300D01*
X124000Y297000D02*
Y297000D01*
X128204Y291396D02*
X128300Y291300D01*
X128204Y291396D02*
Y292796D01*
X124000Y297000D02*
X128204Y292796D01*
X93329Y296135D02*
X98165Y291300D01*
X98300D01*
X93000Y296135D02*
X93329D01*
X93000Y276465D02*
X93329D01*
X98165Y281300D02*
X98300D01*
X93329Y276465D02*
X98165Y281300D01*
X93735Y266000D02*
Y266600D01*
X98300Y271165D02*
Y271300D01*
X93735Y266600D02*
X98300Y271165D01*
X148204Y41204D02*
X148300Y41300D01*
X148100Y38878D02*
X148204Y38982D01*
X148100Y31635D02*
X148331Y31404D01*
X148404D01*
X148204Y38982D02*
Y41204D01*
X148100Y31635D02*
Y38878D01*
Y41635D02*
X148300Y41435D01*
X148204Y50851D02*
Y51187D01*
X148196Y51196D02*
X148204Y51187D01*
X148100Y50746D02*
X148204Y50851D01*
X148100Y41635D02*
Y50746D01*
X138300Y31300D02*
X148300D01*
X128300Y51300D02*
X128300D01*
X118300D02*
X128300D01*
X108300D02*
X118300D01*
X98300D02*
X108300D01*
X88300D02*
X98300D01*
X118300Y61300D02*
X128300D01*
X108300D02*
X118300D01*
X98300D02*
X108300D01*
X88300D02*
X98300D01*
X88204Y61204D02*
X88300Y61300D01*
X83000Y46000D02*
X88300Y51300D01*
X80000Y71000D02*
X80204Y71204D01*
X88204D01*
X88300Y71300D01*
X124000Y47000D02*
X128300Y51300D01*
X128396Y61204D02*
X133796D01*
X134000Y61000D01*
X83204Y61204D02*
X88204D01*
X83000Y61000D02*
X83204Y61204D01*
X118300Y131165D02*
Y131300D01*
X124000Y119000D02*
Y125465D01*
X118300Y131165D02*
X124000Y125465D01*
X118300Y161300D02*
X118396Y161204D01*
Y155604D02*
Y161204D01*
Y155604D02*
X121000Y153000D01*
X158300Y201300D02*
X163000Y206000D01*
X153600Y246000D02*
X158300Y241300D01*
X138300Y251300D02*
X143000Y256000D01*
X143600Y276000D02*
X148300Y271300D01*
X143600Y296600D02*
X148300Y301300D01*
X133600Y356600D02*
X138300Y361300D01*
X128300Y351300D02*
X133000Y346600D01*
X118300Y351300D02*
X123000Y346600D01*
X118300Y361300D02*
X123000Y356600D01*
X88300Y401300D02*
X93000Y406000D01*
X88300Y391300D02*
X93000Y386600D01*
X88300Y381300D02*
X93000Y376600D01*
X118300Y381300D02*
X123000Y386000D01*
X128300Y391300D02*
X132000Y387600D01*
X128435Y271300D02*
X132135Y267600D01*
X128300Y281300D02*
X132000Y277600D01*
X118300Y271300D02*
X122000Y267600D01*
X118300Y281300D02*
X122000Y277600D01*
X128300Y271300D02*
X128435D01*
X118300Y291300D02*
X124000Y297000D01*
X88300Y291300D02*
Y291435D01*
X93000Y296135D01*
X88300Y281165D02*
X93000Y276465D01*
X88300Y281165D02*
Y281300D01*
Y271300D02*
X88435D01*
X93735Y266000D01*
X128300Y61300D02*
X128396Y61204D01*
X58300Y21300D02*
X58396Y21204D01*
Y17604D02*
Y21204D01*
Y17604D02*
X59000Y17000D01*
X118300Y401300D02*
X122000Y405000D01*
D32*
X167000Y141000D02*
X185071D01*
Y190929D01*
Y109929D02*
Y141000D01*
X57515Y341000D02*
X62665Y346150D01*
X63150D01*
X68300Y351300D01*
X49924Y341000D02*
X57515D01*
X30000Y337000D02*
X45924D01*
X49924Y341000D01*
X98300Y343300D02*
Y351300D01*
X93000Y338000D02*
X98300Y343300D01*
X143600Y196600D02*
X148300Y201300D01*
X143600Y196600D02*
Y196600D01*
X197000Y184000D02*
X199000Y182000D01*
Y125000D02*
Y182000D01*
X178000Y198000D02*
X185071Y190929D01*
X182142Y107000D02*
X185071Y109929D01*
X159000Y107000D02*
X182142D01*
X158300Y151300D02*
X165813D01*
X40000Y216000D02*
Y275000D01*
X37000Y213000D02*
X40000Y216000D01*
X143000Y16600D02*
X143300D01*
D33*
X30000Y13000D02*
D03*
X214000Y12000D02*
D03*
D34*
X215000Y439000D02*
D03*
Y50000D02*
D03*
D35*
X34000Y161000D02*
D03*
X36000Y165000D02*
D03*
X32000D02*
D03*
X75000Y366000D02*
D03*
X93000D02*
D03*
X30000Y161000D02*
D03*
X64000Y237000D02*
D03*
X169000Y415000D02*
D03*
X28000Y413000D02*
D03*
Y423000D02*
D03*
X63035Y66465D02*
D03*
X260000Y432000D02*
D03*
Y417000D02*
D03*
Y402000D02*
D03*
Y387000D02*
D03*
Y372000D02*
D03*
Y297000D02*
D03*
Y282000D02*
D03*
Y267000D02*
D03*
Y252000D02*
D03*
Y237000D02*
D03*
Y222000D02*
D03*
Y207000D02*
D03*
Y192000D02*
D03*
Y177000D02*
D03*
Y162000D02*
D03*
Y147000D02*
D03*
Y132000D02*
D03*
X245000Y432000D02*
D03*
Y417000D02*
D03*
Y297000D02*
D03*
Y282000D02*
D03*
Y267000D02*
D03*
Y252000D02*
D03*
Y237000D02*
D03*
Y222000D02*
D03*
Y207000D02*
D03*
Y192000D02*
D03*
Y177000D02*
D03*
Y162000D02*
D03*
Y147000D02*
D03*
Y132000D02*
D03*
X230000Y417000D02*
D03*
Y327000D02*
D03*
Y117000D02*
D03*
Y102000D02*
D03*
Y87000D02*
D03*
Y72000D02*
D03*
Y27000D02*
D03*
Y12000D02*
D03*
X215000Y117000D02*
D03*
Y102000D02*
D03*
Y87000D02*
D03*
X200000Y222000D02*
D03*
Y192000D02*
D03*
Y87000D02*
D03*
Y72000D02*
D03*
Y27000D02*
D03*
X185000Y252000D02*
D03*
Y72000D02*
D03*
Y12000D02*
D03*
X170000Y177000D02*
D03*
Y12000D02*
D03*
X125000Y327000D02*
D03*
X35000Y387000D02*
D03*
Y42000D02*
D03*
X20000Y447000D02*
D03*
Y402000D02*
D03*
Y387000D02*
D03*
Y192000D02*
D03*
Y27000D02*
D03*
Y12000D02*
D03*
X5000Y447000D02*
D03*
Y432000D02*
D03*
Y417000D02*
D03*
Y402000D02*
D03*
Y387000D02*
D03*
Y342000D02*
D03*
Y327000D02*
D03*
Y312000D02*
D03*
Y297000D02*
D03*
Y282000D02*
D03*
Y267000D02*
D03*
Y252000D02*
D03*
Y237000D02*
D03*
Y222000D02*
D03*
Y207000D02*
D03*
Y42000D02*
D03*
Y27000D02*
D03*
Y12000D02*
D03*
X44000Y321000D02*
D03*
X133323Y136277D02*
D03*
X134000Y105000D02*
D03*
X16000Y117500D02*
D03*
X63000Y356600D02*
D03*
X61000Y336000D02*
D03*
X93000Y338000D02*
D03*
X37000Y213000D02*
D03*
X170000Y61000D02*
D03*
X48000Y260000D02*
D03*
X39000Y290000D02*
D03*
X170000Y398000D02*
D03*
X44000Y396000D02*
D03*
X177000Y63000D02*
D03*
X142000Y61000D02*
D03*
X84000Y25000D02*
D03*
X63944D02*
D03*
X64000Y147000D02*
D03*
X73000Y136000D02*
D03*
X72000Y126000D02*
D03*
X93000Y136000D02*
D03*
X94000Y145000D02*
D03*
X142000Y174000D02*
D03*
X143600Y196600D02*
D03*
X154300Y305000D02*
D03*
X153000Y417000D02*
D03*
X136000Y393000D02*
D03*
X144000Y285000D02*
D03*
X162600Y187600D02*
D03*
X72000Y145600D02*
D03*
X77500Y153500D02*
D03*
X72600Y27600D02*
D03*
X64000Y255000D02*
D03*
X72600Y357600D02*
D03*
X134000Y435000D02*
D03*
Y325000D02*
D03*
Y215000D02*
D03*
X153000Y187000D02*
D03*
X54000Y89000D02*
D03*
X93900Y116681D02*
D03*
X98319Y81948D02*
D03*
X75756Y117037D02*
D03*
X90682Y108584D02*
D03*
X119274Y109617D02*
D03*
X107959Y194814D02*
D03*
X91226Y218861D02*
D03*
X137688Y272618D02*
D03*
X137213Y283461D02*
D03*
X76965Y280886D02*
D03*
X77304Y271195D02*
D03*
X124910Y304561D02*
D03*
X107651Y304711D02*
D03*
X123604Y316459D02*
D03*
X119831Y330041D02*
D03*
X91285Y327989D02*
D03*
X136000Y399000D02*
D03*
X79097Y386208D02*
D03*
X79741Y412329D02*
D03*
X107709Y415206D02*
D03*
X123257Y436730D02*
D03*
X123876Y426489D02*
D03*
X123543Y413390D02*
D03*
X98107Y440969D02*
D03*
X103375Y436792D02*
D03*
X93167Y436865D02*
D03*
X16000Y175000D02*
D03*
X21000D02*
D03*
X83600Y206000D02*
D03*
X11000Y115000D02*
D03*
X264000Y306000D02*
D03*
X258000D02*
D03*
X251000D02*
D03*
X264000Y311000D02*
D03*
X258000D02*
D03*
X251000D02*
D03*
X263000Y364000D02*
D03*
X257000D02*
D03*
X263000Y357000D02*
D03*
X257000D02*
D03*
X251000D02*
D03*
X197000Y184000D02*
D03*
X199000Y125000D02*
D03*
X89000Y11000D02*
D03*
X165000Y131000D02*
D03*
X79000Y171000D02*
D03*
X80204Y181204D02*
D03*
X40000Y113000D02*
D03*
X26000Y108000D02*
D03*
X49000Y144000D02*
D03*
X83000Y46000D02*
D03*
X80000Y71000D02*
D03*
X124000Y47000D02*
D03*
Y119000D02*
D03*
X93000Y156600D02*
D03*
X121000Y153000D02*
D03*
X163000Y206000D02*
D03*
X153600Y246000D02*
D03*
X143000Y256000D02*
D03*
X143600Y276000D02*
D03*
Y296600D02*
D03*
X133600Y356600D02*
D03*
X133000Y346600D02*
D03*
X123000D02*
D03*
Y356600D02*
D03*
X93000Y406000D02*
D03*
Y386600D02*
D03*
Y376600D02*
D03*
X123000Y386000D02*
D03*
X132000Y387600D02*
D03*
X132135Y267600D02*
D03*
X132000Y277600D02*
D03*
X122000Y267600D02*
D03*
Y277600D02*
D03*
X124000Y297000D02*
D03*
X93000Y296135D02*
D03*
X93735Y266000D02*
D03*
X93000Y276465D02*
D03*
X83000Y61000D02*
D03*
X134000D02*
D03*
X59000Y17000D02*
D03*
X122000Y405000D02*
D03*
X30000Y337000D02*
D03*
X178000Y198000D02*
D03*
X40000Y275000D02*
D03*
X192000Y278000D02*
D03*
X122000Y40000D02*
D03*
X159000Y107000D02*
D03*
X93256Y246256D02*
D03*
X73000Y246000D02*
D03*
X47000Y120000D02*
D03*
X46000Y114000D02*
D03*
X17026Y165889D02*
D03*
X16893Y170314D02*
D03*
X11000Y164000D02*
D03*
Y168000D02*
D03*
X51000Y165000D02*
D03*
X47000D02*
D03*
X51000Y161000D02*
D03*
X47000D02*
D03*
X40000Y165000D02*
D03*
X21000Y137000D02*
D03*
X30000Y128000D02*
D03*
Y144000D02*
D03*
X24000Y147000D02*
D03*
X30000Y150000D02*
D03*
X18000Y129000D02*
D03*
X16000Y123000D02*
D03*
X234000Y385000D02*
D03*
X243000Y373000D02*
D03*
X193000Y374000D02*
D03*
X183000Y359000D02*
D03*
X224000Y389000D02*
D03*
X244000Y385000D02*
D03*
X176000D02*
D03*
X219000Y406000D02*
D03*
X190000Y404000D02*
D03*
X185325Y415325D02*
D03*
X208000Y415000D02*
D03*
X233000Y403000D02*
D03*
X228000Y410000D02*
D03*
X208000Y349000D02*
D03*
X198000D02*
D03*
X163000Y366600D02*
D03*
X188000Y355000D02*
D03*
X69000Y109000D02*
D03*
X63000Y366000D02*
D03*
X54000Y444000D02*
D03*
X73000Y327000D02*
D03*
X93600Y236600D02*
D03*
X73600D02*
D03*
X69000Y221000D02*
D03*
X63600Y216000D02*
D03*
Y206000D02*
D03*
X73600Y196600D02*
D03*
X63000Y196600D02*
D03*
Y246600D02*
D03*
X93000Y256000D02*
D03*
X73600Y258000D02*
D03*
X63000Y316000D02*
D03*
X63600Y306600D02*
D03*
X63600Y326000D02*
D03*
X93600Y356600D02*
D03*
X73600Y436000D02*
D03*
Y426000D02*
D03*
X63600Y416600D02*
D03*
X53600Y426000D02*
D03*
X143600Y436000D02*
D03*
X143600Y416600D02*
D03*
X123600Y366000D02*
D03*
X163000Y386000D02*
D03*
X163000Y356600D02*
D03*
X143000Y346600D02*
D03*
X143600Y326000D02*
D03*
X133600Y306600D02*
D03*
X143600D02*
D03*
X163000Y276000D02*
D03*
Y266000D02*
D03*
X133000Y256000D02*
D03*
X143600Y236600D02*
D03*
X133600D02*
D03*
Y196600D02*
D03*
X123600Y146000D02*
D03*
X167000Y161000D02*
D03*
Y152000D02*
D03*
Y141000D02*
D03*
X153000Y126600D02*
D03*
X143600Y106000D02*
D03*
X51000Y101000D02*
D03*
X73000Y96000D02*
D03*
X73600Y86600D02*
D03*
X83600Y36000D02*
D03*
X73600D02*
D03*
X153600Y46600D02*
D03*
Y36600D02*
D03*
Y26600D02*
D03*
X143000Y16600D02*
D03*
X123600Y26600D02*
D03*
X113600D02*
D03*
X123000Y16600D02*
D03*
X103600Y26600D02*
D03*
Y16600D02*
D03*
X93600D02*
D03*
X83000Y16600D02*
D03*
X83600Y426000D02*
D03*
Y436000D02*
D03*
X93600Y416600D02*
D03*
X103000Y426600D02*
D03*
X113000Y436000D02*
D03*
Y426000D02*
D03*
X83600Y316000D02*
D03*
Y326000D02*
D03*
X93600Y306600D02*
D03*
X103000Y316600D02*
D03*
X113000Y326000D02*
D03*
Y316000D02*
D03*
X83600Y216000D02*
D03*
X93600Y196600D02*
D03*
X103000Y206600D02*
D03*
X113000Y216000D02*
D03*
Y206000D02*
D03*
Y96000D02*
D03*
Y106000D02*
D03*
X103000Y96600D02*
D03*
X93600Y86600D02*
D03*
X83600Y106000D02*
D03*
Y96000D02*
D03*
D36*
X58300Y21300D02*
D03*
X68300D02*
D03*
X78300D02*
D03*
X88300D02*
D03*
X98300D02*
D03*
X108300D02*
D03*
X118300D02*
D03*
X128300D02*
D03*
X138300D02*
D03*
X148300D02*
D03*
X158300D02*
D03*
X58300Y31300D02*
D03*
X68300D02*
D03*
X78300D02*
D03*
X88300D02*
D03*
X98300D02*
D03*
X108300D02*
D03*
X118300D02*
D03*
X128300D02*
D03*
X138300D02*
D03*
X148300D02*
D03*
X158300D02*
D03*
X58300Y41300D02*
D03*
X68300D02*
D03*
X148300D02*
D03*
X158300D02*
D03*
X58300Y51300D02*
D03*
X68300D02*
D03*
X88300D02*
D03*
X98300D02*
D03*
X108300D02*
D03*
X118300D02*
D03*
X128300D02*
D03*
X148300D02*
D03*
X158300D02*
D03*
X58300Y61300D02*
D03*
X68300D02*
D03*
X88300D02*
D03*
X98300D02*
D03*
X108300D02*
D03*
X118300D02*
D03*
X128300D02*
D03*
X148300D02*
D03*
X158300D02*
D03*
X58300Y71300D02*
D03*
X68300D02*
D03*
X88300D02*
D03*
X98300D02*
D03*
X108300D02*
D03*
X118300D02*
D03*
X128300D02*
D03*
X148300D02*
D03*
X158300D02*
D03*
X58300Y81300D02*
D03*
X68300D02*
D03*
X148300D02*
D03*
X158300D02*
D03*
X58300Y91300D02*
D03*
X68300D02*
D03*
X78300D02*
D03*
X88300D02*
D03*
X98300D02*
D03*
X108300D02*
D03*
X118300D02*
D03*
X128300D02*
D03*
X138300D02*
D03*
X148300D02*
D03*
X158300D02*
D03*
X58300Y101300D02*
D03*
X68300D02*
D03*
X78300D02*
D03*
X88300D02*
D03*
X98300D02*
D03*
X108300D02*
D03*
X118300D02*
D03*
X128300D02*
D03*
X138300D02*
D03*
X148300D02*
D03*
Y211300D02*
D03*
X138300D02*
D03*
X128300D02*
D03*
X118300D02*
D03*
X108300D02*
D03*
X98300D02*
D03*
X88300D02*
D03*
X78300D02*
D03*
X68300D02*
D03*
X58300D02*
D03*
X158300Y201300D02*
D03*
X148300D02*
D03*
X138300D02*
D03*
X128300D02*
D03*
X118300D02*
D03*
X108300D02*
D03*
X98300D02*
D03*
X88300D02*
D03*
X78300D02*
D03*
X68300D02*
D03*
X58300D02*
D03*
X158300Y191300D02*
D03*
X148300D02*
D03*
X68300D02*
D03*
X58300D02*
D03*
X158300Y181300D02*
D03*
X148300D02*
D03*
X128300D02*
D03*
X118300D02*
D03*
X108300D02*
D03*
X98300D02*
D03*
X88300D02*
D03*
X68300D02*
D03*
X58300D02*
D03*
X158300Y171300D02*
D03*
X148300D02*
D03*
X128300D02*
D03*
X118300D02*
D03*
X108300D02*
D03*
X98300D02*
D03*
X88300D02*
D03*
X68300D02*
D03*
X58300D02*
D03*
X158300Y161300D02*
D03*
X148300D02*
D03*
X128300D02*
D03*
X118300D02*
D03*
X108300D02*
D03*
X98300D02*
D03*
X88300D02*
D03*
X68300D02*
D03*
X58300D02*
D03*
X158300Y151300D02*
D03*
X148300D02*
D03*
X68300D02*
D03*
X58300D02*
D03*
X158300Y141300D02*
D03*
X148300D02*
D03*
X138300D02*
D03*
X128300D02*
D03*
X118300D02*
D03*
X108300D02*
D03*
X98300D02*
D03*
X88300D02*
D03*
X78300D02*
D03*
X68300D02*
D03*
X58300D02*
D03*
X158300Y131300D02*
D03*
X148300D02*
D03*
X138300D02*
D03*
X128300D02*
D03*
X118300D02*
D03*
X108300D02*
D03*
X98300D02*
D03*
X88300D02*
D03*
X78300D02*
D03*
X68300D02*
D03*
X58300D02*
D03*
Y241300D02*
D03*
X68300D02*
D03*
X78300D02*
D03*
X88300D02*
D03*
X98300D02*
D03*
X108300D02*
D03*
X118300D02*
D03*
X128300D02*
D03*
X138300D02*
D03*
X148300D02*
D03*
X158300D02*
D03*
X58300Y251300D02*
D03*
X68300D02*
D03*
X78300D02*
D03*
X88300D02*
D03*
X98300D02*
D03*
X108300D02*
D03*
X118300D02*
D03*
X128300D02*
D03*
X138300D02*
D03*
X148300D02*
D03*
X158300D02*
D03*
X58300Y261300D02*
D03*
X68300D02*
D03*
X148300D02*
D03*
X158300D02*
D03*
X58300Y271300D02*
D03*
X68300D02*
D03*
X88300D02*
D03*
X98300D02*
D03*
X108300D02*
D03*
X118300D02*
D03*
X128300D02*
D03*
X148300D02*
D03*
X158300D02*
D03*
X58300Y281300D02*
D03*
X68300D02*
D03*
X88300D02*
D03*
X98300D02*
D03*
X108300D02*
D03*
X118300D02*
D03*
X128300D02*
D03*
X148300D02*
D03*
X158300D02*
D03*
X58300Y291300D02*
D03*
X68300D02*
D03*
X88300D02*
D03*
X98300D02*
D03*
X108300D02*
D03*
X118300D02*
D03*
X128300D02*
D03*
X148300D02*
D03*
X158300D02*
D03*
X58300Y301300D02*
D03*
X68300D02*
D03*
X148300D02*
D03*
X158300D02*
D03*
X58300Y311300D02*
D03*
X68300D02*
D03*
X78300D02*
D03*
X88300D02*
D03*
X98300D02*
D03*
X108300D02*
D03*
X118300D02*
D03*
X128300D02*
D03*
X138300D02*
D03*
X148300D02*
D03*
X158300D02*
D03*
X58300Y321300D02*
D03*
X68300D02*
D03*
X78300D02*
D03*
X88300D02*
D03*
X98300D02*
D03*
X108300D02*
D03*
X118300D02*
D03*
X128300D02*
D03*
X138300D02*
D03*
X148300D02*
D03*
Y431300D02*
D03*
X138300D02*
D03*
X128300D02*
D03*
X118300D02*
D03*
X108300D02*
D03*
X98300D02*
D03*
X88300D02*
D03*
X78300D02*
D03*
X68300D02*
D03*
X58300D02*
D03*
X158300Y421300D02*
D03*
X148300D02*
D03*
X138300D02*
D03*
X128300D02*
D03*
X118300D02*
D03*
X108300D02*
D03*
X98300D02*
D03*
X88300D02*
D03*
X78300D02*
D03*
X68300D02*
D03*
X58300D02*
D03*
X158300Y411300D02*
D03*
X148300D02*
D03*
X68300D02*
D03*
X58300D02*
D03*
X158300Y401300D02*
D03*
X148300D02*
D03*
X128300D02*
D03*
X118300D02*
D03*
X108300D02*
D03*
X98300D02*
D03*
X88300D02*
D03*
X68300D02*
D03*
X58300D02*
D03*
X158300Y391300D02*
D03*
X148300D02*
D03*
X128300D02*
D03*
X118300D02*
D03*
X108300D02*
D03*
X98300D02*
D03*
X88300D02*
D03*
X68300D02*
D03*
X58300D02*
D03*
X158300Y381300D02*
D03*
X148300D02*
D03*
X128300D02*
D03*
X118300D02*
D03*
X108300D02*
D03*
X98300D02*
D03*
X88300D02*
D03*
X68300D02*
D03*
X58300D02*
D03*
X158300Y371300D02*
D03*
X148300D02*
D03*
X68300D02*
D03*
X58300D02*
D03*
X158300Y361300D02*
D03*
X148300D02*
D03*
X138300D02*
D03*
X128300D02*
D03*
X118300D02*
D03*
X108300D02*
D03*
X98300D02*
D03*
X88300D02*
D03*
X78300D02*
D03*
X68300D02*
D03*
X58300D02*
D03*
X158300Y351300D02*
D03*
X148300D02*
D03*
X138300D02*
D03*
X128300D02*
D03*
X118300D02*
D03*
X108300D02*
D03*
X98300D02*
D03*
X88300D02*
D03*
X78300D02*
D03*
X68300D02*
D03*
X58300D02*
D03*
D37*
X25000Y75000D02*
D03*
Y364000D02*
D03*
M02*
