M48
;Layer_Color=9474304
;FILE_FORMAT=4:3
METRIC,TZ
;TYPE=PLATED
T01F00S00C0.200
T02F00S00C0.700
T03F00S00C2.200
%
T01
X500Y1200
X2000
Y2700
X500
Y4200
X3500
X7360Y3600
X7260Y2760
X6394Y2500
X5900Y1700
X8300Y1660
X8400Y2500
X8360Y3600
X8300Y4600
Y6100
X8000Y7100
X6304Y6646
X7360Y8660
X7300Y9600
X8360Y9600
Y10600
X9068Y10858
X9390Y11668
X7576Y11704
X7200Y12600
X7300Y13600
X7200Y14560
X6400Y14700
X4900Y14400
X5100Y16100
Y16500
X4700
Y16100
X4000Y16500
X3600
X3200
X3400Y16100
X3000
Y15000
Y14400
X2400Y14700
X2100Y13700
X1800Y12900
X1600Y12300
Y11750
X1100Y11500
X2600Y10800
X4000Y11300
X4600Y11400
X4700Y12000
X5100Y10100
X5400Y8900
X6900Y10900
X10300Y9660
X11300Y9600
Y10600
X11927Y10962
X12400Y11900
X13400Y10500
X14360Y10600
X15900Y10700
X15300Y12660
X16500Y13100
X16700Y14100
Y15200
Y16100
X17000Y17700
X16260Y18760
X15300Y18700
X14360Y19660
X13360
X13400Y21500
X13360Y23660
X14360
X15360Y24600
X14300Y25600
X13300Y25600
X13214Y26760
X13200Y27760
X12200
Y26760
X13769Y27262
X14360Y27600
X14400Y28500
X13721Y28346
X14360Y29660
Y30660
X13360
X12491Y30456
X12400Y29700
X12360Y31646
X11300Y31600
Y32600
X11983Y33004
X12500Y32700
X13400Y32500
X14360Y32600
X14300Y34660
X13300
X12300
Y35660
X13360
X16300
X18300Y35900
X15430Y30500
X16300Y27600
Y26600
Y20600
X17800Y19800
X14200Y17400
X12100Y15300
X12360Y14600
X13332Y13628
X9300Y13600
X9400Y14500
X9300Y15660
X7750Y15350
X7900Y17100
X8020Y18120
X7360Y19660
X6300Y19660
X6360Y20600
Y21600
X6900Y22100
X8360Y21600
Y20600
X9360Y19660
X10796Y19481
X11300Y20600
Y21600
X10300Y20660
X9123Y21886
X9360Y23660
X9326Y24626
X9300Y25600
X9374Y26600
X9300Y27646
Y29614
X9360Y30660
X10765Y30471
X10300Y31660
X8360Y31600
Y32600
X9129Y32799
X9300Y33800
X9360Y35660
X7260Y35760
X6300Y35660
X6100Y33600
X6360Y32600
X7300Y32700
X6300Y31600
X6360Y30660
X4400Y32100
X3000Y33700
X500Y34200
Y32700
Y31200
Y29700
Y28200
Y26700
Y25200
Y23700
Y22200
Y20700
X2000Y19200
X2100Y17500
X1600
X1689Y17031
X1703Y16589
X1100Y16400
Y16800
X3000Y12800
X3700Y21300
X6400Y23700
X7360Y23660
X7300Y24600
X6300Y24660
X6400Y25500
X7360Y25800
X7730Y27119
X7696Y28089
X4000Y27500
X3900Y29000
X4800Y26000
X9360Y8660
X9832Y8195
X13400Y6100
X14200
X15360Y4660
Y3660
Y2660
X14300Y1660
X12300
X12360Y2660
X11360
X10360
Y1660
X9360
X8900Y1100
X12200Y4000
X12400Y4700
X17000Y6100
X17700Y6300
X17000Y1200
X18500
X20000Y2700
X23000
Y1200
Y7200
Y8700
Y10200
Y11700
X21500
Y10200
Y8700
X20000
Y7200
X18500
X19900Y12500
X24500Y13200
X26000
Y14700
Y16200
Y17700
Y19200
Y20700
Y22200
Y23700
Y25200
Y26700
Y28200
Y29700
X25800Y30600
Y31100
X26400
Y30600
X25100
Y31100
X24500Y29700
Y28200
Y26700
Y25200
Y23700
Y22200
Y20700
Y19200
Y17700
Y16200
Y14700
X19700Y18400
X20000Y19200
Y22200
X18500Y25200
X19200Y27800
X19800Y34900
X20800
X18800Y35500
X25100Y35700
X25700
X26300
X23000Y32700
X24300Y37300
X24400Y38500
X23400
X22400Y38900
X21900Y40600
X22800Y41000
X23000Y41700
X24500
X26000
Y43200
X24500
X23300Y40300
X26000Y40200
Y38700
Y37200
X25700Y36400
X26300
X19300Y37400
X19000Y40400
X18533Y41533
X20800Y41500
X16900
X15300Y41700
X14360Y41660
X14360Y43600
X13400Y43500
X12326Y43673
X12388Y42649
X11300Y42600
Y43600
X10338Y43679
X9811Y44097
X9317Y43687
X8360Y43600
X7360
Y42600
X8360
X7974Y41233
X9360Y41660
X9300Y40600
Y38660
Y37660
Y36600
X7500
X6300
X7910Y38621
X12300Y38600
X13200Y38760
X13600Y39300
Y39900
X12200Y40500
X12354Y41339
X10771Y41521
X10300Y42660
X6360Y41660
X5360Y42600
X5400Y44400
X2000Y44700
X500
Y43200
Y41700
Y40200
X2000
Y38700
X3500
X4400Y39600
X2800Y41300
Y42300
X500Y38700
X12360Y36600
X16300Y36660
X16300Y38600
X17600Y38500
X17000Y39800
T02
X3000Y1300
X21400Y1200
T03
X2500Y7500
X21500Y5000
Y43900
X2500Y36400
M30
