G04*
G04 #@! TF.GenerationSoftware,Altium Limited,Altium Designer,24.9.1 (31)*
G04*
G04 Layer_Color=2752767*
%FSLAX44Y44*%
%MOMM*%
G71*
G04*
G04 #@! TF.SameCoordinates,5A5FE6A1-42EB-4B62-8C37-2C097A76047A*
G04*
G04*
G04 #@! TF.FilePolarity,Positive*
G04*
G01*
G75*
%ADD13C,0.1270*%
%ADD42C,0.1693*%
D13*
X30000Y7920D02*
X24920Y18080D01*
X35080D01*
X30000Y7920D01*
X214000Y6920D02*
X208920Y17080D01*
X219080D01*
X214000Y6920D01*
X209920Y433920D02*
Y444080D01*
X220080D01*
Y433920D01*
X209920D01*
X19920Y69920D02*
Y80080D01*
X30080D01*
Y69920D01*
X19920D01*
X209920Y44920D02*
Y55080D01*
X220080D01*
Y44920D01*
X209920D01*
X19920Y358920D02*
Y369080D01*
X30080D01*
Y358920D01*
X19920D01*
D42*
X39080Y161000D02*
G03*
X39080Y161000I-5080J0D01*
G01*
X41080Y165000D02*
G03*
X41080Y165000I-5080J0D01*
G01*
X37080D02*
G03*
X37080Y165000I-5080J0D01*
G01*
X80080Y366000D02*
G03*
X80080Y366000I-5080J0D01*
G01*
X98080D02*
G03*
X98080Y366000I-5080J0D01*
G01*
X35080Y161000D02*
G03*
X35080Y161000I-5080J0D01*
G01*
X69080Y237000D02*
G03*
X69080Y237000I-5080J0D01*
G01*
X174080Y415000D02*
G03*
X174080Y415000I-5080J0D01*
G01*
X33080Y413000D02*
G03*
X33080Y413000I-5080J0D01*
G01*
Y423000D02*
G03*
X33080Y423000I-5080J0D01*
G01*
X68116Y66465D02*
G03*
X68116Y66465I-5080J0D01*
G01*
X265080Y432000D02*
G03*
X265080Y432000I-5080J0D01*
G01*
Y417000D02*
G03*
X265080Y417000I-5080J0D01*
G01*
Y402000D02*
G03*
X265080Y402000I-5080J0D01*
G01*
Y387000D02*
G03*
X265080Y387000I-5080J0D01*
G01*
Y372000D02*
G03*
X265080Y372000I-5080J0D01*
G01*
Y297000D02*
G03*
X265080Y297000I-5080J0D01*
G01*
Y282000D02*
G03*
X265080Y282000I-5080J0D01*
G01*
Y267000D02*
G03*
X265080Y267000I-5080J0D01*
G01*
Y252000D02*
G03*
X265080Y252000I-5080J0D01*
G01*
Y237000D02*
G03*
X265080Y237000I-5080J0D01*
G01*
Y222000D02*
G03*
X265080Y222000I-5080J0D01*
G01*
Y207000D02*
G03*
X265080Y207000I-5080J0D01*
G01*
Y192000D02*
G03*
X265080Y192000I-5080J0D01*
G01*
Y177000D02*
G03*
X265080Y177000I-5080J0D01*
G01*
Y162000D02*
G03*
X265080Y162000I-5080J0D01*
G01*
Y147000D02*
G03*
X265080Y147000I-5080J0D01*
G01*
Y132000D02*
G03*
X265080Y132000I-5080J0D01*
G01*
X250080Y432000D02*
G03*
X250080Y432000I-5080J0D01*
G01*
Y417000D02*
G03*
X250080Y417000I-5080J0D01*
G01*
Y297000D02*
G03*
X250080Y297000I-5080J0D01*
G01*
Y282000D02*
G03*
X250080Y282000I-5080J0D01*
G01*
Y267000D02*
G03*
X250080Y267000I-5080J0D01*
G01*
Y252000D02*
G03*
X250080Y252000I-5080J0D01*
G01*
Y237000D02*
G03*
X250080Y237000I-5080J0D01*
G01*
Y222000D02*
G03*
X250080Y222000I-5080J0D01*
G01*
Y207000D02*
G03*
X250080Y207000I-5080J0D01*
G01*
Y192000D02*
G03*
X250080Y192000I-5080J0D01*
G01*
Y177000D02*
G03*
X250080Y177000I-5080J0D01*
G01*
Y162000D02*
G03*
X250080Y162000I-5080J0D01*
G01*
Y147000D02*
G03*
X250080Y147000I-5080J0D01*
G01*
Y132000D02*
G03*
X250080Y132000I-5080J0D01*
G01*
X235080Y417000D02*
G03*
X235080Y417000I-5080J0D01*
G01*
Y327000D02*
G03*
X235080Y327000I-5080J0D01*
G01*
Y117000D02*
G03*
X235080Y117000I-5080J0D01*
G01*
Y102000D02*
G03*
X235080Y102000I-5080J0D01*
G01*
Y87000D02*
G03*
X235080Y87000I-5080J0D01*
G01*
Y72000D02*
G03*
X235080Y72000I-5080J0D01*
G01*
Y27000D02*
G03*
X235080Y27000I-5080J0D01*
G01*
Y12000D02*
G03*
X235080Y12000I-5080J0D01*
G01*
X220080Y117000D02*
G03*
X220080Y117000I-5080J0D01*
G01*
Y102000D02*
G03*
X220080Y102000I-5080J0D01*
G01*
Y87000D02*
G03*
X220080Y87000I-5080J0D01*
G01*
X205080Y222000D02*
G03*
X205080Y222000I-5080J0D01*
G01*
Y192000D02*
G03*
X205080Y192000I-5080J0D01*
G01*
Y87000D02*
G03*
X205080Y87000I-5080J0D01*
G01*
Y72000D02*
G03*
X205080Y72000I-5080J0D01*
G01*
Y27000D02*
G03*
X205080Y27000I-5080J0D01*
G01*
X190080Y252000D02*
G03*
X190080Y252000I-5080J0D01*
G01*
Y72000D02*
G03*
X190080Y72000I-5080J0D01*
G01*
Y12000D02*
G03*
X190080Y12000I-5080J0D01*
G01*
X175080Y177000D02*
G03*
X175080Y177000I-5080J0D01*
G01*
Y12000D02*
G03*
X175080Y12000I-5080J0D01*
G01*
X130080Y327000D02*
G03*
X130080Y327000I-5080J0D01*
G01*
X40080Y387000D02*
G03*
X40080Y387000I-5080J0D01*
G01*
Y42000D02*
G03*
X40080Y42000I-5080J0D01*
G01*
X25080Y447000D02*
G03*
X25080Y447000I-5080J0D01*
G01*
Y402000D02*
G03*
X25080Y402000I-5080J0D01*
G01*
Y387000D02*
G03*
X25080Y387000I-5080J0D01*
G01*
Y192000D02*
G03*
X25080Y192000I-5080J0D01*
G01*
Y27000D02*
G03*
X25080Y27000I-5080J0D01*
G01*
Y12000D02*
G03*
X25080Y12000I-5080J0D01*
G01*
X10080Y447000D02*
G03*
X10080Y447000I-5080J0D01*
G01*
Y432000D02*
G03*
X10080Y432000I-5080J0D01*
G01*
Y417000D02*
G03*
X10080Y417000I-5080J0D01*
G01*
Y402000D02*
G03*
X10080Y402000I-5080J0D01*
G01*
Y387000D02*
G03*
X10080Y387000I-5080J0D01*
G01*
Y342000D02*
G03*
X10080Y342000I-5080J0D01*
G01*
Y327000D02*
G03*
X10080Y327000I-5080J0D01*
G01*
Y312000D02*
G03*
X10080Y312000I-5080J0D01*
G01*
Y297000D02*
G03*
X10080Y297000I-5080J0D01*
G01*
Y282000D02*
G03*
X10080Y282000I-5080J0D01*
G01*
Y267000D02*
G03*
X10080Y267000I-5080J0D01*
G01*
Y252000D02*
G03*
X10080Y252000I-5080J0D01*
G01*
Y237000D02*
G03*
X10080Y237000I-5080J0D01*
G01*
Y222000D02*
G03*
X10080Y222000I-5080J0D01*
G01*
Y207000D02*
G03*
X10080Y207000I-5080J0D01*
G01*
Y42000D02*
G03*
X10080Y42000I-5080J0D01*
G01*
Y27000D02*
G03*
X10080Y27000I-5080J0D01*
G01*
Y12000D02*
G03*
X10080Y12000I-5080J0D01*
G01*
X49080Y321000D02*
G03*
X49080Y321000I-5080J0D01*
G01*
X138403Y136277D02*
G03*
X138403Y136277I-5080J0D01*
G01*
X139080Y105000D02*
G03*
X139080Y105000I-5080J0D01*
G01*
X21080Y117500D02*
G03*
X21080Y117500I-5080J0D01*
G01*
X68080Y356600D02*
G03*
X68080Y356600I-5080J0D01*
G01*
X66080Y336000D02*
G03*
X66080Y336000I-5080J0D01*
G01*
X98080Y338000D02*
G03*
X98080Y338000I-5080J0D01*
G01*
X42080Y213000D02*
G03*
X42080Y213000I-5080J0D01*
G01*
X175080Y61000D02*
G03*
X175080Y61000I-5080J0D01*
G01*
X53080Y260000D02*
G03*
X53080Y260000I-5080J0D01*
G01*
X44080Y290000D02*
G03*
X44080Y290000I-5080J0D01*
G01*
X175080Y398000D02*
G03*
X175080Y398000I-5080J0D01*
G01*
X49080Y396000D02*
G03*
X49080Y396000I-5080J0D01*
G01*
X182080Y63000D02*
G03*
X182080Y63000I-5080J0D01*
G01*
X147080Y61000D02*
G03*
X147080Y61000I-5080J0D01*
G01*
X89080Y25000D02*
G03*
X89080Y25000I-5080J0D01*
G01*
X69024D02*
G03*
X69024Y25000I-5080J0D01*
G01*
X69080Y147000D02*
G03*
X69080Y147000I-5080J0D01*
G01*
X78080Y136000D02*
G03*
X78080Y136000I-5080J0D01*
G01*
X77080Y126000D02*
G03*
X77080Y126000I-5080J0D01*
G01*
X98080Y136000D02*
G03*
X98080Y136000I-5080J0D01*
G01*
X99080Y145000D02*
G03*
X99080Y145000I-5080J0D01*
G01*
X147080Y174000D02*
G03*
X147080Y174000I-5080J0D01*
G01*
X148680Y196600D02*
G03*
X148680Y196600I-5080J0D01*
G01*
X159380Y305000D02*
G03*
X159380Y305000I-5080J0D01*
G01*
X158080Y417000D02*
G03*
X158080Y417000I-5080J0D01*
G01*
X141080Y393000D02*
G03*
X141080Y393000I-5080J0D01*
G01*
X149080Y285000D02*
G03*
X149080Y285000I-5080J0D01*
G01*
X167680Y187600D02*
G03*
X167680Y187600I-5080J0D01*
G01*
X77080Y145600D02*
G03*
X77080Y145600I-5080J0D01*
G01*
X82580Y153500D02*
G03*
X82580Y153500I-5080J0D01*
G01*
X77680Y27600D02*
G03*
X77680Y27600I-5080J0D01*
G01*
X69080Y255000D02*
G03*
X69080Y255000I-5080J0D01*
G01*
X77680Y357600D02*
G03*
X77680Y357600I-5080J0D01*
G01*
X139080Y435000D02*
G03*
X139080Y435000I-5080J0D01*
G01*
Y325000D02*
G03*
X139080Y325000I-5080J0D01*
G01*
Y215000D02*
G03*
X139080Y215000I-5080J0D01*
G01*
X158080Y187000D02*
G03*
X158080Y187000I-5080J0D01*
G01*
X59080Y89000D02*
G03*
X59080Y89000I-5080J0D01*
G01*
X98981Y116681D02*
G03*
X98981Y116681I-5080J0D01*
G01*
X103399Y81948D02*
G03*
X103399Y81948I-5080J0D01*
G01*
X80836Y117037D02*
G03*
X80836Y117037I-5080J0D01*
G01*
X95762Y108584D02*
G03*
X95762Y108584I-5080J0D01*
G01*
X124354Y109617D02*
G03*
X124354Y109617I-5080J0D01*
G01*
X113039Y194814D02*
G03*
X113039Y194814I-5080J0D01*
G01*
X96306Y218861D02*
G03*
X96306Y218861I-5080J0D01*
G01*
X142768Y272618D02*
G03*
X142768Y272618I-5080J0D01*
G01*
X142293Y283461D02*
G03*
X142293Y283461I-5080J0D01*
G01*
X82045Y280886D02*
G03*
X82045Y280886I-5080J0D01*
G01*
X82384Y271195D02*
G03*
X82384Y271195I-5080J0D01*
G01*
X129990Y304561D02*
G03*
X129990Y304561I-5080J0D01*
G01*
X112731Y304711D02*
G03*
X112731Y304711I-5080J0D01*
G01*
X128684Y316459D02*
G03*
X128684Y316459I-5080J0D01*
G01*
X124911Y330041D02*
G03*
X124911Y330041I-5080J0D01*
G01*
X96365Y327989D02*
G03*
X96365Y327989I-5080J0D01*
G01*
X141080Y399000D02*
G03*
X141080Y399000I-5080J0D01*
G01*
X84177Y386208D02*
G03*
X84177Y386208I-5080J0D01*
G01*
X84821Y412329D02*
G03*
X84821Y412329I-5080J0D01*
G01*
X112789Y415206D02*
G03*
X112789Y415206I-5080J0D01*
G01*
X128337Y436730D02*
G03*
X128337Y436730I-5080J0D01*
G01*
X128956Y426489D02*
G03*
X128956Y426489I-5080J0D01*
G01*
X128623Y413390D02*
G03*
X128623Y413390I-5080J0D01*
G01*
X103187Y440969D02*
G03*
X103187Y440969I-5080J0D01*
G01*
X108455Y436792D02*
G03*
X108455Y436792I-5080J0D01*
G01*
X98247Y436865D02*
G03*
X98247Y436865I-5080J0D01*
G01*
X21080Y175000D02*
G03*
X21080Y175000I-5080J0D01*
G01*
X26080D02*
G03*
X26080Y175000I-5080J0D01*
G01*
X88680Y206000D02*
G03*
X88680Y206000I-5080J0D01*
G01*
X16080Y115000D02*
G03*
X16080Y115000I-5080J0D01*
G01*
X269080Y306000D02*
G03*
X269080Y306000I-5080J0D01*
G01*
X263080D02*
G03*
X263080Y306000I-5080J0D01*
G01*
X256080D02*
G03*
X256080Y306000I-5080J0D01*
G01*
X269080Y311000D02*
G03*
X269080Y311000I-5080J0D01*
G01*
X263080D02*
G03*
X263080Y311000I-5080J0D01*
G01*
X256080D02*
G03*
X256080Y311000I-5080J0D01*
G01*
X268080Y364000D02*
G03*
X268080Y364000I-5080J0D01*
G01*
X262080D02*
G03*
X262080Y364000I-5080J0D01*
G01*
X268080Y357000D02*
G03*
X268080Y357000I-5080J0D01*
G01*
X262080D02*
G03*
X262080Y357000I-5080J0D01*
G01*
X256080D02*
G03*
X256080Y357000I-5080J0D01*
G01*
X202080Y184000D02*
G03*
X202080Y184000I-5080J0D01*
G01*
X204080Y125000D02*
G03*
X204080Y125000I-5080J0D01*
G01*
X94080Y11000D02*
G03*
X94080Y11000I-5080J0D01*
G01*
X170080Y131000D02*
G03*
X170080Y131000I-5080J0D01*
G01*
X84080Y171000D02*
G03*
X84080Y171000I-5080J0D01*
G01*
X85284Y181204D02*
G03*
X85284Y181204I-5080J0D01*
G01*
X45080Y113000D02*
G03*
X45080Y113000I-5080J0D01*
G01*
X31080Y108000D02*
G03*
X31080Y108000I-5080J0D01*
G01*
X54080Y144000D02*
G03*
X54080Y144000I-5080J0D01*
G01*
X88080Y46000D02*
G03*
X88080Y46000I-5080J0D01*
G01*
X85080Y71000D02*
G03*
X85080Y71000I-5080J0D01*
G01*
X129080Y47000D02*
G03*
X129080Y47000I-5080J0D01*
G01*
Y119000D02*
G03*
X129080Y119000I-5080J0D01*
G01*
X98080Y156600D02*
G03*
X98080Y156600I-5080J0D01*
G01*
X126080Y153000D02*
G03*
X126080Y153000I-5080J0D01*
G01*
X168080Y206000D02*
G03*
X168080Y206000I-5080J0D01*
G01*
X158680Y246000D02*
G03*
X158680Y246000I-5080J0D01*
G01*
X148080Y256000D02*
G03*
X148080Y256000I-5080J0D01*
G01*
X148680Y276000D02*
G03*
X148680Y276000I-5080J0D01*
G01*
Y296600D02*
G03*
X148680Y296600I-5080J0D01*
G01*
X138680Y356600D02*
G03*
X138680Y356600I-5080J0D01*
G01*
X138080Y346600D02*
G03*
X138080Y346600I-5080J0D01*
G01*
X128080D02*
G03*
X128080Y346600I-5080J0D01*
G01*
Y356600D02*
G03*
X128080Y356600I-5080J0D01*
G01*
X98080Y406000D02*
G03*
X98080Y406000I-5080J0D01*
G01*
Y386600D02*
G03*
X98080Y386600I-5080J0D01*
G01*
Y376600D02*
G03*
X98080Y376600I-5080J0D01*
G01*
X128080Y386000D02*
G03*
X128080Y386000I-5080J0D01*
G01*
X137080Y387600D02*
G03*
X137080Y387600I-5080J0D01*
G01*
X137215Y267600D02*
G03*
X137215Y267600I-5080J0D01*
G01*
X137080Y277600D02*
G03*
X137080Y277600I-5080J0D01*
G01*
X127080Y267600D02*
G03*
X127080Y267600I-5080J0D01*
G01*
Y277600D02*
G03*
X127080Y277600I-5080J0D01*
G01*
X129080Y297000D02*
G03*
X129080Y297000I-5080J0D01*
G01*
X98080Y296135D02*
G03*
X98080Y296135I-5080J0D01*
G01*
X98815Y266000D02*
G03*
X98815Y266000I-5080J0D01*
G01*
X98080Y276465D02*
G03*
X98080Y276465I-5080J0D01*
G01*
X88080Y61000D02*
G03*
X88080Y61000I-5080J0D01*
G01*
X139080D02*
G03*
X139080Y61000I-5080J0D01*
G01*
X64080Y17000D02*
G03*
X64080Y17000I-5080J0D01*
G01*
X127080Y405000D02*
G03*
X127080Y405000I-5080J0D01*
G01*
X35080Y337000D02*
G03*
X35080Y337000I-5080J0D01*
G01*
X183080Y198000D02*
G03*
X183080Y198000I-5080J0D01*
G01*
X45080Y275000D02*
G03*
X45080Y275000I-5080J0D01*
G01*
X197080Y278000D02*
G03*
X197080Y278000I-5080J0D01*
G01*
X127080Y40000D02*
G03*
X127080Y40000I-5080J0D01*
G01*
X164080Y107000D02*
G03*
X164080Y107000I-5080J0D01*
G01*
X98336Y246256D02*
G03*
X98336Y246256I-5080J0D01*
G01*
X78080Y246000D02*
G03*
X78080Y246000I-5080J0D01*
G01*
X52080Y120000D02*
G03*
X52080Y120000I-5080J0D01*
G01*
X51080Y114000D02*
G03*
X51080Y114000I-5080J0D01*
G01*
X22106Y165889D02*
G03*
X22106Y165889I-5080J0D01*
G01*
X21973Y170314D02*
G03*
X21973Y170314I-5080J0D01*
G01*
X16080Y164000D02*
G03*
X16080Y164000I-5080J0D01*
G01*
Y168000D02*
G03*
X16080Y168000I-5080J0D01*
G01*
X56080Y165000D02*
G03*
X56080Y165000I-5080J0D01*
G01*
X52080D02*
G03*
X52080Y165000I-5080J0D01*
G01*
X56080Y161000D02*
G03*
X56080Y161000I-5080J0D01*
G01*
X52080D02*
G03*
X52080Y161000I-5080J0D01*
G01*
X45080Y165000D02*
G03*
X45080Y165000I-5080J0D01*
G01*
X26080Y137000D02*
G03*
X26080Y137000I-5080J0D01*
G01*
X35080Y128000D02*
G03*
X35080Y128000I-5080J0D01*
G01*
Y144000D02*
G03*
X35080Y144000I-5080J0D01*
G01*
X29080Y147000D02*
G03*
X29080Y147000I-5080J0D01*
G01*
X35080Y150000D02*
G03*
X35080Y150000I-5080J0D01*
G01*
X23080Y129000D02*
G03*
X23080Y129000I-5080J0D01*
G01*
X21080Y123000D02*
G03*
X21080Y123000I-5080J0D01*
G01*
X239080Y385000D02*
G03*
X239080Y385000I-5080J0D01*
G01*
X248080Y373000D02*
G03*
X248080Y373000I-5080J0D01*
G01*
X198080Y374000D02*
G03*
X198080Y374000I-5080J0D01*
G01*
X188080Y359000D02*
G03*
X188080Y359000I-5080J0D01*
G01*
X229080Y389000D02*
G03*
X229080Y389000I-5080J0D01*
G01*
X249080Y385000D02*
G03*
X249080Y385000I-5080J0D01*
G01*
X181080D02*
G03*
X181080Y385000I-5080J0D01*
G01*
X224080Y406000D02*
G03*
X224080Y406000I-5080J0D01*
G01*
X195080Y404000D02*
G03*
X195080Y404000I-5080J0D01*
G01*
X190405Y415325D02*
G03*
X190405Y415325I-5080J0D01*
G01*
X213080Y415000D02*
G03*
X213080Y415000I-5080J0D01*
G01*
X238080Y403000D02*
G03*
X238080Y403000I-5080J0D01*
G01*
X233080Y410000D02*
G03*
X233080Y410000I-5080J0D01*
G01*
X213080Y349000D02*
G03*
X213080Y349000I-5080J0D01*
G01*
X203080D02*
G03*
X203080Y349000I-5080J0D01*
G01*
X168080Y366600D02*
G03*
X168080Y366600I-5080J0D01*
G01*
X193080Y355000D02*
G03*
X193080Y355000I-5080J0D01*
G01*
X74080Y109000D02*
G03*
X74080Y109000I-5080J0D01*
G01*
X68080Y366000D02*
G03*
X68080Y366000I-5080J0D01*
G01*
X59080Y444000D02*
G03*
X59080Y444000I-5080J0D01*
G01*
X78080Y327000D02*
G03*
X78080Y327000I-5080J0D01*
G01*
X98680Y236600D02*
G03*
X98680Y236600I-5080J0D01*
G01*
X78680D02*
G03*
X78680Y236600I-5080J0D01*
G01*
X74080Y221000D02*
G03*
X74080Y221000I-5080J0D01*
G01*
X68680Y216000D02*
G03*
X68680Y216000I-5080J0D01*
G01*
Y206000D02*
G03*
X68680Y206000I-5080J0D01*
G01*
X78680Y196600D02*
G03*
X78680Y196600I-5080J0D01*
G01*
X68080Y196600D02*
G03*
X68080Y196600I-5080J0D01*
G01*
Y246600D02*
G03*
X68080Y246600I-5080J0D01*
G01*
X98080Y256000D02*
G03*
X98080Y256000I-5080J0D01*
G01*
X78680Y258000D02*
G03*
X78680Y258000I-5080J0D01*
G01*
X68080Y316000D02*
G03*
X68080Y316000I-5080J0D01*
G01*
X68680Y306600D02*
G03*
X68680Y306600I-5080J0D01*
G01*
X68680Y326000D02*
G03*
X68680Y326000I-5080J0D01*
G01*
X98680Y356600D02*
G03*
X98680Y356600I-5080J0D01*
G01*
X78680Y436000D02*
G03*
X78680Y436000I-5080J0D01*
G01*
Y426000D02*
G03*
X78680Y426000I-5080J0D01*
G01*
X68680Y416600D02*
G03*
X68680Y416600I-5080J0D01*
G01*
X58680Y426000D02*
G03*
X58680Y426000I-5080J0D01*
G01*
X148680Y436000D02*
G03*
X148680Y436000I-5080J0D01*
G01*
X148680Y416600D02*
G03*
X148680Y416600I-5080J0D01*
G01*
X128680Y366000D02*
G03*
X128680Y366000I-5080J0D01*
G01*
X168080Y386000D02*
G03*
X168080Y386000I-5080J0D01*
G01*
X168080Y356600D02*
G03*
X168080Y356600I-5080J0D01*
G01*
X148080Y346600D02*
G03*
X148080Y346600I-5080J0D01*
G01*
X148680Y326000D02*
G03*
X148680Y326000I-5080J0D01*
G01*
X138680Y306600D02*
G03*
X138680Y306600I-5080J0D01*
G01*
X148680D02*
G03*
X148680Y306600I-5080J0D01*
G01*
X168080Y276000D02*
G03*
X168080Y276000I-5080J0D01*
G01*
Y266000D02*
G03*
X168080Y266000I-5080J0D01*
G01*
X138080Y256000D02*
G03*
X138080Y256000I-5080J0D01*
G01*
X148680Y236600D02*
G03*
X148680Y236600I-5080J0D01*
G01*
X138680D02*
G03*
X138680Y236600I-5080J0D01*
G01*
Y196600D02*
G03*
X138680Y196600I-5080J0D01*
G01*
X128680Y146000D02*
G03*
X128680Y146000I-5080J0D01*
G01*
X172080Y161000D02*
G03*
X172080Y161000I-5080J0D01*
G01*
Y152000D02*
G03*
X172080Y152000I-5080J0D01*
G01*
Y141000D02*
G03*
X172080Y141000I-5080J0D01*
G01*
X158080Y126600D02*
G03*
X158080Y126600I-5080J0D01*
G01*
X148680Y106000D02*
G03*
X148680Y106000I-5080J0D01*
G01*
X56080Y101000D02*
G03*
X56080Y101000I-5080J0D01*
G01*
X78080Y96000D02*
G03*
X78080Y96000I-5080J0D01*
G01*
X78680Y86600D02*
G03*
X78680Y86600I-5080J0D01*
G01*
X88680Y36000D02*
G03*
X88680Y36000I-5080J0D01*
G01*
X78680D02*
G03*
X78680Y36000I-5080J0D01*
G01*
X158680Y46600D02*
G03*
X158680Y46600I-5080J0D01*
G01*
Y36600D02*
G03*
X158680Y36600I-5080J0D01*
G01*
Y26600D02*
G03*
X158680Y26600I-5080J0D01*
G01*
X148080Y16600D02*
G03*
X148080Y16600I-5080J0D01*
G01*
X128680Y26600D02*
G03*
X128680Y26600I-5080J0D01*
G01*
X118680D02*
G03*
X118680Y26600I-5080J0D01*
G01*
X128080Y16600D02*
G03*
X128080Y16600I-5080J0D01*
G01*
X108680Y26600D02*
G03*
X108680Y26600I-5080J0D01*
G01*
Y16600D02*
G03*
X108680Y16600I-5080J0D01*
G01*
X98680D02*
G03*
X98680Y16600I-5080J0D01*
G01*
X88080Y16600D02*
G03*
X88080Y16600I-5080J0D01*
G01*
X88680Y426000D02*
G03*
X88680Y426000I-5080J0D01*
G01*
Y436000D02*
G03*
X88680Y436000I-5080J0D01*
G01*
X98680Y416600D02*
G03*
X98680Y416600I-5080J0D01*
G01*
X108080Y426600D02*
G03*
X108080Y426600I-5080J0D01*
G01*
X118080Y436000D02*
G03*
X118080Y436000I-5080J0D01*
G01*
Y426000D02*
G03*
X118080Y426000I-5080J0D01*
G01*
X88680Y316000D02*
G03*
X88680Y316000I-5080J0D01*
G01*
Y326000D02*
G03*
X88680Y326000I-5080J0D01*
G01*
X98680Y306600D02*
G03*
X98680Y306600I-5080J0D01*
G01*
X108080Y316600D02*
G03*
X108080Y316600I-5080J0D01*
G01*
X118080Y326000D02*
G03*
X118080Y326000I-5080J0D01*
G01*
Y316000D02*
G03*
X118080Y316000I-5080J0D01*
G01*
X88680Y216000D02*
G03*
X88680Y216000I-5080J0D01*
G01*
X98680Y196600D02*
G03*
X98680Y196600I-5080J0D01*
G01*
X108080Y206600D02*
G03*
X108080Y206600I-5080J0D01*
G01*
X118080Y216000D02*
G03*
X118080Y216000I-5080J0D01*
G01*
Y206000D02*
G03*
X118080Y206000I-5080J0D01*
G01*
Y96000D02*
G03*
X118080Y96000I-5080J0D01*
G01*
Y106000D02*
G03*
X118080Y106000I-5080J0D01*
G01*
X108080Y96600D02*
G03*
X108080Y96600I-5080J0D01*
G01*
X98680Y86600D02*
G03*
X98680Y86600I-5080J0D01*
G01*
X88680Y106000D02*
G03*
X88680Y106000I-5080J0D01*
G01*
Y96000D02*
G03*
X88680Y96000I-5080J0D01*
G01*
M02*
