G04*
G04 #@! TF.GenerationSoftware,Altium Limited,Altium Designer,24.9.1 (31)*
G04*
G04 Layer_Color=128*
%FSLAX44Y44*%
%MOMM*%
G71*
G04*
G04 #@! TF.SameCoordinates,5A5FE6A1-42EB-4B62-8C37-2C097A76047A*
G04*
G04*
G04 #@! TF.FilePolarity,Positive*
G04*
G01*
G75*
%ADD13C,0.1270*%
D13*
X26500Y13000D02*
X33500D01*
X30000Y9500D02*
Y16500D01*
X210500Y12000D02*
X217500D01*
X214000Y8500D02*
Y15500D01*
X204000Y439000D02*
X226000D01*
X215000Y428000D02*
Y450000D01*
X14000Y75000D02*
X36000D01*
X25000Y64000D02*
Y86000D01*
X204000Y50000D02*
X226000D01*
X215000Y39000D02*
Y61000D01*
X14000Y364000D02*
X36000D01*
X25000Y353000D02*
Y375000D01*
X33000Y161000D02*
X35000D01*
X34000Y160000D02*
Y162000D01*
X35000Y165000D02*
X37000D01*
X36000Y164000D02*
Y166000D01*
X31000Y165000D02*
X33000D01*
X32000Y164000D02*
Y166000D01*
X74000Y366000D02*
X76000D01*
X75000Y365000D02*
Y367000D01*
X92000Y366000D02*
X94000D01*
X93000Y365000D02*
Y367000D01*
X29000Y161000D02*
X31000D01*
X30000Y160000D02*
Y162000D01*
X63000Y237000D02*
X65000D01*
X64000Y236000D02*
Y238000D01*
X168000Y415000D02*
X170000D01*
X169000Y414000D02*
Y416000D01*
X27000Y413000D02*
X29000D01*
X28000Y412000D02*
Y414000D01*
X27000Y423000D02*
X29000D01*
X28000Y422000D02*
Y424000D01*
X62035Y66465D02*
X64036D01*
X63035Y65465D02*
Y67464D01*
X259000Y432000D02*
X261000D01*
X260000Y431000D02*
Y433000D01*
X259000Y417000D02*
X261000D01*
X260000Y416000D02*
Y418000D01*
X259000Y402000D02*
X261000D01*
X260000Y401000D02*
Y403000D01*
X259000Y387000D02*
X261000D01*
X260000Y386000D02*
Y388000D01*
X259000Y372000D02*
X261000D01*
X260000Y371000D02*
Y373000D01*
X259000Y297000D02*
X261000D01*
X260000Y296000D02*
Y298000D01*
X259000Y282000D02*
X261000D01*
X260000Y281000D02*
Y283000D01*
X259000Y267000D02*
X261000D01*
X260000Y266000D02*
Y268000D01*
X259000Y252000D02*
X261000D01*
X260000Y251000D02*
Y253000D01*
X259000Y237000D02*
X261000D01*
X260000Y236000D02*
Y238000D01*
X259000Y222000D02*
X261000D01*
X260000Y221000D02*
Y223000D01*
X259000Y207000D02*
X261000D01*
X260000Y206000D02*
Y208000D01*
X259000Y192000D02*
X261000D01*
X260000Y191000D02*
Y193000D01*
X259000Y177000D02*
X261000D01*
X260000Y176000D02*
Y178000D01*
X259000Y162000D02*
X261000D01*
X260000Y161000D02*
Y163000D01*
X259000Y147000D02*
X261000D01*
X260000Y146000D02*
Y148000D01*
X259000Y132000D02*
X261000D01*
X260000Y131000D02*
Y133000D01*
X244000Y432000D02*
X246000D01*
X245000Y431000D02*
Y433000D01*
X244000Y417000D02*
X246000D01*
X245000Y416000D02*
Y418000D01*
X244000Y297000D02*
X246000D01*
X245000Y296000D02*
Y298000D01*
X244000Y282000D02*
X246000D01*
X245000Y281000D02*
Y283000D01*
X244000Y267000D02*
X246000D01*
X245000Y266000D02*
Y268000D01*
X244000Y252000D02*
X246000D01*
X245000Y251000D02*
Y253000D01*
X244000Y237000D02*
X246000D01*
X245000Y236000D02*
Y238000D01*
X244000Y222000D02*
X246000D01*
X245000Y221000D02*
Y223000D01*
X244000Y207000D02*
X246000D01*
X245000Y206000D02*
Y208000D01*
X244000Y192000D02*
X246000D01*
X245000Y191000D02*
Y193000D01*
X244000Y177000D02*
X246000D01*
X245000Y176000D02*
Y178000D01*
X244000Y162000D02*
X246000D01*
X245000Y161000D02*
Y163000D01*
X244000Y147000D02*
X246000D01*
X245000Y146000D02*
Y148000D01*
X244000Y132000D02*
X246000D01*
X245000Y131000D02*
Y133000D01*
X229000Y417000D02*
X231000D01*
X230000Y416000D02*
Y418000D01*
X229000Y327000D02*
X231000D01*
X230000Y326000D02*
Y328000D01*
X229000Y117000D02*
X231000D01*
X230000Y116000D02*
Y118000D01*
X229000Y102000D02*
X231000D01*
X230000Y101000D02*
Y103000D01*
X229000Y87000D02*
X231000D01*
X230000Y86000D02*
Y88000D01*
X229000Y72000D02*
X231000D01*
X230000Y71000D02*
Y73000D01*
X229000Y27000D02*
X231000D01*
X230000Y26000D02*
Y28000D01*
X229000Y12000D02*
X231000D01*
X230000Y11000D02*
Y13000D01*
X214000Y117000D02*
X216000D01*
X215000Y116000D02*
Y118000D01*
X214000Y102000D02*
X216000D01*
X215000Y101000D02*
Y103000D01*
X214000Y87000D02*
X216000D01*
X215000Y86000D02*
Y88000D01*
X199000Y222000D02*
X201000D01*
X200000Y221000D02*
Y223000D01*
X199000Y192000D02*
X201000D01*
X200000Y191000D02*
Y193000D01*
X199000Y87000D02*
X201000D01*
X200000Y86000D02*
Y88000D01*
X199000Y72000D02*
X201000D01*
X200000Y71000D02*
Y73000D01*
X199000Y27000D02*
X201000D01*
X200000Y26000D02*
Y28000D01*
X184000Y252000D02*
X186000D01*
X185000Y251000D02*
Y253000D01*
X184000Y72000D02*
X186000D01*
X185000Y71000D02*
Y73000D01*
X184000Y12000D02*
X186000D01*
X185000Y11000D02*
Y13000D01*
X169000Y177000D02*
X171000D01*
X170000Y176000D02*
Y178000D01*
X169000Y12000D02*
X171000D01*
X170000Y11000D02*
Y13000D01*
X124000Y327000D02*
X126000D01*
X125000Y326000D02*
Y328000D01*
X34000Y387000D02*
X36000D01*
X35000Y386000D02*
Y388000D01*
X34000Y42000D02*
X36000D01*
X35000Y41000D02*
Y43000D01*
X19000Y447000D02*
X21000D01*
X20000Y446000D02*
Y448000D01*
X19000Y402000D02*
X21000D01*
X20000Y401000D02*
Y403000D01*
X19000Y387000D02*
X21000D01*
X20000Y386000D02*
Y388000D01*
X19000Y192000D02*
X21000D01*
X20000Y191000D02*
Y193000D01*
X19000Y27000D02*
X21000D01*
X20000Y26000D02*
Y28000D01*
X19000Y12000D02*
X21000D01*
X20000Y11000D02*
Y13000D01*
X4000Y447000D02*
X6000D01*
X5000Y446000D02*
Y448000D01*
X4000Y432000D02*
X6000D01*
X5000Y431000D02*
Y433000D01*
X4000Y417000D02*
X6000D01*
X5000Y416000D02*
Y418000D01*
X4000Y402000D02*
X6000D01*
X5000Y401000D02*
Y403000D01*
X4000Y387000D02*
X6000D01*
X5000Y386000D02*
Y388000D01*
X4000Y342000D02*
X6000D01*
X5000Y341000D02*
Y343000D01*
X4000Y327000D02*
X6000D01*
X5000Y326000D02*
Y328000D01*
X4000Y312000D02*
X6000D01*
X5000Y311000D02*
Y313000D01*
X4000Y297000D02*
X6000D01*
X5000Y296000D02*
Y298000D01*
X4000Y282000D02*
X6000D01*
X5000Y281000D02*
Y283000D01*
X4000Y267000D02*
X6000D01*
X5000Y266000D02*
Y268000D01*
X4000Y252000D02*
X6000D01*
X5000Y251000D02*
Y253000D01*
X4000Y237000D02*
X6000D01*
X5000Y236000D02*
Y238000D01*
X4000Y222000D02*
X6000D01*
X5000Y221000D02*
Y223000D01*
X4000Y207000D02*
X6000D01*
X5000Y206000D02*
Y208000D01*
X4000Y42000D02*
X6000D01*
X5000Y41000D02*
Y43000D01*
X4000Y27000D02*
X6000D01*
X5000Y26000D02*
Y28000D01*
X4000Y12000D02*
X6000D01*
X5000Y11000D02*
Y13000D01*
X43000Y321000D02*
X45000D01*
X44000Y320000D02*
Y322000D01*
X132323Y136277D02*
X134323D01*
X133323Y135277D02*
Y137277D01*
X133000Y105000D02*
X135000D01*
X134000Y104000D02*
Y106000D01*
X15000Y117500D02*
X17000D01*
X16000Y116500D02*
Y118500D01*
X62000Y356600D02*
X64000D01*
X63000Y355600D02*
Y357600D01*
X60000Y336000D02*
X62000D01*
X61000Y335000D02*
Y337000D01*
X92000Y338000D02*
X94000D01*
X93000Y337000D02*
Y339000D01*
X36000Y213000D02*
X38000D01*
X37000Y212000D02*
Y214000D01*
X169000Y61000D02*
X171000D01*
X170000Y60000D02*
Y62000D01*
X47000Y260000D02*
X49000D01*
X48000Y259000D02*
Y261000D01*
X38000Y290000D02*
X40000D01*
X39000Y289000D02*
Y291000D01*
X169000Y398000D02*
X171000D01*
X170000Y397000D02*
Y399000D01*
X43000Y396000D02*
X45000D01*
X44000Y395000D02*
Y397000D01*
X176000Y63000D02*
X178000D01*
X177000Y62000D02*
Y64000D01*
X141000Y61000D02*
X143000D01*
X142000Y60000D02*
Y62000D01*
X83000Y25000D02*
X85000D01*
X84000Y24000D02*
Y26000D01*
X62944Y25000D02*
X64944D01*
X63944Y24000D02*
Y26000D01*
X63000Y147000D02*
X65000D01*
X64000Y146000D02*
Y148000D01*
X72000Y136000D02*
X74000D01*
X73000Y135000D02*
Y137000D01*
X71000Y126000D02*
X73000D01*
X72000Y125000D02*
Y127000D01*
X92000Y136000D02*
X94000D01*
X93000Y135000D02*
Y137000D01*
X93000Y145000D02*
X95000D01*
X94000Y144000D02*
Y146000D01*
X141000Y174000D02*
X143000D01*
X142000Y173000D02*
Y175000D01*
X142600Y196600D02*
X144600D01*
X143600Y195600D02*
Y197600D01*
X153300Y305000D02*
X155300D01*
X154300Y304000D02*
Y306000D01*
X152000Y417000D02*
X154000D01*
X153000Y416000D02*
Y418000D01*
X135000Y393000D02*
X137000D01*
X136000Y392000D02*
Y394000D01*
X143000Y285000D02*
X145000D01*
X144000Y284000D02*
Y286000D01*
X161600Y187600D02*
X163600D01*
X162600Y186600D02*
Y188600D01*
X71000Y145600D02*
X73000D01*
X72000Y144600D02*
Y146600D01*
X76500Y153500D02*
X78500D01*
X77500Y152500D02*
Y154500D01*
X71600Y27600D02*
X73600D01*
X72600Y26600D02*
Y28600D01*
X63000Y255000D02*
X65000D01*
X64000Y254000D02*
Y256000D01*
X71600Y357600D02*
X73600D01*
X72600Y356600D02*
Y358600D01*
X133000Y435000D02*
X135000D01*
X134000Y434000D02*
Y436000D01*
X133000Y325000D02*
X135000D01*
X134000Y324000D02*
Y326000D01*
X133000Y215000D02*
X135000D01*
X134000Y214000D02*
Y216000D01*
X152000Y187000D02*
X154000D01*
X153000Y186000D02*
Y188000D01*
X53000Y89000D02*
X55000D01*
X54000Y88000D02*
Y90000D01*
X92900Y116681D02*
X94901D01*
X93900Y115681D02*
Y117682D01*
X97318Y81948D02*
X99319D01*
X98319Y80948D02*
Y82948D01*
X74756Y117037D02*
X76756D01*
X75756Y116038D02*
Y118038D01*
X89682Y108584D02*
X91682D01*
X90682Y107584D02*
Y109584D01*
X118274Y109617D02*
X120274D01*
X119274Y108617D02*
Y110617D01*
X106959Y194814D02*
X108959D01*
X107959Y193814D02*
Y195814D01*
X90226Y218861D02*
X92226D01*
X91226Y217861D02*
Y219861D01*
X136688Y272618D02*
X138688D01*
X137688Y271618D02*
Y273618D01*
X136213Y283461D02*
X138213D01*
X137213Y282461D02*
Y284461D01*
X75965Y280886D02*
X77965D01*
X76965Y279886D02*
Y281886D01*
X76304Y271195D02*
X78304D01*
X77304Y270195D02*
Y272195D01*
X123910Y304561D02*
X125910D01*
X124910Y303561D02*
Y305561D01*
X106651Y304711D02*
X108651D01*
X107651Y303710D02*
Y305711D01*
X122604Y316459D02*
X124604D01*
X123604Y315459D02*
Y317459D01*
X118831Y330041D02*
X120831D01*
X119831Y329041D02*
Y331041D01*
X90285Y327989D02*
X92285D01*
X91285Y326989D02*
Y328989D01*
X135000Y399000D02*
X137000D01*
X136000Y398000D02*
Y400000D01*
X78097Y386208D02*
X80097D01*
X79097Y385208D02*
Y387208D01*
X78741Y412329D02*
X80741D01*
X79741Y411329D02*
Y413330D01*
X106709Y415206D02*
X108709D01*
X107709Y414206D02*
Y416206D01*
X122257Y436730D02*
X124257D01*
X123257Y435730D02*
Y437730D01*
X122876Y426489D02*
X124876D01*
X123876Y425489D02*
Y427489D01*
X122543Y413390D02*
X124543D01*
X123543Y412390D02*
Y414390D01*
X97107Y440969D02*
X99107D01*
X98107Y439969D02*
Y441969D01*
X102375Y436792D02*
X104375D01*
X103375Y435792D02*
Y437792D01*
X92167Y436865D02*
X94167D01*
X93167Y435865D02*
Y437865D01*
X15000Y175000D02*
X17000D01*
X16000Y174000D02*
Y176000D01*
X20000Y175000D02*
X22000D01*
X21000Y174000D02*
Y176000D01*
X82600Y206000D02*
X84600D01*
X83600Y205000D02*
Y207000D01*
X10000Y115000D02*
X12000D01*
X11000Y114000D02*
Y116000D01*
X263000Y306000D02*
X265000D01*
X264000Y305000D02*
Y307000D01*
X257000Y306000D02*
X259000D01*
X258000Y305000D02*
Y307000D01*
X250000Y306000D02*
X252000D01*
X251000Y305000D02*
Y307000D01*
X263000Y311000D02*
X265000D01*
X264000Y310000D02*
Y312000D01*
X257000Y311000D02*
X259000D01*
X258000Y310000D02*
Y312000D01*
X250000Y311000D02*
X252000D01*
X251000Y310000D02*
Y312000D01*
X262000Y364000D02*
X264000D01*
X263000Y363000D02*
Y365000D01*
X256000Y364000D02*
X258000D01*
X257000Y363000D02*
Y365000D01*
X262000Y357000D02*
X264000D01*
X263000Y356000D02*
Y358000D01*
X256000Y357000D02*
X258000D01*
X257000Y356000D02*
Y358000D01*
X250000Y357000D02*
X252000D01*
X251000Y356000D02*
Y358000D01*
X196000Y184000D02*
X198000D01*
X197000Y183000D02*
Y185000D01*
X198000Y125000D02*
X200000D01*
X199000Y124000D02*
Y126000D01*
X88000Y11000D02*
X90000D01*
X89000Y10000D02*
Y12000D01*
X164000Y131000D02*
X166000D01*
X165000Y130000D02*
Y132000D01*
X78000Y171000D02*
X80000D01*
X79000Y170000D02*
Y172000D01*
X79204Y181204D02*
X81204D01*
X80204Y180204D02*
Y182204D01*
X39000Y113000D02*
X41000D01*
X40000Y112000D02*
Y114000D01*
X25000Y108000D02*
X27000D01*
X26000Y107000D02*
Y109000D01*
X48000Y144000D02*
X50000D01*
X49000Y143000D02*
Y145000D01*
X82000Y46000D02*
X84000D01*
X83000Y45000D02*
Y47000D01*
X79000Y71000D02*
X81000D01*
X80000Y70000D02*
Y72000D01*
X123000Y47000D02*
X125000D01*
X124000Y46000D02*
Y48000D01*
X123000Y119000D02*
X125000D01*
X124000Y118000D02*
Y120000D01*
X92000Y156600D02*
X94000D01*
X93000Y155600D02*
Y157600D01*
X120000Y153000D02*
X122000D01*
X121000Y152000D02*
Y154000D01*
X162000Y206000D02*
X164000D01*
X163000Y205000D02*
Y207000D01*
X152600Y246000D02*
X154600D01*
X153600Y245000D02*
Y247000D01*
X142000Y256000D02*
X144000D01*
X143000Y255000D02*
Y257000D01*
X142600Y276000D02*
X144600D01*
X143600Y275000D02*
Y277000D01*
X142600Y296600D02*
X144600D01*
X143600Y295600D02*
Y297600D01*
X132600Y356600D02*
X134600D01*
X133600Y355600D02*
Y357600D01*
X132000Y346600D02*
X134000D01*
X133000Y345600D02*
Y347600D01*
X122000Y346600D02*
X124000D01*
X123000Y345600D02*
Y347600D01*
X122000Y356600D02*
X124000D01*
X123000Y355600D02*
Y357600D01*
X92000Y406000D02*
X94000D01*
X93000Y405000D02*
Y407000D01*
X92000Y386600D02*
X94000D01*
X93000Y385600D02*
Y387600D01*
X92000Y376600D02*
X94000D01*
X93000Y375600D02*
Y377600D01*
X122000Y386000D02*
X124000D01*
X123000Y385000D02*
Y387000D01*
X131000Y387600D02*
X133000D01*
X132000Y386600D02*
Y388600D01*
X131135Y267600D02*
X133135D01*
X132135Y266600D02*
Y268600D01*
X131000Y277600D02*
X133000D01*
X132000Y276600D02*
Y278600D01*
X121000Y267600D02*
X123000D01*
X122000Y266600D02*
Y268600D01*
X121000Y277600D02*
X123000D01*
X122000Y276600D02*
Y278600D01*
X123000Y297000D02*
X125000D01*
X124000Y296000D02*
Y298000D01*
X92000Y296135D02*
X94000D01*
X93000Y295135D02*
Y297135D01*
X92735Y266000D02*
X94735D01*
X93735Y265000D02*
Y267000D01*
X92000Y276465D02*
X94000D01*
X93000Y275465D02*
Y277465D01*
X82000Y61000D02*
X84000D01*
X83000Y60000D02*
Y62000D01*
X133000Y61000D02*
X135000D01*
X134000Y60000D02*
Y62000D01*
X58000Y17000D02*
X60000D01*
X59000Y16000D02*
Y18000D01*
X121000Y405000D02*
X123000D01*
X122000Y404000D02*
Y406000D01*
X29000Y337000D02*
X31000D01*
X30000Y336000D02*
Y338000D01*
X177000Y198000D02*
X179000D01*
X178000Y197000D02*
Y199000D01*
X39000Y275000D02*
X41000D01*
X40000Y274000D02*
Y276000D01*
X191000Y278000D02*
X193000D01*
X192000Y277000D02*
Y279000D01*
X121000Y40000D02*
X123000D01*
X122000Y39000D02*
Y41000D01*
X158000Y107000D02*
X160000D01*
X159000Y106000D02*
Y108000D01*
X92256Y246256D02*
X94256D01*
X93256Y245256D02*
Y247256D01*
X72000Y246000D02*
X74000D01*
X73000Y245000D02*
Y247000D01*
X46000Y120000D02*
X48000D01*
X47000Y119000D02*
Y121000D01*
X45000Y114000D02*
X47000D01*
X46000Y113000D02*
Y115000D01*
X16026Y165889D02*
X18026D01*
X17026Y164889D02*
Y166889D01*
X15893Y170314D02*
X17893D01*
X16893Y169314D02*
Y171314D01*
X10000Y164000D02*
X12000D01*
X11000Y163000D02*
Y165000D01*
X10000Y168000D02*
X12000D01*
X11000Y167000D02*
Y169000D01*
X50000Y165000D02*
X52000D01*
X51000Y164000D02*
Y166000D01*
X46000Y165000D02*
X48000D01*
X47000Y164000D02*
Y166000D01*
X50000Y161000D02*
X52000D01*
X51000Y160000D02*
Y162000D01*
X46000Y161000D02*
X48000D01*
X47000Y160000D02*
Y162000D01*
X39000Y165000D02*
X41000D01*
X40000Y164000D02*
Y166000D01*
X20000Y137000D02*
X22000D01*
X21000Y136000D02*
Y138000D01*
X29000Y128000D02*
X31000D01*
X30000Y127000D02*
Y129000D01*
X29000Y144000D02*
X31000D01*
X30000Y143000D02*
Y145000D01*
X23000Y147000D02*
X25000D01*
X24000Y146000D02*
Y148000D01*
X29000Y150000D02*
X31000D01*
X30000Y149000D02*
Y151000D01*
X17000Y129000D02*
X19000D01*
X18000Y128000D02*
Y130000D01*
X15000Y123000D02*
X17000D01*
X16000Y122000D02*
Y124000D01*
X233000Y385000D02*
X235000D01*
X234000Y384000D02*
Y386000D01*
X242000Y373000D02*
X244000D01*
X243000Y372000D02*
Y374000D01*
X192000D02*
X194000D01*
X193000Y373000D02*
Y375000D01*
X182000Y359000D02*
X184000D01*
X183000Y358000D02*
Y360000D01*
X223000Y389000D02*
X225000D01*
X224000Y388000D02*
Y390000D01*
X243000Y385000D02*
X245000D01*
X244000Y384000D02*
Y386000D01*
X175000Y385000D02*
X177000D01*
X176000Y384000D02*
Y386000D01*
X218000Y406000D02*
X220000D01*
X219000Y405000D02*
Y407000D01*
X189000Y404000D02*
X191000D01*
X190000Y403000D02*
Y405000D01*
X184325Y415325D02*
X186325D01*
X185325Y414325D02*
Y416325D01*
X207000Y415000D02*
X209000D01*
X208000Y414000D02*
Y416000D01*
X232000Y403000D02*
X234000D01*
X233000Y402000D02*
Y404000D01*
X227000Y410000D02*
X229000D01*
X228000Y409000D02*
Y411000D01*
X207000Y349000D02*
X209000D01*
X208000Y348000D02*
Y350000D01*
X197000Y349000D02*
X199000D01*
X198000Y348000D02*
Y350000D01*
X162000Y366600D02*
X164000D01*
X163000Y365600D02*
Y367600D01*
X187000Y355000D02*
X189000D01*
X188000Y354000D02*
Y356000D01*
X68000Y109000D02*
X70000D01*
X69000Y108000D02*
Y110000D01*
X62000Y366000D02*
X64000D01*
X63000Y365000D02*
Y367000D01*
X53000Y444000D02*
X55000D01*
X54000Y443000D02*
Y445000D01*
X72000Y327000D02*
X74000D01*
X73000Y326000D02*
Y328000D01*
X92600Y236600D02*
X94600D01*
X93600Y235600D02*
Y237600D01*
X72600Y236600D02*
X74600D01*
X73600Y235600D02*
Y237600D01*
X68000Y221000D02*
X70000D01*
X69000Y220000D02*
Y222000D01*
X62600Y216000D02*
X64600D01*
X63600Y215000D02*
Y217000D01*
X62600Y206000D02*
X64600D01*
X63600Y205000D02*
Y207000D01*
X72600Y196600D02*
X74600D01*
X73600Y195600D02*
Y197600D01*
X62000Y196600D02*
X64000D01*
X63000Y195600D02*
Y197600D01*
X62000Y246600D02*
X64000D01*
X63000Y245600D02*
Y247600D01*
X92000Y256000D02*
X94000D01*
X93000Y255000D02*
Y257000D01*
X72600Y258000D02*
X74600D01*
X73600Y257000D02*
Y259000D01*
X62000Y316000D02*
X64000D01*
X63000Y315000D02*
Y317000D01*
X62600Y306600D02*
X64600D01*
X63600Y305600D02*
Y307600D01*
X62600Y326000D02*
X64600D01*
X63600Y325000D02*
Y327000D01*
X92600Y356600D02*
X94600D01*
X93600Y355600D02*
Y357600D01*
X72600Y436000D02*
X74600D01*
X73600Y435000D02*
Y437000D01*
X72600Y426000D02*
X74600D01*
X73600Y425000D02*
Y427000D01*
X62600Y416600D02*
X64600D01*
X63600Y415600D02*
Y417600D01*
X52600Y426000D02*
X54600D01*
X53600Y425000D02*
Y427000D01*
X142600Y436000D02*
X144600D01*
X143600Y435000D02*
Y437000D01*
X142600Y416600D02*
X144600D01*
X143600Y415600D02*
Y417600D01*
X122600Y366000D02*
X124600D01*
X123600Y365000D02*
Y367000D01*
X162000Y386000D02*
X164000D01*
X163000Y385000D02*
Y387000D01*
X162000Y356600D02*
X164000D01*
X163000Y355600D02*
Y357600D01*
X142000Y346600D02*
X144000D01*
X143000Y345600D02*
Y347600D01*
X142600Y326000D02*
X144600D01*
X143600Y325000D02*
Y327000D01*
X132600Y306600D02*
X134600D01*
X133600Y305600D02*
Y307600D01*
X142600Y306600D02*
X144600D01*
X143600Y305600D02*
Y307600D01*
X162000Y276000D02*
X164000D01*
X163000Y275000D02*
Y277000D01*
X162000Y266000D02*
X164000D01*
X163000Y265000D02*
Y267000D01*
X132000Y256000D02*
X134000D01*
X133000Y255000D02*
Y257000D01*
X142600Y236600D02*
X144600D01*
X143600Y235600D02*
Y237600D01*
X132600Y236600D02*
X134600D01*
X133600Y235600D02*
Y237600D01*
X132600Y196600D02*
X134600D01*
X133600Y195600D02*
Y197600D01*
X122600Y146000D02*
X124600D01*
X123600Y145000D02*
Y147000D01*
X166000Y161000D02*
X168000D01*
X167000Y160000D02*
Y162000D01*
X166000Y152000D02*
X168000D01*
X167000Y151000D02*
Y153000D01*
X166000Y141000D02*
X168000D01*
X167000Y140000D02*
Y142000D01*
X152000Y126600D02*
X154000D01*
X153000Y125600D02*
Y127600D01*
X142600Y106000D02*
X144600D01*
X143600Y105000D02*
Y107000D01*
X50000Y101000D02*
X52000D01*
X51000Y100000D02*
Y102000D01*
X72000Y96000D02*
X74000D01*
X73000Y95000D02*
Y97000D01*
X72600Y86600D02*
X74600D01*
X73600Y85600D02*
Y87600D01*
X82600Y36000D02*
X84600D01*
X83600Y35000D02*
Y37000D01*
X72600Y36000D02*
X74600D01*
X73600Y35000D02*
Y37000D01*
X152600Y46600D02*
X154600D01*
X153600Y45600D02*
Y47600D01*
X152600Y36600D02*
X154600D01*
X153600Y35600D02*
Y37600D01*
X152600Y26600D02*
X154600D01*
X153600Y25600D02*
Y27600D01*
X142000Y16600D02*
X144000D01*
X143000Y15600D02*
Y17600D01*
X122600Y26600D02*
X124600D01*
X123600Y25600D02*
Y27600D01*
X112600Y26600D02*
X114600D01*
X113600Y25600D02*
Y27600D01*
X122000Y16600D02*
X124000D01*
X123000Y15600D02*
Y17600D01*
X102600Y26600D02*
X104600D01*
X103600Y25600D02*
Y27600D01*
X102600Y16600D02*
X104600D01*
X103600Y15600D02*
Y17600D01*
X92600Y16600D02*
X94600D01*
X93600Y15600D02*
Y17600D01*
X82000Y16600D02*
X84000D01*
X83000Y15600D02*
Y17600D01*
X82600Y426000D02*
X84600D01*
X83600Y425000D02*
Y427000D01*
X82600Y436000D02*
X84600D01*
X83600Y435000D02*
Y437000D01*
X92600Y416600D02*
X94600D01*
X93600Y415600D02*
Y417600D01*
X102000Y426600D02*
X104000D01*
X103000Y425600D02*
Y427600D01*
X112000Y436000D02*
X114000D01*
X113000Y435000D02*
Y437000D01*
X112000Y426000D02*
X114000D01*
X113000Y425000D02*
Y427000D01*
X82600Y316000D02*
X84600D01*
X83600Y315000D02*
Y317000D01*
X82600Y326000D02*
X84600D01*
X83600Y325000D02*
Y327000D01*
X92600Y306600D02*
X94600D01*
X93600Y305600D02*
Y307600D01*
X102000Y316600D02*
X104000D01*
X103000Y315600D02*
Y317600D01*
X112000Y326000D02*
X114000D01*
X113000Y325000D02*
Y327000D01*
X112000Y316000D02*
X114000D01*
X113000Y315000D02*
Y317000D01*
X82600Y216000D02*
X84600D01*
X83600Y215000D02*
Y217000D01*
X92600Y196600D02*
X94600D01*
X93600Y195600D02*
Y197600D01*
X102000Y206600D02*
X104000D01*
X103000Y205600D02*
Y207600D01*
X112000Y216000D02*
X114000D01*
X113000Y215000D02*
Y217000D01*
X112000Y206000D02*
X114000D01*
X113000Y205000D02*
Y207000D01*
X112000Y96000D02*
X114000D01*
X113000Y95000D02*
Y97000D01*
X112000Y106000D02*
X114000D01*
X113000Y105000D02*
Y107000D01*
X102000Y96600D02*
X104000D01*
X103000Y95600D02*
Y97600D01*
X92600Y86600D02*
X94600D01*
X93600Y85600D02*
Y87600D01*
X82600Y106000D02*
X84600D01*
X83600Y105000D02*
Y107000D01*
X82600Y96000D02*
X84600D01*
X83600Y95000D02*
Y97000D01*
M02*
