G04*
G04 #@! TF.GenerationSoftware,Altium Limited,Altium Designer,24.9.1 (31)*
G04*
G04 Layer_Physical_Order=3*
G04 Layer_Color=3707366*
%FSLAX44Y44*%
%MOMM*%
G71*
G04*
G04 #@! TF.SameCoordinates,B31CAF09-BB74-4FAA-89E9-8BE817FA7118*
G04*
G04*
G04 #@! TF.FilePolarity,Positive*
G04*
G01*
G75*
%ADD13C,4.0000*%
%ADD14C,0.4000*%
G36*
X240000Y443000D02*
X274000D01*
Y345000D01*
X260301D01*
X259903Y347000D01*
X259983Y347033D01*
X260967Y348017D01*
X261500Y349304D01*
Y350696D01*
X260967Y351983D01*
X260756Y352193D01*
X260207Y353500D01*
X260756Y354807D01*
X260967Y355017D01*
X261500Y356304D01*
Y357696D01*
X260967Y358983D01*
X259983Y359967D01*
X258696Y360500D01*
X257304D01*
X256017Y359967D01*
X255033Y358983D01*
X252967D01*
X251983Y359967D01*
X250696Y360500D01*
X249304D01*
X248017Y359967D01*
X247033Y358983D01*
X246500Y357696D01*
Y356304D01*
X247033Y355017D01*
X247244Y354807D01*
X247793Y353500D01*
X247244Y352193D01*
X247033Y351983D01*
X246500Y350696D01*
Y349304D01*
X247033Y348017D01*
X248017Y347033D01*
X248097Y347000D01*
X247699Y345000D01*
X215000D01*
Y95000D01*
X239000D01*
Y0D01*
X0D01*
Y137380D01*
X329Y137727D01*
X2000Y138551D01*
X2648Y138283D01*
X4041D01*
X5327Y138816D01*
X6312Y139800D01*
X6844Y141087D01*
Y142479D01*
X6312Y143765D01*
X5327Y144750D01*
X4041Y145283D01*
X2648D01*
X2000Y145014D01*
X329Y145839D01*
X0Y146186D01*
Y464000D01*
X240000D01*
Y443000D01*
D02*
G37*
%LPC*%
G36*
X138696Y457500D02*
X137304D01*
X136017Y456967D01*
X135033Y455983D01*
X134500Y454696D01*
Y453304D01*
X135033Y452017D01*
X136017Y451033D01*
X137304Y450500D01*
X138696D01*
X139983Y451033D01*
X140967Y452017D01*
X141500Y453304D01*
Y454696D01*
X140967Y455983D01*
X139983Y456967D01*
X138696Y457500D01*
D02*
G37*
G36*
X49696Y451500D02*
X48304D01*
X47017Y450967D01*
X46033Y449983D01*
X45500Y448696D01*
Y447304D01*
X46033Y446017D01*
X47017Y445033D01*
X48304Y444500D01*
X49696D01*
X50983Y445033D01*
X51967Y446017D01*
X52500Y447304D01*
Y448696D01*
X51967Y449983D01*
X50983Y450967D01*
X49696Y451500D01*
D02*
G37*
G36*
X217118Y460500D02*
X212882D01*
X208729Y459674D01*
X204816Y458053D01*
X201295Y455700D01*
X198300Y452705D01*
X195947Y449184D01*
X194326Y445271D01*
X193500Y441118D01*
Y436882D01*
X194326Y432729D01*
X195947Y428816D01*
X198300Y425295D01*
X201295Y422300D01*
X204816Y419947D01*
X208729Y418326D01*
X212882Y417500D01*
X217118D01*
X221271Y418326D01*
X225184Y419947D01*
X228705Y422300D01*
X231700Y425295D01*
X234053Y428816D01*
X235674Y432729D01*
X236500Y436882D01*
Y441118D01*
X235674Y445271D01*
X234053Y449184D01*
X231700Y452705D01*
X228705Y455700D01*
X225184Y458053D01*
X221271Y459674D01*
X217118Y460500D01*
D02*
G37*
G36*
X248696Y417500D02*
X247304D01*
X246017Y416967D01*
X245033Y415983D01*
X244500Y414696D01*
Y413304D01*
X245033Y412017D01*
X246017Y411033D01*
X247304Y410500D01*
X248696D01*
X249983Y411033D01*
X250967Y412017D01*
X251500Y413304D01*
Y414696D01*
X250967Y415983D01*
X249983Y416967D01*
X248696Y417500D01*
D02*
G37*
G36*
X237696Y416500D02*
X236304D01*
X235017Y415967D01*
X234033Y414983D01*
X233500Y413696D01*
Y412304D01*
X234033Y411017D01*
X235017Y410033D01*
X236304Y409500D01*
X237696D01*
X238983Y410033D01*
X239967Y411017D01*
X240500Y412304D01*
Y413696D01*
X239967Y414983D01*
X238983Y415967D01*
X237696Y416500D01*
D02*
G37*
G36*
X100352Y404844D02*
X98959D01*
X97673Y404312D01*
X97462Y404101D01*
X96398Y403448D01*
X94858Y404092D01*
X93571Y404625D01*
X92179D01*
X90892Y404092D01*
X89908Y403108D01*
X89375Y401821D01*
Y400429D01*
X89908Y399142D01*
X90892Y398158D01*
X92179Y397625D01*
X93571D01*
X94858Y398158D01*
X95068Y398369D01*
X96133Y399021D01*
X97673Y398377D01*
X98959Y397844D01*
X100352D01*
X101638Y398377D01*
X102623Y399362D01*
X103156Y400648D01*
Y402041D01*
X102623Y403327D01*
X101638Y404312D01*
X100352Y404844D01*
D02*
G37*
G36*
X120571Y404625D02*
X119179D01*
X117892Y404092D01*
X117030Y403229D01*
X116205Y403131D01*
X114772Y403178D01*
X113983Y403967D01*
X112696Y404500D01*
X111304D01*
X110017Y403967D01*
X109033Y402983D01*
X108500Y401696D01*
Y400304D01*
X109033Y399017D01*
X110017Y398033D01*
X111304Y397500D01*
X112696D01*
X113983Y398033D01*
X114845Y398896D01*
X115671Y398994D01*
X117103Y398947D01*
X117892Y398158D01*
X119179Y397625D01*
X120571D01*
X121858Y398158D01*
X122842Y399142D01*
X123375Y400429D01*
Y401821D01*
X122842Y403108D01*
X121858Y404092D01*
X120571Y404625D01*
D02*
G37*
G36*
X155696Y404500D02*
X154304D01*
X153017Y403967D01*
X152033Y402983D01*
X151500Y401696D01*
Y400304D01*
X152033Y399017D01*
X153017Y398033D01*
X154304Y397500D01*
X155696D01*
X156983Y398033D01*
X157967Y399017D01*
X158500Y400304D01*
Y401696D01*
X157967Y402983D01*
X156983Y403967D01*
X155696Y404500D01*
D02*
G37*
G36*
X230696Y408500D02*
X229304D01*
X228017Y407967D01*
X227033Y406983D01*
X226500Y405696D01*
Y404918D01*
X225169Y403711D01*
X224696Y403500D01*
X223304D01*
X222017Y402967D01*
X221033Y401983D01*
X220500Y400696D01*
Y399304D01*
X221033Y398017D01*
X222017Y397033D01*
X223304Y396500D01*
X224696D01*
X225983Y397033D01*
X226967Y398017D01*
X227500Y399304D01*
Y400082D01*
X228831Y401289D01*
X229304Y401500D01*
X230696D01*
X231983Y402033D01*
X232967Y403017D01*
X233500Y404304D01*
Y405696D01*
X232967Y406983D01*
X231983Y407967D01*
X230696Y408500D01*
D02*
G37*
G36*
X71696Y403500D02*
X70304D01*
X69017Y402967D01*
X68033Y401983D01*
X67500Y400696D01*
Y399304D01*
X68033Y398017D01*
X69017Y397033D01*
X70304Y396500D01*
X71696D01*
X72983Y397033D01*
X73967Y398017D01*
X74500Y399304D01*
Y400696D01*
X73967Y401983D01*
X72983Y402967D01*
X71696Y403500D01*
D02*
G37*
G36*
X80696Y401500D02*
X79304D01*
X78017Y400967D01*
X77033Y399983D01*
X76500Y398696D01*
Y397304D01*
X77033Y396017D01*
X78017Y395033D01*
X79304Y394500D01*
X80696D01*
X81983Y395033D01*
X82967Y396017D01*
X83500Y397304D01*
Y398696D01*
X82967Y399983D01*
X81983Y400967D01*
X80696Y401500D01*
D02*
G37*
G36*
X184696Y395500D02*
X183304D01*
X182017Y394967D01*
X181033Y393983D01*
X180500Y392696D01*
Y391304D01*
X181033Y390017D01*
X182017Y389033D01*
X183304Y388500D01*
X184696D01*
X185983Y389033D01*
X186967Y390017D01*
X187500Y391304D01*
Y392696D01*
X186967Y393983D01*
X185983Y394967D01*
X184696Y395500D01*
D02*
G37*
G36*
X172696D02*
X171304D01*
X170017Y394967D01*
X169033Y393983D01*
X168500Y392696D01*
Y391304D01*
X169033Y390017D01*
X170017Y389033D01*
X171304Y388500D01*
X172696D01*
X173983Y389033D01*
X174967Y390017D01*
X175500Y391304D01*
Y392696D01*
X174967Y393983D01*
X173983Y394967D01*
X172696Y395500D01*
D02*
G37*
G36*
X244696Y390500D02*
X243304D01*
X242017Y389967D01*
X241033Y388983D01*
X240500Y387696D01*
Y386304D01*
X241033Y385017D01*
X242017Y384033D01*
X243304Y383500D01*
X244696D01*
X245983Y384033D01*
X246967Y385017D01*
X247500Y386304D01*
Y387696D01*
X246967Y388983D01*
X245983Y389967D01*
X244696Y390500D01*
D02*
G37*
G36*
X228696D02*
X227304D01*
X226017Y389967D01*
X225033Y388983D01*
X224500Y387696D01*
Y386304D01*
X225033Y385017D01*
X226017Y384033D01*
X227304Y383500D01*
X228696D01*
X229652Y383896D01*
X230081Y383991D01*
X231963Y383185D01*
X232033Y383017D01*
X233017Y382033D01*
X234304Y381500D01*
X235696D01*
X236983Y382033D01*
X237967Y383017D01*
X238500Y384304D01*
Y385696D01*
X237967Y386983D01*
X236983Y387967D01*
X235696Y388500D01*
X234304D01*
X233348Y388104D01*
X232919Y388009D01*
X231037Y388815D01*
X230967Y388983D01*
X229983Y389967D01*
X228696Y390500D01*
D02*
G37*
G36*
X240696Y380500D02*
X239304D01*
X238017Y379967D01*
X237033Y378983D01*
X236500Y377696D01*
Y376304D01*
X237033Y375017D01*
X238017Y374033D01*
X239304Y373500D01*
X240696D01*
X241983Y374033D01*
X242967Y375017D01*
X243500Y376304D01*
Y377696D01*
X242967Y378983D01*
X241983Y379967D01*
X240696Y380500D01*
D02*
G37*
G36*
X208696Y379500D02*
X207304D01*
X206017Y378967D01*
X205033Y377983D01*
X204500Y376696D01*
Y375304D01*
X205033Y374017D01*
X206017Y373033D01*
X207304Y372500D01*
X208696D01*
X209983Y373033D01*
X210967Y374017D01*
X211500Y375304D01*
Y376696D01*
X210967Y377983D01*
X209983Y378967D01*
X208696Y379500D01*
D02*
G37*
G36*
X178696D02*
X177304D01*
X176017Y378967D01*
X175033Y377983D01*
X174500Y376696D01*
Y375304D01*
X175033Y374017D01*
X176017Y373033D01*
X177304Y372500D01*
X178696D01*
X179983Y373033D01*
X180967Y374017D01*
X181500Y375304D01*
Y376696D01*
X180967Y377983D01*
X179983Y378967D01*
X178696Y379500D01*
D02*
G37*
G36*
X221696Y377500D02*
X220304D01*
X219017Y376967D01*
X218033Y375983D01*
X217500Y374696D01*
Y373304D01*
X218033Y372017D01*
X219017Y371033D01*
X220304Y370500D01*
X221696D01*
X222983Y371033D01*
X223967Y372017D01*
X224500Y373304D01*
Y374696D01*
X223967Y375983D01*
X222983Y376967D01*
X221696Y377500D01*
D02*
G37*
G36*
X145696Y367500D02*
X144304D01*
X143017Y366967D01*
X142033Y365983D01*
X141500Y364696D01*
Y363304D01*
X142033Y362017D01*
X143017Y361033D01*
X144304Y360500D01*
X145696D01*
X146983Y361033D01*
X147967Y362017D01*
X148500Y363304D01*
Y364696D01*
X147967Y365983D01*
X146983Y366967D01*
X145696Y367500D01*
D02*
G37*
G36*
X197696Y373500D02*
X196304D01*
X195017Y372967D01*
X194033Y371983D01*
X193500Y370696D01*
Y369304D01*
X194033Y368017D01*
X194987Y367000D01*
X194033Y365983D01*
X193500Y364696D01*
Y363304D01*
X194033Y362017D01*
X194702Y361348D01*
X194628Y359832D01*
X194398Y359125D01*
X194017Y358967D01*
X193033Y357983D01*
X192500Y356696D01*
Y355304D01*
X193033Y354017D01*
X194017Y353033D01*
X195304Y352500D01*
X196696D01*
X197983Y353033D01*
X198967Y354017D01*
X199500Y355304D01*
Y356696D01*
X198967Y357983D01*
X198298Y358652D01*
X198372Y360168D01*
X198602Y360875D01*
X198983Y361033D01*
X199967Y362017D01*
X200500Y363304D01*
Y364696D01*
X199967Y365983D01*
X199013Y367000D01*
X199967Y368017D01*
X200500Y369304D01*
Y370696D01*
X199967Y371983D01*
X198983Y372967D01*
X197696Y373500D01*
D02*
G37*
G36*
X27118Y385500D02*
X22882D01*
X18729Y384674D01*
X14816Y383053D01*
X11295Y380700D01*
X8300Y377705D01*
X5947Y374184D01*
X4326Y370271D01*
X3500Y366118D01*
Y361882D01*
X4326Y357729D01*
X5947Y353816D01*
X8300Y350295D01*
X11295Y347300D01*
X14816Y344947D01*
X18729Y343326D01*
X22882Y342500D01*
X27118D01*
X31271Y343326D01*
X35184Y344947D01*
X38705Y347300D01*
X41700Y350295D01*
X44053Y353816D01*
X45674Y357729D01*
X46500Y361882D01*
Y366118D01*
X45674Y370271D01*
X44053Y374184D01*
X41700Y377705D01*
X38705Y380700D01*
X35184Y383053D01*
X31271Y384674D01*
X27118Y385500D01*
D02*
G37*
G36*
X139696Y346500D02*
X138304D01*
X137017Y345967D01*
X136033Y344983D01*
X135500Y343696D01*
Y342304D01*
X136033Y341017D01*
X137017Y340033D01*
X138304Y339500D01*
X139696D01*
X140983Y340033D01*
X141967Y341017D01*
X142500Y342304D01*
Y343696D01*
X141967Y344983D01*
X140983Y345967D01*
X139696Y346500D01*
D02*
G37*
G36*
X194696Y341500D02*
X193304D01*
X192017Y340967D01*
X191033Y339983D01*
X190500Y338696D01*
Y337304D01*
X191033Y336017D01*
X192017Y335033D01*
X193304Y334500D01*
X194696D01*
X195983Y335033D01*
X196967Y336017D01*
X197500Y337304D01*
Y338696D01*
X196967Y339983D01*
X195983Y340967D01*
X194696Y341500D01*
D02*
G37*
G36*
X142696Y337500D02*
X141304D01*
X140017Y336967D01*
X139033Y335983D01*
X138500Y334696D01*
Y333304D01*
X139033Y332017D01*
X140017Y331033D01*
X141304Y330500D01*
X142696D01*
X143983Y331033D01*
X144967Y332017D01*
X145500Y333304D01*
Y334696D01*
X144967Y335983D01*
X143983Y336967D01*
X142696Y337500D01*
D02*
G37*
G36*
X70696Y332987D02*
X69304D01*
X68017Y332454D01*
X67033Y331470D01*
X66500Y330183D01*
Y328791D01*
X67033Y327505D01*
X68017Y326520D01*
X69304Y325987D01*
X70696D01*
X71983Y326520D01*
X72967Y327505D01*
X73500Y328791D01*
Y330183D01*
X72967Y331470D01*
X71983Y332454D01*
X70696Y332987D01*
D02*
G37*
G36*
X79696Y332625D02*
X78304D01*
X77017Y332092D01*
X76033Y331108D01*
X75500Y329821D01*
Y328429D01*
X76033Y327142D01*
X77017Y326158D01*
X78304Y325625D01*
X79696D01*
X80983Y326158D01*
X81967Y327142D01*
X82500Y328429D01*
Y329821D01*
X81967Y331108D01*
X80983Y332092D01*
X79696Y332625D01*
D02*
G37*
G36*
X106696Y332500D02*
X105304D01*
X104017Y331967D01*
X103033Y330983D01*
X102500Y329696D01*
Y328304D01*
X103033Y327017D01*
X104017Y326033D01*
X105304Y325500D01*
X106696D01*
X107983Y326033D01*
X108967Y327017D01*
X109500Y328304D01*
Y329696D01*
X108967Y330983D01*
X107983Y331967D01*
X106696Y332500D01*
D02*
G37*
G36*
X97696D02*
X96304D01*
X95017Y331967D01*
X94033Y330983D01*
X93500Y329696D01*
Y328304D01*
X94033Y327017D01*
X95017Y326033D01*
X96304Y325500D01*
X97696D01*
X98983Y326033D01*
X99967Y327017D01*
X100500Y328304D01*
Y329696D01*
X99967Y330983D01*
X98983Y331967D01*
X97696Y332500D01*
D02*
G37*
G36*
X64696Y315500D02*
X63304D01*
X62017Y314967D01*
X61033Y313983D01*
X60500Y312696D01*
Y311304D01*
X61033Y310017D01*
X62017Y309033D01*
X63304Y308500D01*
X64696D01*
X65983Y309033D01*
X66967Y310017D01*
X67500Y311304D01*
Y312696D01*
X66967Y313983D01*
X65983Y314967D01*
X64696Y315500D01*
D02*
G37*
G36*
X114696Y295500D02*
X113304D01*
X112017Y294967D01*
X111033Y293983D01*
X110500Y292696D01*
Y291304D01*
X111033Y290017D01*
X112017Y289033D01*
X113304Y288500D01*
X114696D01*
X115983Y289033D01*
X116967Y290017D01*
X117500Y291304D01*
Y292696D01*
X116967Y293983D01*
X115983Y294967D01*
X114696Y295500D01*
D02*
G37*
G36*
X122696Y283500D02*
X121304D01*
X120017Y282967D01*
X119033Y281983D01*
X118500Y280696D01*
Y279304D01*
X119033Y278017D01*
X120017Y277033D01*
X121304Y276500D01*
X122696D01*
X123983Y277033D01*
X124967Y278017D01*
X125500Y279304D01*
Y280696D01*
X124967Y281983D01*
X123983Y282967D01*
X122696Y283500D01*
D02*
G37*
G36*
X52696Y280429D02*
X51304D01*
X50017Y279896D01*
X49033Y278912D01*
X48500Y277625D01*
Y276233D01*
X49033Y274946D01*
X50017Y273962D01*
X51304Y273429D01*
X52696D01*
X53983Y273962D01*
X54967Y274946D01*
X55500Y276233D01*
Y277625D01*
X54967Y278912D01*
X53983Y279896D01*
X52696Y280429D01*
D02*
G37*
G36*
X209696Y268500D02*
X208304D01*
X207017Y267967D01*
X206033Y266983D01*
X205500Y265696D01*
Y264304D01*
X206033Y263017D01*
X207017Y262033D01*
X208304Y261500D01*
X209696D01*
X210983Y262033D01*
X211967Y263017D01*
X212500Y264304D01*
Y265696D01*
X211967Y266983D01*
X210983Y267967D01*
X209696Y268500D01*
D02*
G37*
G36*
X97696Y258500D02*
X96304D01*
X95017Y257967D01*
X94033Y256983D01*
X93500Y255696D01*
Y254304D01*
X94033Y253017D01*
X95017Y252033D01*
X96304Y251500D01*
X97696D01*
X98983Y252033D01*
X99967Y253017D01*
X100500Y254304D01*
Y255696D01*
X99967Y256983D01*
X98983Y257967D01*
X97696Y258500D01*
D02*
G37*
G36*
X114696Y243500D02*
X113304D01*
X112017Y242967D01*
X111033Y241983D01*
X110500Y240696D01*
Y239304D01*
X111033Y238017D01*
X112017Y237033D01*
X113304Y236500D01*
X114696D01*
X115983Y237033D01*
X116967Y238017D01*
X117500Y239304D01*
Y240696D01*
X116967Y241983D01*
X115983Y242967D01*
X114696Y243500D01*
D02*
G37*
G36*
X122696Y231500D02*
X121304D01*
X120017Y230967D01*
X119033Y229983D01*
X118500Y228696D01*
Y227304D01*
X119033Y226017D01*
X120017Y225033D01*
X121304Y224500D01*
X122696D01*
X123983Y225033D01*
X124967Y226017D01*
X125500Y227304D01*
Y228696D01*
X124967Y229983D01*
X123983Y230967D01*
X122696Y231500D01*
D02*
G37*
G36*
X98696Y206500D02*
X97304D01*
X96017Y205967D01*
X95033Y204983D01*
X94500Y203696D01*
Y202304D01*
X95033Y201017D01*
X96017Y200033D01*
X97304Y199500D01*
X98696D01*
X99983Y200033D01*
X100967Y201017D01*
X101500Y202304D01*
Y203696D01*
X100967Y204983D01*
X99983Y205967D01*
X98696Y206500D01*
D02*
G37*
G36*
X115696Y191500D02*
X114304D01*
X113017Y190967D01*
X112033Y189983D01*
X111500Y188696D01*
Y187304D01*
X112033Y186017D01*
X113017Y185033D01*
X114304Y184500D01*
X115696D01*
X116983Y185033D01*
X117967Y186017D01*
X118500Y187304D01*
Y188696D01*
X117967Y189983D01*
X116983Y190967D01*
X115696Y191500D01*
D02*
G37*
G36*
X58696Y190500D02*
X57304D01*
X56017Y189967D01*
X55033Y188983D01*
X54500Y187696D01*
Y186304D01*
X55033Y185017D01*
X56017Y184033D01*
X57304Y183500D01*
X58696D01*
X59983Y184033D01*
X60967Y185017D01*
X61500Y186304D01*
Y187696D01*
X60967Y188983D01*
X59983Y189967D01*
X58696Y190500D01*
D02*
G37*
G36*
X11696Y181500D02*
X10304D01*
X9017Y180967D01*
X8033Y179983D01*
X7500Y178696D01*
Y177304D01*
X8033Y176017D01*
X9017Y175033D01*
X10304Y174500D01*
X11696D01*
X12983Y175033D01*
X13967Y176017D01*
X14500Y177304D01*
Y178696D01*
X13967Y179983D01*
X12983Y180967D01*
X11696Y181500D01*
D02*
G37*
G36*
X122696Y180500D02*
X121304D01*
X120017Y179967D01*
X119033Y178983D01*
X118500Y177696D01*
Y176304D01*
X119033Y175017D01*
X120017Y174033D01*
X121304Y173500D01*
X122696D01*
X123983Y174033D01*
X124967Y175017D01*
X125500Y176304D01*
Y177696D01*
X124967Y178983D01*
X123983Y179967D01*
X122696Y180500D01*
D02*
G37*
G36*
X200696Y179500D02*
X199304D01*
X198017Y178967D01*
X197033Y177983D01*
X196500Y176696D01*
Y175304D01*
X197033Y174017D01*
X198017Y173033D01*
X199304Y172500D01*
X200696D01*
X201983Y173033D01*
X202967Y174017D01*
X203500Y175304D01*
Y176696D01*
X202967Y177983D01*
X201983Y178967D01*
X200696Y179500D01*
D02*
G37*
G36*
X46696Y155500D02*
X45304D01*
X44017Y154967D01*
X43033Y153983D01*
X42500Y152696D01*
Y151304D01*
X43033Y150017D01*
X44017Y149033D01*
X45304Y148500D01*
X46696D01*
X47983Y149033D01*
X48967Y150017D01*
X49500Y151304D01*
Y152696D01*
X48967Y153983D01*
X47983Y154967D01*
X46696Y155500D01*
D02*
G37*
G36*
X98696Y154500D02*
X97304D01*
X96017Y153967D01*
X95033Y152983D01*
X94500Y151696D01*
Y150304D01*
X95033Y149017D01*
X96017Y148033D01*
X97304Y147500D01*
X98696D01*
X99983Y148033D01*
X100967Y149017D01*
X101500Y150304D01*
Y151696D01*
X100967Y152983D01*
X99983Y153967D01*
X98696Y154500D01*
D02*
G37*
G36*
X63696Y147500D02*
X62304D01*
X61017Y146967D01*
X60033Y145983D01*
X57967D01*
X56983Y146967D01*
X55696Y147500D01*
X54304D01*
X53017Y146967D01*
X52033Y145983D01*
X51500Y144696D01*
Y143304D01*
X52033Y142017D01*
X53017Y141033D01*
X54304Y140500D01*
X55696D01*
X56983Y141033D01*
X57967Y142017D01*
X60033D01*
X61017Y141033D01*
X62304Y140500D01*
X63696D01*
X64652Y140896D01*
X65081Y140991D01*
X66963Y140185D01*
X67033Y140017D01*
X68017Y139033D01*
X69304Y138500D01*
X70696D01*
X71983Y139033D01*
X72967Y140017D01*
X73500Y141304D01*
Y142696D01*
X72967Y143983D01*
X71983Y144967D01*
X70696Y145500D01*
X69304D01*
X68348Y145104D01*
X67919Y145009D01*
X66037Y145815D01*
X65967Y145983D01*
X64983Y146967D01*
X63696Y147500D01*
D02*
G37*
G36*
X31696Y149500D02*
X30304D01*
X29017Y148967D01*
X28033Y147983D01*
X27500Y146696D01*
Y145304D01*
X28033Y144017D01*
X29017Y143033D01*
X30304Y142500D01*
X31696D01*
X32983Y143033D01*
X33967Y144017D01*
X34500Y145304D01*
Y146696D01*
X33967Y147983D01*
X32983Y148967D01*
X31696Y149500D01*
D02*
G37*
G36*
X176696Y148500D02*
X175304D01*
X174017Y147967D01*
X173033Y146983D01*
X172500Y145696D01*
Y144304D01*
X173033Y143017D01*
X174017Y142033D01*
X175304Y141500D01*
X176696D01*
X177983Y142033D01*
X178967Y143017D01*
X179500Y144304D01*
Y145696D01*
X178967Y146983D01*
X177983Y147967D01*
X176696Y148500D01*
D02*
G37*
G36*
X19696D02*
X18304D01*
X17017Y147967D01*
X16033Y146983D01*
X15500Y145696D01*
Y144304D01*
X16033Y143017D01*
X17017Y142033D01*
X18304Y141500D01*
X19696D01*
X20983Y142033D01*
X21967Y143017D01*
X22500Y144304D01*
Y145696D01*
X21967Y146983D01*
X20983Y147967D01*
X19696Y148500D01*
D02*
G37*
G36*
X191696Y146500D02*
X190304D01*
X189017Y145967D01*
X188033Y144983D01*
X187500Y143696D01*
Y142304D01*
X188033Y141017D01*
X189017Y140033D01*
X190304Y139500D01*
X191696D01*
X192983Y140033D01*
X193967Y141017D01*
X194500Y142304D01*
Y143696D01*
X193967Y144983D01*
X192983Y145967D01*
X191696Y146500D01*
D02*
G37*
G36*
X64696Y137500D02*
X63304D01*
X62017Y136967D01*
X61033Y135983D01*
X60500Y134696D01*
Y133304D01*
X61033Y132017D01*
X62017Y131033D01*
X63304Y130500D01*
X64696D01*
X65983Y131033D01*
X66967Y132017D01*
X67500Y133304D01*
Y134696D01*
X66967Y135983D01*
X65983Y136967D01*
X64696Y137500D01*
D02*
G37*
G36*
X26663Y141517D02*
X25271D01*
X23985Y140985D01*
X23000Y140000D01*
X22467Y138714D01*
Y137321D01*
X23000Y136035D01*
X23834Y135201D01*
X23992Y134889D01*
X24089Y132842D01*
X23729Y132483D01*
X23196Y131196D01*
Y129804D01*
X23729Y128517D01*
X24714Y127533D01*
X26000Y127000D01*
X27392D01*
X28679Y127533D01*
X29663Y128517D01*
X30196Y129804D01*
Y131196D01*
X29663Y132483D01*
X28829Y133317D01*
X28671Y133628D01*
X28575Y135675D01*
X28934Y136035D01*
X29467Y137321D01*
Y138714D01*
X28934Y140000D01*
X27950Y140985D01*
X26663Y141517D01*
D02*
G37*
G36*
X57696Y131500D02*
X56304D01*
X55017Y130967D01*
X54033Y129983D01*
X53500Y128696D01*
Y127304D01*
X54033Y126017D01*
X55017Y125033D01*
X56304Y124500D01*
X57696D01*
X58983Y125033D01*
X59967Y126017D01*
X60500Y127304D01*
Y128696D01*
X59967Y129983D01*
X58983Y130967D01*
X57696Y131500D01*
D02*
G37*
G36*
X150696Y130500D02*
X149304D01*
X148017Y129967D01*
X147033Y128983D01*
X146500Y127696D01*
Y126304D01*
X147033Y125017D01*
X148017Y124033D01*
X149304Y123500D01*
X150696D01*
X151983Y124033D01*
X152967Y125017D01*
X153500Y126304D01*
Y127696D01*
X152967Y128983D01*
X151983Y129967D01*
X150696Y130500D01*
D02*
G37*
G36*
X70701Y130495D02*
X69309D01*
X68023Y129962D01*
X67038Y128977D01*
X66505Y127691D01*
Y126299D01*
X67038Y125012D01*
X68023Y124028D01*
X69309Y123495D01*
X70701D01*
X71988Y124028D01*
X72972Y125012D01*
X73505Y126299D01*
Y127691D01*
X72972Y128977D01*
X71988Y129962D01*
X70701Y130495D01*
D02*
G37*
G36*
X84696Y126500D02*
X83304D01*
X82017Y125967D01*
X81033Y124983D01*
X80500Y123696D01*
Y122304D01*
X81033Y121017D01*
X82017Y120033D01*
X83304Y119500D01*
X84696D01*
X85983Y120033D01*
X86967Y121017D01*
X87500Y122304D01*
Y123696D01*
X86967Y124983D01*
X85983Y125967D01*
X84696Y126500D01*
D02*
G37*
G36*
X169696Y120500D02*
X168304D01*
X167017Y119967D01*
X166033Y118983D01*
X165500Y117696D01*
Y116304D01*
X166033Y115017D01*
X167017Y114033D01*
X168304Y113500D01*
X169696D01*
X170983Y114033D01*
X171967Y115017D01*
X172500Y116304D01*
Y117696D01*
X171967Y118983D01*
X170983Y119967D01*
X169696Y120500D01*
D02*
G37*
G36*
X52696Y114500D02*
X51304D01*
X50017Y113967D01*
X49033Y112983D01*
X48500Y111696D01*
Y110304D01*
X49033Y109017D01*
X50017Y108033D01*
X51304Y107500D01*
X52696D01*
X53983Y108033D01*
X54967Y109017D01*
X55500Y110304D01*
Y111696D01*
X54967Y112983D01*
X53983Y113967D01*
X52696Y114500D01*
D02*
G37*
G36*
X144696Y112500D02*
X143304D01*
X142017Y111967D01*
X141033Y110983D01*
X140500Y109696D01*
Y108304D01*
X141033Y107017D01*
X142017Y106033D01*
X143304Y105500D01*
X144696D01*
X145983Y106033D01*
X146967Y107017D01*
X147500Y108304D01*
Y109696D01*
X146967Y110983D01*
X145983Y111967D01*
X144696Y112500D01*
D02*
G37*
G36*
X70696Y120500D02*
X69304D01*
X68017Y119967D01*
X67033Y118983D01*
X66500Y117696D01*
Y116304D01*
X67033Y115017D01*
X68017Y114033D01*
X69251Y113522D01*
X69331Y113312D01*
X69597Y111500D01*
X69517Y111467D01*
X68533Y110483D01*
X68000Y109196D01*
Y107804D01*
X68533Y106517D01*
X69517Y105533D01*
X70804Y105000D01*
X72196D01*
X73483Y105533D01*
X74467Y106517D01*
X75000Y107804D01*
Y109196D01*
X74467Y110483D01*
X73483Y111467D01*
X72249Y111978D01*
X72169Y112188D01*
X71903Y114000D01*
X71983Y114033D01*
X72967Y115017D01*
X73500Y116304D01*
Y117696D01*
X72967Y118983D01*
X71983Y119967D01*
X70696Y120500D01*
D02*
G37*
G36*
X185696Y102500D02*
X184304D01*
X183017Y101967D01*
X182033Y100983D01*
X181500Y99696D01*
Y98304D01*
X182033Y97017D01*
X183017Y96033D01*
X184304Y95500D01*
X185696D01*
X186983Y96033D01*
X187967Y97017D01*
X188500Y98304D01*
Y99696D01*
X187967Y100983D01*
X186983Y101967D01*
X185696Y102500D01*
D02*
G37*
G36*
X123696Y94500D02*
X122304D01*
X121017Y93967D01*
X120033Y92983D01*
X119500Y91696D01*
Y90304D01*
X120033Y89017D01*
X121017Y88033D01*
X122304Y87500D01*
X123696D01*
X124983Y88033D01*
X125967Y89017D01*
X126500Y90304D01*
Y91696D01*
X125967Y92983D01*
X124983Y93967D01*
X123696Y94500D01*
D02*
G37*
G36*
X117696Y84500D02*
X116304D01*
X115017Y83967D01*
X114033Y82983D01*
X113500Y81696D01*
Y80304D01*
X114033Y79017D01*
X115017Y78033D01*
X116304Y77500D01*
X117696D01*
X118983Y78033D01*
X119967Y79017D01*
X120500Y80304D01*
Y81696D01*
X119967Y82983D01*
X118983Y83967D01*
X117696Y84500D01*
D02*
G37*
G36*
X74696Y82500D02*
X73304D01*
X72017Y81967D01*
X71033Y80983D01*
X70500Y79696D01*
Y78304D01*
X71033Y77017D01*
X72017Y76033D01*
X73304Y75500D01*
X74696D01*
X75983Y76033D01*
X76967Y77017D01*
X77500Y78304D01*
Y79696D01*
X76967Y80983D01*
X75983Y81967D01*
X74696Y82500D01*
D02*
G37*
G36*
X27118Y96500D02*
X22882D01*
X18729Y95674D01*
X14816Y94053D01*
X11295Y91700D01*
X8300Y88705D01*
X5947Y85184D01*
X4326Y81271D01*
X3500Y77118D01*
Y72882D01*
X4326Y68729D01*
X5947Y64816D01*
X8300Y61295D01*
X11295Y58300D01*
X14816Y55947D01*
X18729Y54326D01*
X22882Y53500D01*
X27118D01*
X31271Y54326D01*
X35184Y55947D01*
X37485Y57484D01*
X39063Y56133D01*
X39033Y55983D01*
X38842Y55523D01*
X38500Y54696D01*
Y53304D01*
X39033Y52017D01*
X40017Y51033D01*
X41304Y50500D01*
X42696D01*
X43983Y51033D01*
X44967Y52017D01*
X45500Y53304D01*
Y54696D01*
X44967Y55983D01*
X43983Y56967D01*
X42696Y57500D01*
X41304D01*
X40017Y56967D01*
X40017D01*
X40907Y57336D01*
X39998Y56995D01*
X38928Y58495D01*
X38925Y58520D01*
X39637Y59231D01*
X41700Y61295D01*
X44053Y64816D01*
X45674Y68729D01*
X45910Y69916D01*
X47990Y70121D01*
X48033Y70017D01*
X49017Y69033D01*
X50304Y68500D01*
X51696D01*
X52983Y69033D01*
X53967Y70017D01*
X54500Y71304D01*
Y72696D01*
X53967Y73983D01*
X52983Y74967D01*
X51696Y75500D01*
X50304D01*
X49017Y74967D01*
X48500Y74450D01*
X46500Y75110D01*
Y77118D01*
X45674Y81271D01*
X44053Y85184D01*
X41700Y88705D01*
X38705Y91700D01*
X35184Y94053D01*
X31271Y95674D01*
X27118Y96500D01*
D02*
G37*
G36*
X116696Y63500D02*
X115304D01*
X114017Y62967D01*
X113033Y61983D01*
X112500Y60696D01*
Y59304D01*
X113033Y58017D01*
X114017Y57033D01*
X115304Y56500D01*
X116696D01*
X117983Y57033D01*
X118967Y58017D01*
X119500Y59304D01*
Y60696D01*
X118967Y61983D01*
X117983Y62967D01*
X116696Y63500D01*
D02*
G37*
G36*
X74821Y57375D02*
X73429D01*
X72142Y56842D01*
X71158Y55858D01*
X70625Y54571D01*
Y53179D01*
X71158Y51892D01*
X72142Y50908D01*
X73429Y50375D01*
X74821D01*
X76108Y50908D01*
X77092Y51892D01*
X77625Y53179D01*
Y54571D01*
X77092Y55858D01*
X76108Y56842D01*
X74821Y57375D01*
D02*
G37*
G36*
X62696Y52000D02*
X61304D01*
X60017Y51467D01*
X59033Y50483D01*
X58500Y49196D01*
Y47804D01*
X59033Y46517D01*
X60017Y45533D01*
X61304Y45000D01*
X62696D01*
X63983Y45533D01*
X64967Y46517D01*
X65500Y47804D01*
Y49196D01*
X64967Y50483D01*
X63983Y51467D01*
X62696Y52000D01*
D02*
G37*
G36*
X42696Y44500D02*
X41304D01*
X40017Y43967D01*
X39033Y42983D01*
X38500Y41696D01*
Y40304D01*
X39033Y39017D01*
X40017Y38033D01*
X41304Y37500D01*
X42696D01*
X43983Y38033D01*
X44967Y39017D01*
X45500Y40304D01*
Y41696D01*
X44967Y42983D01*
X43983Y43967D01*
X42696Y44500D01*
D02*
G37*
G36*
X124696Y39500D02*
X123304D01*
X122017Y38967D01*
X121033Y37983D01*
X120500Y36696D01*
Y35304D01*
X121033Y34017D01*
X122017Y33033D01*
X123304Y32500D01*
X124696D01*
X125983Y33033D01*
X126967Y34017D01*
X127500Y35304D01*
Y36696D01*
X126967Y37983D01*
X125983Y38967D01*
X124696Y39500D01*
D02*
G37*
G36*
X217118Y71500D02*
X212882D01*
X208729Y70674D01*
X204816Y69053D01*
X201295Y66700D01*
X198300Y63705D01*
X195947Y60184D01*
X194326Y56271D01*
X193500Y52118D01*
Y47882D01*
X194326Y43729D01*
X195947Y39816D01*
X198300Y36295D01*
X201295Y33300D01*
X204816Y30947D01*
X208729Y29326D01*
X212882Y28500D01*
X217118D01*
X221271Y29326D01*
X225184Y30947D01*
X228705Y33300D01*
X231700Y36295D01*
X234053Y39816D01*
X235674Y43729D01*
X236500Y47882D01*
Y52118D01*
X235674Y56271D01*
X234053Y60184D01*
X231700Y63705D01*
X228705Y66700D01*
X225184Y69053D01*
X221271Y70674D01*
X217118Y71500D01*
D02*
G37*
G36*
X74696Y32500D02*
X73304D01*
X72017Y31967D01*
X71033Y30983D01*
X70500Y29696D01*
Y28304D01*
X71033Y27017D01*
X72017Y26033D01*
X73304Y25500D01*
X74696D01*
X75983Y26033D01*
X76967Y27017D01*
X77500Y28304D01*
Y29696D01*
X76967Y30983D01*
X75983Y31967D01*
X74696Y32500D01*
D02*
G37*
G36*
X54696Y27500D02*
X53304D01*
X52017Y26967D01*
X51033Y25983D01*
X50500Y24696D01*
Y23304D01*
X51033Y22017D01*
X52017Y21033D01*
X53304Y20500D01*
X54696D01*
X55983Y21033D01*
X56967Y22017D01*
X57500Y23304D01*
Y24696D01*
X56967Y25983D01*
X55983Y26967D01*
X54696Y27500D01*
D02*
G37*
G36*
X63696Y26500D02*
X62304D01*
X61017Y25967D01*
X60033Y24983D01*
X59500Y23696D01*
Y22304D01*
X60033Y21017D01*
X61017Y20033D01*
X62304Y19500D01*
X63696D01*
X64162Y19693D01*
X65693Y18162D01*
X65500Y17696D01*
Y16304D01*
X66033Y15017D01*
X67017Y14033D01*
X68304Y13500D01*
X69696D01*
X70983Y14033D01*
X71967Y15017D01*
X72500Y16304D01*
Y17696D01*
X71967Y18983D01*
X70983Y19967D01*
X69696Y20500D01*
X68304D01*
X67838Y20307D01*
X66307Y21838D01*
X66500Y22304D01*
Y23696D01*
X65967Y24983D01*
X64983Y25967D01*
X63696Y26500D01*
D02*
G37*
G36*
X77696Y14500D02*
X76304D01*
X75017Y13967D01*
X74033Y12983D01*
X73500Y11696D01*
Y10304D01*
X74033Y9017D01*
X75017Y8033D01*
X76304Y7500D01*
X77696D01*
X78983Y8033D01*
X79967Y9017D01*
X80500Y10304D01*
Y11696D01*
X79967Y12983D01*
X78983Y13967D01*
X77696Y14500D01*
D02*
G37*
%LPD*%
D13*
X215000Y439000D02*
D03*
X25000Y364000D02*
D03*
Y75000D02*
D03*
X215000Y50000D02*
D03*
D14*
X3344Y141783D02*
D03*
X19000Y145000D02*
D03*
X25967Y138017D02*
D03*
X26696Y130500D02*
D03*
X42000Y41000D02*
D03*
Y54000D02*
D03*
X84000Y123000D02*
D03*
X209000Y290000D02*
D03*
X122000Y280000D02*
D03*
X62000Y48500D02*
D03*
X194000Y338000D02*
D03*
X138000Y454000D02*
D03*
X49000Y448000D02*
D03*
X64000Y312000D02*
D03*
X115000Y188000D02*
D03*
X114000Y240000D02*
D03*
Y292000D02*
D03*
X117000Y81000D02*
D03*
X116000Y60000D02*
D03*
X124000Y36000D02*
D03*
X123000Y91000D02*
D03*
X185000Y99000D02*
D03*
X2000Y162000D02*
D03*
Y156000D02*
D03*
Y150000D02*
D03*
X252000Y385000D02*
D03*
X254000Y402000D02*
D03*
X247000D02*
D03*
X87000Y260000D02*
D03*
X86000Y281000D02*
D03*
X13241Y101706D02*
D03*
X85000Y177000D02*
D03*
X99000Y29000D02*
D03*
Y54000D02*
D03*
Y79000D02*
D03*
X100000Y101000D02*
D03*
X260000Y432000D02*
D03*
Y417000D02*
D03*
X245000Y432000D02*
D03*
X230000Y87000D02*
D03*
Y72000D02*
D03*
Y27000D02*
D03*
Y12000D02*
D03*
X215000Y87000D02*
D03*
Y12000D02*
D03*
X200000Y207000D02*
D03*
Y132000D02*
D03*
Y117000D02*
D03*
Y102000D02*
D03*
Y87000D02*
D03*
Y72000D02*
D03*
Y27000D02*
D03*
Y12000D02*
D03*
X185000Y447000D02*
D03*
Y432000D02*
D03*
Y237000D02*
D03*
Y87000D02*
D03*
Y72000D02*
D03*
Y57000D02*
D03*
Y42000D02*
D03*
Y27000D02*
D03*
Y12000D02*
D03*
X170000Y447000D02*
D03*
Y432000D02*
D03*
Y237000D02*
D03*
Y222000D02*
D03*
Y102000D02*
D03*
Y87000D02*
D03*
Y72000D02*
D03*
Y57000D02*
D03*
Y42000D02*
D03*
Y12000D02*
D03*
X155000Y447000D02*
D03*
Y432000D02*
D03*
Y237000D02*
D03*
Y222000D02*
D03*
Y207000D02*
D03*
X140000Y237000D02*
D03*
Y222000D02*
D03*
Y207000D02*
D03*
Y42000D02*
D03*
Y27000D02*
D03*
X125000Y342000D02*
D03*
Y72000D02*
D03*
Y57000D02*
D03*
Y27000D02*
D03*
X110000Y372000D02*
D03*
X95000D02*
D03*
X80000D02*
D03*
Y267000D02*
D03*
Y252000D02*
D03*
Y237000D02*
D03*
Y222000D02*
D03*
X65000Y372000D02*
D03*
Y342000D02*
D03*
Y252000D02*
D03*
Y222000D02*
D03*
X50000Y12000D02*
D03*
X35000Y447000D02*
D03*
Y432000D02*
D03*
Y417000D02*
D03*
Y402000D02*
D03*
Y387000D02*
D03*
Y342000D02*
D03*
Y42000D02*
D03*
Y27000D02*
D03*
Y12000D02*
D03*
X20000Y447000D02*
D03*
Y432000D02*
D03*
Y417000D02*
D03*
Y402000D02*
D03*
Y387000D02*
D03*
Y312000D02*
D03*
Y42000D02*
D03*
Y27000D02*
D03*
Y12000D02*
D03*
X5000Y447000D02*
D03*
Y432000D02*
D03*
Y417000D02*
D03*
Y402000D02*
D03*
Y387000D02*
D03*
Y342000D02*
D03*
Y252000D02*
D03*
Y222000D02*
D03*
Y207000D02*
D03*
Y177000D02*
D03*
Y102000D02*
D03*
Y57000D02*
D03*
Y42000D02*
D03*
Y27000D02*
D03*
Y12000D02*
D03*
X46000Y152000D02*
D03*
X11000Y178000D02*
D03*
X74000Y79000D02*
D03*
X74125Y53875D02*
D03*
X74000Y29000D02*
D03*
X139000Y400000D02*
D03*
X218000Y401000D02*
D03*
X228000Y360918D02*
D03*
X235000Y385000D02*
D03*
X221000Y374000D02*
D03*
X209000Y265000D02*
D03*
X58000Y187000D02*
D03*
X200000Y151000D02*
D03*
Y176000D02*
D03*
X191000Y143000D02*
D03*
X70000Y142000D02*
D03*
X176000Y145000D02*
D03*
X52000Y276929D02*
D03*
X258000Y350000D02*
D03*
X250000D02*
D03*
X258000Y357000D02*
D03*
X250000D02*
D03*
X98000Y151000D02*
D03*
Y203000D02*
D03*
X97000Y255000D02*
D03*
X122000Y228000D02*
D03*
Y177000D02*
D03*
X196000Y356000D02*
D03*
X197000Y364000D02*
D03*
X145000D02*
D03*
X197000Y370000D02*
D03*
X208000Y376000D02*
D03*
X178000D02*
D03*
X184000Y392000D02*
D03*
X240000Y377000D02*
D03*
X244000Y387000D02*
D03*
X172000Y392000D02*
D03*
X139000Y343000D02*
D03*
X142000Y334000D02*
D03*
X155000Y401000D02*
D03*
X99656Y401344D02*
D03*
X92875Y401125D02*
D03*
X80000Y398000D02*
D03*
X71000Y400000D02*
D03*
X119875Y401125D02*
D03*
X112000Y401000D02*
D03*
X224000Y400000D02*
D03*
X228000Y387000D02*
D03*
X230000Y405000D02*
D03*
X237000Y413000D02*
D03*
X248000Y414000D02*
D03*
X54000Y24000D02*
D03*
X77000Y11000D02*
D03*
X69000Y17000D02*
D03*
X52000Y111000D02*
D03*
X144000Y109000D02*
D03*
X71500Y108500D02*
D03*
X169000Y117000D02*
D03*
X70000Y117000D02*
D03*
X150000Y127000D02*
D03*
X70005Y126995D02*
D03*
X57000Y128000D02*
D03*
X64000Y134000D02*
D03*
X51000Y72000D02*
D03*
X63000Y23000D02*
D03*
X31000Y146000D02*
D03*
X106000Y329000D02*
D03*
X63000Y144000D02*
D03*
X55000D02*
D03*
X97000Y329000D02*
D03*
X79000Y329125D02*
D03*
X70000Y329487D02*
D03*
M02*
