G04*
G04 #@! TF.GenerationSoftware,Altium Limited,Altium Designer,24.9.1 (31)*
G04*
G04 Layer_Physical_Order=4*
G04 Layer_Color=16711680*
%FSLAX44Y44*%
%MOMM*%
G71*
G04*
G04 #@! TF.SameCoordinates,B31CAF09-BB74-4FAA-89E9-8BE817FA7118*
G04*
G04*
G04 #@! TF.FilePolarity,Positive*
G04*
G01*
G75*
%ADD11C,0.2200*%
%ADD12C,0.5000*%
%ADD13C,4.0000*%
%ADD14C,0.4000*%
%ADD15C,0.3000*%
%ADD16C,0.4000*%
G04:AMPARAMS|DCode=17|XSize=0.65mm|YSize=0.6mm|CornerRadius=0.15mm|HoleSize=0mm|Usage=FLASHONLY|Rotation=270.000|XOffset=0mm|YOffset=0mm|HoleType=Round|Shape=RoundedRectangle|*
%AMROUNDEDRECTD17*
21,1,0.6500,0.3000,0,0,270.0*
21,1,0.3500,0.6000,0,0,270.0*
1,1,0.3000,-0.1500,-0.1750*
1,1,0.3000,-0.1500,0.1750*
1,1,0.3000,0.1500,0.1750*
1,1,0.3000,0.1500,-0.1750*
%
%ADD17ROUNDEDRECTD17*%
G04:AMPARAMS|DCode=18|XSize=0.8mm|YSize=0.6mm|CornerRadius=0.15mm|HoleSize=0mm|Usage=FLASHONLY|Rotation=90.000|XOffset=0mm|YOffset=0mm|HoleType=Round|Shape=RoundedRectangle|*
%AMROUNDEDRECTD18*
21,1,0.8000,0.3000,0,0,90.0*
21,1,0.5000,0.6000,0,0,90.0*
1,1,0.3000,0.1500,0.2500*
1,1,0.3000,0.1500,-0.2500*
1,1,0.3000,-0.1500,-0.2500*
1,1,0.3000,-0.1500,0.2500*
%
%ADD18ROUNDEDRECTD18*%
%ADD19R,0.6500X0.8500*%
%ADD20R,0.3500X0.7000*%
%ADD21R,0.2300X0.7000*%
%ADD22R,0.7000X0.2300*%
%ADD23R,0.7000X0.3500*%
%ADD24R,1.1000X0.6000*%
G04:AMPARAMS|DCode=25|XSize=0.65mm|YSize=0.6mm|CornerRadius=0.15mm|HoleSize=0mm|Usage=FLASHONLY|Rotation=180.000|XOffset=0mm|YOffset=0mm|HoleType=Round|Shape=RoundedRectangle|*
%AMROUNDEDRECTD25*
21,1,0.6500,0.3000,0,0,180.0*
21,1,0.3500,0.6000,0,0,180.0*
1,1,0.3000,-0.1750,0.1500*
1,1,0.3000,0.1750,0.1500*
1,1,0.3000,0.1750,-0.1500*
1,1,0.3000,-0.1750,-0.1500*
%
%ADD25ROUNDEDRECTD25*%
G04:AMPARAMS|DCode=26|XSize=1.1mm|YSize=1mm|CornerRadius=0.25mm|HoleSize=0mm|Usage=FLASHONLY|Rotation=180.000|XOffset=0mm|YOffset=0mm|HoleType=Round|Shape=RoundedRectangle|*
%AMROUNDEDRECTD26*
21,1,1.1000,0.5000,0,0,180.0*
21,1,0.6000,1.0000,0,0,180.0*
1,1,0.5000,-0.3000,0.2500*
1,1,0.5000,0.3000,0.2500*
1,1,0.5000,0.3000,-0.2500*
1,1,0.5000,-0.3000,-0.2500*
%
%ADD26ROUNDEDRECTD26*%
%ADD27R,0.6000X1.1000*%
G04:AMPARAMS|DCode=28|XSize=1.1mm|YSize=1mm|CornerRadius=0.25mm|HoleSize=0mm|Usage=FLASHONLY|Rotation=270.000|XOffset=0mm|YOffset=0mm|HoleType=Round|Shape=RoundedRectangle|*
%AMROUNDEDRECTD28*
21,1,1.1000,0.5000,0,0,270.0*
21,1,0.6000,1.0000,0,0,270.0*
1,1,0.5000,-0.2500,-0.3000*
1,1,0.5000,-0.2500,0.3000*
1,1,0.5000,0.2500,0.3000*
1,1,0.5000,0.2500,-0.3000*
%
%ADD28ROUNDEDRECTD28*%
G04:AMPARAMS|DCode=29|XSize=0.3mm|YSize=0.66mm|CornerRadius=0.075mm|HoleSize=0mm|Usage=FLASHONLY|Rotation=270.000|XOffset=0mm|YOffset=0mm|HoleType=Round|Shape=RoundedRectangle|*
%AMROUNDEDRECTD29*
21,1,0.3000,0.5100,0,0,270.0*
21,1,0.1500,0.6600,0,0,270.0*
1,1,0.1500,-0.2550,-0.0750*
1,1,0.1500,-0.2550,0.0750*
1,1,0.1500,0.2550,0.0750*
1,1,0.1500,0.2550,-0.0750*
%
%ADD29ROUNDEDRECTD29*%
G04:AMPARAMS|DCode=30|XSize=1.5mm|YSize=0.45mm|CornerRadius=0.1125mm|HoleSize=0mm|Usage=FLASHONLY|Rotation=90.000|XOffset=0mm|YOffset=0mm|HoleType=Round|Shape=RoundedRectangle|*
%AMROUNDEDRECTD30*
21,1,1.5000,0.2250,0,0,90.0*
21,1,1.2750,0.4500,0,0,90.0*
1,1,0.2250,0.1125,0.6375*
1,1,0.2250,0.1125,-0.6375*
1,1,0.2250,-0.1125,-0.6375*
1,1,0.2250,-0.1125,0.6375*
%
%ADD30ROUNDEDRECTD30*%
G04:AMPARAMS|DCode=31|XSize=1.5mm|YSize=0.4mm|CornerRadius=0.1mm|HoleSize=0mm|Usage=FLASHONLY|Rotation=90.000|XOffset=0mm|YOffset=0mm|HoleType=Round|Shape=RoundedRectangle|*
%AMROUNDEDRECTD31*
21,1,1.5000,0.2000,0,0,90.0*
21,1,1.3000,0.4000,0,0,90.0*
1,1,0.2000,0.1000,0.6500*
1,1,0.2000,0.1000,-0.6500*
1,1,0.2000,-0.1000,-0.6500*
1,1,0.2000,-0.1000,0.6500*
%
%ADD31ROUNDEDRECTD31*%
%ADD32C,0.2000*%
G36*
X224500Y386369D02*
Y386304D01*
X225033Y385017D01*
X226017Y384033D01*
X227304Y383500D01*
X228696D01*
X229667Y383902D01*
X230078Y383992D01*
X231963Y383185D01*
X232005Y383085D01*
Y381267D01*
X230126Y379387D01*
X229551Y378527D01*
X229349Y377513D01*
X229349Y377513D01*
Y372490D01*
X229270D01*
Y366450D01*
X226730D01*
Y372490D01*
X225966D01*
X225825Y372701D01*
X225824Y372701D01*
X224500Y374026D01*
Y374696D01*
X223967Y375983D01*
X222983Y376967D01*
X221696Y377500D01*
X220304D01*
X218601Y378959D01*
Y379050D01*
X218601Y379050D01*
X218399Y380065D01*
X217824Y380924D01*
X217824Y380925D01*
X215950Y382799D01*
X216778Y384799D01*
X218227D01*
X218227Y384799D01*
X219241Y385001D01*
X220101Y385575D01*
X221824Y387299D01*
X221824Y387299D01*
X222187Y387841D01*
X222576Y387880D01*
X224500Y386369D01*
D02*
G37*
G36*
X240000Y443000D02*
X274000D01*
Y345000D01*
X264909D01*
X263624Y347000D01*
Y357000D01*
X263148Y358148D01*
X261305Y359991D01*
X260000Y361450D01*
Y371450D01*
X253419D01*
X253000Y371624D01*
X247000D01*
X246581Y371450D01*
X243195D01*
X242105Y373418D01*
X242288Y374338D01*
X242967Y375017D01*
X243500Y376304D01*
Y377696D01*
X242967Y378983D01*
X241983Y379967D01*
X240696Y380500D01*
X239304D01*
X238673Y380923D01*
X237967Y383017D01*
X238500Y384304D01*
Y385324D01*
X239453Y386486D01*
X239711Y386701D01*
X240500Y386304D01*
X241033Y385017D01*
X242017Y384033D01*
X243304Y383500D01*
X244696D01*
X245983Y384033D01*
X246967Y385017D01*
X247500Y386304D01*
Y387510D01*
X250730D01*
Y393550D01*
Y399590D01*
X249270D01*
Y393550D01*
X246730D01*
Y399590D01*
X244310D01*
X242651Y400413D01*
Y405133D01*
X248018Y410500D01*
X248696D01*
X249983Y411033D01*
X250967Y412017D01*
X251500Y413304D01*
Y414696D01*
X250967Y415983D01*
X249983Y416967D01*
X248696Y417500D01*
X247304D01*
X246017Y416967D01*
X245033Y415983D01*
X244500Y414696D01*
Y414481D01*
X242500Y412481D01*
X240500Y413309D01*
Y413696D01*
X239967Y414983D01*
X238983Y415967D01*
X237696Y416500D01*
X236304D01*
X235017Y415967D01*
X234033Y414983D01*
X233500Y413696D01*
Y412304D01*
X233504Y412294D01*
X233349Y411513D01*
X233349Y411513D01*
Y409401D01*
X233013Y409048D01*
X231349Y408230D01*
X230696Y408500D01*
X229304D01*
X228017Y407967D01*
X227033Y406983D01*
X226500Y405696D01*
Y404918D01*
X225169Y403711D01*
X224696Y403500D01*
X223304D01*
X222017Y402967D01*
X219803Y402802D01*
X219465Y403028D01*
X218975Y403355D01*
X218000Y403549D01*
X217025Y403355D01*
X216594Y403067D01*
X216213Y403064D01*
X215199Y403369D01*
X214453Y403792D01*
X214399Y404064D01*
X213825Y404925D01*
X213824Y404925D01*
X208874Y409874D01*
X208015Y410449D01*
X207000Y410651D01*
X207000Y410651D01*
X173000D01*
X173000Y410651D01*
X171985Y410449D01*
X171126Y409874D01*
X160035Y398784D01*
X158340Y399917D01*
X158500Y400304D01*
Y401696D01*
X157967Y402983D01*
X156983Y403967D01*
X155696Y404500D01*
X154304D01*
X153017Y403967D01*
X152078Y403028D01*
X151826Y403036D01*
X150078Y403490D01*
Y414321D01*
X149768Y415882D01*
X148884Y417205D01*
X148884Y417205D01*
X146705Y419384D01*
X145382Y420268D01*
X143821Y420578D01*
X143821Y420578D01*
X140054D01*
X139663Y421163D01*
X138671Y421826D01*
X137500Y422059D01*
X134500D01*
X133329Y421826D01*
X132337Y421163D01*
X131683Y420184D01*
X128132D01*
X128052Y420302D01*
X127225Y420855D01*
X126250Y421049D01*
X124626D01*
X124010Y421951D01*
X123735Y422986D01*
X131874Y431125D01*
X131875Y431125D01*
X132449Y431986D01*
X132651Y433000D01*
X132651Y433000D01*
Y439170D01*
X132670Y439174D01*
X133663Y439837D01*
X134326Y440829D01*
X134559Y442000D01*
Y445500D01*
X134326Y446670D01*
X133663Y447663D01*
X133325Y447889D01*
X133292Y447977D01*
X133882Y449922D01*
X138000D01*
X139561Y450232D01*
X140884Y451116D01*
X141768Y452439D01*
X142078Y454000D01*
X141768Y455561D01*
X140884Y456884D01*
X139561Y457768D01*
X138000Y458078D01*
X133719D01*
X133663Y458163D01*
X132670Y458826D01*
X131500Y459059D01*
X128500D01*
X127330Y458826D01*
X126585Y458328D01*
X124415D01*
X123671Y458826D01*
X122500Y459059D01*
X119500D01*
X118329Y458826D01*
X117585Y458328D01*
X115415D01*
X114670Y458826D01*
X113500Y459059D01*
X110500D01*
X109330Y458826D01*
X108337Y458163D01*
X106663Y458163D01*
X105670Y458826D01*
X104500Y459059D01*
X101500D01*
X100330Y458826D01*
X99585Y458328D01*
X97415D01*
X96671Y458826D01*
X95500Y459059D01*
X92500D01*
X91329Y458826D01*
X90585Y458328D01*
X88415D01*
X87670Y458826D01*
X86500Y459059D01*
X83500D01*
X82330Y458826D01*
X81585Y458328D01*
X79415D01*
X78671Y458826D01*
X77500Y459059D01*
X74500D01*
X73330Y458826D01*
X72585Y458328D01*
X70415D01*
X69671Y458826D01*
X68500Y459059D01*
X65500D01*
X64330Y458826D01*
X63585Y458328D01*
X61415D01*
X60670Y458826D01*
X59500Y459059D01*
X56500D01*
X55329Y458826D01*
X54585Y458328D01*
X51929D01*
X51929Y458328D01*
X50368Y458018D01*
X49045Y457134D01*
X49045Y457134D01*
X46116Y454205D01*
X45232Y452882D01*
X44922Y451321D01*
X44922Y451321D01*
Y448000D01*
X45232Y446439D01*
X46116Y445116D01*
X47439Y444232D01*
X49000Y443922D01*
X50561Y444232D01*
X51441Y444820D01*
X52985Y444281D01*
X53441Y443935D01*
Y442000D01*
X53674Y440829D01*
X54337Y439837D01*
X55329Y439174D01*
X55349Y439170D01*
Y434000D01*
X55349Y434000D01*
X55551Y432985D01*
X56125Y432126D01*
X64099Y424152D01*
Y420404D01*
X63948Y420302D01*
X63395Y419475D01*
X63201Y418500D01*
Y405500D01*
X63395Y404525D01*
X63948Y403698D01*
X64775Y403145D01*
X65750Y402951D01*
X66388D01*
X67606Y400951D01*
X67500Y400696D01*
Y399304D01*
X68033Y398017D01*
X68972Y397078D01*
X68964Y396826D01*
X68510Y395078D01*
X61000D01*
X61000Y395078D01*
X59439Y394768D01*
X58116Y393884D01*
X52116Y387884D01*
X51232Y386561D01*
X50922Y385000D01*
X50922Y385000D01*
Y345689D01*
X39311Y334078D01*
X36256D01*
X35384Y335384D01*
X34061Y336268D01*
X32500Y336578D01*
X26500D01*
X24939Y336268D01*
X23616Y335384D01*
X22732Y334061D01*
X22550Y333144D01*
X20511D01*
X20247Y334467D01*
X19134Y336134D01*
X17466Y337248D01*
X15500Y337639D01*
X13770D01*
Y330000D01*
X12500D01*
Y328730D01*
X4361D01*
Y327500D01*
X4752Y325533D01*
X5777Y324000D01*
X5622Y323302D01*
X5060Y322000D01*
X5000D01*
Y308000D01*
X14000D01*
X14000Y321280D01*
X15477Y322345D01*
X15824Y322426D01*
X17466Y322752D01*
X19134Y323866D01*
X20247Y325533D01*
X20511Y326856D01*
X22550D01*
X22732Y325939D01*
X23616Y324616D01*
X24422Y324078D01*
Y322000D01*
X24000D01*
Y308000D01*
X33000D01*
Y322000D01*
X33781Y323676D01*
X34061Y323732D01*
X35384Y324616D01*
X36256Y325922D01*
X41000D01*
X41000Y325922D01*
X42561Y326232D01*
X43884Y327116D01*
X57884Y341116D01*
X57884Y341116D01*
X58768Y342439D01*
X59078Y344000D01*
X59078Y344000D01*
Y383311D01*
X62689Y386922D01*
X140000D01*
X140000Y386922D01*
X141561Y387232D01*
X142884Y388116D01*
X148884Y394116D01*
X148884Y394116D01*
X149768Y395439D01*
X149952Y396363D01*
X151458Y397173D01*
X152078Y397251D01*
X152349Y397043D01*
Y350143D01*
X150349Y349400D01*
X147651Y352098D01*
Y361701D01*
X147967Y362017D01*
X148500Y363304D01*
Y364696D01*
X147967Y365983D01*
X146983Y366967D01*
X145696Y367500D01*
X144304D01*
X143017Y366967D01*
X142033Y365983D01*
X141500Y364696D01*
Y363304D01*
X142033Y362017D01*
X142349Y361701D01*
Y351000D01*
X142349Y351000D01*
X142551Y349986D01*
X143125Y349126D01*
X146349Y345902D01*
Y337429D01*
X144349Y336601D01*
X143983Y336967D01*
X142814Y337451D01*
X142623Y337581D01*
X142605Y337602D01*
X141513Y339500D01*
X141603Y339952D01*
Y340653D01*
X141967Y341017D01*
X142500Y342304D01*
Y343696D01*
X141967Y344983D01*
X140983Y345967D01*
X139696Y346500D01*
X138304D01*
X137017Y345967D01*
X136033Y344983D01*
X135500Y343696D01*
Y342304D01*
X136033Y341017D01*
X136151Y340900D01*
X127126Y331875D01*
X126551Y331015D01*
X126349Y330000D01*
X126349Y330000D01*
Y284127D01*
X126110Y283924D01*
X124349Y283241D01*
X123561Y283768D01*
X122000Y284078D01*
X117588D01*
X117384Y284384D01*
X116061Y285268D01*
X114500Y285578D01*
X109500D01*
X109289Y285536D01*
X106179Y288647D01*
Y294014D01*
X106663Y294337D01*
X106889Y294675D01*
X106988Y294711D01*
X109012D01*
X109111Y294675D01*
X109337Y294337D01*
X110329Y293674D01*
X110654Y293067D01*
X110500Y292696D01*
Y291304D01*
X111033Y290017D01*
X112017Y289033D01*
X113304Y288500D01*
X114696D01*
X115983Y289033D01*
X116967Y290017D01*
X117500Y291304D01*
Y292696D01*
X116967Y293983D01*
X116991Y294222D01*
X117163Y294337D01*
X117826Y295329D01*
X118059Y296500D01*
Y299500D01*
X117826Y300671D01*
X117163Y301663D01*
X116171Y302326D01*
X115000Y302559D01*
X111500D01*
X110330Y302326D01*
X109337Y301663D01*
X109111Y301325D01*
X109012Y301289D01*
X106988D01*
X106889Y301325D01*
X106663Y301663D01*
X105671Y302326D01*
X104500Y302559D01*
X101000D01*
X99830Y302326D01*
X98837Y301663D01*
X98230Y300754D01*
X96966Y300567D01*
X96129Y300643D01*
X95134Y302134D01*
X93467Y303248D01*
X91500Y303639D01*
X89770D01*
Y296000D01*
Y288361D01*
X91500D01*
X93467Y288752D01*
X95134Y289866D01*
X96248Y291534D01*
X96639Y293500D01*
Y294027D01*
X98455Y294578D01*
X100062Y293411D01*
Y287380D01*
X100062Y287380D01*
X100137Y287000D01*
X99046Y285264D01*
X98697Y285000D01*
X90000D01*
Y276540D01*
X88960D01*
Y272270D01*
X97000D01*
Y269730D01*
X88960D01*
Y265460D01*
X90000D01*
Y257000D01*
X91875D01*
X93500Y255696D01*
Y254304D01*
X93990Y253120D01*
X93752Y252626D01*
X92852Y251370D01*
X91500Y251639D01*
X89770D01*
Y244000D01*
Y236361D01*
X91500D01*
X93467Y236752D01*
X95134Y237866D01*
X96248Y239534D01*
X96570Y241153D01*
X97658Y241711D01*
X98639Y241914D01*
X99691Y241107D01*
Y235750D01*
X99691Y235750D01*
X99840Y235000D01*
X99074Y233585D01*
X98574Y233000D01*
X90000D01*
Y224540D01*
X88960D01*
Y220270D01*
X97000D01*
Y217730D01*
X88960D01*
Y213460D01*
X90000D01*
Y205000D01*
X92875D01*
X94500Y203696D01*
Y202304D01*
X94991Y201120D01*
X94753Y200626D01*
X93852Y199370D01*
X92500Y199639D01*
X90770D01*
Y192000D01*
Y184361D01*
X92500D01*
X94466Y184752D01*
X96134Y185866D01*
X97248Y187533D01*
X97570Y189153D01*
X98658Y189711D01*
X99639Y189914D01*
X100691Y189107D01*
Y183750D01*
X100691Y183750D01*
X100840Y183000D01*
X100074Y181585D01*
X99574Y181000D01*
X91000D01*
Y172540D01*
X89960D01*
Y168270D01*
X98000D01*
Y165730D01*
X89960D01*
Y161460D01*
X91000D01*
Y153000D01*
X92875D01*
X94500Y151696D01*
Y150304D01*
X95033Y149017D01*
X95550Y148500D01*
X94890Y146500D01*
X88000D01*
Y135000D01*
X89181D01*
Y131000D01*
X88000D01*
Y130287D01*
X86000Y129547D01*
X83559Y131988D01*
Y133500D01*
X83326Y134670D01*
X83032Y135111D01*
X82677Y135699D01*
X83398Y137577D01*
X83413Y137587D01*
X84306Y138924D01*
X84619Y140500D01*
Y140980D01*
X79000D01*
Y142250D01*
X77730D01*
Y148119D01*
X77500D01*
X75924Y147806D01*
X74587Y146913D01*
X73898Y145880D01*
X72930Y145419D01*
X71568Y145139D01*
X70696Y145500D01*
X69304D01*
X68334Y145098D01*
X67922Y145008D01*
X66037Y145815D01*
X65967Y145983D01*
X64983Y146967D01*
X63696Y147500D01*
X62304D01*
X61017Y146967D01*
X60033Y145983D01*
X57967D01*
X56983Y146967D01*
X55696Y147500D01*
X54304D01*
X53017Y146967D01*
X52033Y145983D01*
X51528Y144764D01*
X51415Y144651D01*
X42550D01*
Y147376D01*
X49000D01*
X50148Y147852D01*
X50624Y149000D01*
Y155000D01*
X50399Y155542D01*
X51148Y155852D01*
X61148Y165852D01*
X61624Y167000D01*
Y186327D01*
X62673Y187376D01*
X65902Y187376D01*
X66524Y186754D01*
X66616Y186616D01*
X66754Y186524D01*
X67376Y185902D01*
Y181000D01*
X65000D01*
Y172000D01*
X79000D01*
Y181000D01*
X76624D01*
Y183328D01*
X79148Y185852D01*
X79624Y187000D01*
Y187984D01*
X81624Y188181D01*
X81753Y187533D01*
X82866Y185866D01*
X84534Y184752D01*
X86500Y184361D01*
X88230D01*
Y192000D01*
Y199639D01*
X86500D01*
X84534Y199247D01*
X82866Y198134D01*
X81753Y196467D01*
X81514Y195266D01*
X80733Y195156D01*
X79487Y195329D01*
X79345Y195672D01*
X79268Y196061D01*
X78384Y197384D01*
X77061Y198268D01*
X75500Y198578D01*
X69500D01*
X67939Y198268D01*
X66616Y197384D01*
X66108Y196624D01*
X60000D01*
X58852Y196148D01*
X54624Y191920D01*
X52624Y192748D01*
X52624Y236327D01*
X55672Y239376D01*
X64328D01*
X65376Y238328D01*
Y233000D01*
X64000D01*
Y224000D01*
X78000D01*
Y233000D01*
X76624D01*
Y238108D01*
X77384Y238616D01*
X78268Y239939D01*
X78450Y240856D01*
X80489D01*
X80752Y239534D01*
X81866Y237866D01*
X83533Y236752D01*
X85500Y236361D01*
X87230D01*
Y244000D01*
Y251639D01*
X85500D01*
X83533Y251248D01*
X81866Y250134D01*
X80752Y248466D01*
X80489Y247144D01*
X78450D01*
X78268Y248061D01*
X77384Y249384D01*
X76061Y250268D01*
X74500Y250578D01*
X68500D01*
X66939Y250268D01*
X65616Y249384D01*
X65108Y248624D01*
X50000D01*
X48852Y248148D01*
X43852Y243148D01*
X43376Y242000D01*
Y182673D01*
X40328Y179624D01*
X35377D01*
X34770Y181624D01*
X35134Y181866D01*
X36248Y183533D01*
X36639Y185500D01*
Y186730D01*
X28500D01*
Y189270D01*
X36639D01*
Y190500D01*
X36248Y192467D01*
X35223Y194000D01*
X35378Y194698D01*
X35940Y196000D01*
X36000D01*
Y210000D01*
X27000D01*
X27000Y196720D01*
X25523Y195655D01*
X25176Y195574D01*
X23533Y195247D01*
X21866Y194134D01*
X20752Y192467D01*
X20489Y191144D01*
X18450D01*
X18268Y192061D01*
X17384Y193384D01*
X16462Y194000D01*
X16782Y196000D01*
X17000D01*
Y210000D01*
X8000D01*
Y202894D01*
X7922Y202500D01*
X7922Y202500D01*
Y194463D01*
X6939Y194268D01*
X5616Y193384D01*
X4732Y192061D01*
X4422Y190500D01*
Y185500D01*
X4732Y183939D01*
X5616Y182616D01*
X6922Y181744D01*
Y178000D01*
X7232Y176439D01*
X8116Y175116D01*
X9439Y174232D01*
X11000Y173922D01*
X12561Y174232D01*
X13884Y175116D01*
X14768Y176439D01*
X15078Y178000D01*
Y181537D01*
X16061Y181732D01*
X17384Y182616D01*
X18268Y183939D01*
X18450Y184856D01*
X20489D01*
X20752Y183533D01*
X21866Y181866D01*
X22755Y181273D01*
X22831Y179595D01*
X22732Y179028D01*
X18852Y175148D01*
X18376Y174000D01*
Y167433D01*
X17450Y166726D01*
X15450Y167716D01*
Y170000D01*
X5450D01*
Y163178D01*
X5376Y163000D01*
Y157690D01*
X4410D01*
Y155270D01*
X10450D01*
X16490D01*
Y155376D01*
X26000D01*
X27148Y155852D01*
X30376Y159080D01*
X32376Y158252D01*
Y157000D01*
X32550Y156581D01*
Y155419D01*
X32376Y155000D01*
Y149955D01*
X31696Y149500D01*
X30304D01*
X29017Y148967D01*
X28033Y147983D01*
X27500Y146696D01*
Y145304D01*
X28033Y144017D01*
X29017Y143033D01*
X30304Y142500D01*
X31696D01*
X32550Y141930D01*
Y131350D01*
Y121690D01*
X31510D01*
Y119270D01*
X37550D01*
X43590D01*
Y119349D01*
X48121D01*
X51068Y116402D01*
X51098Y116155D01*
X50977Y115170D01*
X50608Y114212D01*
X50017Y113967D01*
X49033Y112983D01*
X48500Y111696D01*
Y111249D01*
X47902Y110651D01*
X42550D01*
Y114310D01*
X43590D01*
Y116730D01*
X37550D01*
X31510D01*
Y115067D01*
X29560Y114189D01*
X26651Y117098D01*
Y124000D01*
X26651Y124000D01*
X26449Y125014D01*
X26756Y126046D01*
X27392Y127000D01*
X28679Y127533D01*
X29663Y128517D01*
X30196Y129804D01*
Y131196D01*
X29663Y132483D01*
X28829Y133317D01*
X28671Y133628D01*
X28575Y135675D01*
X28934Y136035D01*
X29467Y137321D01*
Y138714D01*
X28934Y140000D01*
X27950Y140985D01*
X26663Y141517D01*
X25271D01*
X23985Y140985D01*
X23053Y141275D01*
X22722Y141806D01*
X22149Y143456D01*
X22500Y144304D01*
Y145696D01*
X21967Y146983D01*
X20983Y147967D01*
X19696Y148500D01*
X18304D01*
X16490Y149914D01*
Y152730D01*
X10450D01*
X4410D01*
Y151270D01*
X10450D01*
Y148730D01*
X4410D01*
Y148488D01*
X3963Y148399D01*
X3103Y147824D01*
X3103Y147824D01*
X2000Y146721D01*
X1225Y146823D01*
X0Y147420D01*
Y257007D01*
X2000Y257204D01*
X2174Y256329D01*
X2837Y255337D01*
X3829Y254674D01*
X5000Y254441D01*
X8500D01*
X9671Y254674D01*
X10663Y255337D01*
X12483Y254461D01*
X13172Y253777D01*
Y250939D01*
X12811Y250578D01*
X8500D01*
X6939Y250268D01*
X5616Y249384D01*
X4732Y248061D01*
X4422Y246500D01*
Y241500D01*
X4732Y239939D01*
X5616Y238616D01*
X6939Y237732D01*
X7219Y237677D01*
X8000Y236000D01*
Y222000D01*
X16460D01*
Y220960D01*
X20730D01*
Y229000D01*
X23270D01*
Y220960D01*
X27540D01*
Y222000D01*
X36000D01*
Y232251D01*
X39124Y235375D01*
X39125Y235376D01*
X39699Y236236D01*
X39901Y237250D01*
X39901Y237250D01*
Y254620D01*
X40170Y254674D01*
X41163Y255337D01*
X41826Y256329D01*
X42059Y257500D01*
Y260500D01*
X41826Y261670D01*
X41163Y262663D01*
X40170Y263326D01*
X39000Y263559D01*
X35500D01*
X34329Y263326D01*
X33578Y262824D01*
X32543Y263100D01*
X31578Y263631D01*
Y267422D01*
X32500D01*
X34061Y267732D01*
X35384Y268616D01*
X36256Y269922D01*
X49071D01*
X49071Y269922D01*
X50632Y270232D01*
X51955Y271116D01*
X54884Y274045D01*
X54884Y274045D01*
X55768Y275368D01*
X56078Y276929D01*
Y291382D01*
X56618Y291922D01*
X64744D01*
X65616Y290616D01*
X66939Y289732D01*
X67172Y289686D01*
Y285000D01*
X64000D01*
Y276000D01*
X78000D01*
Y285000D01*
X75328D01*
Y289586D01*
X76061Y289732D01*
X77384Y290616D01*
X78268Y291939D01*
X78450Y292856D01*
X80489D01*
X80752Y291534D01*
X81866Y289866D01*
X83533Y288752D01*
X85500Y288361D01*
X87230D01*
Y296000D01*
Y303639D01*
X85500D01*
X83533Y303248D01*
X81866Y302134D01*
X80752Y300466D01*
X80489Y299144D01*
X78450D01*
X78268Y300061D01*
X77384Y301384D01*
X76061Y302268D01*
X74500Y302578D01*
X68500D01*
X66939Y302268D01*
X65616Y301384D01*
X64744Y300078D01*
X54929D01*
X53368Y299768D01*
X52045Y298884D01*
X52045Y298884D01*
X49116Y295955D01*
X48232Y294632D01*
X47922Y293071D01*
X47922Y293071D01*
Y278618D01*
X47382Y278078D01*
X36256D01*
X35384Y279384D01*
X34061Y280268D01*
X33781Y280324D01*
X33000Y282000D01*
Y296000D01*
X24540D01*
Y297040D01*
X20270D01*
Y289000D01*
X17730D01*
Y297040D01*
X13460D01*
Y296000D01*
X5000D01*
Y285749D01*
X2000Y282749D01*
X0Y283577D01*
Y464000D01*
X240000D01*
Y443000D01*
D02*
G37*
G36*
X253000Y360000D02*
X259000D01*
X262000Y357000D01*
Y347000D01*
X247000D01*
Y370000D01*
X253000D01*
Y360000D01*
D02*
G37*
G36*
X215000Y308707D02*
Y287074D01*
X214464Y286682D01*
X213000Y286188D01*
X212076Y286806D01*
X210500Y287119D01*
X210270D01*
Y281250D01*
X209000D01*
Y279980D01*
X203381D01*
Y279500D01*
X203694Y277924D01*
X204587Y276587D01*
X204602Y276577D01*
X205323Y274699D01*
X204968Y274111D01*
X204674Y273671D01*
X204441Y272500D01*
Y270136D01*
X202441Y269308D01*
X198651Y273098D01*
Y294902D01*
X212874Y309125D01*
X212875Y309125D01*
X213000Y309313D01*
X215000Y308707D01*
D02*
G37*
G36*
X13770Y266361D02*
X15500D01*
X17466Y266752D01*
X19134Y267866D01*
X20247Y269534D01*
X20511Y270856D01*
X22550D01*
X22732Y269939D01*
X23422Y268907D01*
Y263078D01*
X20541D01*
X20171Y263326D01*
X19000Y263559D01*
X15500D01*
X14329Y263326D01*
X13337Y262663D01*
X13111Y262325D01*
X13012Y262288D01*
X10987D01*
X10889Y262325D01*
X10663Y262663D01*
X9671Y263326D01*
X8500Y263559D01*
X6516D01*
X5007Y265186D01*
X5122Y266304D01*
X6915Y267166D01*
X7534Y266752D01*
X9500Y266361D01*
X11230D01*
Y274000D01*
X13770D01*
Y266361D01*
D02*
G37*
G36*
X33111Y255675D02*
X33337Y255337D01*
X34329Y254674D01*
X34599Y254620D01*
Y252713D01*
X32599Y251420D01*
X31500Y251639D01*
X29770D01*
Y244000D01*
X27230D01*
Y251639D01*
X25500D01*
X23533Y251248D01*
X23328Y251110D01*
X21328Y252180D01*
Y254922D01*
X23459D01*
X23829Y254674D01*
X25000Y254441D01*
X28500D01*
X29671Y254674D01*
X30663Y255337D01*
X30889Y255675D01*
X30988Y255711D01*
X33012D01*
X33111Y255675D01*
D02*
G37*
G36*
X126110Y276076D02*
X126349Y275873D01*
Y261612D01*
X126251Y261465D01*
X126049Y260450D01*
X126049Y260450D01*
Y232466D01*
X124049Y231442D01*
X123561Y231768D01*
X122000Y232078D01*
X117588D01*
X117384Y232384D01*
X116061Y233268D01*
X114500Y233578D01*
X109500D01*
X109289Y233536D01*
X105809Y237017D01*
Y241766D01*
X106663Y242337D01*
X106889Y242675D01*
X106988Y242712D01*
X109012D01*
X109111Y242675D01*
X109337Y242337D01*
X110329Y241674D01*
X110654Y241067D01*
X110500Y240696D01*
Y239304D01*
X111033Y238017D01*
X112017Y237033D01*
X113304Y236500D01*
X114696D01*
X115983Y237033D01*
X116967Y238017D01*
X117500Y239304D01*
Y240696D01*
X116967Y241983D01*
X116991Y242222D01*
X117163Y242337D01*
X117826Y243330D01*
X118059Y244500D01*
Y247500D01*
X117826Y248671D01*
X117163Y249663D01*
X116171Y250326D01*
X115000Y250559D01*
X111500D01*
X110330Y250326D01*
X109337Y249663D01*
X109111Y249325D01*
X109012Y249289D01*
X106988D01*
X106889Y249325D01*
X106663Y249663D01*
X105671Y250326D01*
X104500Y250559D01*
X101000D01*
X99830Y250326D01*
X98983Y252033D01*
X99967Y253017D01*
X100500Y254304D01*
Y255696D01*
X102125Y257000D01*
X104000D01*
X105392Y255576D01*
X105866Y254866D01*
X107534Y253752D01*
X109500Y253361D01*
X110730D01*
Y261500D01*
X112000D01*
Y262770D01*
X119639D01*
Y264500D01*
X119248Y266467D01*
X118134Y268134D01*
X116467Y269247D01*
X115144Y269511D01*
Y271550D01*
X116061Y271732D01*
X117384Y272616D01*
X118268Y273939D01*
X118578Y275500D01*
Y275922D01*
X122000D01*
X123561Y276232D01*
X124349Y276759D01*
X126110Y276076D01*
D02*
G37*
G36*
X192441Y263810D02*
X192225Y262437D01*
X190520Y261216D01*
Y251000D01*
Y240917D01*
X191805Y241173D01*
X193017Y241983D01*
X193276Y242369D01*
X193601Y242152D01*
X194625Y241949D01*
X196875D01*
X197899Y242152D01*
X199000Y242631D01*
X200101Y242152D01*
X201125Y241949D01*
X203375D01*
X204399Y242152D01*
X205500Y242631D01*
X206601Y242152D01*
X207625Y241949D01*
X209875D01*
X210899Y242152D01*
X211768Y242733D01*
X212348Y243601D01*
X212551Y244625D01*
Y257375D01*
X212348Y258399D01*
X211934Y259019D01*
Y262984D01*
X211967Y263017D01*
X212500Y264304D01*
Y265405D01*
X213000Y265991D01*
X214275Y265696D01*
X215000Y265164D01*
Y173226D01*
X213000Y172658D01*
X212663Y173163D01*
X211670Y173826D01*
X211526Y173855D01*
Y184571D01*
X211768Y184732D01*
X212348Y185601D01*
X212551Y186625D01*
Y199375D01*
X212348Y200399D01*
X211768Y201268D01*
X210899Y201848D01*
X209875Y202051D01*
X207625D01*
X206601Y201848D01*
X205500Y201369D01*
X204399Y201848D01*
X203375Y202051D01*
X201125D01*
X200101Y201848D01*
X199000Y201369D01*
X197899Y201848D01*
X196875Y202051D01*
X194625D01*
X193601Y201848D01*
X192500Y201369D01*
X191399Y201848D01*
X190375Y202051D01*
X188125D01*
X187101Y201848D01*
X186000Y201369D01*
X184899Y201848D01*
X183875Y202051D01*
X181625D01*
X180601Y201848D01*
X179500Y201369D01*
X178399Y201848D01*
X177375Y202051D01*
X175125D01*
X174101Y201848D01*
X173000Y201369D01*
X171899Y201848D01*
X170875Y202051D01*
X168625D01*
X167601Y201848D01*
X166500Y201369D01*
X165399Y201848D01*
X164375Y202051D01*
X162125D01*
X161101Y201848D01*
X160000Y201369D01*
X158899Y201848D01*
X157875Y202051D01*
X155625D01*
X154601Y201848D01*
X153500Y201369D01*
X152399Y201848D01*
X151375Y202051D01*
X149125D01*
X148101Y201848D01*
X147000Y201369D01*
X145899Y201848D01*
X144875Y202051D01*
X142625D01*
X141601Y201848D01*
X141276Y201630D01*
X141017Y202017D01*
X139805Y202827D01*
X138520Y203083D01*
Y193000D01*
Y182917D01*
X139099Y183032D01*
X140785Y182006D01*
X141099Y181632D01*
Y176478D01*
X139099Y175650D01*
X135051Y179698D01*
Y182007D01*
X135980Y182769D01*
Y193000D01*
Y203231D01*
X135051Y203993D01*
Y240123D01*
X136125Y241949D01*
X138375D01*
X139399Y242152D01*
X140267Y242733D01*
X140732D01*
X141601Y242152D01*
X142625Y241949D01*
X144875D01*
X145899Y242152D01*
X147000Y242631D01*
X148101Y242152D01*
X149125Y241949D01*
X151375D01*
X152399Y242152D01*
X153500Y242631D01*
X154601Y242152D01*
X155625Y241949D01*
X157875D01*
X158899Y242152D01*
X160000Y242631D01*
X161101Y242152D01*
X162125Y241949D01*
X164375D01*
X165399Y242152D01*
X166500Y242631D01*
X167601Y242152D01*
X168625Y241949D01*
X170875D01*
X171899Y242152D01*
X173000Y242631D01*
X174101Y242152D01*
X175125Y241949D01*
X177375D01*
X178399Y242152D01*
X179268Y242733D01*
X179732D01*
X180601Y242152D01*
X181625Y241949D01*
X183875D01*
X184899Y242152D01*
X185224Y242369D01*
X185483Y241983D01*
X186695Y241173D01*
X187980Y240917D01*
Y251000D01*
Y261083D01*
X187401Y260968D01*
X185716Y261994D01*
X185401Y262368D01*
Y268237D01*
X187249Y269002D01*
X192441Y263810D01*
D02*
G37*
G36*
X75000Y246000D02*
Y227000D01*
X67000D01*
Y239000D01*
X65000Y241000D01*
X55000D01*
X51000Y237000D01*
X51000Y179000D01*
X45000Y173000D01*
X32000D01*
X30000Y171000D01*
Y161000D01*
X26000Y157000D01*
X7000D01*
Y163000D01*
X17000D01*
X20000Y166000D01*
Y174000D01*
X24000Y178000D01*
X41000D01*
X45000Y182000D01*
Y242000D01*
X50000Y247000D01*
X74000D01*
X75000Y246000D01*
D02*
G37*
G36*
X126049Y223534D02*
Y181466D01*
X124049Y180442D01*
X123561Y180768D01*
X122000Y181078D01*
X117344D01*
X117061Y181268D01*
X115500Y181578D01*
X110500D01*
X110289Y181536D01*
X106809Y185017D01*
Y189766D01*
X107663Y190337D01*
X107889Y190675D01*
X107988Y190711D01*
X109869D01*
X111431Y189309D01*
Y188000D01*
X111500Y187655D01*
Y187304D01*
X111635Y186979D01*
X111703Y186634D01*
X111898Y186342D01*
X112033Y186017D01*
X112281Y185769D01*
X112477Y185477D01*
X112769Y185281D01*
X113017Y185033D01*
X113342Y184898D01*
X113634Y184703D01*
X113979Y184634D01*
X114304Y184500D01*
X114655D01*
X115000Y184431D01*
X115345Y184500D01*
X115696D01*
X116021Y184634D01*
X116366Y184703D01*
X116658Y184898D01*
X116983Y185033D01*
X117231Y185281D01*
X117523Y185477D01*
X117719Y185769D01*
X117967Y186017D01*
X118102Y186342D01*
X118297Y186634D01*
X118365Y186979D01*
X118500Y187304D01*
Y187655D01*
X118569Y188000D01*
Y190944D01*
X118826Y191329D01*
X119059Y192500D01*
Y195500D01*
X118826Y196670D01*
X118163Y197663D01*
X117171Y198326D01*
X116000Y198559D01*
X112500D01*
X111329Y198326D01*
X110337Y197663D01*
X110111Y197325D01*
X110013Y197288D01*
X107988D01*
X107889Y197325D01*
X107663Y197663D01*
X106671Y198326D01*
X105500Y198559D01*
X102000D01*
X100829Y198326D01*
X99983Y200033D01*
X100967Y201017D01*
X101500Y202304D01*
Y203696D01*
X103125Y205000D01*
X104000D01*
X105392Y203577D01*
X105866Y202866D01*
X107534Y201752D01*
X109500Y201361D01*
X110730D01*
Y209500D01*
X112000D01*
Y210770D01*
X119639D01*
Y212500D01*
X119248Y214466D01*
X118134Y216134D01*
X116467Y217248D01*
X115144Y217511D01*
Y219550D01*
X116061Y219732D01*
X117384Y220616D01*
X118268Y221939D01*
X118578Y223500D01*
Y223922D01*
X122000D01*
X123561Y224232D01*
X124049Y224558D01*
X126049Y223534D01*
D02*
G37*
G36*
X78000Y187000D02*
X75000Y184000D01*
Y174000D01*
X69000D01*
Y187414D01*
X69000Y188000D01*
X68000Y189000D01*
X67414Y189000D01*
X62000Y189000D01*
X60000Y187000D01*
Y167000D01*
X50000Y157000D01*
X34000D01*
Y163000D01*
X48000D01*
X55000Y170000D01*
Y190000D01*
X60000Y195000D01*
X78000D01*
Y187000D01*
D02*
G37*
G36*
X49000Y149000D02*
X34000D01*
Y155000D01*
X49000D01*
Y149000D01*
D02*
G37*
G36*
X126049Y172534D02*
Y129790D01*
X124500Y128059D01*
X121500D01*
X120330Y127826D01*
X119337Y127163D01*
X118674Y126171D01*
X118620Y125901D01*
X114000D01*
Y131000D01*
X104500D01*
Y119500D01*
X114000D01*
Y120599D01*
X118620D01*
X118674Y120330D01*
X119337Y119337D01*
X119675Y119111D01*
X119712Y119012D01*
Y116987D01*
X119675Y116889D01*
X119337Y116663D01*
X118674Y115670D01*
X118614Y115367D01*
X112689D01*
X111674Y115166D01*
X110814Y114591D01*
X110814Y114591D01*
X109767Y113544D01*
X106650D01*
X105772Y113370D01*
X105028Y112872D01*
X104531Y112128D01*
X104356Y111250D01*
Y109750D01*
X104531Y108872D01*
X104278Y107122D01*
X103551Y106034D01*
X103399Y105270D01*
X109200D01*
X115001D01*
X114849Y106034D01*
X114122Y107122D01*
X113982Y108091D01*
X115310Y110065D01*
X118627D01*
X118674Y109829D01*
X119337Y108837D01*
X120330Y108174D01*
X120349Y108170D01*
Y93299D01*
X120033Y92983D01*
X119612Y91966D01*
X118499Y91473D01*
X117500Y91249D01*
X117275Y91475D01*
X116414Y92049D01*
X115400Y92251D01*
X115400Y92251D01*
X114538D01*
X113932Y94251D01*
X114122Y94378D01*
X114849Y95466D01*
X115001Y96230D01*
X109200D01*
X103399D01*
X103551Y95466D01*
X104278Y94378D01*
X104468Y94251D01*
X103862Y92251D01*
X101598D01*
X95644Y98205D01*
Y98250D01*
X95469Y99128D01*
X95188Y99550D01*
X94972Y99905D01*
Y101595D01*
X95188Y101950D01*
X95469Y102372D01*
X95644Y103250D01*
Y104750D01*
X95469Y105628D01*
X95722Y107378D01*
X96449Y108466D01*
X96601Y109230D01*
X90800D01*
Y110500D01*
X89530D01*
Y114605D01*
X88250D01*
X86975Y114351D01*
X85906Y115420D01*
X84913Y116083D01*
X84634Y117778D01*
X85898Y119431D01*
X91500D01*
X91845Y119500D01*
X97500D01*
Y131000D01*
X96319D01*
Y135000D01*
X97500D01*
Y146500D01*
X99029Y147638D01*
X99983Y148033D01*
X100967Y149017D01*
X101500Y150304D01*
Y151696D01*
X103125Y153000D01*
X105000D01*
X106392Y151576D01*
X106866Y150866D01*
X108533Y149752D01*
X109601Y149540D01*
X109404Y147540D01*
X103460D01*
Y142020D01*
X115040D01*
Y147361D01*
X115040Y147540D01*
X115472Y149361D01*
X115500D01*
X117466Y149752D01*
X119134Y150866D01*
X120248Y152534D01*
X120639Y154500D01*
Y156230D01*
X113000D01*
Y158770D01*
X120639D01*
Y160500D01*
X120248Y162467D01*
X119134Y164134D01*
X117466Y165247D01*
X116144Y165511D01*
Y167550D01*
X117061Y167732D01*
X118384Y168616D01*
X119268Y169939D01*
X119578Y171500D01*
Y172922D01*
X122000D01*
X123561Y173232D01*
X124049Y173558D01*
X126049Y172534D01*
D02*
G37*
G36*
X215000Y152740D02*
Y95000D01*
X239000D01*
Y0D01*
X0D01*
Y137380D01*
X329Y137727D01*
X2000Y138551D01*
X2648Y138283D01*
X4041D01*
X5450Y136702D01*
Y131350D01*
Y121690D01*
X4410D01*
Y119270D01*
X10450D01*
Y116730D01*
X4410D01*
Y114310D01*
X5450D01*
Y110000D01*
X12044D01*
X13899Y109450D01*
X14101Y108436D01*
X14675Y107576D01*
X23903Y98348D01*
X23138Y96500D01*
X22882D01*
X18729Y95674D01*
X14816Y94053D01*
X11295Y91700D01*
X8300Y88705D01*
X5947Y85184D01*
X4326Y81271D01*
X3500Y77118D01*
Y72882D01*
X4326Y68729D01*
X5947Y64816D01*
X8300Y61295D01*
X11295Y58300D01*
X14816Y55947D01*
X18729Y54326D01*
X22882Y53500D01*
X27118D01*
X31271Y54326D01*
X35184Y55947D01*
X36811Y57034D01*
X38253Y55592D01*
X38232Y55561D01*
X37922Y54000D01*
X38232Y52439D01*
X39116Y51116D01*
X40439Y50232D01*
X42000Y49922D01*
X43561Y50232D01*
X43844Y50422D01*
X51500D01*
X51500Y50422D01*
X51599Y50441D01*
X53500D01*
X54671Y50674D01*
X55663Y51337D01*
X57586Y50734D01*
X58431Y49885D01*
Y45726D01*
X58337Y45663D01*
X58111Y45325D01*
X58012Y45289D01*
X55988D01*
X55889Y45325D01*
X55663Y45663D01*
X54671Y46326D01*
X53500Y46559D01*
X50500D01*
X49330Y46326D01*
X48337Y45663D01*
X47947Y45078D01*
X42000D01*
X42000Y45078D01*
X40439Y44768D01*
X39116Y43884D01*
X38232Y42561D01*
X37922Y41000D01*
X38232Y39439D01*
X39116Y38116D01*
X47116Y30116D01*
X48439Y29232D01*
X50000Y28922D01*
X51510D01*
X51964Y27174D01*
X51972Y26922D01*
X51033Y25983D01*
X50500Y24696D01*
Y23304D01*
X51033Y22017D01*
X51349Y21701D01*
Y17000D01*
X51349Y17000D01*
X51551Y15986D01*
X52126Y15125D01*
X64426Y2826D01*
X64426Y2826D01*
X65286Y2251D01*
X66300Y2049D01*
X66300Y2049D01*
X151700D01*
X151700Y2049D01*
X152715Y2251D01*
X153574Y2826D01*
X177874Y27125D01*
X177875Y27125D01*
X178449Y27985D01*
X178651Y29000D01*
Y137397D01*
X180501Y139247D01*
X182349Y138482D01*
Y101299D01*
X182033Y100983D01*
X181500Y99696D01*
Y98304D01*
X182033Y97017D01*
X183017Y96033D01*
X184304Y95500D01*
X185696D01*
X186983Y96033D01*
X187967Y97017D01*
X188500Y98304D01*
Y99696D01*
X187967Y100983D01*
X187651Y101299D01*
Y138022D01*
X189246Y139101D01*
X189651Y139190D01*
X191000Y138922D01*
X205571D01*
X205571Y138922D01*
X207132Y139232D01*
X208455Y140116D01*
X211384Y143045D01*
X211384Y143045D01*
X212268Y144368D01*
X212578Y145929D01*
Y153382D01*
X213000Y153713D01*
X215000Y152740D01*
D02*
G37*
G36*
X154099Y123321D02*
Y31848D01*
X141902Y19651D01*
X116527D01*
X115388Y21230D01*
X109200D01*
X103012D01*
X101874Y19651D01*
X97059D01*
X96706Y19922D01*
X95624Y21651D01*
X95644Y21750D01*
Y23250D01*
X95469Y24128D01*
X95188Y24550D01*
X94972Y24905D01*
Y26595D01*
X95188Y26950D01*
X95469Y27372D01*
X95644Y28250D01*
Y29750D01*
X95469Y30628D01*
X95722Y32378D01*
X96449Y33466D01*
X96601Y34230D01*
X90800D01*
Y35500D01*
X89530D01*
Y39604D01*
X89221D01*
X87413Y41413D01*
X86420Y42076D01*
X85250Y42309D01*
X84306Y42576D01*
X83413Y43913D01*
X82076Y44806D01*
X80500Y45119D01*
X80270D01*
Y39250D01*
X79000D01*
Y37980D01*
X73381D01*
Y37957D01*
X72202Y37026D01*
X71561Y36768D01*
X70000Y37078D01*
X70000Y37078D01*
X68315D01*
X66559Y38500D01*
Y43500D01*
X66326Y44671D01*
X65663Y45663D01*
X65569Y45726D01*
Y51274D01*
X65663Y51337D01*
X66326Y52330D01*
X66559Y53500D01*
Y58500D01*
X66326Y59671D01*
X65663Y60663D01*
X64671Y61326D01*
X63500Y61559D01*
X60500D01*
X59329Y61326D01*
X58337Y60663D01*
X58111Y60325D01*
X58012Y60289D01*
X55988D01*
X55889Y60325D01*
X55663Y60663D01*
X54671Y61326D01*
X53500Y61559D01*
X50500D01*
X49330Y61326D01*
X48337Y60663D01*
X47674Y59671D01*
X47457Y58578D01*
X42500D01*
X41642Y58408D01*
X40656Y60251D01*
X41700Y61295D01*
X44053Y64816D01*
X45674Y68729D01*
X45910Y69916D01*
X47990Y70121D01*
X48033Y70017D01*
X49017Y69033D01*
X50304Y68500D01*
X51696D01*
X52983Y69033D01*
X53549Y69599D01*
X72641D01*
X73710Y67599D01*
X73694Y67576D01*
X73381Y66000D01*
Y65520D01*
X79000D01*
Y62980D01*
X73381D01*
Y62500D01*
X73694Y60924D01*
X74587Y59587D01*
X74602Y59577D01*
X74752Y59187D01*
X73740Y57375D01*
X73429D01*
X72142Y56842D01*
X71158Y55858D01*
X70625Y54571D01*
Y53179D01*
X71158Y51892D01*
X72142Y50908D01*
X73429Y50375D01*
X74821D01*
X74944Y50426D01*
X75337Y49837D01*
X76329Y49174D01*
X77500Y48941D01*
X80500D01*
X81671Y49174D01*
X82663Y49837D01*
X83132Y50540D01*
X84531Y50579D01*
X85277Y50424D01*
X86042Y49262D01*
X86093Y48941D01*
X85956Y48250D01*
Y46750D01*
X86131Y45872D01*
X86628Y45128D01*
X87372Y44631D01*
X88250Y44456D01*
X91895D01*
X95225Y41126D01*
X95225Y41125D01*
X94136Y39448D01*
X93350Y39604D01*
X92070D01*
Y36770D01*
X96601D01*
X96449Y37534D01*
X95751Y38578D01*
X95798Y38783D01*
X96583Y40452D01*
X97100Y40349D01*
X97100Y40349D01*
X105473D01*
X105772Y38370D01*
X105028Y37872D01*
X104531Y37128D01*
X104356Y36250D01*
Y34750D01*
X104531Y33872D01*
X104278Y32122D01*
X103551Y31034D01*
X103399Y30270D01*
X109200D01*
X115001D01*
X114849Y31034D01*
X114805Y31099D01*
X115875Y33099D01*
X121951D01*
X122017Y33033D01*
X123304Y32500D01*
X124696D01*
X125983Y33033D01*
X126967Y34017D01*
X127500Y35304D01*
Y36696D01*
X126967Y37983D01*
X125983Y38967D01*
X124696Y39500D01*
X124011D01*
X123614Y40067D01*
X123210Y41461D01*
X139874Y58125D01*
X139874Y58126D01*
X140449Y58986D01*
X140651Y60000D01*
Y104599D01*
X140987Y104952D01*
X142651Y105771D01*
X143304Y105500D01*
X144696D01*
X145983Y106033D01*
X146967Y107017D01*
X147500Y108304D01*
Y109696D01*
X146967Y110983D01*
X146401Y111549D01*
Y122821D01*
X147052Y123309D01*
X148401Y123874D01*
X149304Y123500D01*
X150696D01*
X151983Y124033D01*
X152099Y124149D01*
X154099Y123321D01*
D02*
G37*
G36*
X76329Y127174D02*
X77500Y126941D01*
X78512D01*
X80431Y125022D01*
Y123000D01*
X80500Y122655D01*
Y122304D01*
X80634Y121979D01*
X80270Y121385D01*
Y114250D01*
X77730D01*
Y120119D01*
X77500D01*
X75924Y119806D01*
X75037Y119213D01*
X73892Y119086D01*
X72524Y119425D01*
X71983Y119967D01*
X71130Y120320D01*
X70561Y121762D01*
X70482Y122500D01*
X70980Y122998D01*
X70980Y122998D01*
X71545Y123844D01*
X71988Y124028D01*
X72972Y125012D01*
X73505Y126299D01*
Y126979D01*
X74730Y127553D01*
X75486Y127738D01*
X76329Y127174D01*
D02*
G37*
G36*
X173349Y113571D02*
Y30098D01*
X151569Y8318D01*
X150925Y8348D01*
X150186Y10253D01*
X150230Y10481D01*
X165124Y25375D01*
X165699Y26235D01*
X165901Y27250D01*
X165901Y27250D01*
Y112495D01*
X165951Y112565D01*
X167901Y113667D01*
X168304Y113500D01*
X169696D01*
X170983Y114033D01*
X171349Y114399D01*
X173349Y113571D01*
D02*
G37*
G36*
X135349Y171902D02*
Y61098D01*
X119902Y45651D01*
X116006D01*
X115531Y46230D01*
X109200D01*
X102869D01*
X102394Y45651D01*
X98198D01*
X95644Y48205D01*
Y48250D01*
X95469Y49128D01*
X95188Y49550D01*
X94972Y49905D01*
Y51595D01*
X95188Y51950D01*
X95469Y52372D01*
X95644Y53250D01*
Y54750D01*
X95469Y55628D01*
X95722Y57378D01*
X96449Y58466D01*
X96601Y59230D01*
X90800D01*
Y60500D01*
X89530D01*
Y64605D01*
X89221D01*
X87413Y66413D01*
X86420Y67076D01*
X86292Y67101D01*
X86012Y67599D01*
X87182Y69599D01*
X87530D01*
X88250Y69456D01*
X93350D01*
X94228Y69631D01*
X94972Y70128D01*
X95469Y70872D01*
X95644Y71750D01*
Y73250D01*
X95469Y74128D01*
X95188Y74550D01*
X94972Y74905D01*
Y76595D01*
X95188Y76950D01*
X95469Y77372D01*
X95644Y78250D01*
Y79750D01*
X95469Y80628D01*
X95722Y82378D01*
X96449Y83466D01*
X96601Y84230D01*
X90800D01*
Y85500D01*
X89530D01*
Y90546D01*
X88663Y91413D01*
X87670Y92076D01*
X86500Y92309D01*
X86500Y92309D01*
X84359D01*
X84306Y92576D01*
X83413Y93913D01*
X82076Y94806D01*
X80500Y95119D01*
X80270D01*
Y89250D01*
X77730D01*
Y95119D01*
X77500D01*
X77381Y95096D01*
X76396Y96939D01*
X78398Y98941D01*
X80500D01*
X81671Y99174D01*
X82663Y99837D01*
X83132Y100540D01*
X84531Y100579D01*
X85277Y100424D01*
X86042Y99262D01*
X86093Y98941D01*
X85956Y98250D01*
Y96750D01*
X86131Y95872D01*
X86628Y95128D01*
X87372Y94631D01*
X88250Y94456D01*
X91895D01*
X95073Y91278D01*
X94059Y89463D01*
X93350Y89605D01*
X92070D01*
Y86770D01*
X96601D01*
X96563Y86959D01*
X98378Y87973D01*
X98625Y87725D01*
X99486Y87151D01*
X100500Y86949D01*
X100500Y86949D01*
X103782D01*
X104356Y86250D01*
Y84750D01*
X104531Y83872D01*
X104278Y82122D01*
X103551Y81034D01*
X103399Y80270D01*
X109200D01*
Y77730D01*
X103399D01*
X103551Y76966D01*
X104209Y75750D01*
X103551Y74534D01*
X103399Y73770D01*
X109200D01*
X115001D01*
X114849Y74534D01*
X114553Y75080D01*
X114924Y76116D01*
X116304Y77500D01*
X117696D01*
X118983Y78033D01*
X119967Y79017D01*
X120500Y80304D01*
Y81696D01*
X121980Y83349D01*
X127411D01*
X127411Y83349D01*
X128426Y83551D01*
X129286Y84125D01*
X130574Y85414D01*
X130575Y85414D01*
X131149Y86274D01*
X131351Y87289D01*
Y173287D01*
X133199Y174052D01*
X135349Y171902D01*
D02*
G37*
%LPC*%
G36*
X217118Y460500D02*
X212882D01*
X208729Y459674D01*
X204816Y458053D01*
X201295Y455700D01*
X198300Y452705D01*
X195947Y449184D01*
X194326Y445271D01*
X193500Y441118D01*
Y436882D01*
X194326Y432729D01*
X195947Y428816D01*
X198300Y425295D01*
X201295Y422300D01*
X204816Y419947D01*
X208729Y418326D01*
X212882Y417500D01*
X217118D01*
X221271Y418326D01*
X225184Y419947D01*
X228705Y422300D01*
X231700Y425295D01*
X234053Y428816D01*
X235674Y432729D01*
X236500Y436882D01*
Y441118D01*
X235674Y445271D01*
X234053Y449184D01*
X231700Y452705D01*
X228705Y455700D01*
X225184Y458053D01*
X221271Y459674D01*
X217118Y460500D01*
D02*
G37*
G36*
X255690Y399590D02*
X253270D01*
Y393550D01*
Y387510D01*
X255690D01*
Y388550D01*
X260000D01*
Y398550D01*
X255690D01*
Y399590D01*
D02*
G37*
G36*
X65480Y364056D02*
X64369Y363835D01*
X63198Y363052D01*
X62415Y361881D01*
X62141Y360500D01*
Y355270D01*
X65480D01*
Y364056D01*
D02*
G37*
G36*
X126520D02*
Y355270D01*
X129859D01*
Y360500D01*
X129585Y361881D01*
X128802Y363052D01*
X127631Y363835D01*
X126520Y364056D01*
D02*
G37*
G36*
X113520Y364056D02*
Y354000D01*
Y343944D01*
X114631Y344165D01*
X115500Y344746D01*
X116369Y344165D01*
X117480Y343944D01*
Y354000D01*
Y364056D01*
X116369Y363835D01*
X115500Y363254D01*
X114631Y363835D01*
X113520Y364056D01*
D02*
G37*
G36*
X68020D02*
Y354000D01*
Y343944D01*
X68599Y344060D01*
X70144Y343182D01*
X70599Y342741D01*
Y338348D01*
X68126Y335874D01*
X67551Y335014D01*
X67349Y334000D01*
X67349Y334000D01*
Y331786D01*
X67033Y331470D01*
X66500Y330183D01*
Y328791D01*
X66993Y327601D01*
X66337Y327163D01*
X65674Y326171D01*
X65441Y325000D01*
Y321500D01*
X65674Y320330D01*
X66337Y319337D01*
X66273Y317307D01*
X65088Y316078D01*
X64000D01*
X62439Y315768D01*
X61116Y314884D01*
X60232Y313561D01*
X59922Y312000D01*
X60232Y310439D01*
X61116Y309116D01*
X62439Y308232D01*
X64000Y307922D01*
X69500D01*
X69500Y307922D01*
X69598Y307941D01*
X71500D01*
X72670Y308174D01*
X73415Y308672D01*
X75585D01*
X76329Y308174D01*
X77500Y307941D01*
X80500D01*
X81671Y308174D01*
X82415Y308672D01*
X84585D01*
X85330Y308174D01*
X86500Y307941D01*
X89500D01*
X90671Y308174D01*
X91415Y308672D01*
X93585D01*
X94330Y308174D01*
X95500Y307941D01*
X98500D01*
X99670Y308174D01*
X100415Y308672D01*
X102585D01*
X103329Y308174D01*
X104500Y307941D01*
X107500D01*
X108671Y308174D01*
X109415Y308672D01*
X111585D01*
X112330Y308174D01*
X113500Y307941D01*
X116500D01*
X117671Y308174D01*
X118663Y308837D01*
X119326Y309830D01*
X119559Y311000D01*
Y314500D01*
X119326Y315671D01*
X118663Y316663D01*
X118325Y316889D01*
X118288Y316988D01*
Y319012D01*
X118325Y319111D01*
X118663Y319337D01*
X119326Y320330D01*
X119559Y321500D01*
Y325000D01*
X119326Y326171D01*
X118663Y327163D01*
X117671Y327826D01*
X117651Y329000D01*
X117449Y330014D01*
X117306Y330228D01*
Y333344D01*
X117105Y334359D01*
X116530Y335219D01*
X109562Y342187D01*
X110547Y344031D01*
X110980Y343944D01*
Y354000D01*
Y364056D01*
X109869Y363835D01*
X108698Y363052D01*
X108695Y363048D01*
X107725Y362855D01*
X106750Y363049D01*
X104750D01*
X103775Y362855D01*
X102500Y362446D01*
X101225Y362855D01*
X100250Y363049D01*
X98250D01*
X97275Y362855D01*
X96000Y362446D01*
X94725Y362855D01*
X93750Y363049D01*
X91750D01*
X90775Y362855D01*
X89948Y362302D01*
X89052D01*
X88225Y362855D01*
X87250Y363049D01*
X85250D01*
X84275Y362855D01*
X83448Y362302D01*
X82552D01*
X81726Y362855D01*
X80750Y363049D01*
X78750D01*
X77775Y362855D01*
X76948Y362302D01*
X76052D01*
X75226Y362855D01*
X74250Y363049D01*
X72250D01*
X71275Y362855D01*
X70305Y363048D01*
X70302Y363052D01*
X69131Y363835D01*
X68020Y364056D01*
D02*
G37*
G36*
X65480Y352730D02*
X62141D01*
Y347500D01*
X62415Y346119D01*
X63198Y344948D01*
X64369Y344165D01*
X65480Y343944D01*
Y352730D01*
D02*
G37*
G36*
X129859Y352730D02*
X126520D01*
Y343944D01*
X127631Y344165D01*
X128802Y344948D01*
X129585Y346119D01*
X129859Y347500D01*
Y352730D01*
D02*
G37*
G36*
X120020Y364056D02*
Y354000D01*
Y343944D01*
X121131Y344165D01*
X122000Y344746D01*
X122869Y344165D01*
X123980Y343944D01*
Y354000D01*
Y364056D01*
X122869Y363835D01*
X122000Y363254D01*
X121131Y363835D01*
X120020Y364056D01*
D02*
G37*
G36*
X27118Y385500D02*
X22882D01*
X18729Y384674D01*
X14816Y383053D01*
X11295Y380700D01*
X8300Y377705D01*
X5947Y374184D01*
X4326Y370271D01*
X3500Y366118D01*
Y361882D01*
X4326Y357729D01*
X5947Y353816D01*
X8300Y350295D01*
X11295Y347300D01*
X14816Y344947D01*
X18729Y343326D01*
X22882Y342500D01*
X27118D01*
X31271Y343326D01*
X35184Y344947D01*
X38705Y347300D01*
X41700Y350295D01*
X44053Y353816D01*
X45674Y357729D01*
X46500Y361882D01*
Y366118D01*
X45674Y370271D01*
X44053Y374184D01*
X41700Y377705D01*
X38705Y380700D01*
X35184Y383053D01*
X31271Y384674D01*
X27118Y385500D01*
D02*
G37*
G36*
X11230Y337639D02*
X9500D01*
X7534Y337248D01*
X5866Y336134D01*
X4752Y334467D01*
X4361Y332500D01*
Y331270D01*
X11230D01*
Y337639D01*
D02*
G37*
G36*
X78000Y266000D02*
X64000D01*
Y257000D01*
X78000D01*
Y266000D01*
D02*
G37*
G36*
X78000Y214000D02*
X64000D01*
Y205000D01*
X78000D01*
Y214000D01*
D02*
G37*
G36*
X79000Y162000D02*
X65000D01*
Y153000D01*
X79000D01*
Y162000D01*
D02*
G37*
G36*
X80500Y148119D02*
X80270D01*
Y143520D01*
X84619D01*
Y144000D01*
X84306Y145576D01*
X83413Y146913D01*
X82076Y147806D01*
X80500Y148119D01*
D02*
G37*
G36*
X207730Y287119D02*
X207500D01*
X205924Y286806D01*
X204587Y285913D01*
X203694Y284576D01*
X203381Y283000D01*
Y282520D01*
X207730D01*
Y287119D01*
D02*
G37*
G36*
X119639Y260230D02*
X113270D01*
Y253361D01*
X114500D01*
X116467Y253752D01*
X118134Y254866D01*
X119248Y256534D01*
X119639Y258500D01*
Y260230D01*
D02*
G37*
G36*
Y208230D02*
X113270D01*
Y201361D01*
X114500D01*
X116467Y201752D01*
X118134Y202866D01*
X119248Y204534D01*
X119639Y206500D01*
Y208230D01*
D02*
G37*
G36*
X115040Y139480D02*
X110520D01*
Y133960D01*
X115040D01*
Y139480D01*
D02*
G37*
G36*
X107980D02*
X103460D01*
Y133960D01*
X107980D01*
Y139480D01*
D02*
G37*
G36*
X93350Y114605D02*
X92070D01*
Y111770D01*
X96601D01*
X96449Y112534D01*
X95722Y113622D01*
X94634Y114349D01*
X93350Y114605D01*
D02*
G37*
G36*
X115001Y102730D02*
X109200D01*
X103399D01*
X103551Y101966D01*
X104209Y100750D01*
X103551Y99534D01*
X103399Y98770D01*
X109200D01*
X115001D01*
X114849Y99534D01*
X114191Y100750D01*
X114849Y101966D01*
X115001Y102730D01*
D02*
G37*
G36*
X217118Y71500D02*
X212882D01*
X208729Y70674D01*
X204816Y69053D01*
X201295Y66700D01*
X198300Y63705D01*
X195947Y60184D01*
X194326Y56271D01*
X193500Y52118D01*
Y47882D01*
X194326Y43729D01*
X195947Y39816D01*
X198300Y36295D01*
X201295Y33300D01*
X204816Y30947D01*
X208729Y29326D01*
X212882Y28500D01*
X217118D01*
X221271Y29326D01*
X225184Y30947D01*
X228705Y33300D01*
X231700Y36295D01*
X234053Y39816D01*
X235674Y43729D01*
X236500Y47882D01*
Y52118D01*
X235674Y56271D01*
X234053Y60184D01*
X231700Y63705D01*
X228705Y66700D01*
X225184Y69053D01*
X221271Y70674D01*
X217118Y71500D01*
D02*
G37*
G36*
X77730Y45119D02*
X77500D01*
X75924Y44806D01*
X74587Y43913D01*
X73694Y42576D01*
X73381Y41000D01*
Y40520D01*
X77730D01*
Y45119D01*
D02*
G37*
G36*
X115001Y27730D02*
X109200D01*
X103399D01*
X103551Y26966D01*
X104209Y25750D01*
X103551Y24534D01*
X103399Y23770D01*
X109200D01*
X115001D01*
X114849Y24534D01*
X114191Y25750D01*
X114849Y26966D01*
X115001Y27730D01*
D02*
G37*
G36*
X115001Y71230D02*
X110470D01*
Y68396D01*
X111750D01*
X113034Y68651D01*
X114122Y69378D01*
X114849Y70466D01*
X115001Y71230D01*
D02*
G37*
G36*
X107930D02*
X103399D01*
X103551Y70466D01*
X104278Y69378D01*
X105366Y68651D01*
X106650Y68396D01*
X107930D01*
Y71230D01*
D02*
G37*
G36*
X93350Y64605D02*
X92070D01*
Y61770D01*
X96601D01*
X96449Y62534D01*
X95722Y63622D01*
X94634Y64349D01*
X93350Y64605D01*
D02*
G37*
G36*
X111750Y63544D02*
X106650D01*
X105772Y63369D01*
X105028Y62872D01*
X104531Y62128D01*
X104356Y61250D01*
Y59750D01*
X104531Y58872D01*
X104278Y57122D01*
X103551Y56034D01*
X103399Y55270D01*
X109200D01*
X115577D01*
X116696Y56500D01*
X117983Y57033D01*
X118967Y58017D01*
X119500Y59304D01*
Y60696D01*
X118967Y61983D01*
X117983Y62967D01*
X116696Y63500D01*
X115304D01*
X114017Y62967D01*
X113951Y62901D01*
X113329D01*
X112628Y63369D01*
X111750Y63544D01*
D02*
G37*
G36*
X115001Y52730D02*
X109200D01*
X103399D01*
X103551Y51966D01*
X104209Y50750D01*
X103551Y49534D01*
X103399Y48770D01*
X109200D01*
X115001D01*
X114849Y49534D01*
X114191Y50750D01*
X114849Y51966D01*
X115001Y52730D01*
D02*
G37*
%LPD*%
D11*
X3689Y144661D02*
X4978Y145950D01*
X3689Y142127D02*
Y144661D01*
X4978Y145950D02*
X10400D01*
X3344Y141783D02*
X3689Y142127D01*
X16000Y142000D02*
X19000Y145000D01*
X10450Y142000D02*
X16000D01*
X10450Y138000D02*
X25950D01*
X25967Y138017D01*
X22709Y134000D02*
X26209Y130500D01*
X10450Y134000D02*
X22709D01*
X26209Y130500D02*
X26696D01*
X187000Y321000D02*
Y343000D01*
Y273000D02*
Y321000D01*
X187250Y320750D02*
X194000D01*
X187000Y321000D02*
X187250Y320750D01*
X182750Y251000D02*
Y351750D01*
X187000Y343000D02*
X190253Y346253D01*
X208253D01*
X187000Y273000D02*
X195750Y264250D01*
X182750Y351750D02*
X192400Y361400D01*
X208253Y346253D02*
X218000Y356000D01*
X211000Y321000D02*
Y339000D01*
X58000Y434000D02*
Y443750D01*
X67000Y431000D02*
Y443750D01*
X196000Y296000D02*
X211000Y311000D01*
Y321000D01*
Y339000D02*
X223000Y351000D01*
X210750Y320750D02*
X211000Y321000D01*
X205000Y320750D02*
X210750D01*
X217577Y359700D02*
X219950Y362073D01*
X198189Y354000D02*
X210767D01*
X218000Y356000D02*
X234767D01*
X216467Y359700D02*
X217577D01*
X210767Y354000D02*
X216467Y359700D01*
X168000Y366000D02*
X178000Y376000D01*
X168000Y318000D02*
Y366000D01*
X163250Y313250D02*
X168000Y318000D01*
X172550Y355550D02*
X184000Y367000D01*
X176250Y251000D02*
Y352250D01*
X169750Y314517D02*
X172550Y317317D01*
Y355550D01*
X176250Y352250D02*
X188600Y364600D01*
X164000Y384000D02*
X172000Y392000D01*
X156750Y316750D02*
X164000Y324000D01*
Y384000D01*
X160000Y327000D02*
Y395000D01*
X173000Y408000D01*
X150250Y317250D02*
X160000Y327000D01*
X192400Y361400D02*
Y381400D01*
X188600Y364600D02*
Y397621D01*
X184000Y367000D02*
Y392000D01*
X169750Y251000D02*
Y314517D01*
X113250Y246000D02*
X113656Y245594D01*
Y240344D02*
X114000Y240000D01*
X113656Y240344D02*
Y245594D01*
X113250Y298000D02*
X113656Y297594D01*
Y292344D02*
X114000Y292000D01*
X113656Y292344D02*
Y297594D01*
X132400Y178600D02*
Y258918D01*
Y178600D02*
X138000Y173000D01*
X128700Y87289D02*
Y260450D01*
X119000Y86000D02*
X127411D01*
X128700Y87289D01*
X111000Y85500D02*
X115156Y81344D01*
X116656D02*
X117000Y81000D01*
X109200Y85500D02*
X111000D01*
X115156Y81344D02*
X116656D01*
X100500Y89600D02*
X115400D01*
X109200Y60500D02*
X109450Y60250D01*
X115750D01*
X116000Y60000D01*
X109450Y35750D02*
X123750D01*
X124000Y36000D01*
X109200Y35500D02*
X109450Y35750D01*
X115400Y89600D02*
X119000Y86000D01*
X123000Y91000D02*
Y112717D01*
X132400Y258918D02*
X132700Y259218D01*
Y324700D02*
X142000Y334000D01*
X132700Y259218D02*
Y324700D01*
X129000Y260751D02*
Y330000D01*
X128700Y260450D02*
X129000Y260751D01*
Y330000D02*
X138952Y339952D01*
X92600Y97500D02*
X100500Y89600D01*
X112689Y112717D02*
X123000D01*
Y112750D01*
X185000Y99000D02*
Y177892D01*
X90550Y72250D02*
X90800Y72500D01*
X51250Y72250D02*
X90550D01*
X51000Y72000D02*
X51250Y72250D01*
X66300Y4700D02*
X151700D01*
X54000Y17000D02*
Y24000D01*
Y17000D02*
X66300Y4700D01*
X211950Y393850D02*
Y403050D01*
X207000Y408000D02*
X211950Y403050D01*
X207950Y393600D02*
Y398050D01*
X191931Y400952D02*
X205048D01*
X207950Y398050D01*
X173000Y408000D02*
X207000D01*
X221000Y373777D02*
X223950Y370827D01*
X232000Y366450D02*
Y377513D01*
X236050Y366500D02*
Y370827D01*
X239656Y374433D02*
Y376656D01*
X223950Y366500D02*
Y370827D01*
X239656Y376656D02*
X240000Y377000D01*
X236050Y370827D02*
X239656Y374433D01*
X234656Y384656D02*
X235000Y385000D01*
X232000Y377513D02*
X234656Y380168D01*
Y384656D01*
X221000Y373777D02*
Y374000D01*
X223950Y366500D02*
X224000Y366450D01*
X215950Y366500D02*
Y379050D01*
X213000Y382000D02*
X215950Y379050D01*
X65405Y128900D02*
X70000Y133495D01*
Y142000D01*
X65405Y126405D02*
Y128900D01*
X185000Y177892D02*
X189250Y182142D01*
X180600Y143095D02*
Y179600D01*
X176000Y138495D02*
X180600Y143095D01*
Y179600D02*
X182750Y181750D01*
X151700Y4700D02*
X176000Y29000D01*
Y138495D01*
X169000Y117000D02*
Y151692D01*
X169750Y152442D02*
Y193000D01*
X169000Y151692D02*
X169750Y152442D01*
X176125Y145125D02*
Y192875D01*
X176250Y193000D01*
X176000Y145000D02*
X176125Y145125D01*
X53219Y118000D02*
X62233D01*
X69105Y124873D02*
Y125608D01*
X62400Y123400D02*
X65405Y126405D01*
X55095Y123400D02*
X62400D01*
X62233Y118000D02*
X69105Y124873D01*
X70005Y126508D02*
Y126995D01*
X69105Y125608D02*
X70005Y126508D01*
X138952Y342952D02*
X139000Y343000D01*
X138952Y339952D02*
Y342952D01*
X31500Y231500D02*
X37250Y237250D01*
X31500Y229000D02*
Y231500D01*
X37250Y237250D02*
Y259000D01*
X2000Y279000D02*
X9500Y286500D01*
Y289000D01*
X2000Y263716D02*
X6716Y259000D01*
X2000Y263716D02*
Y279000D01*
X6716Y259000D02*
X6750D01*
X111400Y110900D02*
Y111428D01*
X109200Y110500D02*
X111000D01*
X111400Y110900D01*
Y111428D02*
X112689Y112717D01*
X109250Y125250D02*
X111250Y123250D01*
X123000D01*
X98000Y151000D02*
Y157500D01*
X98000Y157500D01*
X98000Y203000D02*
Y208500D01*
X97000Y209500D02*
X98000Y208500D01*
X97000Y255000D02*
Y261500D01*
X223000Y351000D02*
X238000D01*
X244000Y357000D02*
Y366450D01*
X238000Y351000D02*
X244000Y357000D01*
X239950Y361183D02*
Y366400D01*
X234767Y356000D02*
X239950Y361183D01*
X219950Y362073D02*
Y366400D01*
X92750Y412000D02*
X92875Y411875D01*
Y401125D02*
Y411875D01*
X93375Y412625D02*
Y443125D01*
X94000Y443750D01*
X79750Y412000D02*
Y427690D01*
X76000Y431440D02*
X79750Y427690D01*
X105750Y342250D02*
Y354000D01*
X112250Y423250D02*
X121000Y432000D01*
Y443750D01*
X86656Y335400D02*
Y353594D01*
X79750Y412000D02*
X79875Y411875D01*
Y398125D02*
Y411875D01*
Y398125D02*
X80000Y398000D01*
X79750Y332750D02*
Y354000D01*
X85625Y412625D02*
Y443125D01*
X99250Y338750D02*
Y354000D01*
X66750Y412000D02*
Y425250D01*
X58000Y434000D02*
X66750Y425250D01*
X92750Y337250D02*
Y354000D01*
X112000Y401000D02*
X112125Y401125D01*
Y411875D02*
X112250Y412000D01*
X112125Y401125D02*
Y411875D01*
X99656Y401344D02*
Y411594D01*
X99250Y412000D02*
Y439533D01*
X73250Y337250D02*
Y354000D01*
X105750Y412000D02*
Y427750D01*
X112000Y434000D01*
X73250Y412000D02*
Y424750D01*
X67000Y431000D02*
X73250Y424750D01*
X71005Y400000D02*
X73125Y402120D01*
Y411875D01*
X73250Y412000D01*
X71000Y400000D02*
X71005D01*
X119531Y401469D02*
Y411219D01*
Y401469D02*
X119875Y401125D01*
X118750Y421750D02*
X130000Y433000D01*
Y443750D01*
X92750Y412000D02*
X93375Y412625D01*
X85625D02*
X86250Y412000D01*
X112250D02*
Y423250D01*
X99250Y412000D02*
X99656Y411594D01*
X86250Y354000D02*
X86656Y353594D01*
X118750Y412000D02*
X119531Y411219D01*
X118750Y412000D02*
Y421750D01*
X112000Y434000D02*
Y443750D01*
X70000Y334000D02*
X73250Y337250D01*
X70000Y329487D02*
Y334000D01*
X103000Y443283D02*
Y443750D01*
X99250Y439533D02*
X103000Y443283D01*
X92750Y337250D02*
X97000Y333000D01*
Y329000D02*
Y333000D01*
X99250Y338750D02*
X105952Y332048D01*
Y329048D02*
Y332048D01*
Y329048D02*
X106000Y329000D01*
X85000Y443750D02*
X85625Y443125D01*
X79110Y332110D02*
X79750Y332750D01*
X79110Y329235D02*
Y332110D01*
X79000Y329125D02*
X79110Y329235D01*
X88000Y323250D02*
Y329000D01*
X87756Y329244D02*
X88000Y329000D01*
X87756Y329244D02*
Y334300D01*
X86656Y335400D02*
X87756Y334300D01*
X105750Y342250D02*
X114656Y333344D01*
Y329344D02*
Y333344D01*
Y329344D02*
X115000Y329000D01*
Y323250D02*
Y329000D01*
X76000Y431440D02*
Y443750D01*
X182750Y181750D02*
Y193000D01*
X208750D02*
X208875Y192875D01*
Y169375D02*
X209000Y169250D01*
X208875Y169375D02*
Y192875D01*
X189250Y182142D02*
Y193000D01*
X191000Y177178D02*
X195750Y181928D01*
X191000Y169250D02*
Y177178D01*
X195750Y181928D02*
Y193000D01*
X197300Y361205D02*
X199505Y359000D01*
X208877D01*
X197300Y361205D02*
Y363700D01*
X197000Y364000D02*
X197300Y363700D01*
X208877Y359000D02*
X211950Y362073D01*
X196000Y356000D02*
X196189D01*
X198189Y354000D01*
X10400Y145950D02*
X10450Y146000D01*
X211950Y362073D02*
Y366400D01*
X145000Y351000D02*
Y364000D01*
X197000Y378000D02*
X201000Y382000D01*
X197000Y370000D02*
Y378000D01*
X208000Y366450D02*
Y376000D01*
X244000Y387000D02*
Y393550D01*
X201000Y382000D02*
X213000D01*
X198450Y387450D02*
X218227D01*
X192400Y381400D02*
X198450Y387450D01*
X218227D02*
X219950Y389173D01*
X196000Y272000D02*
Y296000D01*
X188600Y397621D02*
X191931Y400952D01*
X163250Y251000D02*
Y313250D01*
X156750Y251000D02*
Y316750D01*
X150250Y251000D02*
Y317250D01*
X143750Y318750D02*
X155000Y330000D01*
Y401000D01*
X143750Y251000D02*
Y318750D01*
X137250Y251000D02*
Y320250D01*
X149000Y332000D01*
Y347000D01*
X145000Y351000D02*
X149000Y347000D01*
X211950Y366400D02*
X212000Y366450D01*
X215950Y366500D02*
X216000Y366450D01*
X207950Y393600D02*
X208000Y393550D01*
X219950Y389173D02*
Y393500D01*
X220000Y393550D01*
X224000D02*
Y400000D01*
X228000Y387000D02*
Y393550D01*
X230000Y404513D02*
X232000Y402513D01*
X230000Y404513D02*
Y405000D01*
X232000Y393550D02*
Y402513D01*
X236000Y411513D02*
X237000Y412513D01*
X236000Y393550D02*
Y411513D01*
X237000Y412513D02*
Y413000D01*
X240000Y406231D02*
X247768Y414000D01*
X248000D01*
X240000Y393550D02*
Y406231D01*
X138000Y60000D02*
Y173000D01*
X236000Y366450D02*
X236050Y366500D01*
X239950Y366400D02*
X240000Y366450D01*
X196000Y272000D02*
X202250Y265750D01*
Y251000D02*
Y265750D01*
X195750Y251000D02*
Y264250D01*
X121000Y43000D02*
X138000Y60000D01*
X90800Y97500D02*
X92600D01*
X143000Y17000D02*
X156750Y30750D01*
X69000Y17000D02*
X143000D01*
X147000Y11000D02*
X163250Y27250D01*
X77000Y11000D02*
X147000D01*
X163250Y27250D02*
Y193000D01*
X24000Y116000D02*
X32000Y108000D01*
X49000D02*
X52000Y111000D01*
X32000Y108000D02*
X49000D01*
X143750Y109250D02*
X144000Y109000D01*
X143750Y109250D02*
Y193000D01*
X60600Y97600D02*
X71500Y108500D01*
X156750Y30750D02*
Y193000D01*
X54300Y101300D02*
X70000Y117000D01*
X150250Y127250D02*
Y193000D01*
X150000Y127000D02*
X150250Y127250D01*
X28400Y97600D02*
X60600D01*
X31700Y101300D02*
X54300D01*
X49219Y122000D02*
X53219Y118000D01*
X37550Y126000D02*
X52495D01*
X55095Y123400D01*
X54513Y130000D02*
X56513Y128000D01*
X37550Y130000D02*
X54513D01*
X56513Y128000D02*
X57000D01*
X37550Y134000D02*
X64000D01*
X63250Y22750D02*
X90550D01*
X63000Y23000D02*
X63250Y22750D01*
X90550D02*
X90800Y22500D01*
X31000Y146000D02*
X37550D01*
X57281Y138000D02*
X63140Y143860D01*
X37550Y138000D02*
X57281D01*
X54513Y144000D02*
X55000D01*
X52513Y142000D02*
X54513Y144000D01*
X37550Y142000D02*
X52513D01*
X37550Y122000D02*
X49219D01*
X97000Y323250D02*
Y329000D01*
X70000Y323250D02*
Y329487D01*
X79000Y323250D02*
Y329125D01*
X106000Y323250D02*
Y329000D01*
X24000Y116000D02*
Y124000D01*
X18000Y130000D02*
X24000Y124000D01*
X20250Y112750D02*
X31700Y101300D01*
X16550Y109450D02*
X28400Y97600D01*
X10450Y126000D02*
X16010D01*
X14827Y121950D02*
X16550Y120227D01*
X16010Y126000D02*
X20250Y121760D01*
Y112750D02*
Y121760D01*
X10500Y121950D02*
X14827D01*
X16550Y115773D02*
Y120227D01*
X10450Y122000D02*
X10500Y121950D01*
X16550Y109450D02*
Y115773D01*
X16550Y115773D01*
X97100Y43000D02*
X121000D01*
X92600Y47500D02*
X97100Y43000D01*
X90800Y47500D02*
X92600D01*
X10450Y130000D02*
X18000D01*
D12*
X42000Y41000D02*
X52000D01*
X42000Y41000D02*
X42000Y41000D01*
X50000Y33000D01*
X70000D02*
X74000Y29000D01*
X50000Y33000D02*
X70000D01*
X42500Y54500D02*
X51500D01*
X42000Y54000D02*
X42500Y54500D01*
X106000Y312750D02*
X115000D01*
X97000D02*
X106000D01*
X88000D02*
X97000D01*
X79000D02*
X88000D01*
X70000D02*
X79000D01*
X64000Y312000D02*
X69500D01*
X70000Y312500D02*
Y312750D01*
X69500Y312000D02*
X70000Y312500D01*
X121000Y454250D02*
X130000D01*
X112000D02*
X121000D01*
X112000Y454250D02*
X112000Y454250D01*
X130000D02*
X130250Y454000D01*
X138000D01*
X49000Y448000D02*
Y451321D01*
X51929Y454250D01*
X58000D01*
X58000Y454250D02*
X103000D01*
X103000Y454250D01*
X58000Y454250D02*
X58000Y454250D01*
X52000Y55000D02*
Y56000D01*
X51500Y54500D02*
X52000Y55000D01*
X41000Y330000D02*
X55000Y344000D01*
Y385000D01*
X29500Y330000D02*
X41000D01*
X22000Y229000D02*
X22500Y229500D01*
X28000Y244000D02*
X28500D01*
X22500Y238500D02*
X28000Y244000D01*
X22500Y229500D02*
Y238500D01*
X18500Y279500D02*
Y288500D01*
X13000Y274000D02*
X18500Y279500D01*
X12500Y274000D02*
X13000D01*
X18500Y288500D02*
X19000Y289000D01*
X104500Y166500D02*
X113000Y158000D01*
X98500Y166500D02*
X104500D01*
X98000Y167000D02*
X98500Y166500D01*
X113000Y157500D02*
Y158000D01*
X103500Y270500D02*
X112000Y262000D01*
Y261500D02*
Y262000D01*
X97500Y270500D02*
X103500D01*
X97000Y271000D02*
X97500Y270500D01*
X97500Y218500D02*
X103000D01*
X109000Y212500D02*
X109500D01*
X97000Y219000D02*
X97500Y218500D01*
X103000D02*
X109000Y212500D01*
X109500D02*
X112000Y210000D01*
Y209500D02*
Y210000D01*
X11000Y187500D02*
X11500Y188000D01*
X11000Y178000D02*
Y187500D01*
X74000Y79000D02*
X78750D01*
X79000Y78750D01*
X74000Y29000D02*
X78750D01*
X79000Y28750D01*
X191000Y143000D02*
X205571D01*
X208500Y145929D02*
Y158250D01*
X205571Y143000D02*
X208500Y145929D01*
X191000Y143000D02*
Y158750D01*
X208500Y158250D02*
X209000Y158750D01*
X61000Y391000D02*
X140000D01*
X146000Y397000D02*
Y414321D01*
X140000Y391000D02*
X146000Y397000D01*
X143821Y416500D02*
X146000Y414321D01*
X136500Y416500D02*
X143821D01*
X55000Y385000D02*
X61000Y391000D01*
X28500Y315000D02*
Y329000D01*
X29500Y330000D01*
X11500Y188000D02*
X12000Y188500D01*
Y202500D01*
X12500Y203000D01*
Y229000D02*
Y243000D01*
X27500Y259500D02*
Y274000D01*
X28500Y275000D01*
X27000Y259000D02*
X27500Y259500D01*
X26750Y259000D02*
X27000D01*
X12000Y244000D02*
X17250Y249250D01*
Y259000D01*
X26750D01*
X49071Y274000D02*
X52000Y276929D01*
Y293071D01*
X29500Y274000D02*
X49071D01*
X54929Y296000D02*
X71500D01*
X52000Y293071D02*
X54929Y296000D01*
X28500Y275000D02*
X29500Y274000D01*
X28500Y275000D02*
Y289000D01*
X71000Y280500D02*
X71250Y280750D01*
Y295750D01*
X71500Y296000D01*
X113000Y174500D02*
X115500Y177000D01*
X112000Y278500D02*
X113500Y280000D01*
X122000D01*
X97500D02*
X110500D01*
X112000Y278500D01*
X97000Y280500D02*
X97500Y280000D01*
X113500Y228000D02*
X122000D01*
X112000Y226500D02*
X113500Y228000D01*
X97500Y228000D02*
X110500D01*
X97000Y228500D02*
X97500Y228000D01*
X115500Y177000D02*
X122000D01*
X98500Y176000D02*
X111500D01*
X113000Y174500D01*
X98000Y176500D02*
X98500Y176000D01*
D13*
X215000Y439000D02*
D03*
X25000Y364000D02*
D03*
Y75000D02*
D03*
X215000Y50000D02*
D03*
D14*
X3344Y141783D02*
D03*
X19000Y145000D02*
D03*
X25967Y138017D02*
D03*
X26696Y130500D02*
D03*
X42000Y41000D02*
D03*
Y54000D02*
D03*
X84000Y123000D02*
D03*
X209000Y290000D02*
D03*
X122000Y280000D02*
D03*
X62000Y48500D02*
D03*
X194000Y338000D02*
D03*
X138000Y454000D02*
D03*
X49000Y448000D02*
D03*
X64000Y312000D02*
D03*
X115000Y188000D02*
D03*
X114000Y240000D02*
D03*
Y292000D02*
D03*
X117000Y81000D02*
D03*
X116000Y60000D02*
D03*
X124000Y36000D02*
D03*
X123000Y91000D02*
D03*
X185000Y99000D02*
D03*
X2000Y162000D02*
D03*
Y156000D02*
D03*
Y150000D02*
D03*
X252000Y385000D02*
D03*
X254000Y402000D02*
D03*
X247000D02*
D03*
X87000Y260000D02*
D03*
X86000Y281000D02*
D03*
X13241Y101706D02*
D03*
X85000Y177000D02*
D03*
X99000Y29000D02*
D03*
Y54000D02*
D03*
Y79000D02*
D03*
X100000Y101000D02*
D03*
X260000Y432000D02*
D03*
Y417000D02*
D03*
X245000Y432000D02*
D03*
X230000Y87000D02*
D03*
Y72000D02*
D03*
Y27000D02*
D03*
Y12000D02*
D03*
X215000Y87000D02*
D03*
Y12000D02*
D03*
X200000Y207000D02*
D03*
Y132000D02*
D03*
Y117000D02*
D03*
Y102000D02*
D03*
Y87000D02*
D03*
Y72000D02*
D03*
Y27000D02*
D03*
Y12000D02*
D03*
X185000Y447000D02*
D03*
Y432000D02*
D03*
Y237000D02*
D03*
Y87000D02*
D03*
Y72000D02*
D03*
Y57000D02*
D03*
Y42000D02*
D03*
Y27000D02*
D03*
Y12000D02*
D03*
X170000Y447000D02*
D03*
Y432000D02*
D03*
Y237000D02*
D03*
Y222000D02*
D03*
Y102000D02*
D03*
Y87000D02*
D03*
Y72000D02*
D03*
Y57000D02*
D03*
Y42000D02*
D03*
Y12000D02*
D03*
X155000Y447000D02*
D03*
Y432000D02*
D03*
Y237000D02*
D03*
Y222000D02*
D03*
Y207000D02*
D03*
X140000Y237000D02*
D03*
Y222000D02*
D03*
Y207000D02*
D03*
Y42000D02*
D03*
Y27000D02*
D03*
X125000Y342000D02*
D03*
Y72000D02*
D03*
Y57000D02*
D03*
Y27000D02*
D03*
X110000Y372000D02*
D03*
X95000D02*
D03*
X80000D02*
D03*
Y267000D02*
D03*
Y252000D02*
D03*
Y237000D02*
D03*
Y222000D02*
D03*
X65000Y372000D02*
D03*
Y342000D02*
D03*
Y252000D02*
D03*
Y222000D02*
D03*
X50000Y12000D02*
D03*
X35000Y447000D02*
D03*
Y432000D02*
D03*
Y417000D02*
D03*
Y402000D02*
D03*
Y387000D02*
D03*
Y342000D02*
D03*
Y42000D02*
D03*
Y27000D02*
D03*
Y12000D02*
D03*
X20000Y447000D02*
D03*
Y432000D02*
D03*
Y417000D02*
D03*
Y402000D02*
D03*
Y387000D02*
D03*
Y312000D02*
D03*
Y42000D02*
D03*
Y27000D02*
D03*
Y12000D02*
D03*
X5000Y447000D02*
D03*
Y432000D02*
D03*
Y417000D02*
D03*
Y402000D02*
D03*
Y387000D02*
D03*
Y342000D02*
D03*
Y252000D02*
D03*
Y222000D02*
D03*
Y207000D02*
D03*
Y177000D02*
D03*
Y102000D02*
D03*
Y57000D02*
D03*
Y42000D02*
D03*
Y27000D02*
D03*
Y12000D02*
D03*
X46000Y152000D02*
D03*
X11000Y178000D02*
D03*
X74000Y79000D02*
D03*
X74125Y53875D02*
D03*
X74000Y29000D02*
D03*
X139000Y400000D02*
D03*
X218000Y401000D02*
D03*
X228000Y360918D02*
D03*
X235000Y385000D02*
D03*
X221000Y374000D02*
D03*
X209000Y265000D02*
D03*
X58000Y187000D02*
D03*
X200000Y151000D02*
D03*
Y176000D02*
D03*
X191000Y143000D02*
D03*
X70000Y142000D02*
D03*
X176000Y145000D02*
D03*
X52000Y276929D02*
D03*
X258000Y350000D02*
D03*
X250000D02*
D03*
X258000Y357000D02*
D03*
X250000D02*
D03*
X98000Y151000D02*
D03*
Y203000D02*
D03*
X97000Y255000D02*
D03*
X122000Y228000D02*
D03*
Y177000D02*
D03*
X196000Y356000D02*
D03*
X197000Y364000D02*
D03*
X145000D02*
D03*
X197000Y370000D02*
D03*
X208000Y376000D02*
D03*
X178000D02*
D03*
X184000Y392000D02*
D03*
X240000Y377000D02*
D03*
X244000Y387000D02*
D03*
X172000Y392000D02*
D03*
X139000Y343000D02*
D03*
X142000Y334000D02*
D03*
X155000Y401000D02*
D03*
X99656Y401344D02*
D03*
X92875Y401125D02*
D03*
X80000Y398000D02*
D03*
X71000Y400000D02*
D03*
X119875Y401125D02*
D03*
X112000Y401000D02*
D03*
X224000Y400000D02*
D03*
X228000Y387000D02*
D03*
X230000Y405000D02*
D03*
X237000Y413000D02*
D03*
X248000Y414000D02*
D03*
X54000Y24000D02*
D03*
X77000Y11000D02*
D03*
X69000Y17000D02*
D03*
X52000Y111000D02*
D03*
X144000Y109000D02*
D03*
X71500Y108500D02*
D03*
X169000Y117000D02*
D03*
X70000Y117000D02*
D03*
X150000Y127000D02*
D03*
X70005Y126995D02*
D03*
X57000Y128000D02*
D03*
X64000Y134000D02*
D03*
X51000Y72000D02*
D03*
X63000Y23000D02*
D03*
X31000Y146000D02*
D03*
X106000Y329000D02*
D03*
X63000Y144000D02*
D03*
X55000D02*
D03*
X97000Y329000D02*
D03*
X79000Y329125D02*
D03*
X70000Y329487D02*
D03*
D15*
X194000Y331250D02*
X205000D01*
X194000D02*
Y338000D01*
X69000Y84000D02*
Y93869D01*
X78881Y103381D02*
Y103750D01*
X77131Y102000D02*
X77500D01*
X69000Y93869D02*
X77131Y102000D01*
X77500D02*
X78881Y103381D01*
X69000Y84000D02*
X74000Y79000D01*
X103120Y287380D02*
Y297630D01*
X102750Y298000D02*
X103120Y297630D01*
Y287380D02*
X110500Y280000D01*
X102750Y235750D02*
Y246000D01*
Y235750D02*
X110500Y228000D01*
X103750Y183750D02*
Y194000D01*
Y183750D02*
X111500Y176000D01*
X79000Y39250D02*
X85250D01*
X89000Y35500D01*
X90800D01*
X79000Y64250D02*
X85250D01*
X89000Y60500D01*
X90800D01*
X79993Y113257D02*
X83743D01*
X86500Y110500D01*
X90800D01*
X79000Y114250D02*
X79993Y113257D01*
X89000Y85500D02*
Y86750D01*
X86500Y89250D02*
X89000Y86750D01*
X79000Y89250D02*
X86500D01*
X89000Y85500D02*
X90800D01*
X79250Y29000D02*
X90800D01*
X79000Y28750D02*
X79250Y29000D01*
Y54000D02*
X90800D01*
X74125Y53875D02*
X78875D01*
X79000Y53750D02*
X79250Y54000D01*
X78875Y53875D02*
X79000Y53750D01*
Y78750D02*
X79250Y79000D01*
X89000D01*
X89000Y79000D01*
X79250Y104000D02*
X90800D01*
X79000Y103750D02*
X79250Y104000D01*
X89000Y79000D02*
X90800D01*
X137500Y401771D02*
X139000Y400271D01*
X137500Y401771D02*
Y405250D01*
X139000Y400000D02*
Y400271D01*
X136000Y406750D02*
X137500Y405250D01*
X208875Y264875D02*
X209000Y265000D01*
Y270750D01*
X208875Y251125D02*
Y264875D01*
X208750Y251000D02*
X208875Y251125D01*
X200000Y151000D02*
Y158750D01*
Y176000D02*
Y177000D01*
Y169250D02*
Y176000D01*
X135875Y417125D02*
X136500Y416500D01*
X125250Y412000D02*
Y416625D01*
X125750Y417125D01*
X135875D01*
X110500Y228000D02*
X112000Y226500D01*
X202000Y192750D02*
X202250Y193000D01*
X202000Y179000D02*
Y192750D01*
X200000Y177000D02*
X202000Y179000D01*
D16*
X84000Y123000D02*
Y126500D01*
X91500Y123000D02*
Y125000D01*
X79000Y131500D02*
X84000Y126500D01*
Y123000D02*
X91500D01*
X79000Y131500D02*
Y131750D01*
X91500Y125000D02*
X92750Y126250D01*
Y140750D01*
X62000Y48500D02*
Y56000D01*
Y41000D02*
Y48500D01*
X115000Y188000D02*
Y193250D01*
X114250Y194000D02*
X115000Y193250D01*
D17*
X205000Y320750D02*
D03*
Y331250D02*
D03*
X194000Y320750D02*
D03*
Y331250D02*
D03*
X70000Y323250D02*
D03*
Y312750D02*
D03*
X79000D02*
D03*
Y323250D02*
D03*
X88000Y312750D02*
D03*
Y323250D02*
D03*
X97000Y312750D02*
D03*
Y323250D02*
D03*
X106000D02*
D03*
Y312750D02*
D03*
X79000Y142250D02*
D03*
Y131750D02*
D03*
X123000Y123250D02*
D03*
Y112750D02*
D03*
X79000Y114250D02*
D03*
Y103750D02*
D03*
Y89250D02*
D03*
Y78750D02*
D03*
Y53750D02*
D03*
Y64250D02*
D03*
Y28750D02*
D03*
Y39250D02*
D03*
X191000Y158750D02*
D03*
Y169250D02*
D03*
X200000D02*
D03*
Y158750D02*
D03*
X209000Y169250D02*
D03*
Y158750D02*
D03*
Y281250D02*
D03*
Y270750D02*
D03*
X115000Y323250D02*
D03*
Y312750D02*
D03*
X121000Y443750D02*
D03*
Y454250D02*
D03*
X94000Y454250D02*
D03*
Y443750D02*
D03*
X58000Y443750D02*
D03*
Y454250D02*
D03*
X76000D02*
D03*
Y443750D02*
D03*
X85000Y454250D02*
D03*
Y443750D02*
D03*
X67000D02*
D03*
Y454250D02*
D03*
X103000Y443750D02*
D03*
Y454250D02*
D03*
X130000Y443750D02*
D03*
Y454250D02*
D03*
X112000Y454250D02*
D03*
Y443750D02*
D03*
X136000Y417250D02*
D03*
Y406750D02*
D03*
D18*
X62000Y56000D02*
D03*
X52000D02*
D03*
X62000Y41000D02*
D03*
X52000D02*
D03*
D19*
X109250Y140750D02*
D03*
X92750D02*
D03*
Y125250D02*
D03*
X109250D02*
D03*
D20*
X256750Y393550D02*
D03*
X203250D02*
D03*
X256750Y366450D02*
D03*
X203250D02*
D03*
D21*
X208000D02*
D03*
Y393550D02*
D03*
X212000Y366450D02*
D03*
Y393550D02*
D03*
X216000Y366450D02*
D03*
Y393550D02*
D03*
X220000Y366450D02*
D03*
Y393550D02*
D03*
X224000Y366450D02*
D03*
Y393550D02*
D03*
X228000Y366450D02*
D03*
Y393550D02*
D03*
X232000Y366450D02*
D03*
Y393550D02*
D03*
X236000Y366450D02*
D03*
Y393550D02*
D03*
X240000Y366450D02*
D03*
Y393550D02*
D03*
X244000Y366450D02*
D03*
Y393550D02*
D03*
X248000Y366450D02*
D03*
Y393550D02*
D03*
X252000Y366450D02*
D03*
Y393550D02*
D03*
D22*
X10450Y162000D02*
D03*
X37550D02*
D03*
X10450Y158000D02*
D03*
X37550D02*
D03*
X10450Y154000D02*
D03*
X37550D02*
D03*
X10450Y150000D02*
D03*
X37550D02*
D03*
X10450Y146000D02*
D03*
X37550D02*
D03*
X10450Y142000D02*
D03*
X37550D02*
D03*
X10450Y138000D02*
D03*
X37550D02*
D03*
X10450Y134000D02*
D03*
X37550D02*
D03*
X10450Y130000D02*
D03*
X37550D02*
D03*
X10450Y126000D02*
D03*
X37550D02*
D03*
X10450Y122000D02*
D03*
X37550D02*
D03*
X10450Y118000D02*
D03*
X37550D02*
D03*
D23*
Y113250D02*
D03*
Y166750D02*
D03*
X10450Y113250D02*
D03*
Y166750D02*
D03*
D24*
X97000Y228500D02*
D03*
Y219000D02*
D03*
Y209500D02*
D03*
X71000D02*
D03*
Y228500D02*
D03*
X72000Y176500D02*
D03*
Y157500D02*
D03*
X98000D02*
D03*
Y167000D02*
D03*
Y176500D02*
D03*
X71000Y280500D02*
D03*
Y261500D02*
D03*
X97000D02*
D03*
Y271000D02*
D03*
Y280500D02*
D03*
D25*
X37250Y259000D02*
D03*
X26750D02*
D03*
X17250D02*
D03*
X6750D02*
D03*
X102750Y246000D02*
D03*
X113250D02*
D03*
X114250Y194000D02*
D03*
X103750D02*
D03*
X113250Y298000D02*
D03*
X102750D02*
D03*
D26*
X12500Y274000D02*
D03*
X29500D02*
D03*
Y330000D02*
D03*
X12500D02*
D03*
X71500Y244000D02*
D03*
X88500D02*
D03*
X11500D02*
D03*
X28500D02*
D03*
Y188000D02*
D03*
X11500D02*
D03*
X89500Y192000D02*
D03*
X72500D02*
D03*
X71500Y296000D02*
D03*
X88500D02*
D03*
D27*
X28500Y289000D02*
D03*
X19000D02*
D03*
X9500D02*
D03*
Y315000D02*
D03*
X28500D02*
D03*
X12500Y203000D02*
D03*
X31500D02*
D03*
Y229000D02*
D03*
X22000D02*
D03*
X12500D02*
D03*
D28*
X112000Y226500D02*
D03*
Y209500D02*
D03*
X113000Y157500D02*
D03*
Y174500D02*
D03*
X112000Y261500D02*
D03*
Y278500D02*
D03*
D29*
X90800Y110500D02*
D03*
Y104000D02*
D03*
Y97500D02*
D03*
X109200Y110500D02*
D03*
Y104000D02*
D03*
Y97500D02*
D03*
X90800Y85500D02*
D03*
Y79000D02*
D03*
Y72500D02*
D03*
X109200Y85500D02*
D03*
Y79000D02*
D03*
Y72500D02*
D03*
X90800Y60500D02*
D03*
Y54000D02*
D03*
Y47500D02*
D03*
X109200Y60500D02*
D03*
Y54000D02*
D03*
Y47500D02*
D03*
X90800Y35500D02*
D03*
Y29000D02*
D03*
Y22500D02*
D03*
X109200Y35500D02*
D03*
Y29000D02*
D03*
Y22500D02*
D03*
D30*
X202250Y193000D02*
D03*
X195750D02*
D03*
X189250D02*
D03*
X182750D02*
D03*
X176250D02*
D03*
X169750D02*
D03*
X163250D02*
D03*
X156750D02*
D03*
X150250D02*
D03*
X143750D02*
D03*
X137250D02*
D03*
Y251000D02*
D03*
X143750D02*
D03*
X150250D02*
D03*
X156750D02*
D03*
X163250D02*
D03*
X169750D02*
D03*
X176250D02*
D03*
X182750D02*
D03*
X189250D02*
D03*
X195750D02*
D03*
X202250D02*
D03*
X208750D02*
D03*
Y193000D02*
D03*
D31*
X125250Y412000D02*
D03*
X118750D02*
D03*
X112250D02*
D03*
X105750D02*
D03*
X99250D02*
D03*
X92750D02*
D03*
X86250D02*
D03*
X79750D02*
D03*
X73250D02*
D03*
X66750D02*
D03*
X66750Y354000D02*
D03*
X73250D02*
D03*
X79750D02*
D03*
X86250D02*
D03*
X92750D02*
D03*
X99250D02*
D03*
X105750D02*
D03*
X112250D02*
D03*
X118750D02*
D03*
X125250D02*
D03*
D32*
X252000Y393550D02*
X252150Y393700D01*
X247850D02*
X248000Y393550D01*
X216150Y398609D02*
X218000Y400459D01*
X216000Y393550D02*
X216150Y393700D01*
Y398609D01*
X218000Y400459D02*
Y401000D01*
X228000Y360918D02*
Y366450D01*
M02*
