M48
;Layer_Color=9474304
;FILE_FORMAT=4:4
METRIC,TZ
;TYPE=PLATED
T01F00S00C0.2000
T02F00S00C2.2000
%
T01
X5000Y12000
X20000
X35000
X50000
X54000Y24000
X63000Y23000
X69000Y17000
X77000Y11000
X74000Y29000
X99000
Y54000
X116000Y60000
X125000Y57000
Y72000
X117000Y81000
X123000Y91000
X100000Y101000
X99000Y79000
X74000
X74125Y53875
X62000Y48500
X42000Y54000
Y41000
X35000Y42000
Y27000
X20000
Y42000
X5000
Y57000
Y27000
Y102000
X13241Y101706
X26696Y130500
X25967Y138017
X31000Y146000
X19000Y145000
X3344Y141783
X2000Y150000
Y156000
Y162000
X5000Y177000
X11000Y178000
X5000Y207000
Y222000
Y252000
X65000
X80000
Y267000
X87000Y260000
X97000Y255000
X114000Y240000
X122000Y228000
X140000Y222000
X155000
X170000
Y237000
X155000
X140000
Y207000
X155000
X115000Y188000
X122000Y177000
X85000
X58000Y187000
X65000Y222000
X80000
Y237000
X86000Y281000
X122000Y280000
X114000Y292000
X106000Y329000
X97000
X79000Y329125
X70000Y329487
X65000Y342000
X35000
X5000
X20000Y312000
X64000Y312000
X52000Y276929
X98000Y203000
Y151000
X70000Y142000
X63000Y144000
X55000
X46000Y152000
X57000Y128000
X64000Y134000
X70005Y126995
X70000Y117000
X71500Y108500
X52000Y111000
X51000Y72000
X84000Y123000
X150000Y127000
X144000Y109000
X169000Y117000
X170000Y102000
Y87000
Y72000
Y57000
Y42000
Y12000
X140000Y27000
Y42000
X124000Y36000
X125000Y27000
X176000Y145000
X142000Y334000
X139000Y343000
X125000Y342000
X194000Y338000
X196000Y356000
X228000Y360918
X250000Y357000
Y350000
X258000
Y357000
X209000Y290000
Y265000
X185000Y237000
X200000Y207000
X200000Y176000
Y151000
X191000Y143000
X200000Y132000
Y117000
Y102000
Y87000
X215000
X230000
Y72000
X200000
X185000
Y87000
X185000Y99000
X185000Y57000
Y42000
Y27000
X200000
Y12000
X215000
X230000
Y27000
X185000Y12000
X197000Y364000
Y370000
X208000Y376000
X221000Y374000
X228000Y387000
X235000Y385000
X244000Y387000
X252000Y385000
X254000Y402000
X247000
X248000Y414000
X237000Y413000
X230000Y405000
X224000Y400000
X218000Y401000
X184000Y392000
X185000Y432000
Y447000
X245000Y432000
X260000
Y417000
X240000Y377000
X178000Y376000
X172000Y392000
X155000Y401000
X139000Y400000
X119875Y401125
X112000Y401000
X99656Y401344
X92875Y401125
X80000Y398000
X71000Y400000
X65000Y372000
X80000
X95000
X110000
X145000Y364000
X155000Y432000
X170000
Y447000
X155000
X138000Y454000
X49000Y448000
X35000Y447000
Y432000
Y417000
Y402000
Y387000
X20000
Y402000
Y417000
Y432000
Y447000
X5000
Y432000
Y417000
Y402000
Y387000
T02
X25000Y75000
X215000Y50000
Y439000
X25000Y364000
M30
