G04*
G04 #@! TF.GenerationSoftware,Altium Limited,Altium Designer,24.9.1 (31)*
G04*
G04 Layer_Color=128*
%FSLAX44Y44*%
%MOMM*%
G71*
G04*
G04 #@! TF.SameCoordinates,B31CAF09-BB74-4FAA-89E9-8BE817FA7118*
G04*
G04*
G04 #@! TF.FilePolarity,Positive*
G04*
G01*
G75*
%ADD46C,0.1270*%
D46*
X204000Y439000D02*
X226000D01*
X215000Y428000D02*
Y450000D01*
X14000Y364000D02*
X36000D01*
X25000Y353000D02*
Y375000D01*
X14000Y75000D02*
X36000D01*
X25000Y64000D02*
Y86000D01*
X204000Y50000D02*
X226000D01*
X215000Y39000D02*
Y61000D01*
X2344Y141783D02*
X4344D01*
X3344Y140783D02*
Y142783D01*
X18000Y145000D02*
X20000D01*
X19000Y144000D02*
Y146000D01*
X24967Y138017D02*
X26967D01*
X25967Y137017D02*
Y139017D01*
X25696Y130500D02*
X27696D01*
X26696Y129500D02*
Y131500D01*
X41000Y41000D02*
X43000D01*
X42000Y40000D02*
Y42000D01*
X41000Y54000D02*
X43000D01*
X42000Y53000D02*
Y55000D01*
X83000Y123000D02*
X85000D01*
X84000Y122000D02*
Y124000D01*
X208000Y290000D02*
X210000D01*
X209000Y289000D02*
Y291000D01*
X121000Y280000D02*
X123000D01*
X122000Y279000D02*
Y281000D01*
X61000Y48500D02*
X63000D01*
X62000Y47500D02*
Y49500D01*
X193000Y338000D02*
X195000D01*
X194000Y337000D02*
Y339000D01*
X137000Y454000D02*
X139000D01*
X138000Y453000D02*
Y455000D01*
X48000Y448000D02*
X50000D01*
X49000Y447000D02*
Y449000D01*
X63000Y312000D02*
X65000D01*
X64000Y311000D02*
Y313000D01*
X114000Y188000D02*
X116000D01*
X115000Y187000D02*
Y189000D01*
X113000Y240000D02*
X115000D01*
X114000Y239000D02*
Y241000D01*
X113000Y292000D02*
X115000D01*
X114000Y291000D02*
Y293000D01*
X116000Y81000D02*
X118000D01*
X117000Y80000D02*
Y82000D01*
X115000Y60000D02*
X117000D01*
X116000Y59000D02*
Y61000D01*
X123000Y36000D02*
X125000D01*
X124000Y35000D02*
Y37000D01*
X122000Y91000D02*
X124000D01*
X123000Y90000D02*
Y92000D01*
X184000Y99000D02*
X186000D01*
X185000Y98000D02*
Y100000D01*
X1000Y162000D02*
X3000D01*
X2000Y161000D02*
Y163000D01*
X1000Y156000D02*
X3000D01*
X2000Y155000D02*
Y157000D01*
X1000Y150000D02*
X3000D01*
X2000Y149000D02*
Y151000D01*
X251000Y385000D02*
X253000D01*
X252000Y384000D02*
Y386000D01*
X253000Y402000D02*
X255000D01*
X254000Y401000D02*
Y403000D01*
X246000Y402000D02*
X248000D01*
X247000Y401000D02*
Y403000D01*
X86000Y260000D02*
X88000D01*
X87000Y259000D02*
Y261000D01*
X85000Y281000D02*
X87000D01*
X86000Y280000D02*
Y282000D01*
X12241Y101706D02*
X14241D01*
X13241Y100706D02*
Y102706D01*
X84000Y177000D02*
X86000D01*
X85000Y176000D02*
Y178000D01*
X98000Y29000D02*
X100000D01*
X99000Y28000D02*
Y30000D01*
X98000Y54000D02*
X100000D01*
X99000Y53000D02*
Y55000D01*
X98000Y79000D02*
X100000D01*
X99000Y78000D02*
Y80000D01*
Y101000D02*
X101000D01*
X100000Y100000D02*
Y102000D01*
X259000Y432000D02*
X261000D01*
X260000Y431000D02*
Y433000D01*
X259000Y417000D02*
X261000D01*
X260000Y416000D02*
Y418000D01*
X244000Y432000D02*
X246000D01*
X245000Y431000D02*
Y433000D01*
X229000Y87000D02*
X231000D01*
X230000Y86000D02*
Y88000D01*
X229000Y72000D02*
X231000D01*
X230000Y71000D02*
Y73000D01*
X229000Y27000D02*
X231000D01*
X230000Y26000D02*
Y28000D01*
X229000Y12000D02*
X231000D01*
X230000Y11000D02*
Y13000D01*
X214000Y87000D02*
X216000D01*
X215000Y86000D02*
Y88000D01*
X214000Y12000D02*
X216000D01*
X215000Y11000D02*
Y13000D01*
X199000Y207000D02*
X201000D01*
X200000Y206000D02*
Y208000D01*
X199000Y132000D02*
X201000D01*
X200000Y131000D02*
Y133000D01*
X199000Y117000D02*
X201000D01*
X200000Y116000D02*
Y118000D01*
X199000Y102000D02*
X201000D01*
X200000Y101000D02*
Y103000D01*
X199000Y87000D02*
X201000D01*
X200000Y86000D02*
Y88000D01*
X199000Y72000D02*
X201000D01*
X200000Y71000D02*
Y73000D01*
X199000Y27000D02*
X201000D01*
X200000Y26000D02*
Y28000D01*
X199000Y12000D02*
X201000D01*
X200000Y11000D02*
Y13000D01*
X184000Y447000D02*
X186000D01*
X185000Y446000D02*
Y448000D01*
X184000Y432000D02*
X186000D01*
X185000Y431000D02*
Y433000D01*
X184000Y237000D02*
X186000D01*
X185000Y236000D02*
Y238000D01*
X184000Y87000D02*
X186000D01*
X185000Y86000D02*
Y88000D01*
X184000Y72000D02*
X186000D01*
X185000Y71000D02*
Y73000D01*
X184000Y57000D02*
X186000D01*
X185000Y56000D02*
Y58000D01*
X184000Y42000D02*
X186000D01*
X185000Y41000D02*
Y43000D01*
X184000Y27000D02*
X186000D01*
X185000Y26000D02*
Y28000D01*
X184000Y12000D02*
X186000D01*
X185000Y11000D02*
Y13000D01*
X169000Y447000D02*
X171000D01*
X170000Y446000D02*
Y448000D01*
X169000Y432000D02*
X171000D01*
X170000Y431000D02*
Y433000D01*
X169000Y237000D02*
X171000D01*
X170000Y236000D02*
Y238000D01*
X169000Y222000D02*
X171000D01*
X170000Y221000D02*
Y223000D01*
X169000Y102000D02*
X171000D01*
X170000Y101000D02*
Y103000D01*
X169000Y87000D02*
X171000D01*
X170000Y86000D02*
Y88000D01*
X169000Y72000D02*
X171000D01*
X170000Y71000D02*
Y73000D01*
X169000Y57000D02*
X171000D01*
X170000Y56000D02*
Y58000D01*
X169000Y42000D02*
X171000D01*
X170000Y41000D02*
Y43000D01*
X169000Y12000D02*
X171000D01*
X170000Y11000D02*
Y13000D01*
X154000Y447000D02*
X156000D01*
X155000Y446000D02*
Y448000D01*
X154000Y432000D02*
X156000D01*
X155000Y431000D02*
Y433000D01*
X154000Y237000D02*
X156000D01*
X155000Y236000D02*
Y238000D01*
X154000Y222000D02*
X156000D01*
X155000Y221000D02*
Y223000D01*
X154000Y207000D02*
X156000D01*
X155000Y206000D02*
Y208000D01*
X139000Y237000D02*
X141000D01*
X140000Y236000D02*
Y238000D01*
X139000Y222000D02*
X141000D01*
X140000Y221000D02*
Y223000D01*
X139000Y207000D02*
X141000D01*
X140000Y206000D02*
Y208000D01*
X139000Y42000D02*
X141000D01*
X140000Y41000D02*
Y43000D01*
X139000Y27000D02*
X141000D01*
X140000Y26000D02*
Y28000D01*
X124000Y342000D02*
X126000D01*
X125000Y341000D02*
Y343000D01*
X124000Y72000D02*
X126000D01*
X125000Y71000D02*
Y73000D01*
X124000Y57000D02*
X126000D01*
X125000Y56000D02*
Y58000D01*
X124000Y27000D02*
X126000D01*
X125000Y26000D02*
Y28000D01*
X109000Y372000D02*
X111000D01*
X110000Y371000D02*
Y373000D01*
X94000Y372000D02*
X96000D01*
X95000Y371000D02*
Y373000D01*
X79000Y372000D02*
X81000D01*
X80000Y371000D02*
Y373000D01*
X79000Y267000D02*
X81000D01*
X80000Y266000D02*
Y268000D01*
X79000Y252000D02*
X81000D01*
X80000Y251000D02*
Y253000D01*
X79000Y237000D02*
X81000D01*
X80000Y236000D02*
Y238000D01*
X79000Y222000D02*
X81000D01*
X80000Y221000D02*
Y223000D01*
X64000Y372000D02*
X66000D01*
X65000Y371000D02*
Y373000D01*
X64000Y342000D02*
X66000D01*
X65000Y341000D02*
Y343000D01*
X64000Y252000D02*
X66000D01*
X65000Y251000D02*
Y253000D01*
X64000Y222000D02*
X66000D01*
X65000Y221000D02*
Y223000D01*
X49000Y12000D02*
X51000D01*
X50000Y11000D02*
Y13000D01*
X34000Y447000D02*
X36000D01*
X35000Y446000D02*
Y448000D01*
X34000Y432000D02*
X36000D01*
X35000Y431000D02*
Y433000D01*
X34000Y417000D02*
X36000D01*
X35000Y416000D02*
Y418000D01*
X34000Y402000D02*
X36000D01*
X35000Y401000D02*
Y403000D01*
X34000Y387000D02*
X36000D01*
X35000Y386000D02*
Y388000D01*
X34000Y342000D02*
X36000D01*
X35000Y341000D02*
Y343000D01*
X34000Y42000D02*
X36000D01*
X35000Y41000D02*
Y43000D01*
X34000Y27000D02*
X36000D01*
X35000Y26000D02*
Y28000D01*
X34000Y12000D02*
X36000D01*
X35000Y11000D02*
Y13000D01*
X19000Y447000D02*
X21000D01*
X20000Y446000D02*
Y448000D01*
X19000Y432000D02*
X21000D01*
X20000Y431000D02*
Y433000D01*
X19000Y417000D02*
X21000D01*
X20000Y416000D02*
Y418000D01*
X19000Y402000D02*
X21000D01*
X20000Y401000D02*
Y403000D01*
X19000Y387000D02*
X21000D01*
X20000Y386000D02*
Y388000D01*
X19000Y312000D02*
X21000D01*
X20000Y311000D02*
Y313000D01*
X19000Y42000D02*
X21000D01*
X20000Y41000D02*
Y43000D01*
X19000Y27000D02*
X21000D01*
X20000Y26000D02*
Y28000D01*
X19000Y12000D02*
X21000D01*
X20000Y11000D02*
Y13000D01*
X4000Y447000D02*
X6000D01*
X5000Y446000D02*
Y448000D01*
X4000Y432000D02*
X6000D01*
X5000Y431000D02*
Y433000D01*
X4000Y417000D02*
X6000D01*
X5000Y416000D02*
Y418000D01*
X4000Y402000D02*
X6000D01*
X5000Y401000D02*
Y403000D01*
X4000Y387000D02*
X6000D01*
X5000Y386000D02*
Y388000D01*
X4000Y342000D02*
X6000D01*
X5000Y341000D02*
Y343000D01*
X4000Y252000D02*
X6000D01*
X5000Y251000D02*
Y253000D01*
X4000Y222000D02*
X6000D01*
X5000Y221000D02*
Y223000D01*
X4000Y207000D02*
X6000D01*
X5000Y206000D02*
Y208000D01*
X4000Y177000D02*
X6000D01*
X5000Y176000D02*
Y178000D01*
X4000Y102000D02*
X6000D01*
X5000Y101000D02*
Y103000D01*
X4000Y57000D02*
X6000D01*
X5000Y56000D02*
Y58000D01*
X4000Y42000D02*
X6000D01*
X5000Y41000D02*
Y43000D01*
X4000Y27000D02*
X6000D01*
X5000Y26000D02*
Y28000D01*
X4000Y12000D02*
X6000D01*
X5000Y11000D02*
Y13000D01*
X45000Y152000D02*
X47000D01*
X46000Y151000D02*
Y153000D01*
X10000Y178000D02*
X12000D01*
X11000Y177000D02*
Y179000D01*
X73000Y79000D02*
X75000D01*
X74000Y78000D02*
Y80000D01*
X73125Y53875D02*
X75125D01*
X74125Y52875D02*
Y54875D01*
X73000Y29000D02*
X75000D01*
X74000Y28000D02*
Y30000D01*
X138000Y400000D02*
X140000D01*
X139000Y399000D02*
Y401000D01*
X217000Y401000D02*
X219000D01*
X218000Y400000D02*
Y402000D01*
X227000Y360918D02*
X229000D01*
X228000Y359918D02*
Y361918D01*
X234000Y385000D02*
X236000D01*
X235000Y384000D02*
Y386000D01*
X220000Y374000D02*
X222000D01*
X221000Y373000D02*
Y375000D01*
X208000Y265000D02*
X210000D01*
X209000Y264000D02*
Y266000D01*
X57000Y187000D02*
X59000D01*
X58000Y186000D02*
Y188000D01*
X199000Y151000D02*
X201000D01*
X200000Y150000D02*
Y152000D01*
X199000Y176000D02*
X201000D01*
X200000Y175000D02*
Y177000D01*
X190000Y143000D02*
X192000D01*
X191000Y142000D02*
Y144000D01*
X69000Y142000D02*
X71000D01*
X70000Y141000D02*
Y143000D01*
X175000Y145000D02*
X177000D01*
X176000Y144000D02*
Y146000D01*
X51000Y276929D02*
X53000D01*
X52000Y275929D02*
Y277929D01*
X257000Y350000D02*
X259000D01*
X258000Y349000D02*
Y351000D01*
X249000Y350000D02*
X251000D01*
X250000Y349000D02*
Y351000D01*
X257000Y357000D02*
X259000D01*
X258000Y356000D02*
Y358000D01*
X249000Y357000D02*
X251000D01*
X250000Y356000D02*
Y358000D01*
X97000Y151000D02*
X99000D01*
X98000Y150000D02*
Y152000D01*
X97000Y203000D02*
X99000D01*
X98000Y202000D02*
Y204000D01*
X96000Y255000D02*
X98000D01*
X97000Y254000D02*
Y256000D01*
X121000Y228000D02*
X123000D01*
X122000Y227000D02*
Y229000D01*
X121000Y177000D02*
X123000D01*
X122000Y176000D02*
Y178000D01*
X195000Y356000D02*
X197000D01*
X196000Y355000D02*
Y357000D01*
X196000Y364000D02*
X198000D01*
X197000Y363000D02*
Y365000D01*
X144000Y364000D02*
X146000D01*
X145000Y363000D02*
Y365000D01*
X196000Y370000D02*
X198000D01*
X197000Y369000D02*
Y371000D01*
X207000Y376000D02*
X209000D01*
X208000Y375000D02*
Y377000D01*
X177000Y376000D02*
X179000D01*
X178000Y375000D02*
Y377000D01*
X183000Y392000D02*
X185000D01*
X184000Y391000D02*
Y393000D01*
X239000Y377000D02*
X241000D01*
X240000Y376000D02*
Y378000D01*
X243000Y387000D02*
X245000D01*
X244000Y386000D02*
Y388000D01*
X171000Y392000D02*
X173000D01*
X172000Y391000D02*
Y393000D01*
X138000Y343000D02*
X140000D01*
X139000Y342000D02*
Y344000D01*
X141000Y334000D02*
X143000D01*
X142000Y333000D02*
Y335000D01*
X154000Y401000D02*
X156000D01*
X155000Y400000D02*
Y402000D01*
X98656Y401344D02*
X100656D01*
X99656Y400344D02*
Y402344D01*
X91875Y401125D02*
X93875D01*
X92875Y400125D02*
Y402125D01*
X79000Y398000D02*
X81000D01*
X80000Y397000D02*
Y399000D01*
X70000Y400000D02*
X72000D01*
X71000Y399000D02*
Y401000D01*
X118875Y401125D02*
X120875D01*
X119875Y400125D02*
Y402125D01*
X111000Y401000D02*
X113000D01*
X112000Y400000D02*
Y402000D01*
X223000Y400000D02*
X225000D01*
X224000Y399000D02*
Y401000D01*
X227000Y387000D02*
X229000D01*
X228000Y386000D02*
Y388000D01*
X229000Y405000D02*
X231000D01*
X230000Y404000D02*
Y406000D01*
X236000Y413000D02*
X238000D01*
X237000Y412000D02*
Y414000D01*
X247000D02*
X249000D01*
X248000Y413000D02*
Y415000D01*
X53000Y24000D02*
X55000D01*
X54000Y23000D02*
Y25000D01*
X76000Y11000D02*
X78000D01*
X77000Y10000D02*
Y12000D01*
X68000Y17000D02*
X70000D01*
X69000Y16000D02*
Y18000D01*
X51000Y111000D02*
X53000D01*
X52000Y110000D02*
Y112000D01*
X143000Y109000D02*
X145000D01*
X144000Y108000D02*
Y110000D01*
X70500Y108500D02*
X72500D01*
X71500Y107500D02*
Y109500D01*
X168000Y117000D02*
X170000D01*
X169000Y116000D02*
Y118000D01*
X69000Y117000D02*
X71000D01*
X70000Y116000D02*
Y118000D01*
X149000Y127000D02*
X151000D01*
X150000Y126000D02*
Y128000D01*
X69005Y126995D02*
X71005D01*
X70005Y125995D02*
Y127995D01*
X56000Y128000D02*
X58000D01*
X57000Y127000D02*
Y129000D01*
X63000Y134000D02*
X65000D01*
X64000Y133000D02*
Y135000D01*
X50000Y72000D02*
X52000D01*
X51000Y71000D02*
Y73000D01*
X62000Y23000D02*
X64000D01*
X63000Y22000D02*
Y24000D01*
X30000Y146000D02*
X32000D01*
X31000Y145000D02*
Y147000D01*
X105000Y329000D02*
X107000D01*
X106000Y328000D02*
Y330000D01*
X62000Y144000D02*
X64000D01*
X63000Y143000D02*
Y145000D01*
X54000Y144000D02*
X56000D01*
X55000Y143000D02*
Y145000D01*
X96000Y329000D02*
X98000D01*
X97000Y328000D02*
Y330000D01*
X78000Y329125D02*
X80000D01*
X79000Y328125D02*
Y330125D01*
X69000Y329487D02*
X71000D01*
X70000Y328487D02*
Y330487D01*
M02*
