G04*
G04 #@! TF.GenerationSoftware,Altium Limited,Altium Designer,24.9.1 (31)*
G04*
G04 Layer_Color=16711935*
%FSLAX44Y44*%
%MOMM*%
G71*
G04*
G04 #@! TF.SameCoordinates,B31CAF09-BB74-4FAA-89E9-8BE817FA7118*
G04*
G04*
G04 #@! TF.FilePolarity,Negative*
G04*
G01*
G75*
%ADD10C,4.2032*%
%ADD21R,0.2300X0.7000*%
%ADD22R,0.7000X0.2300*%
%ADD24R,1.1000X0.6000*%
%ADD27R,0.6000X1.1000*%
G04:AMPARAMS|DCode=31|XSize=1.5mm|YSize=0.4mm|CornerRadius=0.1mm|HoleSize=0mm|Usage=FLASHONLY|Rotation=90.000|XOffset=0mm|YOffset=0mm|HoleType=Round|Shape=RoundedRectangle|*
%AMROUNDEDRECTD31*
21,1,1.5000,0.2000,0,0,90.0*
21,1,1.3000,0.4000,0,0,90.0*
1,1,0.2000,0.1000,0.6500*
1,1,0.2000,0.1000,-0.6500*
1,1,0.2000,-0.1000,-0.6500*
1,1,0.2000,-0.1000,0.6500*
%
%ADD31ROUNDEDRECTD31*%
G04:AMPARAMS|DCode=33|XSize=0.75mm|YSize=0.7mm|CornerRadius=0.2mm|HoleSize=0mm|Usage=FLASHONLY|Rotation=270.000|XOffset=0mm|YOffset=0mm|HoleType=Round|Shape=RoundedRectangle|*
%AMROUNDEDRECTD33*
21,1,0.7500,0.3000,0,0,270.0*
21,1,0.3500,0.7000,0,0,270.0*
1,1,0.4000,-0.1500,-0.1750*
1,1,0.4000,-0.1500,0.1750*
1,1,0.4000,0.1500,0.1750*
1,1,0.4000,0.1500,-0.1750*
%
%ADD33ROUNDEDRECTD33*%
G04:AMPARAMS|DCode=34|XSize=1.0032mm|YSize=0.8032mm|CornerRadius=0.2516mm|HoleSize=0mm|Usage=FLASHONLY|Rotation=90.000|XOffset=0mm|YOffset=0mm|HoleType=Round|Shape=RoundedRectangle|*
%AMROUNDEDRECTD34*
21,1,1.0032,0.3000,0,0,90.0*
21,1,0.5000,0.8032,0,0,90.0*
1,1,0.5032,0.1500,0.2500*
1,1,0.5032,0.1500,-0.2500*
1,1,0.5032,-0.1500,-0.2500*
1,1,0.5032,-0.1500,0.2500*
%
%ADD34ROUNDEDRECTD34*%
%ADD35R,0.8532X1.0532*%
G04:AMPARAMS|DCode=36|XSize=0.75mm|YSize=0.7mm|CornerRadius=0.2mm|HoleSize=0mm|Usage=FLASHONLY|Rotation=180.000|XOffset=0mm|YOffset=0mm|HoleType=Round|Shape=RoundedRectangle|*
%AMROUNDEDRECTD36*
21,1,0.7500,0.3000,0,0,180.0*
21,1,0.3500,0.7000,0,0,180.0*
1,1,0.4000,-0.1750,0.1500*
1,1,0.4000,0.1750,0.1500*
1,1,0.4000,0.1750,-0.1500*
1,1,0.4000,-0.1750,-0.1500*
%
%ADD36ROUNDEDRECTD36*%
G04:AMPARAMS|DCode=37|XSize=1.3032mm|YSize=1.2032mm|CornerRadius=0.3516mm|HoleSize=0mm|Usage=FLASHONLY|Rotation=180.000|XOffset=0mm|YOffset=0mm|HoleType=Round|Shape=RoundedRectangle|*
%AMROUNDEDRECTD37*
21,1,1.3032,0.5000,0,0,180.0*
21,1,0.6000,1.2032,0,0,180.0*
1,1,0.7032,-0.3000,0.2500*
1,1,0.7032,0.3000,0.2500*
1,1,0.7032,0.3000,-0.2500*
1,1,0.7032,-0.3000,-0.2500*
%
%ADD37ROUNDEDRECTD37*%
G04:AMPARAMS|DCode=38|XSize=1.3032mm|YSize=1.2032mm|CornerRadius=0.3516mm|HoleSize=0mm|Usage=FLASHONLY|Rotation=270.000|XOffset=0mm|YOffset=0mm|HoleType=Round|Shape=RoundedRectangle|*
%AMROUNDEDRECTD38*
21,1,1.3032,0.5000,0,0,270.0*
21,1,0.6000,1.2032,0,0,270.0*
1,1,0.7032,-0.2500,-0.3000*
1,1,0.7032,-0.2500,0.3000*
1,1,0.7032,0.2500,0.3000*
1,1,0.7032,0.2500,-0.3000*
%
%ADD38ROUNDEDRECTD38*%
G04:AMPARAMS|DCode=39|XSize=0.5032mm|YSize=0.8632mm|CornerRadius=0.1766mm|HoleSize=0mm|Usage=FLASHONLY|Rotation=270.000|XOffset=0mm|YOffset=0mm|HoleType=Round|Shape=RoundedRectangle|*
%AMROUNDEDRECTD39*
21,1,0.5032,0.5100,0,0,270.0*
21,1,0.1500,0.8632,0,0,270.0*
1,1,0.3532,-0.2550,-0.0750*
1,1,0.3532,-0.2550,0.0750*
1,1,0.3532,0.2550,0.0750*
1,1,0.3532,0.2550,-0.0750*
%
%ADD39ROUNDEDRECTD39*%
G04:AMPARAMS|DCode=40|XSize=1.7032mm|YSize=0.6532mm|CornerRadius=0.2141mm|HoleSize=0mm|Usage=FLASHONLY|Rotation=90.000|XOffset=0mm|YOffset=0mm|HoleType=Round|Shape=RoundedRectangle|*
%AMROUNDEDRECTD40*
21,1,1.7032,0.2250,0,0,90.0*
21,1,1.2750,0.6532,0,0,90.0*
1,1,0.4282,0.1125,0.6375*
1,1,0.4282,0.1125,-0.6375*
1,1,0.4282,-0.1125,-0.6375*
1,1,0.4282,-0.1125,0.6375*
%
%ADD40ROUNDEDRECTD40*%
D10*
X215000Y439000D02*
D03*
X25000Y364000D02*
D03*
Y75000D02*
D03*
X215000Y50000D02*
D03*
D21*
X208000Y366450D02*
D03*
Y393550D02*
D03*
X212000Y366450D02*
D03*
Y393550D02*
D03*
X216000Y366450D02*
D03*
Y393550D02*
D03*
X220000Y366450D02*
D03*
Y393550D02*
D03*
X224000Y366450D02*
D03*
Y393550D02*
D03*
X228000Y366450D02*
D03*
Y393550D02*
D03*
X232000Y366450D02*
D03*
Y393550D02*
D03*
X236000Y366450D02*
D03*
Y393550D02*
D03*
X240000Y366450D02*
D03*
Y393550D02*
D03*
X244000Y366450D02*
D03*
Y393550D02*
D03*
X248000Y366450D02*
D03*
Y393550D02*
D03*
X252000Y366450D02*
D03*
Y393550D02*
D03*
D22*
X10450Y162000D02*
D03*
X37550D02*
D03*
X10450Y158000D02*
D03*
X37550D02*
D03*
X10450Y154000D02*
D03*
X37550D02*
D03*
X10450Y150000D02*
D03*
X37550D02*
D03*
X10450Y146000D02*
D03*
X37550D02*
D03*
X10450Y142000D02*
D03*
X37550D02*
D03*
X10450Y138000D02*
D03*
X37550D02*
D03*
X10450Y134000D02*
D03*
X37550D02*
D03*
X10450Y130000D02*
D03*
X37550D02*
D03*
X10450Y126000D02*
D03*
X37550D02*
D03*
X10450Y122000D02*
D03*
X37550D02*
D03*
X10450Y118000D02*
D03*
X37550D02*
D03*
D24*
X97000Y228500D02*
D03*
Y219000D02*
D03*
Y209500D02*
D03*
X71000D02*
D03*
Y228500D02*
D03*
X72000Y176500D02*
D03*
Y157500D02*
D03*
X98000D02*
D03*
Y167000D02*
D03*
Y176500D02*
D03*
X71000Y280500D02*
D03*
Y261500D02*
D03*
X97000D02*
D03*
Y271000D02*
D03*
Y280500D02*
D03*
D27*
X28500Y289000D02*
D03*
X19000D02*
D03*
X9500D02*
D03*
Y315000D02*
D03*
X28500D02*
D03*
X12500Y203000D02*
D03*
X31500D02*
D03*
Y229000D02*
D03*
X22000D02*
D03*
X12500D02*
D03*
D31*
X125250Y412000D02*
D03*
X118750D02*
D03*
X112250D02*
D03*
X105750D02*
D03*
X99250D02*
D03*
X92750D02*
D03*
X86250D02*
D03*
X79750D02*
D03*
X73250D02*
D03*
X66750D02*
D03*
X66750Y354000D02*
D03*
X73250D02*
D03*
X79750D02*
D03*
X86250D02*
D03*
X92750D02*
D03*
X99250D02*
D03*
X105750D02*
D03*
X112250D02*
D03*
X118750D02*
D03*
X125250D02*
D03*
D33*
X205000Y320750D02*
D03*
Y331250D02*
D03*
X194000Y320750D02*
D03*
Y331250D02*
D03*
X70000Y323250D02*
D03*
Y312750D02*
D03*
X79000D02*
D03*
Y323250D02*
D03*
X88000Y312750D02*
D03*
Y323250D02*
D03*
X97000Y312750D02*
D03*
Y323250D02*
D03*
X106000D02*
D03*
Y312750D02*
D03*
X79000Y142250D02*
D03*
Y131750D02*
D03*
X123000Y123250D02*
D03*
Y112750D02*
D03*
X79000Y114250D02*
D03*
Y103750D02*
D03*
Y89250D02*
D03*
Y78750D02*
D03*
Y53750D02*
D03*
Y64250D02*
D03*
Y28750D02*
D03*
Y39250D02*
D03*
X191000Y158750D02*
D03*
Y169250D02*
D03*
X200000D02*
D03*
Y158750D02*
D03*
X209000Y169250D02*
D03*
Y158750D02*
D03*
Y281250D02*
D03*
Y270750D02*
D03*
X115000Y323250D02*
D03*
Y312750D02*
D03*
X121000Y443750D02*
D03*
Y454250D02*
D03*
X94000Y454250D02*
D03*
Y443750D02*
D03*
X58000Y443750D02*
D03*
Y454250D02*
D03*
X76000D02*
D03*
Y443750D02*
D03*
X85000Y454250D02*
D03*
Y443750D02*
D03*
X67000D02*
D03*
Y454250D02*
D03*
X103000Y443750D02*
D03*
Y454250D02*
D03*
X130000Y443750D02*
D03*
Y454250D02*
D03*
X112000Y454250D02*
D03*
Y443750D02*
D03*
X136000Y417250D02*
D03*
Y406750D02*
D03*
D34*
X62000Y56000D02*
D03*
X52000D02*
D03*
X62000Y41000D02*
D03*
X52000D02*
D03*
D35*
X109250Y140750D02*
D03*
X92750D02*
D03*
Y125250D02*
D03*
X109250D02*
D03*
D36*
X37250Y259000D02*
D03*
X26750D02*
D03*
X17250D02*
D03*
X6750D02*
D03*
X102750Y246000D02*
D03*
X113250D02*
D03*
X114250Y194000D02*
D03*
X103750D02*
D03*
X113250Y298000D02*
D03*
X102750D02*
D03*
D37*
X12500Y274000D02*
D03*
X29500D02*
D03*
Y330000D02*
D03*
X12500D02*
D03*
X71500Y244000D02*
D03*
X88500D02*
D03*
X11500D02*
D03*
X28500D02*
D03*
Y188000D02*
D03*
X11500D02*
D03*
X89500Y192000D02*
D03*
X72500D02*
D03*
X71500Y296000D02*
D03*
X88500D02*
D03*
D38*
X112000Y226500D02*
D03*
Y209500D02*
D03*
X113000Y157500D02*
D03*
Y174500D02*
D03*
X112000Y261500D02*
D03*
Y278500D02*
D03*
D39*
X90800Y110500D02*
D03*
Y104000D02*
D03*
Y97500D02*
D03*
X109200Y110500D02*
D03*
Y104000D02*
D03*
Y97500D02*
D03*
X90800Y85500D02*
D03*
Y79000D02*
D03*
Y72500D02*
D03*
X109200Y85500D02*
D03*
Y79000D02*
D03*
Y72500D02*
D03*
X90800Y60500D02*
D03*
Y54000D02*
D03*
Y47500D02*
D03*
X109200Y60500D02*
D03*
Y54000D02*
D03*
Y47500D02*
D03*
X90800Y35500D02*
D03*
Y29000D02*
D03*
Y22500D02*
D03*
X109200Y35500D02*
D03*
Y29000D02*
D03*
Y22500D02*
D03*
D40*
X202250Y193000D02*
D03*
X195750D02*
D03*
X189250D02*
D03*
X182750D02*
D03*
X176250D02*
D03*
X169750D02*
D03*
X163250D02*
D03*
X156750D02*
D03*
X150250D02*
D03*
X143750D02*
D03*
X137250D02*
D03*
Y251000D02*
D03*
X143750D02*
D03*
X150250D02*
D03*
X156750D02*
D03*
X163250D02*
D03*
X169750D02*
D03*
X176250D02*
D03*
X182750D02*
D03*
X189250D02*
D03*
X195750D02*
D03*
X202250D02*
D03*
X208750D02*
D03*
Y193000D02*
D03*
M02*
